<svg width="48" height="52" viewBox="0 0 48 52" fill="none" xmlns="http://www.w3.org/2000/svg">
<path d="M4.99563 35.1134H10.9931C11.5451 35.1134 11.992 34.6666 11.992 34.1146C11.992 33.5627 11.5451 33.1143 10.9931 33.1143H4.99563C4.4437 33.1143 3.99683 33.5627 3.99683 34.1146C3.99683 34.6666 4.4437 35.1134 4.99563 35.1134Z" fill="black"/>
<path d="M4.99563 31.1166H12.9923C13.5443 31.1166 13.9911 30.6682 13.9911 30.1162C13.9911 29.5643 13.5443 29.1174 12.9923 29.1174H4.99563C4.4437 29.1174 3.99683 29.5643 3.99683 30.1162C3.99683 30.6682 4.4437 31.1166 4.99563 31.1166Z" fill="black"/>
<path d="M4.99563 27.1183H13.9911C14.5431 27.1183 14.9915 26.6714 14.9915 26.1195C14.9915 25.5676 14.5431 25.1191 13.9911 25.1191H4.99563C4.4437 25.1191 3.99683 25.5676 3.99683 26.1195C3.99683 26.6714 4.4437 27.1183 4.99563 27.1183Z" fill="black"/>
<path d="M4.99563 23.1217H9.99278C10.5447 23.1217 10.9931 22.6733 10.9931 22.1214C10.9931 21.5694 10.5447 21.1226 9.99278 21.1226H4.99563C4.4437 21.1226 3.99683 21.5694 3.99683 22.1214C3.99683 22.6733 4.4437 23.1217 4.99563 23.1217Z" fill="black"/>
<path d="M4.99563 39.1369H13.9911C14.5431 39.1369 14.9915 38.6884 14.9915 38.1365C14.9915 37.5846 14.5431 37.1377 13.9911 37.1377H4.99563C4.4437 37.1377 3.99683 37.5846 3.99683 38.1365C3.99683 38.6884 4.4437 39.1369 4.99563 39.1369Z" fill="black"/>
<path d="M4.99563 43.1337H15.9903C16.5422 43.1337 16.9891 42.6868 16.9891 42.1349C16.9891 41.583 16.5422 41.1345 15.9903 41.1345H4.99563C4.4437 41.1345 3.99683 41.583 3.99683 42.1349C3.99683 42.6868 4.4437 43.1337 4.99563 43.1337Z" fill="black"/>
<path d="M25.9846 45.1328H4.99563C4.4437 45.1328 3.99683 45.5797 3.99683 46.1316C3.99683 46.6835 4.4437 47.1304 4.99563 47.1304H25.9846C26.5365 47.1304 26.985 46.6835 26.985 46.1316C26.985 45.5797 26.5365 45.1328 25.9846 45.1328Z" fill="black"/>
<path d="M5.99598 14.1151H20.9874C21.5394 14.1151 21.9878 13.6667 21.9878 13.1148V6.12C21.9878 5.56807 21.5394 5.11963 20.9874 5.11963H5.99598C5.44405 5.11963 4.99561 5.56807 4.99561 6.12V13.1148C4.99561 13.6667 5.44405 14.1151 5.99598 14.1151ZM6.99478 7.1188H19.9886V12.116H6.99478V7.1188Z" fill="black"/>
<path d="M22.2073 26.3358C19.2532 29.2899 19.2532 34.0958 22.2073 37.0498C25.1613 40.0039 29.9687 40.0039 32.9228 37.0498C35.88 34.0926 35.88 29.293 32.9228 26.3358C29.9656 23.3786 25.1645 23.3786 22.2073 26.3358ZM31.5085 35.6371C29.3337 37.8103 25.7948 37.8119 23.62 35.6371C21.4452 33.4623 21.4452 29.9234 23.62 27.7486C24.6721 26.698 26.0723 26.1179 27.565 26.1179C30.6508 26.1179 33.1392 28.6063 33.1392 31.692C33.1392 33.1848 32.5606 34.585 31.5085 35.6371Z" fill="black"/>
<mask id="mask0_161_738" style="mask-type:luminance" maskUnits="userSpaceOnUse" x="0" y="0" width="48" height="52">
<path d="M0 0H47.1758V51.3795H0V0Z" fill="white"/>
</mask>
<g mask="url(#mask0_161_738)">
<path d="M46.1003 45.9857L39.9898 39.8769C39.5994 39.4864 38.966 39.4864 38.5755 39.8769L37.8699 40.5824L36.4258 39.1383C38.6633 36.4806 39.5147 33.0452 38.9785 29.7947C38.9769 11.9747 38.9863 13.0691 38.9597 12.928C38.9205 12.7273 38.8217 12.5454 38.6853 12.4074C25.8937 -0.376303 26.6667 0.351239 26.4456 0.235209C26.3124 0.166217 26.1493 0.122314 25.9847 0.122314H3.99688C1.7923 0.122314 -0.00146484 1.91608 -0.00146484 4.12066V47.1068C-0.00146484 49.3098 1.7923 51.1036 3.99688 51.1036H34.9801C37.1063 51.1036 38.8499 49.4353 38.9707 47.3373L41.8589 50.2255C43.0286 51.3952 44.9305 51.3952 46.1003 50.2255C47.2684 49.0574 47.2684 47.1554 46.1003 45.9857ZM34.3357 38.4625C30.6024 42.1959 24.528 42.1959 20.7946 38.4625C17.0597 34.7292 17.0597 28.6548 20.7946 24.923C24.528 21.1897 30.6024 21.1897 34.3357 24.923C38.0691 28.6548 38.0691 34.7292 34.3357 38.4625ZM26.985 3.5358L35.565 12.1158H26.985V3.5358ZM36.9793 47.1068C36.9793 48.2075 36.0824 49.1044 34.9801 49.1044H3.99688C2.89459 49.1044 1.99771 48.2075 1.99771 47.1068V4.12066C1.99771 3.01837 2.89459 2.12149 3.99688 2.12149H24.9858V13.1146C24.9858 13.6665 25.4327 14.115 25.9847 14.115H36.9793V24.9591C32.796 19.1184 24.3979 18.4928 19.3803 23.5087C14.8677 28.0214 14.8677 35.3642 19.3803 39.8769C23.6327 44.1276 30.444 44.3973 35.0115 40.5527L36.4556 41.9968L35.75 42.7024C35.3596 43.0928 35.3596 43.7262 35.75 44.1167L36.9793 45.346V47.1068ZM44.6859 48.8128C44.2971 49.2016 43.662 49.2016 43.2732 48.8128L37.8699 43.4095C38.0079 43.2715 37.6206 43.6588 39.2827 41.9968L44.6859 47.3984C45.0764 47.7889 45.0764 48.4223 44.6859 48.8128Z" fill="black"/>
</g>
</svg>
