<svg width="141" height="120" viewBox="0 0 141 120" fill="none" xmlns="http://www.w3.org/2000/svg">
<mask id="mask0_144_541" style="mask-type:luminance" maskUnits="userSpaceOnUse" x="37" y="51" width="67" height="69">
<path d="M37.2322 51.0119H103.899V120H37.2322V51.0119Z" fill="white"/>
</mask>
<g mask="url(#mask0_144_541)">
<path fill-rule="evenodd" clip-rule="evenodd" d="M92.7604 81.808C92.7604 69.4531 82.7306 59.4345 70.3571 59.4345C57.9874 59.4345 47.9576 69.4531 47.9576 81.808C47.9576 94.1666 57.9874 104.181 70.3571 104.181C82.7306 104.181 92.7604 94.1666 92.7604 81.808ZM69.7731 119.647C46.4583 108.222 35.6771 89.5684 37.4293 63.6904C37.4591 63.2663 37.66 62.9166 38.0134 62.6823C59.5759 48.2254 81.1384 48.2254 102.701 62.6823C103.054 62.9166 103.255 63.2663 103.285 63.6904C105.037 89.5684 94.2559 108.222 70.9412 119.647C70.5618 119.833 70.1563 119.833 69.7731 119.647ZM74.2857 80.651C73.9621 80.9189 73.8207 81.3058 73.8876 81.7187L75.7292 92.4851C75.785 92.8273 75.6994 93.1473 75.4762 93.4114C75.253 93.6793 74.9516 93.8169 74.6057 93.8169H66.1161C65.7701 93.8169 65.4688 93.6793 65.2455 93.4114C65.0186 93.1473 64.933 92.831 64.9888 92.4851L66.8266 81.7187C66.8973 81.3058 66.7522 80.9189 66.4323 80.651C65.0781 79.5275 64.2188 77.8311 64.2188 75.9337C64.2188 72.5483 66.968 69.7991 70.3609 69.7991C73.75 69.7991 76.503 72.5483 76.503 75.9337C76.4993 77.8311 75.6399 79.5275 74.2857 80.651Z" fill="black"/>
</g>
<mask id="mask1_144_541" style="mask-type:luminance" maskUnits="userSpaceOnUse" x="0" y="0" width="141" height="84">
<path d="M0 0H140.714V83.3928H0V0Z" fill="white"/>
</mask>
<g mask="url(#mask1_144_541)">
<path fill-rule="evenodd" clip-rule="evenodd" d="M42.8682 29.1035C43.9322 29.5834 44.4084 30.8371 43.9285 31.8974C43.4486 32.9613 42.1948 33.4375 41.1309 32.9576C39.2819 32.128 37.3288 31.4807 35.3012 31.0491C33.337 30.625 31.2797 30.4055 29.1666 30.4055C21.1048 30.4055 13.8057 33.6719 8.52298 38.9435C3.24024 44.2225 -0.026123 51.5104 -0.026123 59.561C-0.026123 63.5603 0.777448 67.3661 2.22834 70.8296C3.73876 74.4271 5.94858 77.6563 8.68667 80.3497C9.45676 81.1049 10.2975 81.6704 11.2015 82.0424C12.0981 82.407 13.0877 82.5893 14.1777 82.5893H34.267C33.0579 76.6481 32.6785 70.2493 33.1435 63.404C33.2626 61.6555 34.1628 60.0967 35.6212 59.1183C58.6346 43.6942 82.0869 43.6942 105.097 59.1183C106.555 60.0967 107.455 61.6555 107.574 63.404C108.036 70.2493 107.66 76.6481 106.451 82.5893H130.636C132.158 82.5893 133.564 82.1949 134.754 81.4658C135.945 80.7329 136.934 79.6578 137.619 78.3073C138.627 76.3133 139.416 74.1778 139.951 71.9308C140.469 69.7619 140.744 67.4926 140.744 65.16C140.744 57.1094 137.474 49.8215 132.195 44.5462C126.912 39.2671 119.613 36.0045 111.551 36.0045C111.086 36.0045 110.77 36.0082 110.603 36.0157C110.353 36.0231 110.033 36.038 109.654 36.064C108.486 36.1347 107.481 35.2493 107.411 34.0849C107.34 32.9204 108.225 31.9197 109.39 31.8453C109.68 31.8267 110.041 31.8118 110.469 31.7969C110.975 31.782 111.335 31.7746 111.551 31.7746C116.778 31.7746 121.722 32.9725 126.131 35.1079C125.238 28.6161 122.21 22.8051 117.768 18.4003C112.496 13.1734 105.231 9.94424 97.2022 9.94424C94.8808 9.94424 92.6226 10.2121 90.4686 10.7218C89.0326 11.0603 87.645 11.4993 86.3131 12.035C87.8198 14.5052 89.014 17.1875 89.8399 20.0224C90.1636 21.1422 89.52 22.3103 88.4002 22.634C87.2804 22.9576 86.1085 22.314 85.7848 21.198C83.9954 15.0633 80.2417 9.76195 75.2454 6.01939C70.3756 2.37728 64.3191 0.21582 57.7491 0.21582C49.8436 0.21582 42.6785 3.34826 37.4292 8.4301C32.671 13.0395 29.4791 19.2448 28.7239 26.1793L29.1666 26.1756C31.5624 26.1756 33.9099 26.4323 36.1792 26.916C38.5118 27.4107 40.7514 28.1511 42.8682 29.1035Z" fill="black"/>
</g>
</svg>
