<svg width="52" height="53" viewBox="0 0 52 53" fill="none" xmlns="http://www.w3.org/2000/svg">
<mask id="mask0_161_739" style="mask-type:luminance" maskUnits="userSpaceOnUse" x="0" y="0" width="52" height="53">
<path d="M0 0H51.9998V52.342H0V0Z" fill="white"/>
</mask>
<g mask="url(#mask0_161_739)">
<path d="M25.7002 13.28C18.3236 13.28 12.3225 19.2757 12.3225 26.6452C12.3225 34.0147 18.3236 40.0104 25.7002 40.0104C33.0769 40.0104 39.0797 34.0147 39.0797 26.6452C39.0797 19.2757 33.0769 13.28 25.7002 13.28ZM18.6069 35.9782C20.182 33.6049 22.8405 32.1563 25.7002 32.1563C28.56 32.1563 31.2185 33.6049 32.7953 35.9782C30.8229 37.4785 28.364 38.3694 25.7002 38.3694C23.0365 38.3694 20.5776 37.4785 18.6069 35.9782ZM21.4774 25.8113C21.4774 23.4843 23.3732 21.5938 25.7002 21.5938C28.029 21.5938 29.9231 23.4843 29.9231 25.8113C29.9231 28.1365 28.029 30.0288 25.7002 30.0288C23.3732 30.0288 21.4774 28.1365 21.4774 25.8113ZM34.039 34.886C32.7009 32.9652 30.757 31.5772 28.5529 30.9286C30.3489 29.9255 31.5659 28.0083 31.5659 25.8113C31.5659 22.5809 28.9342 19.9528 25.7002 19.9528C22.4663 19.9528 19.8364 22.5809 19.8364 25.8113C19.8364 28.0083 21.0533 29.9255 22.8494 30.9286C20.6453 31.5772 18.6996 32.9652 17.3615 34.886C15.2625 32.7674 13.9654 29.856 13.9654 26.6452C13.9654 20.1808 19.2288 14.921 25.7002 14.921C32.1717 14.921 37.4369 20.1808 37.4369 26.6452C37.4369 29.856 36.138 32.7674 34.039 34.886ZM10.5354 44.1638C10.5354 44.6164 10.1666 44.9834 9.71399 44.9834H4.91919C4.46661 44.9834 4.09778 44.6164 4.09778 44.1638C4.09778 43.7094 4.46661 43.3424 4.91919 43.3424H9.71399C10.1666 43.3424 10.5354 43.7094 10.5354 44.1638ZM10.5354 40.9102C10.5354 41.3628 10.1666 41.7298 9.71399 41.7298H4.91919C4.46661 41.7298 4.09778 41.3628 4.09778 40.9102C4.09778 40.4559 4.46661 40.0888 4.91919 40.0888H9.71399C10.1666 40.0888 10.5354 40.4559 10.5354 40.9102ZM10.5354 47.4173C10.5354 47.8699 10.1666 48.237 9.71399 48.237H4.91919C4.46661 48.237 4.09778 47.8699 4.09778 47.4173C4.09778 46.9648 4.46661 46.5959 4.91919 46.5959H9.71399C10.1666 46.5959 10.5354 46.9648 10.5354 47.4173ZM49.9754 36.2704H49.5371C50.7772 33.2164 51.4044 29.986 51.4044 26.6452C51.4044 21.9608 50.1358 17.3923 47.7285 13.4047C47.7606 13.3708 47.798 13.3388 47.8444 13.3102C50.0021 12.0274 51.342 9.67182 51.342 7.16662C51.342 3.22529 48.1312 0.0180664 44.1863 0.0180664C41.3889 0.0180664 38.9603 1.63415 37.7861 3.97721C34.0836 2.00655 29.9249 0.967762 25.7002 0.967762C21.7625 0.967762 17.9958 1.83193 14.491 3.53354L13.8638 2.90635C13.4451 2.48941 12.7662 2.48941 12.3475 2.90635L12.0713 3.18253C11.633 2.94377 11.1733 2.7549 10.6958 2.61236V2.22214C10.6958 1.63237 10.2147 1.15307 9.6249 1.15307H7.57228C6.98072 1.15307 6.49964 1.63237 6.49964 2.22214V2.61236C6.02212 2.7549 5.56242 2.94377 5.12409 3.18253L4.84792 2.90635C4.43098 2.48941 3.75033 2.48941 3.33339 2.90635L1.88123 4.35673C1.67989 4.55808 1.56764 4.82713 1.56764 5.114C1.56764 5.39908 1.67989 5.66813 1.88123 5.86948L2.15741 6.14565C1.92043 6.58397 1.72978 7.04368 1.58724 7.51942H1.19702C0.607249 7.51942 0.126165 8.0005 0.126165 8.59027V10.6411C0.126165 11.2309 0.607249 11.712 1.19702 11.712H1.58724C1.72978 12.1895 1.92043 12.6474 2.15741 13.0857L1.88123 13.3619C1.67989 13.5633 1.56764 13.8323 1.56764 14.1192C1.56764 14.4043 1.67989 14.6733 1.88123 14.8747L2.52802 15.5214C0.849573 19.0013 -0.00390625 22.7413 -0.00390625 26.6452C-0.00390625 29.929 0.603685 33.1095 1.80283 36.1208C1.0919 36.1475 0.519941 36.7319 0.519941 37.45V50.8776C0.519941 51.6117 1.11862 52.2086 1.8545 52.2086H12.7787C13.5146 52.2086 14.1132 51.6117 14.1132 50.8776V49.5715C17.6875 51.3747 21.6645 52.3244 25.7002 52.3244C30.1993 52.3244 34.6128 51.1484 38.49 48.9229C38.6165 48.9479 38.7465 48.9621 38.8784 48.9621H41.2909L40.7635 51.0344C40.7012 51.2803 40.7564 51.5404 40.9114 51.74C41.0682 51.9395 41.307 52.0571 41.56 52.0571H47.2938C47.5468 52.0571 47.7873 51.9395 47.9424 51.74C48.0974 51.5404 48.1526 51.2803 48.0903 51.0344L47.5646 48.9621H49.9754C51.0872 48.9621 51.9924 48.0588 51.9924 46.9469V38.2839C51.9924 37.1738 51.0872 36.2704 49.9754 36.2704ZM45.9753 14.3205V15.2506C45.9753 15.2773 45.9521 15.3005 45.9272 15.3005H42.4473C42.4206 15.3005 42.3974 15.2773 42.3974 15.2506V14.3205H45.9771H45.9753ZM44.1863 8.33726C43.7338 8.33726 43.3667 7.96843 43.3667 7.51763C43.3667 7.06506 43.7338 6.69623 44.1863 6.69623C44.6389 6.69623 45.0078 7.06506 45.0078 7.51763C45.0078 7.96843 44.6389 8.33726 44.1863 8.33726ZM43.2687 16.9415H45.1058V17.109C45.1058 17.3638 44.8973 17.5723 44.6425 17.5723H43.732C43.4754 17.5723 43.2687 17.3638 43.2687 17.109V16.9415ZM44.1863 1.6591C47.2261 1.6591 49.6992 4.13045 49.6992 7.16662C49.6992 9.09808 48.6658 10.912 47.0034 11.9008C46.6791 12.0951 46.4189 12.3641 46.2425 12.6795H45.0078V9.83575C45.9628 9.49721 46.6506 8.58671 46.6506 7.51763C46.6506 6.15991 45.5441 5.0552 44.1863 5.0552C42.8286 5.0552 41.7239 6.15991 41.7239 7.51763C41.7239 8.58671 42.4099 9.49721 43.3649 9.83575V12.6795H42.1302C41.9538 12.3641 41.6954 12.0951 41.3693 11.9008C39.7069 10.912 38.6735 9.09808 38.6735 7.16662C38.6735 4.13045 41.1466 1.6591 44.1863 1.6591ZM1.76898 10.0709V9.16045H2.22868C2.62068 9.16045 2.95743 8.88427 3.03405 8.50118C3.17838 7.77421 3.46168 7.09179 3.87506 6.4735C4.09244 6.14922 4.04967 5.71446 3.77171 5.43828L3.44743 5.114L4.09065 4.46899L4.41672 4.79505C4.6929 5.07123 5.12766 5.11399 5.45373 4.89662C6.07201 4.48502 6.75444 4.20172 7.48141 4.05739C7.86627 3.98077 8.14245 3.64402 8.14245 3.25202V2.7941H9.05295V3.25202C9.05295 3.64402 9.33091 3.98077 9.71399 4.05739C10.441 4.20172 11.1234 4.48502 11.7435 4.89662C12.0695 5.11399 12.5025 5.07123 12.7805 4.79505L13.1047 4.46899L13.7391 5.1033C13.7408 5.10509 13.7426 5.10687 13.7462 5.10865L13.7498 5.114L13.4237 5.43828C13.1475 5.71446 13.1047 6.14922 13.3221 6.4735C13.7337 7.09179 14.017 7.77421 14.1631 8.50118C14.2397 8.88427 14.5765 9.16045 14.9685 9.16045H15.4282V10.0709H14.9685C14.5765 10.0709 14.238 10.3471 14.1631 10.7302C14.017 11.4572 13.7337 12.1396 13.3221 12.7579C13.1047 13.0822 13.1475 13.5169 13.4237 13.7931L13.7498 14.1192L13.1047 14.7624L12.7805 14.4363C12.5025 14.1602 12.0695 14.1174 11.7435 14.3348C11.1252 14.7464 10.4427 15.0297 9.71399 15.174C9.33091 15.2506 9.05295 15.5874 9.05295 15.9794V16.4373H8.14245V15.9794C8.14245 15.5874 7.86627 15.2506 7.48141 15.174C6.75444 15.0297 6.07201 14.7464 5.45373 14.3348C5.12766 14.1174 4.6929 14.1602 4.41672 14.4363L4.09065 14.7624L3.44743 14.1192L3.77171 13.7931C4.04967 13.5169 4.09244 13.0822 3.87506 12.7579C3.46168 12.1396 3.17838 11.4572 3.03405 10.7302C2.95743 10.3471 2.62068 10.0709 2.22868 10.0709H1.76898ZM12.4704 50.5693H2.16275V37.7582H3.04118C3.04296 37.7582 3.04296 37.7582 3.04474 37.7582C3.04474 37.7582 3.04652 37.7582 3.04831 37.7582H11.1109L12.4704 39.116V50.5693ZM14.1132 47.7167V38.7756C14.1132 38.5583 14.0259 38.3498 13.8727 38.1948L12.0321 36.3577C11.8789 36.2045 11.6686 36.1172 11.4512 36.1172H3.57928C2.29283 33.1238 1.63891 29.9397 1.63891 26.6452C1.63891 23.1297 2.37835 19.7568 3.83229 16.6066C4.18509 16.6921 4.57352 16.5994 4.84792 16.325L5.12409 16.0506C5.56242 16.2876 6.02212 16.4783 6.49964 16.619V17.0092C6.49964 17.599 6.98072 18.0783 7.57228 18.0783H9.6249C10.2147 18.0783 10.6958 17.599 10.6958 17.0092V16.619C11.1733 16.4765 11.633 16.2876 12.0713 16.0506L12.3475 16.325C12.5506 16.5264 12.8197 16.6386 13.1047 16.6386C13.3916 16.6386 13.6607 16.5264 13.8638 16.325L15.3142 14.8747C15.5173 14.6733 15.6278 14.4043 15.6278 14.1174C15.6278 13.8323 15.5173 13.5633 15.3142 13.3619L15.0398 13.0857C15.2768 12.6474 15.4674 12.1877 15.6099 11.712H15.9984C16.5899 11.712 17.071 11.2309 17.071 10.6411V8.59027C17.071 8.0005 16.5899 7.51942 15.9984 7.51942H15.6099C15.4674 7.04368 15.2768 6.58397 15.0398 6.14565L15.3142 5.86948C15.5975 5.58795 15.6883 5.18883 15.5886 4.82891C18.7602 3.35715 22.1563 2.60879 25.7002 2.60879C29.736 2.60879 33.7041 3.61907 37.2213 5.53806C37.0984 6.06191 37.0324 6.60536 37.0324 7.16662C37.0324 9.67182 38.3724 12.0274 40.5283 13.3102C40.6816 13.4011 40.7546 13.5312 40.7546 13.7076V15.2506C40.7546 15.8849 41.1074 16.4391 41.6259 16.7277V17.109C41.6259 18.269 42.5703 19.2115 43.732 19.2115H44.6425C45.8042 19.2115 46.7486 18.269 46.7486 17.109V16.7277C46.9945 16.5887 47.2029 16.391 47.3544 16.154C48.9366 19.4058 49.7634 22.9889 49.7634 26.6452C49.7634 29.9967 49.0863 33.2325 47.7553 36.2704H38.8784C37.7665 36.2704 36.8632 37.1738 36.8632 38.2839V46.9469C36.8632 47.2659 36.9398 47.5652 37.0716 47.8343C33.59 49.6998 29.6808 50.6816 25.7002 50.6816C21.6413 50.6816 17.6448 49.657 14.1132 47.7167ZM46.239 50.4161H42.6166L42.9854 48.9621H45.8701L46.239 50.4161ZM50.3496 46.9469C50.3496 47.1501 50.1785 47.3211 49.9754 47.3211H38.8784C38.677 47.3211 38.5042 47.1501 38.5042 46.9469V38.2839C38.5042 38.0825 38.677 37.9115 38.8784 37.9115H48.2827C48.2845 37.9115 48.2845 37.9115 48.2863 37.9115C48.288 37.9115 48.288 37.9115 48.2898 37.9115H49.9754C50.1785 37.9115 50.3496 38.0825 50.3496 38.2839V46.9469ZM8.59859 13.6131C10.8045 13.6131 12.6005 11.8207 12.6005 9.61659C12.6005 7.41073 10.8045 5.61824 8.59859 5.61824C6.39095 5.61824 4.59668 7.41073 4.59668 9.61659C4.59668 11.8207 6.39095 13.6131 8.59859 13.6131ZM8.59859 7.25927C9.8993 7.25927 10.9577 8.31588 10.9577 9.6148C10.9577 10.9155 9.8993 11.9721 8.59859 11.9721C7.29788 11.9721 6.23772 10.9155 6.23772 9.6148C6.23772 8.31588 7.29788 7.25927 8.59859 7.25927Z" fill="black"/>
</g>
</svg>
