<svg width="59" height="59" viewBox="0 0 59 59" fill="none" xmlns="http://www.w3.org/2000/svg">
<path d="M25.6457 0.6251C24.6343 1.1308 24.255 1.88935 23.9775 2.51796C23.6983 3.14833 23.5157 3.65578 23.024 4.21767C22.5324 4.78132 21.7001 5.42573 20.0495 6.09122C18.3971 6.75495 17.3488 6.86557 16.6025 6.8006C15.8545 6.73739 15.3646 6.49507 14.7272 6.2352C13.9528 5.91914 13.196 5.72599 12.2091 6.03327C11.2223 6.34056 10.2161 7.05872 8.82015 8.42832C7.42241 9.79617 6.67789 10.7847 6.35128 11.7663C6.00009 12.8233 6.26875 13.6451 6.5181 14.286C6.7692 14.9252 7.00274 15.4063 7.05542 16.1508C7.10634 16.8935 6.97464 17.9365 6.27929 19.5695C5.58393 21.2007 4.9272 22.0207 4.34949 22.5089C3.77179 22.997 3.23798 23.1814 2.59179 23.4746C1.9456 23.7696 1.18702 24.1963 0.683065 25.2253C0.215982 26.1787 0.0175597 27.4535 0 29.4921C0 29.4956 0.00175595 29.4974 0.00175595 29.5009C0.00175595 29.5026 0 29.5044 0 29.5079C0.0175597 31.5465 0.215982 32.8213 0.683065 33.7747C1.18702 34.8055 1.9456 35.2304 2.59179 35.5254C3.23798 35.8186 3.77179 36.003 4.34949 36.4911C4.9272 36.9793 5.58393 37.7993 6.27929 39.4323C6.97464 41.0635 7.10634 42.1065 7.05542 42.851C7.00274 43.5937 6.7692 44.0748 6.5181 44.7158C6.26875 45.3549 6.00009 46.1784 6.35128 47.2355C6.67789 48.2153 7.42241 49.2038 8.82015 50.5717C10.2161 51.9413 11.2223 52.6612 12.2091 52.9667C13.196 53.274 13.9528 53.0809 14.7272 52.7648C15.3663 52.5049 15.8545 52.2644 16.6025 52.1994C17.3488 52.1344 18.3971 52.2451 20.0495 52.9105C21.7001 53.5743 22.5324 54.2187 23.024 54.7823C23.5157 55.346 23.7001 55.8517 23.9775 56.482C24.2532 57.1107 24.6343 57.8692 25.6457 58.3749C26.5272 58.8156 27.7001 58.9982 29.5 59C31.3016 58.9982 32.4746 58.8156 33.3561 58.3749C34.3657 57.8692 34.7468 57.1107 35.0242 56.482C35.3017 55.8517 35.486 55.346 35.976 54.7823C36.4676 54.2187 37.2999 53.5743 38.9523 52.9105C40.6029 52.2451 41.6512 52.1344 42.3992 52.1994C43.1473 52.2644 43.6354 52.5049 44.2746 52.7648C45.0472 53.0809 45.804 53.274 46.7909 52.9667C47.7795 52.6612 48.7839 51.9413 50.1816 50.5717C51.5793 49.2038 52.3239 48.2153 52.6487 47.2355C53.0017 46.1784 52.733 45.3549 52.4819 44.7158C52.2308 44.0748 51.999 43.5937 51.9463 42.851C51.8937 42.1065 52.0271 41.0635 52.7225 39.4323C53.4178 37.7993 54.0746 36.9793 54.6523 36.4911C55.23 36.003 55.7638 35.8186 56.41 35.5254C57.0562 35.2304 57.8147 34.8055 58.3187 33.7747C58.7858 32.8213 58.9842 31.5465 59 29.5009C58.9842 27.4553 58.7858 26.1787 58.3187 25.2253C57.8147 24.1963 57.0562 23.7696 56.41 23.4764C55.7638 23.1814 55.23 22.997 54.6523 22.5089C54.0746 22.0207 53.4178 21.2007 52.7225 19.5695C52.0271 17.9365 51.8937 16.8935 51.9463 16.1508C51.999 15.4063 52.2308 14.9252 52.4819 14.286C52.733 13.6451 53.0017 12.8233 52.6487 11.7663C52.3239 10.7847 51.5793 9.79617 50.1816 8.42832C48.7839 7.06047 47.7795 6.34056 46.7909 6.03327C45.804 5.72599 45.0472 5.91914 44.2746 6.2352C43.6354 6.49507 43.1473 6.73739 42.3992 6.8006C41.6512 6.86557 40.6029 6.75495 38.9523 6.09122C37.2999 5.42573 36.4676 4.78132 35.976 4.21767C35.4843 3.65578 35.3017 3.14833 35.0242 2.51796C34.7468 1.88935 34.3675 1.1308 33.3561 0.6251C32.4746 0.184369 31.3016 0.00351203 29.5 0C27.7001 0.00175579 26.5272 0.184369 25.6457 0.6251ZM29.5 1.97363C31.1541 1.9789 32.0602 2.17205 32.4781 2.37924C32.8328 2.55835 32.9908 2.77959 33.2244 3.30987C33.4597 3.84015 33.7635 4.66894 34.4957 5.50826C35.2297 6.34934 36.3658 7.17285 38.2183 7.91911C40.0708 8.66361 41.4615 8.85852 42.5748 8.76194C43.6863 8.66537 44.4818 8.27731 45.0209 8.05607C45.4423 7.88575 45.7426 7.76459 46.2114 7.91033C46.6662 8.03149 47.5055 8.56528 48.8032 9.8348C50.1008 11.1061 50.6311 11.9226 50.7839 12.3844C50.9384 12.8444 50.7892 13.2202 50.654 13.5661C50.4432 14.1069 50.064 14.9006 49.9867 16.0121C49.9077 17.1235 50.1272 18.5054 50.9086 20.3386C51.6882 22.1717 52.5328 23.292 53.3827 24.0102C54.2343 24.7301 55.0632 25.0268 55.5899 25.2674C56.1167 25.5062 56.359 25.6853 56.5557 26.0874C56.8051 26.5966 56.9684 27.5132 57 28.5158L57.0351 29.4991C57.0351 29.4991 57.0351 30.4824 57 30.4824C56.9684 31.485 56.8051 32.4034 56.5557 32.9126C56.359 33.3129 56.1167 33.492 55.5899 33.7326C55.0632 33.9732 54.2343 34.2699 53.3827 34.9881C52.5311 35.708 51.6882 36.8282 50.9086 38.6597C50.1272 40.4928 49.9077 41.8765 49.9867 42.9879C50.064 44.0994 50.4432 44.8931 50.654 45.4322C50.7892 45.7781 50.9384 46.1538 50.7839 46.6156C50.6311 47.0774 50.0991 47.8939 48.8032 49.1634C47.5055 50.4347 46.6662 50.9668 46.2114 51.0879C45.7426 51.2337 45.4423 51.1143 45.0209 50.9422C44.4818 50.7227 43.6863 50.3346 42.5748 50.2381C41.4615 50.1415 40.0708 50.3346 38.2183 51.0809C36.3658 51.8254 35.2297 52.6507 34.4957 53.49C33.7635 54.3311 33.4579 55.1598 33.2244 55.6901C32.9908 56.2204 32.8328 56.4417 32.4781 56.619C32.0602 56.828 31.1541 57.0211 29.5 57.0264C27.8476 57.0193 26.9398 56.828 26.5237 56.619C26.1672 56.4417 26.0109 56.2204 25.7756 55.6901C25.5421 55.1581 25.2383 54.3311 24.5043 53.49C23.7721 52.6507 22.6342 51.8254 20.7835 51.0809C18.9309 50.3346 17.5385 50.1415 16.4269 50.2381C15.3154 50.3329 14.52 50.7227 13.9809 50.9422C13.5595 51.1143 13.2574 51.2337 12.7886 51.0879C12.3356 50.9668 11.4962 50.4347 10.1986 49.1634C8.90092 47.8939 8.36887 47.0774 8.2161 46.6156C8.06333 46.1538 8.21083 45.7781 8.34604 45.4322C8.55851 44.8931 8.9378 44.0994 9.01506 42.9879C9.09232 41.8765 8.87458 40.4928 8.09318 38.6597C7.31179 36.8282 6.46893 35.708 5.61729 34.9881C4.76566 34.2699 3.93685 33.9732 3.41006 33.7326C2.88327 33.492 2.64095 33.3129 2.44429 32.9126C2.19494 32.4034 2.03164 31.485 2.00179 30.4824L1.96667 29.4921L2.00179 28.5158C2.03164 27.515 2.19494 26.5966 2.44429 26.0874C2.64095 25.6853 2.88327 25.5062 3.41006 25.2674C3.93685 25.0268 4.76566 24.7301 5.61729 24.0102C6.46893 23.292 7.31354 22.1717 8.09318 20.3386C8.87458 18.5054 9.09232 17.1235 9.01506 16.0121C8.9378 14.9006 8.55851 14.1069 8.34604 13.5661C8.21083 13.2202 8.06333 12.8444 8.2161 12.3844C8.36887 11.9226 8.90092 11.1061 10.1986 9.8348C11.4962 8.56528 12.3356 8.03149 12.7886 7.91033C13.2574 7.76459 13.5595 7.88575 13.9809 8.05607C14.52 8.27731 15.3154 8.66537 16.4269 8.76194C17.5385 8.85852 18.9309 8.66361 20.7835 7.91911C22.6342 7.17285 23.7721 6.34758 24.5043 5.50826C25.2383 4.66894 25.5421 3.84015 25.7756 3.30987C26.0109 2.77959 26.1672 2.55835 26.5237 2.37924C26.9398 2.17205 27.8476 1.9789 29.5 1.97363ZM29.5 9.83304C18.6184 9.83304 9.83685 18.6512 9.83685 29.5009C9.83685 40.3506 18.6342 49.1652 29.5 49.1652C40.3658 49.1652 49.1649 40.3506 49.1649 29.5009C49.1649 18.6512 40.3834 9.83304 29.5 9.83304ZM29.5 11.8014C36.8346 11.8014 43.1297 16.2579 45.8146 22.6195C44.9366 22.6195 44.0393 22.6195 43.1683 22.6195C42.6661 22.6704 42.2833 23.0936 42.2833 23.5993V24.5879C39.5546 24.5879 36.6011 22.7898 32.4974 22.6195C32.0057 22.5984 31.4895 22.5703 30.9943 22.5949C29.5035 22.63 28.2621 23.0304 26.7695 24.2613C26.5201 24.184 26.4007 24.1471 25.9301 24.0225C25.5772 23.9277 24.3515 23.5975 23.5982 23.5993C22.4534 23.6011 20.9801 23.8627 19.5051 24.1085C18.5042 24.2736 17.5156 24.4298 16.7184 24.5176V23.5993C16.7167 23.055 16.2724 22.616 15.7298 22.6195H13.189C15.8721 16.2579 22.1654 11.8014 29.5 11.8014ZM29.5 14.7531C28.9276 14.7636 28.5167 15.1868 28.5167 15.7329V17.6995C28.5167 18.3544 29.0083 18.6828 29.5 18.6845C29.9917 18.6828 30.4833 18.3544 30.4833 17.6995V15.7329C30.4833 15.1868 30.0742 14.7636 29.5 14.7531ZM23.4771 18.9672L24.8713 20.3544C25.8424 21.2569 27.1628 19.8979 26.2655 18.9672L24.8713 17.573C24.6869 17.3834 24.4481 17.2868 24.183 17.2868C23.2927 17.2816 22.8643 18.3597 23.4771 18.9672ZM34.1287 17.573L32.7345 18.969C31.8372 19.8979 33.1594 21.2569 34.1287 20.3544L35.5229 18.969C36.1375 18.3597 35.7073 17.2816 34.8188 17.2886C34.5536 17.2886 34.3148 17.3834 34.1287 17.573ZM32.4202 24.5808C36.0673 24.7319 39.2157 26.5545 42.2833 26.5545V33.4358C40.1586 33.4745 38.8346 33.6167 35.8214 35.1514L31.342 29.975C31.8354 29.0742 30.7941 28.1155 29.9372 28.6809C28.5377 29.5764 27.0627 30.4017 25.6316 31.2287C25.0381 31.5728 24.3761 31.7344 23.9266 31.2708C23.5052 30.8371 23.4806 30.126 23.9407 29.6835L27.6931 26.0734C29.0066 24.7986 30.1725 24.5545 31.1664 24.551C31.5562 24.5492 31.9285 24.5598 32.4202 24.5808ZM12.5076 24.5879H14.75V25.4992C14.7482 25.5413 14.7482 25.5835 14.75 25.6238V35.4025H12.8343C12.1793 33.5535 11.8035 31.5728 11.8035 29.5009C11.8035 27.7924 12.0564 26.1489 12.5076 24.5879ZM44.25 24.5879H46.4959C46.9454 26.1489 47.1982 27.7924 47.1982 29.5009C47.1982 31.5728 46.8242 33.5535 46.1693 35.4025H44.25V24.5879ZM25.0961 25.8398L22.5833 28.2595C21.3576 29.4377 21.305 31.4008 22.5113 32.6439C23.7475 33.9187 25.5596 33.7221 26.8011 32.8107C27.8582 32.2208 28.8556 31.6519 29.7371 31.1198L34.0743 36.1434C32.8872 36.8757 31.6967 37.6325 30.6712 38.1891C29.342 38.909 28.2638 39.3374 27.5333 39.3374C27.1242 39.3374 26.4148 39.0705 25.5965 38.5596C24.7782 38.0486 23.8546 37.3252 22.8959 36.5859C20.9784 35.104 18.7975 33.4358 16.7184 33.4358V26.5C17.6684 26.4123 18.7448 26.2244 19.8247 26.0453C21.3015 25.7994 22.7765 25.5694 23.5982 25.5677C23.7932 25.5659 24.2269 25.6186 25.0961 25.8398ZM16.7184 35.4025C18.0389 35.4025 19.7949 36.6772 21.6965 38.1469C22.6483 38.8809 23.6018 39.6324 24.557 40.2277C25.5105 40.8229 26.5184 41.304 27.5333 41.304C28.7555 41.304 30.1743 40.7 31.6054 39.9257C33.026 39.1548 34.5378 38.1698 36.062 37.2444C39.1507 35.6255 40.1885 35.4183 42.2833 35.406V36.3823C42.2816 36.9248 42.7206 37.3656 43.2632 37.3691H45.3334C42.4308 43.1934 36.429 47.1986 29.5 47.1986C22.5728 47.1986 16.5709 43.1934 13.6683 37.3691H15.7298C16.2759 37.3726 16.7202 36.9283 16.7184 36.3823V35.4025Z" fill="black"/>
</svg>
