<svg width="41" height="57" viewBox="0 0 41 57" fill="none" xmlns="http://www.w3.org/2000/svg">
<path d="M17.1336 51.9389C17.7143 52.1816 18.3754 51.9055 18.6163 51.3298L18.7988 50.8947H22.0102C22.0102 50.8947 22.191 51.3281 22.191 51.3298C22.4269 51.8937 23.1147 52.1715 23.6737 51.9389C24.251 51.6979 24.5238 51.0369 24.2828 50.4595L21.4496 43.6735C21.2739 43.2534 20.8622 42.9773 20.4036 42.9773C19.9468 42.9773 19.5334 43.2534 19.3577 43.6735L16.5245 50.4595C16.2835 51.0369 16.5563 51.6979 17.1336 51.9389ZM21.0647 48.6338H19.7426L20.4036 47.0506L21.0647 48.6338Z" fill="black"/>
<path d="M28.3375 50.8947V49.1994H29.1876C30.908 49.1994 32.3054 47.8037 32.3054 46.0883C32.3054 44.373 30.908 42.9773 29.1876 42.9773H27.2045C26.5786 42.9773 26.0715 43.4844 26.0715 44.1086V50.8947C26.0715 51.5189 26.5786 52.026 27.2045 52.026C27.8304 52.026 28.3375 51.5189 28.3375 50.8947ZM28.3375 45.2399H29.1876C29.6562 45.2399 30.0377 45.6214 30.0377 46.0883C30.0377 46.5569 29.6562 46.9368 29.1876 46.9368H28.3375V45.2399Z" fill="black"/>
<path d="M11.2228 45.2399H13.6026C14.2285 45.2399 14.7372 44.7345 14.7372 44.1086C14.7372 43.4844 14.2285 42.9773 13.6026 42.9773H11.2228C9.72337 42.9773 8.50171 44.1956 8.50171 45.6917C8.50171 46.8531 9.2414 47.884 10.3392 48.2606L12.1633 48.8831C12.3474 48.9467 12.4696 49.1191 12.4696 49.3115C12.4696 49.5609 12.2671 49.7634 12.0161 49.7634H9.63635C9.01046 49.7634 8.50171 50.2704 8.50171 50.8947C8.50171 51.5189 9.01046 52.026 9.63635 52.026H12.0161C13.5155 52.026 14.7372 50.8076 14.7372 49.3115C14.7372 48.1518 13.9975 47.1192 12.8997 46.7444L11.0756 46.1201C10.8915 46.0582 10.7693 45.8859 10.7693 45.6917C10.7693 45.4424 10.9718 45.2399 11.2228 45.2399Z" fill="black"/>
<mask id="mask0_161_740" style="mask-type:luminance" maskUnits="userSpaceOnUse" x="0" y="38" width="41" height="19">
<path d="M0 38.4072H40.8068V56.5514H0V38.4072Z" fill="white"/>
</mask>
<g mask="url(#mask0_161_740)">
<path d="M37.4065 38.4541H24.9372C24.3113 38.4541 23.8042 38.9612 23.8042 39.5854C23.8042 40.2096 24.3113 40.7167 24.9372 40.7167H37.4065C38.0307 40.7167 38.5395 41.2238 38.5395 41.848V53.1575C38.5395 53.7801 38.0307 54.2888 37.4065 54.2888H3.40081C2.77659 54.2888 2.26785 53.7801 2.26785 53.1575V41.848C2.26785 41.2238 2.77659 40.7167 3.40081 40.7167H15.8701C16.496 40.7167 17.0031 40.2096 17.0031 39.5854C17.0031 38.9612 16.496 38.4541 15.8701 38.4541H3.40081C1.52648 38.4541 0.000244141 39.977 0.000244141 41.848V53.1575C0.000244141 55.0285 1.52648 56.5497 3.40081 56.5497H37.4065C39.2808 56.5497 40.8071 55.0285 40.8071 53.1575V41.848C40.8071 39.977 39.2808 38.4541 37.4065 38.4541Z" fill="black"/>
</g>
<mask id="mask1_161_740" style="mask-type:luminance" maskUnits="userSpaceOnUse" x="1" y="0" width="38" height="37">
<path d="M1.96313 0H38.8071V36.2649H1.96313V0Z" fill="white"/>
</mask>
<g mask="url(#mask1_161_740)">
<path d="M3.33528 22.1941C4.52681 22.2627 5.51084 22.9622 5.9677 24.0617C6.42457 25.1629 6.22375 26.3511 5.43051 27.2414C5.03054 27.6882 5.05062 28.3693 5.47569 28.7927L9.68289 32.9915C10.1096 33.4149 10.7908 33.4333 11.2376 33.0367C12.1296 32.2452 13.3194 32.046 14.4239 32.4995C15.5268 32.9564 16.228 33.9387 16.2966 35.1269C16.3317 35.7244 16.8271 36.193 17.4279 36.193H23.3789C23.9797 36.193 24.475 35.7244 24.5102 35.1269C24.5805 33.9387 25.28 32.9564 26.3828 32.4995C27.4873 32.046 28.6772 32.2452 29.5692 33.0367C30.016 33.4333 30.6988 33.4149 31.1239 32.9915L35.3311 28.7927C35.7561 28.3693 35.7762 27.6882 35.3763 27.2414C34.583 26.3511 34.3822 25.1629 34.8391 24.0617C35.2959 22.9622 36.28 22.2627 37.4715 22.1941C38.0706 22.1589 38.5392 21.6636 38.5392 21.0644V15.1268C38.5392 14.5277 38.0706 14.034 37.4715 13.9972C36.28 13.9286 35.2959 13.2308 34.8391 12.1296C34.3822 11.0301 34.583 9.8419 35.3763 8.95159C35.7762 8.50309 35.7561 7.82365 35.3311 7.40025L31.1239 3.20142C30.6988 2.77802 30.016 2.75794 29.5692 3.15624C28.6772 3.94781 27.4873 4.14695 26.3828 3.69343C25.28 3.23656 24.5805 2.25422 24.5102 1.06602C24.475 0.466909 23.9797 0 23.3789 0H17.4279C16.8271 0 16.3317 0.466909 16.2966 1.06602C16.228 2.25422 15.5268 3.23656 14.4239 3.69343C13.3194 4.14695 12.1296 3.94781 11.2376 3.15624C10.7908 2.75794 10.108 2.77802 9.68289 3.20142L5.47569 7.40025C5.05062 7.82365 5.03054 8.50309 5.43051 8.95159C6.22375 9.8419 6.42457 11.0301 5.9677 12.1296C5.51084 13.2308 4.52681 13.9286 3.33528 13.9972C2.73616 14.034 2.26758 14.5277 2.26758 15.1268V21.0644C2.26758 21.6636 2.73616 22.1589 3.33528 22.1941ZM4.53518 16.0874C6.11497 15.6691 7.41696 14.5495 8.06294 12.9965C8.70724 11.4418 8.58005 9.72978 7.75836 8.32068L10.6067 5.47907C12.0191 6.29908 13.7345 6.42627 15.2925 5.78197C16.8489 5.13767 17.9718 3.83903 18.3902 2.26258H22.4183C22.835 3.83903 23.9579 5.13767 25.516 5.78197C27.0723 6.4246 28.7877 6.29908 30.2001 5.47907L33.0484 8.32068C32.2267 9.72978 32.0995 11.4418 32.7455 12.9965C33.3898 14.5495 34.6918 15.6691 36.2733 16.0874V20.1055C34.6918 20.5222 33.3898 21.6435 32.7455 23.1965C32.0995 24.7512 32.2267 26.4615 33.0484 27.8723L30.2001 30.7139C28.7893 29.8939 27.074 29.7667 25.516 30.411C23.9579 31.0536 22.835 32.3539 22.4183 33.9304H18.3902C17.9718 32.3539 16.8489 31.0536 15.2925 30.411C13.7345 29.7667 12.0191 29.8922 10.6067 30.7139L7.75836 27.8723C8.58005 26.4615 8.70724 24.7512 8.06294 23.1965C7.41696 21.6435 6.11497 20.5222 4.53518 20.1055V16.0874Z" fill="black"/>
</g>
<path d="M20.4035 29.4069C26.6541 29.4069 31.7382 24.3329 31.7382 18.0957C31.7382 11.8602 26.6541 6.78613 20.4035 6.78613C14.153 6.78613 9.06885 11.8602 9.06885 18.0957C9.06885 24.3329 14.153 29.4069 20.4035 29.4069ZM20.4035 9.04872C25.404 9.04872 29.4723 13.107 29.4723 18.0957C29.4723 23.0861 25.404 27.1444 20.4035 27.1444C15.4031 27.1444 11.3365 23.0861 11.3365 18.0957C11.3365 13.107 15.4031 9.04872 20.4035 9.04872Z" fill="black"/>
<path d="M20.4037 24.8817C24.154 24.8817 27.2048 21.8376 27.2048 18.0956C27.2048 14.3537 24.154 11.3096 20.4037 11.3096C16.6533 11.3096 13.6025 14.3537 13.6025 18.0956C13.6025 21.8376 16.6533 24.8817 20.4037 24.8817ZM20.4037 13.5722C22.9039 13.5722 24.9372 15.6021 24.9372 18.0956C24.9372 20.5908 22.9039 22.6208 20.4037 22.6208C17.9035 22.6208 15.8701 20.5908 15.8701 18.0956C15.8701 15.6021 17.9035 13.5722 20.4037 13.5722Z" fill="black"/>
<path d="M36.2415 30.9299C35.8482 31.4135 35.9219 32.1264 36.4072 32.5197L38.1677 33.9455C38.6497 34.3355 39.371 34.2618 39.7626 33.7815C40.1575 33.2962 40.0822 32.5833 39.5969 32.19L37.8363 30.7642C37.351 30.3726 36.6381 30.4462 36.2415 30.9299Z" fill="black"/>
<path d="M33.4285 33.7663C32.9465 34.1646 32.8795 34.8792 33.2795 35.3595L34.3656 36.6649C34.7606 37.1418 35.4852 37.2054 35.9605 36.8121C36.4424 36.4138 36.5094 35.7009 36.1094 35.2206L35.0233 33.9153C34.625 33.435 33.9104 33.3697 33.4285 33.7663Z" fill="black"/>
<path d="M4.56547 30.9298C4.17053 30.4462 3.45761 30.3709 2.97062 30.7642L1.21009 32.19C0.724773 32.5833 0.651139 33.2962 1.04609 33.7815C1.41761 34.2384 2.15228 34.3404 2.63927 33.9455L4.3998 32.5197C4.88511 32.1264 4.96042 31.4135 4.56547 30.9298Z" fill="black"/>
<path d="M5.78362 33.9153L4.69752 35.2206C4.29922 35.7009 4.36449 36.4138 4.84646 36.8121C5.29998 37.1887 6.04134 37.1468 6.44299 36.6649L7.52742 35.3595C7.92739 34.8792 7.86045 34.1646 7.38015 33.7663C6.89818 33.3697 6.18359 33.435 5.78362 33.9153Z" fill="black"/>
<path d="M21.5364 39.5854C21.5364 39.736 21.508 39.8799 21.4511 40.0188C21.3942 40.1561 21.3122 40.2799 21.2051 40.3853C21.0997 40.4908 20.9758 40.5728 20.8369 40.6297C20.698 40.6882 20.5541 40.7167 20.4035 40.7167C20.2529 40.7167 20.1089 40.6882 19.97 40.6297C19.8311 40.5728 19.709 40.4908 19.6019 40.3853C19.4964 40.2799 19.4144 40.1561 19.3559 40.0188C19.299 39.8799 19.2705 39.736 19.2705 39.5854C19.2705 39.4348 19.299 39.2909 19.3559 39.152C19.4144 39.0147 19.4964 38.8926 19.6019 38.7855C19.709 38.68 19.8311 38.598 19.97 38.5411C20.1089 38.4826 20.2529 38.4541 20.4035 38.4541C20.5541 38.4541 20.698 38.4826 20.8369 38.5411C20.9758 38.598 21.0997 38.68 21.2051 38.7855C21.3122 38.8926 21.3942 39.0147 21.4511 39.152C21.508 39.2909 21.5364 39.4348 21.5364 39.5854Z" fill="black"/>
</svg>
