<svg width="64" height="64" viewBox="0 0 64 64" fill="none" xmlns="http://www.w3.org/2000/svg">
<path fill-rule="evenodd" clip-rule="evenodd" d="M23.0839 36.1313C22.9627 36.1313 22.8065 36.1266 22.6177 36.1173C22.4779 36.1126 22.3217 36.101 22.1585 36.0846C21.8205 36.0566 21.5152 35.9189 21.2821 35.7065C21.049 35.4918 20.8834 35.2023 20.8228 34.8686L20.6667 34.033C20.31 33.9373 19.9627 33.8182 19.627 33.6805L19.6247 33.6782V33.6805C19.2914 33.5428 18.9604 33.3771 18.6387 33.1904L18.042 33.6035C17.7552 33.7996 17.4242 33.8859 17.1002 33.8649C16.7739 33.8439 16.4545 33.7155 16.1958 33.4845C16.0256 33.3281 15.8531 33.1624 15.6807 32.985L15.6783 32.9803C15.5221 32.8216 15.3636 32.6442 15.2005 32.4505C14.9837 32.1914 14.8648 31.8786 14.8485 31.5612C14.8345 31.2438 14.9207 30.9217 15.1142 30.6416L15.5128 30.0604C15.3263 29.7383 15.1632 29.4069 15.0233 29.0731C14.8858 28.7416 14.7669 28.3915 14.6713 28.0298L14.028 27.9107C13.69 27.8477 13.3963 27.6773 13.1818 27.4369C13.1632 27.4159 13.1445 27.3926 13.1259 27.3669C12.9441 27.1358 12.8298 26.8534 12.8089 26.543C12.8019 26.4496 12.7972 26.3259 12.7925 26.1765C12.7855 26.0061 12.7832 25.8824 12.7832 25.8171C12.7832 25.7494 12.7855 25.6257 12.7925 25.4553C12.7972 25.3059 12.8019 25.1822 12.8089 25.0888V25.0865C12.8322 24.7457 12.9697 24.4376 13.1865 24.1949C13.4009 23.9545 13.6923 23.7841 14.028 23.7211L14.6713 23.602C14.7669 23.2403 14.8858 22.8902 15.0233 22.5587C15.1632 22.2249 15.3263 21.8935 15.5128 21.5714L15.1142 20.9902C14.9207 20.7101 14.8345 20.388 14.8485 20.0706C14.8648 19.7532 14.9837 19.4404 15.2005 19.1813C15.3636 18.9876 15.5245 18.8102 15.6783 18.6492L15.6807 18.6468C15.8531 18.4694 16.0256 18.3037 16.1958 18.1473C16.4545 17.9163 16.7739 17.7879 17.1002 17.7669C17.4242 17.7459 17.7552 17.8322 18.042 18.0306L18.6387 18.4414C18.9604 18.2547 19.2914 18.0913 19.6247 17.9513C19.9557 17.8136 20.3054 17.6945 20.6667 17.5988L20.8228 16.7632C20.8834 16.4295 21.049 16.14 21.2821 15.9276C21.5152 15.7129 21.8182 15.5775 22.1585 15.5472C22.324 15.5309 22.4779 15.5215 22.62 15.5145C22.8089 15.5052 22.965 15.5005 23.0839 15.5005C23.2028 15.5005 23.359 15.5052 23.5478 15.5145C23.69 15.5215 23.8438 15.5309 24.0093 15.5472C24.3473 15.5775 24.6503 15.7129 24.8858 15.9276C25.1189 16.14 25.2844 16.4295 25.345 16.7632L25.5012 17.5988C25.8625 17.6945 26.2098 17.8136 26.5408 17.9513L26.5804 17.9699C26.9068 18.1077 27.2238 18.264 27.5291 18.4414L28.1259 18.0306C28.4126 17.8322 28.7436 17.7459 29.0676 17.7669C29.3939 17.7879 29.7133 17.9163 29.972 18.1473C30.1422 18.3014 30.3147 18.4694 30.4872 18.6492C30.6434 18.8102 30.8019 18.9876 30.965 19.1813C31.1841 19.4427 31.303 19.7532 31.317 20.0706C31.3333 20.388 31.2471 20.7101 31.0536 20.9902L30.655 21.5714C30.8415 21.8935 31.0047 22.2249 31.1445 22.5587C31.2821 22.8902 31.3986 23.2403 31.4965 23.602L32.1375 23.7211C32.4779 23.7841 32.7716 23.9545 32.986 24.1949C33.0047 24.2182 33.0233 24.2416 33.042 24.2673C33.2238 24.496 33.338 24.7807 33.359 25.0888C33.3636 25.1822 33.3706 25.3036 33.3753 25.453C33.3823 25.6257 33.3846 25.7494 33.3846 25.8171C33.3846 25.8824 33.3823 26.0061 33.3753 26.1788C33.3706 26.3306 33.3636 26.4496 33.359 26.543C33.3357 26.8837 33.1981 27.1942 32.9837 27.4369H32.986C32.7716 27.6773 32.4779 27.8477 32.1375 27.9107L31.4965 28.0298C31.3986 28.3915 31.2821 28.7416 31.1445 29.0731C31.0047 29.4069 30.8415 29.7383 30.655 30.0604L31.0536 30.6416L31.0559 30.6462V30.6439C31.2471 30.9217 31.3333 31.2438 31.317 31.5612C31.303 31.8786 31.1841 32.1914 30.965 32.4505C30.8019 32.6442 30.641 32.8239 30.4848 32.985L30.4802 32.992C30.31 33.167 30.1399 33.3328 29.972 33.4845C29.7133 33.7155 29.3939 33.8439 29.0676 33.8649C28.7436 33.8859 28.4126 33.7996 28.1259 33.6035L27.5291 33.1904C27.2075 33.3771 26.8765 33.5405 26.5431 33.6805L26.4988 33.6969C26.1772 33.8276 25.8438 33.9419 25.5012 34.033L25.345 34.8686C25.2844 35.2023 25.1189 35.4918 24.8858 35.7065C24.6503 35.9189 24.3473 36.0566 24.0093 36.0846C23.8438 36.101 23.69 36.1126 23.5501 36.1173C23.359 36.1266 23.2051 36.1313 23.0839 36.1313ZM24.5012 4.75915C24.5012 3.97491 23.8671 3.33771 23.0839 3.33771C22.3007 3.33771 21.6643 3.97491 21.6643 4.75915C21.6643 5.5434 22.3007 6.17826 23.0839 6.17826C23.8671 6.17826 24.5012 5.5434 24.5012 4.75915ZM20.4848 44.5549C20.042 44.5549 19.683 44.1955 19.683 43.752C19.683 43.3109 20.042 42.9514 20.4848 42.9514H31.9441C31.9557 42.4449 32.0956 41.9408 32.3683 41.4716L32.3916 41.4319L32.6247 41.0282H20.4848C20.042 41.0282 19.683 40.6687 19.683 40.2252C19.683 39.7841 20.042 39.4247 20.4848 39.4247H33.5501L38.8368 30.2541L38.8392 30.2518H38.8368L41.6457 25.3806V10.9724C41.6457 10.9421 41.634 10.9164 41.6177 10.8977L41.6131 10.8954C41.5967 10.8791 41.5711 10.8674 41.5408 10.8674H33.338V12.4476C33.338 12.891 32.979 13.2505 32.5361 13.2505H13.6317C13.1888 13.2505 12.8298 12.891 12.8298 12.4476V10.8674H4.62704C4.59674 10.8674 4.5711 10.8791 4.55245 10.8954V10.8977C4.5338 10.9164 4.52214 10.9421 4.52214 10.9724V59.2899C4.52214 59.3179 4.5338 59.3435 4.55478 59.3646C4.57343 59.3832 4.59907 59.3949 4.62704 59.3949H41.5408C41.5688 59.3949 41.5967 59.3832 41.6154 59.3646C41.634 59.3459 41.6457 59.3202 41.6457 59.2899V46.0977H35.0326C34.4755 46.0977 33.951 45.9554 33.4918 45.6893L33.4895 45.6869L33.4872 45.6893C33.035 45.4279 32.6504 45.0427 32.3683 44.5549H20.4848ZM33.6154 43.4509C33.5711 43.3062 33.5478 43.1592 33.5478 43.0121C33.5478 42.7624 33.6154 42.5103 33.7506 42.2745C33.7599 42.2582 33.7669 42.2442 33.7762 42.2279L34.6597 40.6921C34.69 40.65 34.7156 40.6057 34.7389 40.559L40.2191 31.0524H40.2214L43.1096 26.0411C43.1329 26.0085 43.1515 25.9758 43.1678 25.9408L46.0326 20.9762C46.0536 20.9435 46.0699 20.9109 46.0862 20.8782L46.69 19.8325L46.711 19.7952C46.8462 19.5735 47.021 19.4007 47.2261 19.2817C47.4382 19.1603 47.6923 19.0926 47.972 19.0926C48.2494 19.0926 48.5012 19.158 48.7133 19.2817L48.7506 19.3027C48.9487 19.4241 49.1212 19.6038 49.2541 19.8325L55.7226 31.0524L62.1935 42.2745L62.2121 42.3049C62.3357 42.5313 62.3963 42.7717 62.3963 43.0144C62.3963 43.2665 62.3287 43.5209 62.1935 43.7567C62.0559 43.9948 61.8718 44.1791 61.6573 44.3028L61.655 44.3052V44.3028C61.4406 44.4266 61.1888 44.4919 60.9114 44.4919H35.0326C34.7529 44.4919 34.5012 44.4266 34.289 44.3052V44.3028C34.0723 44.1791 33.8881 43.9924 33.7506 43.7567V43.752C33.7086 43.6773 33.6713 43.6003 33.641 43.5233C33.634 43.4976 33.627 43.4743 33.6154 43.4509ZM10.9324 42.4589C10.6131 42.1532 10.6037 41.6467 10.9114 41.3269C11.2168 41.0095 11.7226 40.9978 12.0396 41.3059L12.5804 41.8264L13.7063 40.468C13.9883 40.1272 14.4918 40.0782 14.8322 40.3606C15.1725 40.643 15.2214 41.1495 14.9394 41.4903L13.2634 43.5116H13.2611C13.2494 43.5256 13.2354 43.5419 13.2214 43.5559C12.9161 43.8734 12.4103 43.8827 12.0932 43.577L10.9324 42.4589ZM10.5921 37.7348H15.2168C15.7506 37.7348 16.2354 37.9519 16.5851 38.3043C16.9371 38.6544 17.1538 39.1399 17.1538 39.6744V44.3052C17.1538 44.8397 16.9371 45.3252 16.5851 45.6753C16.2354 46.0277 15.7506 46.2448 15.2168 46.2448H10.5921C10.0583 46.2448 9.57343 46.0277 9.22378 45.6753C8.87179 45.3252 8.65501 44.8397 8.65501 44.3052V39.6744C8.65501 39.1399 8.87179 38.6544 9.22378 38.3043C9.57343 37.9519 10.0583 37.7348 10.5921 37.7348ZM15.2168 39.3383C15.3077 39.3383 15.3916 39.378 15.4522 39.4387C15.5128 39.4993 15.5501 39.5834 15.5501 39.6744V44.3052C15.5501 44.3962 15.5128 44.4802 15.4522 44.5409C15.3916 44.6016 15.3077 44.639 15.2168 44.639H10.5921C10.5012 44.639 10.4172 44.6016 10.3566 44.5409C10.296 44.4802 10.2564 44.3962 10.2564 44.3052V39.6744C10.2564 39.5834 10.296 39.4993 10.3566 39.4387C10.4172 39.378 10.5012 39.3383 10.5921 39.3383H15.2168ZM14.4336 9.43428V7.78177C14.4336 7.17257 14.683 6.61707 15.0839 6.21328C15.4872 5.81182 16.042 5.56207 16.6503 5.56207H19.1329C19.5758 5.56207 19.9347 5.20263 19.9347 4.75915C19.9347 3.88621 20.2867 3.0973 20.8555 2.52779L20.8578 2.53012C21.4266 1.95828 22.2145 1.60584 23.0839 1.60584C23.9557 1.60584 24.7436 1.95828 25.3124 2.52779C25.8811 3.0973 26.2331 3.88621 26.2331 4.75915C26.2331 5.20263 26.5921 5.56207 27.035 5.56207H29.5175C30.1259 5.56207 30.6807 5.81182 31.0839 6.21328C31.4848 6.61707 31.7343 7.17257 31.7343 7.78177V11.6446H14.4336V9.43428ZM18.3986 3.95624H16.6503C15.5991 3.95624 14.6434 4.3857 13.951 5.07892C13.5944 5.43603 13.3077 5.86317 13.1142 6.33931H1.70629C1.23776 6.33931 0.81352 6.53071 0.503497 6.8388L0.501166 6.84347C0.191142 7.15157 0 7.5787 0 8.04785V62.2938C0 62.5225 0.0419582 62.7396 0.128205 62.9473H0.130536C0.216783 63.1574 0.340327 63.3418 0.501166 63.5028V63.5005L0.503497 63.5028C0.666666 63.6639 0.850816 63.7876 1.05594 63.874C1.25874 63.958 1.47786 64 1.70862 64L44.4615 63.923C44.9324 63.9206 45.359 63.7293 45.6667 63.4212C45.9767 63.1107 46.1678 62.6836 46.1678 62.2144V46.0977H60.9114C61.4685 46.0977 61.9953 45.9554 62.4545 45.6893V45.6869C62.9114 45.4232 63.296 45.0381 63.5758 44.5526C63.8578 44.0624 64 43.5373 64 43.0144C64 42.5056 63.8671 41.9991 63.6037 41.523C63.5944 41.5066 63.5851 41.488 63.5758 41.4716L57.1072 30.2518L50.6364 19.0296C50.3683 18.5651 50 18.1917 49.5641 17.9279C49.5478 17.9163 49.5315 17.9069 49.5152 17.8976C49.0559 17.6315 48.5291 17.4891 47.972 17.4891C47.4149 17.4891 46.8904 17.6315 46.4312 17.8976C46.3403 17.9489 46.2517 18.005 46.1678 18.068V8.04785C46.1678 7.60671 45.9977 7.20525 45.7203 6.89949C45.704 6.87848 45.6853 6.85981 45.6667 6.8388C45.359 6.53071 44.9301 6.33931 44.4615 6.33931H33.0536C32.8601 5.86317 32.5734 5.43603 32.2168 5.07892C31.5245 4.3857 30.5688 3.95624 29.5175 3.95624H27.7692C27.5991 2.96659 27.1235 2.07965 26.4429 1.3981L26.4406 1.39344C25.5804 0.5345 24.3939 0 23.0839 0C21.7716 0 20.5828 0.532166 19.7226 1.39344L19.7249 1.39577L19.7226 1.3981C19.0443 2.07965 18.5688 2.96659 18.3986 3.95624ZM33.338 7.94282V9.26156H41.5408C42.007 9.26156 42.4336 9.45529 42.7436 9.76338L42.7459 9.76805C43.0559 10.0785 43.2471 10.5056 43.2471 10.9724V22.6007L44.5641 20.3157V8.04785C44.5641 8.02451 44.5594 8.00584 44.5478 7.9895L44.5338 7.97316C44.5152 7.95449 44.4895 7.94282 44.4615 7.94282H33.338ZM12.8298 9.26156V7.94282H1.70629C1.67832 7.94282 1.65035 7.95449 1.6317 7.97316C1.61305 7.99183 1.60373 8.01751 1.60373 8.04785V62.2938C1.60373 62.3125 1.60373 62.3265 1.60606 62.3335V62.3358C1.60839 62.3405 1.61772 62.3522 1.63403 62.3685H1.6317C1.64569 62.3825 1.65734 62.3918 1.66434 62.3942C1.67366 62.3988 1.68998 62.4012 1.70862 62.4012L44.4615 62.3241C44.4895 62.3241 44.5152 62.3101 44.5338 62.2915C44.5524 62.2728 44.5641 62.2448 44.5641 62.2144V46.0977H43.2471V59.2899C43.2471 59.759 43.0559 60.1861 42.7483 60.4942L42.7436 60.4989C42.4336 60.807 42.0093 61.0007 41.5408 61.0007H4.62704C4.15618 61.0007 3.7296 60.807 3.41958 60.4989C3.11189 60.1885 2.92075 59.7613 2.92075 59.2899V10.9724C2.92075 10.5033 3.11189 10.0761 3.41958 9.76572L3.42424 9.76338C3.73193 9.45529 4.15851 9.26156 4.62704 9.26156H12.8298ZM13.4545 50.9829C13.7692 50.6702 14.2751 50.6702 14.5874 50.9829C14.9021 51.2957 14.9021 51.8045 14.5874 52.1173L14.0373 52.6705L14.5874 53.2213C14.9021 53.5341 14.9021 54.0429 14.5874 54.3557C14.2751 54.6708 13.7692 54.6708 13.4545 54.3557L12.9044 53.8048L12.352 54.3557C12.0396 54.6708 11.5315 54.6708 11.2191 54.3557C10.9068 54.0429 10.9068 53.5341 11.2191 53.2213L11.7716 52.6705L11.2191 52.1173C10.9068 51.8045 10.9068 51.2957 11.2191 50.9829C11.5315 50.6702 12.0396 50.6702 12.352 50.9829L12.9044 51.5361L13.4545 50.9829ZM47.972 37.6508C47.3543 37.6508 46.7949 37.9005 46.3893 38.3066V38.309C45.9837 38.7151 45.7319 39.2753 45.7319 39.8915C45.7319 40.51 45.9837 41.0702 46.3893 41.4763C46.7949 41.8824 47.3543 42.1322 47.972 42.1322C48.5874 42.1322 49.1469 41.8824 49.5524 41.474L49.5548 41.4763C49.958 41.0702 50.2098 40.51 50.2098 39.8915C50.2098 39.2753 49.958 38.7151 49.5548 38.309L49.5501 38.3066C49.1469 37.9005 48.5874 37.6508 47.972 37.6508ZM48.4219 39.4387C48.3077 39.3266 48.1492 39.2543 47.972 39.2543C47.7949 39.2543 47.6364 39.3266 47.5221 39.441H47.5198C47.4056 39.5554 47.3357 39.7141 47.3357 39.8915C47.3357 40.0665 47.4079 40.2276 47.5221 40.3419C47.6364 40.4563 47.7949 40.5287 47.972 40.5287C48.1492 40.5287 48.3077 40.4586 48.4219 40.3443V40.3419C48.5361 40.2276 48.6061 40.0665 48.6061 39.8915C48.6061 39.7141 48.5361 39.5554 48.4219 39.4387ZM47.972 37.1209C48.5221 37.1209 49.0117 36.8992 49.3706 36.5374L49.3753 36.5351C49.7296 36.178 49.9557 35.6832 49.9837 35.1417L50.3543 27.5279C50.359 27.4252 50.3613 27.3552 50.3613 27.3132C50.3613 26.6036 50.1842 25.9478 49.8368 25.4436C49.4452 24.8788 48.8601 24.5147 48.0956 24.4773L47.972 24.4726L47.8485 24.4773C47.0816 24.5147 46.4988 24.8788 46.1049 25.4436C45.7576 25.9478 45.5804 26.6036 45.5804 27.3132C45.5804 27.3552 45.5828 27.4252 45.5874 27.5279L45.9604 35.1417C45.986 35.6855 46.2121 36.1826 46.5688 36.5374C46.9277 36.8992 47.4172 37.1209 47.972 37.1209ZM47.7016 35.4031C47.7716 35.4731 47.8671 35.5174 47.972 35.5174C48.0769 35.5174 48.1725 35.4731 48.2401 35.4054C48.3263 35.3214 48.38 35.2023 48.3846 35.067L48.7576 27.4532L48.7599 27.3132C48.7599 26.9187 48.6783 26.5803 48.5221 26.3539C48.4103 26.1905 48.2424 26.0878 48.0187 26.0761C48.0047 26.0761 48.0186 26.0785 47.972 26.0785C47.9231 26.0785 47.9394 26.0761 47.9231 26.0761C47.7016 26.0878 47.5338 26.1905 47.4219 26.3539C47.2634 26.5803 47.1842 26.9187 47.1842 27.3132V27.4532L47.5571 35.067C47.5641 35.2 47.6177 35.319 47.7016 35.4031ZM10.5921 48.4131H15.2168C15.7506 48.4131 16.2354 48.6325 16.5851 48.9826C16.9371 49.3351 17.1538 49.8206 17.1538 50.3551V54.9859C17.1538 55.5204 16.9371 56.0058 16.5851 56.3559C16.2354 56.7061 15.7506 56.9255 15.2168 56.9255H10.5921C10.0583 56.9255 9.57343 56.7061 9.22378 56.3559C8.87179 56.0058 8.65501 55.5204 8.65501 54.9859V50.3551C8.65501 49.8206 8.87179 49.3351 9.22378 48.9826C9.57343 48.6325 10.0583 48.4131 10.5921 48.4131ZM15.2168 50.019C15.3077 50.019 15.3916 50.0563 15.4522 50.117C15.5128 50.18 15.5501 50.2617 15.5501 50.3551V54.9859C15.5501 55.0769 15.5128 55.1609 15.4522 55.2216C15.3916 55.2823 15.3077 55.3196 15.2168 55.3196H10.5921C10.5012 55.3196 10.4172 55.2823 10.3566 55.2216C10.296 55.1609 10.2564 55.0769 10.2564 54.9859V50.3551C10.2564 50.2617 10.296 50.18 10.3566 50.117C10.4172 50.0563 10.5012 50.019 10.5921 50.019H15.2168ZM20.4848 55.2356C20.042 55.2356 19.683 54.8762 19.683 54.4327C19.683 53.9892 20.042 53.6298 20.4848 53.6298H36.7133C37.1538 53.6298 37.5128 53.9892 37.5128 54.4327C37.5128 54.8762 37.1538 55.2356 36.7133 55.2356H20.4848ZM20.4848 51.7088C20.042 51.7088 19.683 51.3494 19.683 50.9059C19.683 50.4624 20.042 50.103 20.4848 50.103H36.7133C37.1538 50.103 37.5128 50.4624 37.5128 50.9059C37.5128 51.3494 37.1538 51.7088 36.7133 51.7088H20.4848ZM22.6876 34.5185C22.7832 34.5231 22.9161 34.5255 23.0839 34.5255C23.2517 34.5255 23.3846 34.5231 23.4802 34.5185C23.5921 34.5138 23.6946 34.5068 23.7879 34.4998L23.9417 33.6782C23.9953 33.3888 24.1235 33.132 24.3147 32.929C24.5012 32.7259 24.7483 32.5765 25.0326 32.5042C25.3263 32.4271 25.6131 32.3314 25.8928 32.2171L25.9301 32.2007C26.2308 32.077 26.5152 31.9346 26.7786 31.7783C27.0326 31.6289 27.31 31.5612 27.5874 31.5705C27.8648 31.5799 28.1399 31.6709 28.38 31.8366L28.9627 32.2357C29.0956 32.1144 29.2214 31.993 29.3357 31.874L29.3403 31.8693C29.4685 31.7363 29.5874 31.6079 29.6923 31.4842L29.303 30.9147C29.1352 30.6719 29.0466 30.3988 29.0373 30.1187C29.028 29.841 29.0956 29.5632 29.2448 29.3112C29.4009 29.0451 29.5408 28.7603 29.6667 28.4592C29.7879 28.1628 29.8904 27.864 29.9674 27.5629C30.042 27.2759 30.1911 27.0308 30.3939 26.8417C30.5967 26.6527 30.8531 26.522 31.1422 26.4683L31.7669 26.3516C31.7739 26.2629 31.7762 26.1859 31.7786 26.1298C31.7809 26.0785 31.7809 25.9758 31.7809 25.8171C31.7809 25.656 31.7809 25.5533 31.7786 25.502C31.7762 25.446 31.7739 25.3713 31.7669 25.2802L31.1422 25.1635C30.8531 25.1098 30.5967 24.9791 30.3939 24.7901C30.1911 24.601 30.042 24.3559 29.9674 24.0712C29.8904 23.7678 29.7879 23.469 29.6667 23.1749C29.5408 22.8715 29.4009 22.5867 29.2448 22.323C29.0956 22.0686 29.028 21.7908 29.0373 21.5131C29.0466 21.2353 29.1352 20.9599 29.303 20.7195L29.6923 20.1476C29.5851 20.0239 29.4662 19.8932 29.3357 19.7578C29.2214 19.6388 29.0956 19.5174 28.9627 19.3961L28.4056 19.7788L28.3776 19.7999C28.1375 19.9632 27.8671 20.0519 27.5874 20.0613H27.5828C27.3077 20.0706 27.0303 20.0029 26.7786 19.8535C26.5198 19.7018 26.2471 19.5641 25.965 19.4451L25.9277 19.4311C25.634 19.3097 25.3333 19.207 25.0326 19.13C24.7483 19.0553 24.5012 18.9059 24.3147 18.7028C24.1235 18.4998 23.9953 18.243 23.9417 17.9536L23.7879 17.132C23.6946 17.125 23.5897 17.118 23.4779 17.1133C23.3846 17.1087 23.2517 17.1063 23.0839 17.1063C22.9161 17.1063 22.7832 17.1087 22.69 17.1133C22.5781 17.118 22.4732 17.125 22.3776 17.132L22.2261 17.9536C22.1725 18.243 22.0443 18.4998 21.8531 18.7028C21.6643 18.9059 21.4196 19.0553 21.1352 19.13C20.8322 19.207 20.5338 19.3097 20.2378 19.4311C19.9371 19.5571 19.6527 19.6972 19.3893 19.8535C19.1352 20.0029 18.8578 20.0706 18.5804 20.0613C18.303 20.0519 18.028 19.9632 17.7879 19.7952L17.2051 19.3961C17.0723 19.5174 16.9441 19.6411 16.8275 19.7625C16.6993 19.8956 16.5804 20.0263 16.4755 20.1476L16.8648 20.7195C17.0326 20.9599 17.1212 21.233 17.1305 21.5131C17.1399 21.7908 17.0723 22.0686 16.9231 22.323C16.7669 22.5867 16.627 22.8715 16.5012 23.1726C16.38 23.469 16.2774 23.7678 16.2005 24.0712C16.1259 24.3559 15.9767 24.6034 15.7739 24.7901C15.5711 24.9791 15.3147 25.1098 15.0256 25.1635L14.4009 25.2802C14.3939 25.3713 14.3916 25.446 14.3893 25.5043C14.3869 25.5557 14.3869 25.6584 14.3869 25.8171C14.3869 25.9735 14.3869 26.0762 14.3893 26.1275C14.3916 26.1859 14.3939 26.2605 14.4009 26.3516L15.0256 26.4683C15.3147 26.522 15.5711 26.6527 15.7739 26.8417C15.9767 27.0308 16.1259 27.2759 16.2005 27.5629C16.2774 27.864 16.38 28.1628 16.5012 28.4592C16.627 28.7603 16.7669 29.0451 16.9231 29.3112C17.0723 29.5632 17.1399 29.841 17.1305 30.1187C17.1212 30.3988 17.0326 30.6719 16.8648 30.9147L16.4755 31.4842C16.5804 31.6055 16.697 31.7339 16.8228 31.8646L16.8275 31.8693C16.9464 31.9907 17.0723 32.1144 17.2051 32.2357L17.7879 31.8366C18.028 31.6709 18.303 31.5799 18.5804 31.5705C18.8578 31.5612 19.1352 31.6289 19.3893 31.7783C19.6527 31.9346 19.9371 32.077 20.2378 32.2007V32.2031C20.5291 32.3221 20.8275 32.4225 21.1352 32.5042C21.4196 32.5765 21.6643 32.7259 21.8531 32.929C22.0443 33.132 22.1725 33.3888 22.2261 33.6782L22.3776 34.4998C22.4732 34.5068 22.5758 34.5138 22.6876 34.5185ZM23.0839 20.248C21.5501 20.248 20.1608 20.8712 19.1562 21.8795L19.1515 21.8818C18.1469 22.8902 17.5245 24.2813 17.5245 25.8171C17.5245 27.3505 18.1469 28.7417 19.1515 29.75L19.1562 29.7523C20.1608 30.7606 21.5501 31.3838 23.0839 31.3838C24.62 31.3838 26.0093 30.7606 27.0163 29.7523H27.014L27.0163 29.75C28.021 28.7417 28.6434 27.3505 28.6434 25.8171C28.6434 24.3046 28.0396 22.9322 27.0606 21.9285C27.0466 21.9122 27.0303 21.8958 27.0163 21.8795C26.0093 20.8712 24.62 20.248 23.0839 20.248ZM25.8811 23.0139C25.1655 22.2973 24.1772 21.8538 23.0839 21.8538C21.9907 21.8538 21 22.2973 20.2844 23.0115C19.5688 23.7281 19.1259 24.7201 19.1259 25.8171C19.1259 26.9117 19.5688 27.9037 20.2844 28.6203C21 29.3368 21.9907 29.778 23.0839 29.778C24.1772 29.778 25.1655 29.3345 25.8811 28.6179L25.8835 28.6203C26.5991 27.9037 27.042 26.9117 27.042 25.8171C27.042 24.7411 26.6131 23.7631 25.9207 23.0512L25.8811 23.0139Z" fill="black"/>
</svg>
