<svg width="38" height="38" viewBox="0 0 38 38" fill="none" xmlns="http://www.w3.org/2000/svg">
<mask id="path-1-inside-1_223_284" fill="white">
<path fill-rule="evenodd" clip-rule="evenodd" d="M13.6637 21.3563C13.5912 21.3563 13.5003 21.3533 13.3878 21.3486C13.3046 21.3455 13.2136 21.3378 13.115 21.3301C12.9146 21.3116 12.7358 21.23 12.5971 21.1051C12.4584 20.9787 12.3613 20.8076 12.3243 20.6103L12.2333 20.1171C12.0222 20.0601 11.8157 19.9892 11.6184 19.9075H11.6168C11.418 19.8258 11.2238 19.7287 11.0327 19.6193L10.6797 19.8613C10.5102 19.9784 10.3144 20.0293 10.1218 20.0169C9.92755 20.0046 9.73951 19.9291 9.58692 19.7919C9.4852 19.701 9.38347 19.6023 9.28175 19.4975L9.2802 19.4944C9.18927 19.4004 9.09525 19.2956 8.99815 19.1816C8.86868 19.0274 8.79932 18.8425 8.79007 18.6544C8.78082 18.4679 8.83169 18.2768 8.94574 18.1119L9.18156 17.7682C9.07213 17.5771 8.97503 17.3829 8.89334 17.184C8.81165 16.9883 8.74229 16.7817 8.68372 16.5675L8.30456 16.4981C8.10419 16.4611 7.93002 16.3594 7.80363 16.2176C7.7913 16.2053 7.78051 16.1899 7.76972 16.176C7.66337 16.0404 7.59556 15.8724 7.58169 15.689C7.5786 15.6335 7.57552 15.561 7.57244 15.4732C7.56781 15.3714 7.56627 15.299 7.56627 15.2589C7.56627 15.2204 7.56781 15.148 7.57244 15.0462C7.57552 14.9584 7.5786 14.8844 7.58169 14.8304V14.8274C7.5971 14.627 7.67725 14.4451 7.80517 14.3002C7.9331 14.1584 8.10573 14.0583 8.30456 14.0213L8.68372 13.9504C8.74229 13.7361 8.81165 13.5311 8.89334 13.3338C8.97503 13.1366 9.07213 12.9408 9.18156 12.7497L8.94574 12.4075C8.83169 12.2411 8.78082 12.0515 8.79007 11.8634C8.79932 11.6754 8.86868 11.492 8.99815 11.3378C9.09525 11.2238 9.18927 11.119 9.2802 11.0234L9.28175 11.0219C9.38347 10.9171 9.4852 10.8184 9.58692 10.7275C9.73951 10.5903 9.92755 10.5132 10.1218 10.5009C10.3129 10.4886 10.5086 10.5395 10.6797 10.6566L11.0327 10.9001C11.2238 10.7891 11.418 10.6936 11.6168 10.6104C11.8126 10.5302 12.0191 10.4593 12.2333 10.4023L12.3243 9.90906C12.3613 9.71177 12.4584 9.54069 12.5971 9.4143C12.7358 9.28791 12.9146 9.20622 13.115 9.18927C13.2136 9.18002 13.3046 9.17385 13.3893 9.17077C13.5003 9.16461 13.5928 9.16306 13.6637 9.16306C13.7346 9.16306 13.8255 9.16461 13.938 9.17077C14.0213 9.17385 14.1122 9.18002 14.2108 9.18927C14.4112 9.20622 14.5915 9.28791 14.7287 9.4143C14.8674 9.53914 14.9661 9.71023 15.0015 9.90752L15.094 10.4023C15.3083 10.4593 15.5148 10.5302 15.7105 10.6104L15.7337 10.6211C15.9263 10.7028 16.1144 10.7953 16.2947 10.9001L16.6476 10.6566C16.8172 10.5395 17.0129 10.4886 17.2056 10.5009C17.3983 10.5132 17.5878 10.5903 17.7404 10.7275C17.8406 10.8184 17.9423 10.9171 18.0456 11.0234C18.1366 11.1174 18.2321 11.2238 18.3292 11.3378C18.4571 11.492 18.528 11.6754 18.5373 11.8634C18.5465 12.0515 18.4941 12.2411 18.3801 12.4075L18.1443 12.7497C18.2552 12.9408 18.3523 13.1366 18.434 13.3338C18.5157 13.5311 18.5851 13.7361 18.6421 13.9504L19.0228 14.0213C19.2232 14.0583 19.3973 14.1584 19.5237 14.3002C19.5361 14.3141 19.5468 14.328 19.5576 14.3434C19.664 14.479 19.7318 14.647 19.7441 14.8304C19.7488 14.8844 19.7518 14.9553 19.7549 15.0447C19.758 15.1464 19.7595 15.2189 19.7595 15.2589C19.7595 15.299 19.758 15.373 19.7549 15.4747C19.7518 15.5626 19.7488 15.6335 19.7441 15.689C19.7303 15.8909 19.6501 16.0743 19.5222 16.2176H19.5237C19.3973 16.3594 19.2232 16.4611 19.0228 16.4981L18.6421 16.5675C18.5851 16.7817 18.5157 16.9883 18.434 17.184C18.3523 17.3829 18.2552 17.5771 18.1443 17.7682L18.3801 18.1119L18.3816 18.1134H18.3832C18.4941 18.2768 18.5465 18.4679 18.5373 18.6544C18.528 18.8425 18.4571 19.0274 18.3292 19.1816C18.2321 19.2956 18.1366 19.402 18.0441 19.4975L18.041 19.5006C17.9408 19.6054 17.8391 19.7025 17.7404 19.7919C17.5863 19.9291 17.3983 20.0046 17.2056 20.0169C17.0129 20.0293 16.8172 19.9784 16.6476 19.8613L16.2947 19.6193C16.1036 19.7287 15.9078 19.8258 15.7105 19.9075L15.6859 19.9168C15.4948 19.9954 15.2975 20.0616 15.094 20.1171L15.0015 20.6103C14.9661 20.8076 14.8674 20.9787 14.7287 21.1051C14.5915 21.23 14.4112 21.3116 14.2108 21.3301C14.1137 21.3378 14.0228 21.3455 13.9396 21.3486C13.8271 21.3533 13.7346 21.3563 13.6637 21.3563ZM14.5037 2.81288C14.5037 2.34895 14.1276 1.97287 13.6637 1.97287C13.1997 1.97287 12.8237 2.34895 12.8237 2.81288C12.8237 3.27682 13.1997 3.6529 13.6637 3.6529C14.1276 3.6529 14.5037 3.27682 14.5037 2.81288ZM12.1255 26.3363C11.8634 26.3363 11.6507 26.1236 11.6507 25.8616C11.6507 25.5996 11.8634 25.3869 12.1255 25.3869H18.9072C18.9134 25.0878 18.9966 24.7904 19.1584 24.5129L19.1723 24.4898L19.3095 24.2509H12.1255C11.8634 24.2509 11.6507 24.0398 11.6507 23.7777C11.6507 23.5157 11.8634 23.303 12.1255 23.303H19.8582L22.987 17.8822V17.8807L24.6486 15.0015V6.48582C24.6486 6.46732 24.6424 6.45191 24.6332 6.44112L24.6301 6.43958C24.6208 6.43033 24.6054 6.42416 24.5869 6.42416H19.7333V7.35665C19.7333 7.61868 19.5206 7.83138 19.2586 7.83138H8.06874C7.80672 7.83138 7.59402 7.61868 7.59402 7.35665V6.42416H2.74044C2.72195 6.42416 2.70653 6.43033 2.69574 6.44112C2.68496 6.45191 2.67725 6.46732 2.67725 6.48582V35.0447C2.67725 35.0616 2.68496 35.077 2.69574 35.0894C2.70808 35.1002 2.72349 35.1063 2.74044 35.1063H24.5869C24.6039 35.1063 24.6208 35.1002 24.6316 35.0894C24.6424 35.0786 24.6486 35.0632 24.6486 35.0447V27.2472H20.7352C20.4054 27.2472 20.0956 27.164 19.8227 27.0068L19.8212 27.0052V27.0068C19.553 26.8511 19.3264 26.6245 19.1584 26.3363H12.1255ZM19.8967 25.6828C19.8705 25.598 19.8566 25.5117 19.8566 25.4238C19.8566 25.2759 19.8967 25.1264 19.9769 24.9877C19.9815 24.9784 19.9877 24.9692 19.9907 24.9599L20.5148 24.0521C20.5333 24.0274 20.5487 24.0012 20.561 23.9735L23.8055 18.3539V18.3554L25.5163 15.393C25.5287 15.373 25.541 15.3545 25.5502 15.3329L27.2457 12.3983C27.258 12.3798 27.2688 12.3613 27.278 12.3412L27.6356 11.7232L27.648 11.7001C27.7266 11.569 27.8314 11.4673 27.9516 11.3964C28.078 11.324 28.2275 11.2854 28.3939 11.2854C28.5573 11.2854 28.7068 11.324 28.8332 11.3964L28.8548 11.4087C28.9719 11.4812 29.0737 11.5875 29.1523 11.7232L32.9809 18.3554L36.811 24.9877L36.8218 25.0062C36.8942 25.1402 36.9312 25.282 36.9312 25.4238C36.9312 25.5749 36.8912 25.7244 36.811 25.8631C36.7293 26.0049 36.6199 26.1143 36.4935 26.1868L36.492 26.1883V26.1868C36.3656 26.2592 36.2161 26.2993 36.0512 26.2993H20.7352C20.5703 26.2993 20.4208 26.2608 20.2944 26.1883L20.2959 26.1868C20.1665 26.1128 20.057 26.0034 19.9769 25.8631L19.9753 25.8616H19.9769C19.9507 25.8169 19.9291 25.7722 19.9121 25.7244C19.9075 25.7105 19.9029 25.6967 19.8967 25.6828ZM6.47194 25.0971C6.28236 24.9152 6.27774 24.6162 6.45807 24.4282C6.63995 24.2401 6.93896 24.234 7.127 24.4143L7.44605 24.7226L8.11344 23.9195C8.2799 23.7176 8.57891 23.6899 8.77928 23.8563C8.98119 24.0228 9.00893 24.3218 8.84247 24.5237L7.85141 25.7182H7.84987C7.84217 25.7275 7.83446 25.7367 7.82675 25.7444C7.64642 25.9325 7.34587 25.9386 7.15783 25.7583L6.47194 25.0971ZM6.27003 22.3042H9.00739C9.32336 22.3042 9.61004 22.4337 9.81812 22.6402C10.0247 22.8483 10.1541 23.135 10.1541 23.451V26.1883C10.1541 26.5043 10.0247 26.791 9.81812 26.9991C9.61004 27.2056 9.32336 27.3351 9.00739 27.3351H6.27003C5.95407 27.3351 5.66738 27.2056 5.45931 26.9991C5.25277 26.791 5.1233 26.5043 5.1233 26.1883V23.451C5.1233 23.135 5.25277 22.8483 5.45931 22.6402C5.66738 22.4337 5.95407 22.3042 6.27003 22.3042ZM9.00739 23.2521C9.06134 23.2521 9.11066 23.2753 9.14611 23.3107C9.1831 23.3477 9.20468 23.397 9.20468 23.451V26.1883C9.20468 26.2423 9.1831 26.2916 9.14611 26.3271C9.11066 26.364 9.06134 26.3856 9.00739 26.3856H6.27003C6.21609 26.3856 6.16677 26.364 6.12978 26.3271C6.09433 26.2916 6.07121 26.2423 6.07121 26.1883V23.451C6.07121 23.397 6.09433 23.3477 6.12978 23.3107C6.16677 23.2753 6.21609 23.2521 6.27003 23.2521H9.00739ZM8.54346 5.57645V4.59926C8.54346 4.24013 8.69143 3.91029 8.92879 3.67293C9.16769 3.43557 9.49445 3.28761 9.85511 3.28761H11.3255C11.5875 3.28761 11.8002 3.07491 11.8002 2.81288C11.8002 2.29809 12.0083 1.83107 12.3443 1.49353L12.3459 1.49507C12.6819 1.15752 13.1489 0.949445 13.6637 0.949445C14.1785 0.949445 14.6455 1.15752 14.983 1.49353C15.319 1.83107 15.5271 2.29809 15.5271 2.81288C15.5271 3.07491 15.7398 3.28761 16.0018 3.28761H17.4707C17.8314 3.28761 18.1597 3.43557 18.3986 3.67293C18.6359 3.91029 18.7839 4.24013 18.7839 4.59926V6.88347H8.54346V5.57645ZM10.8909 2.33816H9.85511C9.23397 2.33816 8.66831 2.59248 8.25832 3.00246C8.04716 3.21362 7.87762 3.4664 7.76202 3.74692H1.0111C0.733662 3.74692 0.482429 3.85943 0.299013 4.04285L0.297472 4.04439C0.114057 4.2278 0 4.48058 0 4.75647V36.8203C0 36.9559 0.0262023 37.0854 0.0770653 37.2071H0.0786066C0.12947 37.332 0.203453 37.4414 0.297472 37.5354V37.5339L0.299013 37.5354C0.394575 37.631 0.504007 37.705 0.62577 37.7543C0.745992 37.8036 0.875462 37.8298 1.01264 37.8283L26.3163 37.7836C26.5952 37.7836 26.848 37.6695 27.0299 37.4861C27.2118 37.3042 27.3258 37.0515 27.3258 36.774V27.2472H36.0512C36.3825 27.2472 36.6939 27.164 36.9667 27.0068L36.9651 27.0052C37.2364 26.8496 37.463 26.6214 37.6295 26.3348C37.7959 26.045 37.8807 25.7336 37.8807 25.4238C37.8807 25.1248 37.8021 24.8243 37.6464 24.5438C37.6402 24.533 37.6356 24.5237 37.6295 24.5129L33.7993 17.8807L29.9707 11.2485C29.8119 10.9741 29.5946 10.7522 29.3357 10.5965C29.3264 10.5903 29.3172 10.5841 29.3079 10.578C29.0351 10.4208 28.7238 10.3375 28.3939 10.3375C28.0641 10.3375 27.7543 10.4208 27.4815 10.578C27.4275 10.6088 27.3767 10.6427 27.3258 10.6797V4.75647C27.3258 4.49599 27.2256 4.25863 27.0623 4.0783C27.0515 4.06597 27.0407 4.05364 27.0299 4.04285C26.8465 3.85943 26.5937 3.74692 26.3147 3.74692H19.5653C19.4497 3.4664 19.2802 3.21362 19.069 3.00246C18.6591 2.59248 18.0934 2.33816 17.4707 2.33816H16.4365C16.3363 1.75247 16.0542 1.22842 15.652 0.82614L15.6504 0.824599C15.1418 0.314426 14.439 0 13.6637 0C12.8869 0 12.184 0.314426 11.6754 0.824599V0.82614C11.2716 1.22842 10.9911 1.75247 10.8909 2.33816ZM19.7333 4.69482V5.47472H24.5869C24.8628 5.47472 25.1156 5.58878 25.299 5.77065L25.3005 5.77373C25.484 5.95715 25.598 6.20838 25.598 6.48582V13.3585L26.3779 12.0083V4.75647C26.3779 4.7426 26.3733 4.73181 26.3671 4.72256L26.3594 4.71331C26.3471 4.70253 26.3317 4.69482 26.3147 4.69482H19.7333ZM7.59402 5.47472V4.69482H1.0111C0.994142 4.69482 0.978729 4.70098 0.966399 4.71177V4.71331C0.95561 4.7241 0.949445 4.73952 0.949445 4.75647V36.8203C0.949445 36.8326 0.950986 36.8403 0.952527 36.8449H0.950986L0.952527 36.8465C0.952527 36.848 0.958693 36.8542 0.96794 36.865H0.966399C0.975647 36.8727 0.981812 36.8788 0.986436 36.8804C0.992601 36.8819 1.00185 36.8835 1.01264 36.8835L26.3163 36.8388C26.3317 36.8388 26.3486 36.8311 26.3594 36.8203C26.3702 36.8079 26.3779 36.7925 26.3779 36.774V27.2472H25.598V35.0447C25.598 35.3221 25.484 35.5749 25.3021 35.7583L25.299 35.7598C25.1171 35.9417 24.8644 36.0558 24.5869 36.0558H2.74044C2.46147 36.0558 2.20869 35.9417 2.02528 35.7598C1.8434 35.5764 1.72935 35.3237 1.72935 35.0447V6.48582C1.72935 6.20838 1.84186 5.95561 2.02528 5.77219L2.02682 5.77065C2.21023 5.58878 2.46301 5.47472 2.74044 5.47472H7.59402ZM7.96393 30.1356C8.15043 29.9507 8.45098 29.9507 8.63594 30.1356C8.8209 30.3206 8.8209 30.6211 8.63594 30.8061L8.30918 31.1328L8.63594 31.4581C8.8209 31.643 8.8209 31.9436 8.63594 32.1285C8.45098 32.315 8.15043 32.315 7.96393 32.1285L7.63871 31.8033L7.31196 32.1285C7.127 32.315 6.82645 32.315 6.64149 32.1285C6.45653 31.9436 6.45653 31.643 6.64149 31.4581L6.96825 31.1328L6.64149 30.8061C6.45653 30.6211 6.45653 30.3206 6.64149 30.1356C6.82645 29.9507 7.127 29.9507 7.31196 30.1356L7.63871 30.4608L7.96393 30.1356ZM28.3939 22.2549C28.0271 22.2549 27.6957 22.4029 27.4568 22.6418L27.4584 22.6433C27.2179 22.8838 27.0684 23.2152 27.0684 23.5789C27.0684 23.9442 27.2164 24.2756 27.4568 24.516C27.6957 24.7565 28.0271 24.9044 28.3939 24.9044C28.7577 24.9044 29.0891 24.7549 29.3295 24.5145V24.516C29.57 24.2756 29.7179 23.9442 29.7179 23.5789C29.7179 23.2152 29.57 22.8838 29.3295 22.6449L29.328 22.6418C29.0891 22.4029 28.7577 22.2549 28.3939 22.2549ZM28.6606 23.3123C28.5928 23.2444 28.4988 23.2028 28.3939 23.2028C28.2891 23.2028 28.1951 23.246 28.1273 23.3138H28.1258C28.0579 23.3801 28.0179 23.4741 28.0179 23.5789C28.0179 23.6837 28.0595 23.7777 28.1273 23.8455C28.1951 23.9134 28.2891 23.955 28.3939 23.955C28.4988 23.955 28.5928 23.9134 28.659 23.8471V23.8455C28.7269 23.7777 28.77 23.6837 28.77 23.5789C28.77 23.4741 28.7284 23.3801 28.6606 23.3123ZM28.3939 21.942C28.7192 21.942 29.0089 21.8095 29.2216 21.5968L29.2232 21.5952C29.4343 21.3841 29.5684 21.0928 29.5838 20.7722L29.8042 16.2716C29.8073 16.2099 29.8089 16.1683 29.8089 16.1436C29.8089 15.7244 29.7025 15.3375 29.4975 15.0401C29.2663 14.7041 28.9195 14.4898 28.4664 14.4682L28.3939 14.4652L28.32 14.4682C27.8668 14.4898 27.5216 14.7041 27.2888 15.0401C27.0838 15.3375 26.979 15.7259 26.979 16.1436C26.979 16.1683 26.9806 16.2099 26.9836 16.2716L27.2025 20.7722C27.2195 21.0928 27.352 21.3856 27.5632 21.5968C27.7759 21.8095 28.0656 21.942 28.3939 21.942ZM28.2336 20.9263C28.2753 20.9679 28.3307 20.9926 28.3939 20.9926C28.4556 20.9926 28.5126 20.9679 28.5527 20.9279C28.6036 20.8785 28.6344 20.8061 28.639 20.7275L28.8594 16.2269V16.1436C28.8594 15.9109 28.8116 15.7121 28.7192 15.5764C28.6529 15.4809 28.5527 15.4192 28.4217 15.4131C28.4124 15.4131 28.4217 15.4146 28.3939 15.4146C28.3647 15.4146 28.3739 15.4131 28.3647 15.4131C28.2336 15.4192 28.1335 15.4809 28.0672 15.5764C27.9747 15.7105 27.9269 15.9109 27.9269 16.1436L27.9285 16.2269L28.1489 20.7275C28.152 20.8061 28.1843 20.8755 28.2336 20.9263ZM6.27003 28.6174H9.00739C9.32336 28.6174 9.61004 28.7454 9.81812 28.9534C10.0247 29.16 10.1541 29.4482 10.1541 29.7642V32.5C10.1541 32.8159 10.0247 33.1042 9.81812 33.3107C9.61004 33.5188 9.32336 33.6483 9.00739 33.6483H6.27003C5.95407 33.6483 5.66738 33.5188 5.45931 33.3107C5.25277 33.1042 5.1233 32.8159 5.1233 32.5V29.7642C5.1233 29.4482 5.25277 29.16 5.45931 28.9534C5.66738 28.7454 5.95407 28.6174 6.27003 28.6174ZM9.00739 29.5653C9.06134 29.5653 9.11066 29.5885 9.14611 29.6239C9.1831 29.6594 9.20468 29.7102 9.20468 29.7642V32.5C9.20468 32.5555 9.1831 32.6048 9.14611 32.6402C9.11066 32.6757 9.06134 32.6988 9.00739 32.6988H6.27003C6.21609 32.6988 6.16677 32.6757 6.12978 32.6402C6.09433 32.6048 6.07121 32.5555 6.07121 32.5V29.7642C6.07121 29.7102 6.09433 29.6594 6.12978 29.6239C6.16677 29.5885 6.21609 29.5653 6.27003 29.5653H9.00739ZM12.1255 32.6495C11.8634 32.6495 11.6507 32.4368 11.6507 32.1748C11.6507 31.9127 11.8634 31.7 12.1255 31.7H21.7293C21.9914 31.7 22.2041 31.9127 22.2041 32.1748C22.2041 32.4368 21.9914 32.6495 21.7293 32.6495H12.1255ZM12.1255 30.5641C11.8634 30.5641 11.6507 30.3514 11.6507 30.0894C11.6507 29.8274 11.8634 29.6162 12.1255 29.6162H21.7293C21.9914 29.6162 22.2041 29.8274 22.2041 30.0894C22.2041 30.3514 21.9914 30.5641 21.7293 30.5641H12.1255ZM13.4294 20.4038C13.4849 20.4054 13.565 20.4069 13.6637 20.4069C13.7623 20.4069 13.8409 20.4054 13.898 20.4038C13.9642 20.4007 14.0243 20.3961 14.0814 20.393L14.1708 19.906C14.2031 19.7349 14.2787 19.5838 14.3912 19.4636C14.5022 19.3434 14.6486 19.2555 14.8166 19.2124C14.9907 19.1661 15.1603 19.1107 15.3267 19.0428L15.3468 19.0336C15.5256 18.9596 15.6936 18.8764 15.8508 18.7839C16.0003 18.696 16.1652 18.6544 16.3286 18.6606C16.4935 18.6668 16.6554 18.7192 16.7987 18.8178L17.1424 19.0552C17.2226 18.9827 17.295 18.9103 17.3644 18.8394L17.3659 18.8378C17.4414 18.7592 17.5123 18.6822 17.5755 18.6097L17.3443 18.2722C17.2457 18.1288 17.1933 17.967 17.1871 17.8036C17.1809 17.6387 17.221 17.4738 17.3089 17.3243C17.4013 17.1671 17.4861 16.9991 17.5586 16.8218C17.631 16.6461 17.6911 16.4689 17.7374 16.2916C17.7821 16.1236 17.8699 15.9772 17.9901 15.8662C18.1088 15.7537 18.2614 15.6766 18.4325 15.6443L18.8024 15.5764C18.8055 15.5225 18.8086 15.4778 18.8101 15.4439C18.8101 15.4146 18.8116 15.353 18.8116 15.2589C18.8116 15.1649 18.8101 15.1048 18.8101 15.074C18.8086 15.0401 18.8055 14.9954 18.8024 14.943L18.4325 14.8736C18.2614 14.8428 18.1103 14.7657 17.9901 14.6532C17.8699 14.5422 17.7821 14.3958 17.7374 14.2278C17.6911 14.049 17.631 13.8718 17.5601 13.6976C17.4861 13.5188 17.4013 13.3508 17.3089 13.1936C17.2226 13.0441 17.1809 12.8807 17.1871 12.7158C17.1933 12.5509 17.2457 12.389 17.3443 12.2457L17.5755 11.9097C17.5123 11.8357 17.4414 11.7586 17.3644 11.6785C17.295 11.6091 17.2226 11.5367 17.1424 11.4642L16.8126 11.6908L16.7972 11.7031C16.6554 11.8002 16.4935 11.8526 16.3286 11.8573H16.3271C16.1637 11.8634 16.0003 11.8234 15.8508 11.7355C15.6967 11.6446 15.5364 11.5644 15.3684 11.4935L15.3468 11.4858C15.1726 11.4134 14.9954 11.3533 14.8166 11.307C14.6486 11.2639 14.5022 11.1745 14.3912 11.0558C14.2787 10.9356 14.2031 10.783 14.1708 10.6119L14.0814 10.1264C14.0243 10.1218 13.9627 10.1187 13.898 10.1156C13.8409 10.1125 13.7623 10.111 13.6637 10.111C13.5635 10.111 13.4849 10.1125 13.4294 10.1156C13.3631 10.1187 13.303 10.1218 13.246 10.1264L13.1566 10.6119C13.1242 10.783 13.0472 10.9356 12.9362 11.0558C12.8237 11.176 12.6788 11.2623 12.5092 11.307C12.332 11.3533 12.1547 11.4134 11.979 11.4858C11.8018 11.5598 11.6338 11.643 11.4766 11.7355C11.3271 11.8234 11.1621 11.8634 10.9988 11.8573C10.8338 11.8526 10.672 11.7987 10.5287 11.7016L10.185 11.4642C10.1048 11.5367 10.0308 11.6091 9.95992 11.6816C9.8844 11.7602 9.81504 11.8372 9.75184 11.9097L9.98304 12.2457C10.0817 12.389 10.1341 12.5509 10.1403 12.7158C10.1464 12.8807 10.1048 13.0441 10.0169 13.1936C9.92447 13.3508 9.84124 13.5188 9.76726 13.6976C9.69482 13.8718 9.63471 14.049 9.58847 14.2278C9.54531 14.3958 9.45746 14.5422 9.33723 14.6532C9.21701 14.7657 9.06596 14.8428 8.89488 14.8736L8.52342 14.943C8.52034 14.9969 8.5188 15.0401 8.51726 15.0755C8.51572 15.1063 8.51572 15.1665 8.51572 15.2589C8.51572 15.353 8.51572 15.4131 8.51726 15.4423C8.5188 15.4778 8.52034 15.5225 8.52342 15.5764L8.89488 15.6443C9.06596 15.6766 9.21701 15.7537 9.33723 15.8662C9.45746 15.9772 9.54531 16.1221 9.58847 16.2916C9.63471 16.4704 9.69482 16.6461 9.76726 16.8218C9.84124 16.9991 9.92447 17.1671 10.0169 17.3243C10.1048 17.4738 10.1464 17.6387 10.1403 17.8036C10.1341 17.967 10.0817 18.1288 9.98304 18.2722L9.75184 18.6097C9.8135 18.6822 9.88286 18.7577 9.95838 18.8348L9.95992 18.8378C10.0308 18.9087 10.1048 18.9827 10.185 19.0552L10.5287 18.8178C10.672 18.7192 10.8338 18.6668 10.9988 18.6606C11.1621 18.656 11.3271 18.696 11.4766 18.7839C11.6338 18.8764 11.8018 18.9596 11.979 19.0336C12.1517 19.1045 12.3289 19.1646 12.5092 19.2124C12.6788 19.2555 12.8237 19.3434 12.9362 19.4636C13.0472 19.5838 13.1242 19.7349 13.1566 19.906L13.246 20.393C13.303 20.3961 13.3631 20.4007 13.4294 20.4038ZM13.6637 11.9682C12.7559 11.9682 11.9343 12.3366 11.3378 12.9331L11.3363 12.9346C10.7414 13.5296 10.373 14.3526 10.373 15.2589C10.373 16.1668 10.7414 16.9883 11.3363 17.5848L11.3378 17.5863C11.9343 18.1812 12.7559 18.5512 13.6637 18.5512C14.5715 18.5512 15.3946 18.1812 15.9911 17.5863L15.9895 17.5848H15.9911C16.586 16.9883 16.9544 16.1668 16.9544 15.2589C16.9544 14.365 16.5968 13.5542 16.0173 12.9608C16.008 12.9516 16.0003 12.9423 15.9911 12.9331C15.3946 12.3366 14.5715 11.9682 13.6637 11.9682ZM15.319 13.6036C14.8967 13.1797 14.3095 12.9177 13.6637 12.9177C13.0163 12.9177 12.4291 13.1797 12.0068 13.602C11.5829 14.0259 11.3209 14.6116 11.3209 15.2589C11.3209 15.9063 11.5829 16.4935 12.0068 16.9174C12.4291 17.3397 13.0163 17.6017 13.6637 17.6017C14.3095 17.6017 14.8967 17.3397 15.319 16.9158L15.3206 16.9174C15.7444 16.4935 16.0049 15.9063 16.0049 15.2589C16.0049 14.6239 15.7522 14.0459 15.3422 13.6251L15.319 13.6036Z"/>
</mask>
<path fill-rule="evenodd" clip-rule="evenodd" d="M13.6637 21.3563C13.5912 21.3563 13.5003 21.3533 13.3878 21.3486C13.3046 21.3455 13.2136 21.3378 13.115 21.3301C12.9146 21.3116 12.7358 21.23 12.5971 21.1051C12.4584 20.9787 12.3613 20.8076 12.3243 20.6103L12.2333 20.1171C12.0222 20.0601 11.8157 19.9892 11.6184 19.9075H11.6168C11.418 19.8258 11.2238 19.7287 11.0327 19.6193L10.6797 19.8613C10.5102 19.9784 10.3144 20.0293 10.1218 20.0169C9.92755 20.0046 9.73951 19.9291 9.58692 19.7919C9.4852 19.701 9.38347 19.6023 9.28175 19.4975L9.2802 19.4944C9.18927 19.4004 9.09525 19.2956 8.99815 19.1816C8.86868 19.0274 8.79932 18.8425 8.79007 18.6544C8.78082 18.4679 8.83169 18.2768 8.94574 18.1119L9.18156 17.7682C9.07213 17.5771 8.97503 17.3829 8.89334 17.184C8.81165 16.9883 8.74229 16.7817 8.68372 16.5675L8.30456 16.4981C8.10419 16.4611 7.93002 16.3594 7.80363 16.2176C7.7913 16.2053 7.78051 16.1899 7.76972 16.176C7.66337 16.0404 7.59556 15.8724 7.58169 15.689C7.5786 15.6335 7.57552 15.561 7.57244 15.4732C7.56781 15.3714 7.56627 15.299 7.56627 15.2589C7.56627 15.2204 7.56781 15.148 7.57244 15.0462C7.57552 14.9584 7.5786 14.8844 7.58169 14.8304V14.8274C7.5971 14.627 7.67725 14.4451 7.80517 14.3002C7.9331 14.1584 8.10573 14.0583 8.30456 14.0213L8.68372 13.9504C8.74229 13.7361 8.81165 13.5311 8.89334 13.3338C8.97503 13.1366 9.07213 12.9408 9.18156 12.7497L8.94574 12.4075C8.83169 12.2411 8.78082 12.0515 8.79007 11.8634C8.79932 11.6754 8.86868 11.492 8.99815 11.3378C9.09525 11.2238 9.18927 11.119 9.2802 11.0234L9.28175 11.0219C9.38347 10.9171 9.4852 10.8184 9.58692 10.7275C9.73951 10.5903 9.92755 10.5132 10.1218 10.5009C10.3129 10.4886 10.5086 10.5395 10.6797 10.6566L11.0327 10.9001C11.2238 10.7891 11.418 10.6936 11.6168 10.6104C11.8126 10.5302 12.0191 10.4593 12.2333 10.4023L12.3243 9.90906C12.3613 9.71177 12.4584 9.54069 12.5971 9.4143C12.7358 9.28791 12.9146 9.20622 13.115 9.18927C13.2136 9.18002 13.3046 9.17385 13.3893 9.17077C13.5003 9.16461 13.5928 9.16306 13.6637 9.16306C13.7346 9.16306 13.8255 9.16461 13.938 9.17077C14.0213 9.17385 14.1122 9.18002 14.2108 9.18927C14.4112 9.20622 14.5915 9.28791 14.7287 9.4143C14.8674 9.53914 14.9661 9.71023 15.0015 9.90752L15.094 10.4023C15.3083 10.4593 15.5148 10.5302 15.7105 10.6104L15.7337 10.6211C15.9263 10.7028 16.1144 10.7953 16.2947 10.9001L16.6476 10.6566C16.8172 10.5395 17.0129 10.4886 17.2056 10.5009C17.3983 10.5132 17.5878 10.5903 17.7404 10.7275C17.8406 10.8184 17.9423 10.9171 18.0456 11.0234C18.1366 11.1174 18.2321 11.2238 18.3292 11.3378C18.4571 11.492 18.528 11.6754 18.5373 11.8634C18.5465 12.0515 18.4941 12.2411 18.3801 12.4075L18.1443 12.7497C18.2552 12.9408 18.3523 13.1366 18.434 13.3338C18.5157 13.5311 18.5851 13.7361 18.6421 13.9504L19.0228 14.0213C19.2232 14.0583 19.3973 14.1584 19.5237 14.3002C19.5361 14.3141 19.5468 14.328 19.5576 14.3434C19.664 14.479 19.7318 14.647 19.7441 14.8304C19.7488 14.8844 19.7518 14.9553 19.7549 15.0447C19.758 15.1464 19.7595 15.2189 19.7595 15.2589C19.7595 15.299 19.758 15.373 19.7549 15.4747C19.7518 15.5626 19.7488 15.6335 19.7441 15.689C19.7303 15.8909 19.6501 16.0743 19.5222 16.2176H19.5237C19.3973 16.3594 19.2232 16.4611 19.0228 16.4981L18.6421 16.5675C18.5851 16.7817 18.5157 16.9883 18.434 17.184C18.3523 17.3829 18.2552 17.5771 18.1443 17.7682L18.3801 18.1119L18.3816 18.1134H18.3832C18.4941 18.2768 18.5465 18.4679 18.5373 18.6544C18.528 18.8425 18.4571 19.0274 18.3292 19.1816C18.2321 19.2956 18.1366 19.402 18.0441 19.4975L18.041 19.5006C17.9408 19.6054 17.8391 19.7025 17.7404 19.7919C17.5863 19.9291 17.3983 20.0046 17.2056 20.0169C17.0129 20.0293 16.8172 19.9784 16.6476 19.8613L16.2947 19.6193C16.1036 19.7287 15.9078 19.8258 15.7105 19.9075L15.6859 19.9168C15.4948 19.9954 15.2975 20.0616 15.094 20.1171L15.0015 20.6103C14.9661 20.8076 14.8674 20.9787 14.7287 21.1051C14.5915 21.23 14.4112 21.3116 14.2108 21.3301C14.1137 21.3378 14.0228 21.3455 13.9396 21.3486C13.8271 21.3533 13.7346 21.3563 13.6637 21.3563ZM14.5037 2.81288C14.5037 2.34895 14.1276 1.97287 13.6637 1.97287C13.1997 1.97287 12.8237 2.34895 12.8237 2.81288C12.8237 3.27682 13.1997 3.6529 13.6637 3.6529C14.1276 3.6529 14.5037 3.27682 14.5037 2.81288ZM12.1255 26.3363C11.8634 26.3363 11.6507 26.1236 11.6507 25.8616C11.6507 25.5996 11.8634 25.3869 12.1255 25.3869H18.9072C18.9134 25.0878 18.9966 24.7904 19.1584 24.5129L19.1723 24.4898L19.3095 24.2509H12.1255C11.8634 24.2509 11.6507 24.0398 11.6507 23.7777C11.6507 23.5157 11.8634 23.303 12.1255 23.303H19.8582L22.987 17.8822V17.8807L24.6486 15.0015V6.48582C24.6486 6.46732 24.6424 6.45191 24.6332 6.44112L24.6301 6.43958C24.6208 6.43033 24.6054 6.42416 24.5869 6.42416H19.7333V7.35665C19.7333 7.61868 19.5206 7.83138 19.2586 7.83138H8.06874C7.80672 7.83138 7.59402 7.61868 7.59402 7.35665V6.42416H2.74044C2.72195 6.42416 2.70653 6.43033 2.69574 6.44112C2.68496 6.45191 2.67725 6.46732 2.67725 6.48582V35.0447C2.67725 35.0616 2.68496 35.077 2.69574 35.0894C2.70808 35.1002 2.72349 35.1063 2.74044 35.1063H24.5869C24.6039 35.1063 24.6208 35.1002 24.6316 35.0894C24.6424 35.0786 24.6486 35.0632 24.6486 35.0447V27.2472H20.7352C20.4054 27.2472 20.0956 27.164 19.8227 27.0068L19.8212 27.0052V27.0068C19.553 26.8511 19.3264 26.6245 19.1584 26.3363H12.1255ZM19.8967 25.6828C19.8705 25.598 19.8566 25.5117 19.8566 25.4238C19.8566 25.2759 19.8967 25.1264 19.9769 24.9877C19.9815 24.9784 19.9877 24.9692 19.9907 24.9599L20.5148 24.0521C20.5333 24.0274 20.5487 24.0012 20.561 23.9735L23.8055 18.3539V18.3554L25.5163 15.393C25.5287 15.373 25.541 15.3545 25.5502 15.3329L27.2457 12.3983C27.258 12.3798 27.2688 12.3613 27.278 12.3412L27.6356 11.7232L27.648 11.7001C27.7266 11.569 27.8314 11.4673 27.9516 11.3964C28.078 11.324 28.2275 11.2854 28.3939 11.2854C28.5573 11.2854 28.7068 11.324 28.8332 11.3964L28.8548 11.4087C28.9719 11.4812 29.0737 11.5875 29.1523 11.7232L32.9809 18.3554L36.811 24.9877L36.8218 25.0062C36.8942 25.1402 36.9312 25.282 36.9312 25.4238C36.9312 25.5749 36.8912 25.7244 36.811 25.8631C36.7293 26.0049 36.6199 26.1143 36.4935 26.1868L36.492 26.1883V26.1868C36.3656 26.2592 36.2161 26.2993 36.0512 26.2993H20.7352C20.5703 26.2993 20.4208 26.2608 20.2944 26.1883L20.2959 26.1868C20.1665 26.1128 20.057 26.0034 19.9769 25.8631L19.9753 25.8616H19.9769C19.9507 25.8169 19.9291 25.7722 19.9121 25.7244C19.9075 25.7105 19.9029 25.6967 19.8967 25.6828ZM6.47194 25.0971C6.28236 24.9152 6.27774 24.6162 6.45807 24.4282C6.63995 24.2401 6.93896 24.234 7.127 24.4143L7.44605 24.7226L8.11344 23.9195C8.2799 23.7176 8.57891 23.6899 8.77928 23.8563C8.98119 24.0228 9.00893 24.3218 8.84247 24.5237L7.85141 25.7182H7.84987C7.84217 25.7275 7.83446 25.7367 7.82675 25.7444C7.64642 25.9325 7.34587 25.9386 7.15783 25.7583L6.47194 25.0971ZM6.27003 22.3042H9.00739C9.32336 22.3042 9.61004 22.4337 9.81812 22.6402C10.0247 22.8483 10.1541 23.135 10.1541 23.451V26.1883C10.1541 26.5043 10.0247 26.791 9.81812 26.9991C9.61004 27.2056 9.32336 27.3351 9.00739 27.3351H6.27003C5.95407 27.3351 5.66738 27.2056 5.45931 26.9991C5.25277 26.791 5.1233 26.5043 5.1233 26.1883V23.451C5.1233 23.135 5.25277 22.8483 5.45931 22.6402C5.66738 22.4337 5.95407 22.3042 6.27003 22.3042ZM9.00739 23.2521C9.06134 23.2521 9.11066 23.2753 9.14611 23.3107C9.1831 23.3477 9.20468 23.397 9.20468 23.451V26.1883C9.20468 26.2423 9.1831 26.2916 9.14611 26.3271C9.11066 26.364 9.06134 26.3856 9.00739 26.3856H6.27003C6.21609 26.3856 6.16677 26.364 6.12978 26.3271C6.09433 26.2916 6.07121 26.2423 6.07121 26.1883V23.451C6.07121 23.397 6.09433 23.3477 6.12978 23.3107C6.16677 23.2753 6.21609 23.2521 6.27003 23.2521H9.00739ZM8.54346 5.57645V4.59926C8.54346 4.24013 8.69143 3.91029 8.92879 3.67293C9.16769 3.43557 9.49445 3.28761 9.85511 3.28761H11.3255C11.5875 3.28761 11.8002 3.07491 11.8002 2.81288C11.8002 2.29809 12.0083 1.83107 12.3443 1.49353L12.3459 1.49507C12.6819 1.15752 13.1489 0.949445 13.6637 0.949445C14.1785 0.949445 14.6455 1.15752 14.983 1.49353C15.319 1.83107 15.5271 2.29809 15.5271 2.81288C15.5271 3.07491 15.7398 3.28761 16.0018 3.28761H17.4707C17.8314 3.28761 18.1597 3.43557 18.3986 3.67293C18.6359 3.91029 18.7839 4.24013 18.7839 4.59926V6.88347H8.54346V5.57645ZM10.8909 2.33816H9.85511C9.23397 2.33816 8.66831 2.59248 8.25832 3.00246C8.04716 3.21362 7.87762 3.4664 7.76202 3.74692H1.0111C0.733662 3.74692 0.482429 3.85943 0.299013 4.04285L0.297472 4.04439C0.114057 4.2278 0 4.48058 0 4.75647V36.8203C0 36.9559 0.0262023 37.0854 0.0770653 37.2071H0.0786066C0.12947 37.332 0.203453 37.4414 0.297472 37.5354V37.5339L0.299013 37.5354C0.394575 37.631 0.504007 37.705 0.62577 37.7543C0.745992 37.8036 0.875462 37.8298 1.01264 37.8283L26.3163 37.7836C26.5952 37.7836 26.848 37.6695 27.0299 37.4861C27.2118 37.3042 27.3258 37.0515 27.3258 36.774V27.2472H36.0512C36.3825 27.2472 36.6939 27.164 36.9667 27.0068L36.9651 27.0052C37.2364 26.8496 37.463 26.6214 37.6295 26.3348C37.7959 26.045 37.8807 25.7336 37.8807 25.4238C37.8807 25.1248 37.8021 24.8243 37.6464 24.5438C37.6402 24.533 37.6356 24.5237 37.6295 24.5129L33.7993 17.8807L29.9707 11.2485C29.8119 10.9741 29.5946 10.7522 29.3357 10.5965C29.3264 10.5903 29.3172 10.5841 29.3079 10.578C29.0351 10.4208 28.7238 10.3375 28.3939 10.3375C28.0641 10.3375 27.7543 10.4208 27.4815 10.578C27.4275 10.6088 27.3767 10.6427 27.3258 10.6797V4.75647C27.3258 4.49599 27.2256 4.25863 27.0623 4.0783C27.0515 4.06597 27.0407 4.05364 27.0299 4.04285C26.8465 3.85943 26.5937 3.74692 26.3147 3.74692H19.5653C19.4497 3.4664 19.2802 3.21362 19.069 3.00246C18.6591 2.59248 18.0934 2.33816 17.4707 2.33816H16.4365C16.3363 1.75247 16.0542 1.22842 15.652 0.82614L15.6504 0.824599C15.1418 0.314426 14.439 0 13.6637 0C12.8869 0 12.184 0.314426 11.6754 0.824599V0.82614C11.2716 1.22842 10.9911 1.75247 10.8909 2.33816ZM19.7333 4.69482V5.47472H24.5869C24.8628 5.47472 25.1156 5.58878 25.299 5.77065L25.3005 5.77373C25.484 5.95715 25.598 6.20838 25.598 6.48582V13.3585L26.3779 12.0083V4.75647C26.3779 4.7426 26.3733 4.73181 26.3671 4.72256L26.3594 4.71331C26.3471 4.70253 26.3317 4.69482 26.3147 4.69482H19.7333ZM7.59402 5.47472V4.69482H1.0111C0.994142 4.69482 0.978729 4.70098 0.966399 4.71177V4.71331C0.95561 4.7241 0.949445 4.73952 0.949445 4.75647V36.8203C0.949445 36.8326 0.950986 36.8403 0.952527 36.8449H0.950986L0.952527 36.8465C0.952527 36.848 0.958693 36.8542 0.96794 36.865H0.966399C0.975647 36.8727 0.981812 36.8788 0.986436 36.8804C0.992601 36.8819 1.00185 36.8835 1.01264 36.8835L26.3163 36.8388C26.3317 36.8388 26.3486 36.8311 26.3594 36.8203C26.3702 36.8079 26.3779 36.7925 26.3779 36.774V27.2472H25.598V35.0447C25.598 35.3221 25.484 35.5749 25.3021 35.7583L25.299 35.7598C25.1171 35.9417 24.8644 36.0558 24.5869 36.0558H2.74044C2.46147 36.0558 2.20869 35.9417 2.02528 35.7598C1.8434 35.5764 1.72935 35.3237 1.72935 35.0447V6.48582C1.72935 6.20838 1.84186 5.95561 2.02528 5.77219L2.02682 5.77065C2.21023 5.58878 2.46301 5.47472 2.74044 5.47472H7.59402ZM7.96393 30.1356C8.15043 29.9507 8.45098 29.9507 8.63594 30.1356C8.8209 30.3206 8.8209 30.6211 8.63594 30.8061L8.30918 31.1328L8.63594 31.4581C8.8209 31.643 8.8209 31.9436 8.63594 32.1285C8.45098 32.315 8.15043 32.315 7.96393 32.1285L7.63871 31.8033L7.31196 32.1285C7.127 32.315 6.82645 32.315 6.64149 32.1285C6.45653 31.9436 6.45653 31.643 6.64149 31.4581L6.96825 31.1328L6.64149 30.8061C6.45653 30.6211 6.45653 30.3206 6.64149 30.1356C6.82645 29.9507 7.127 29.9507 7.31196 30.1356L7.63871 30.4608L7.96393 30.1356ZM28.3939 22.2549C28.0271 22.2549 27.6957 22.4029 27.4568 22.6418L27.4584 22.6433C27.2179 22.8838 27.0684 23.2152 27.0684 23.5789C27.0684 23.9442 27.2164 24.2756 27.4568 24.516C27.6957 24.7565 28.0271 24.9044 28.3939 24.9044C28.7577 24.9044 29.0891 24.7549 29.3295 24.5145V24.516C29.57 24.2756 29.7179 23.9442 29.7179 23.5789C29.7179 23.2152 29.57 22.8838 29.3295 22.6449L29.328 22.6418C29.0891 22.4029 28.7577 22.2549 28.3939 22.2549ZM28.6606 23.3123C28.5928 23.2444 28.4988 23.2028 28.3939 23.2028C28.2891 23.2028 28.1951 23.246 28.1273 23.3138H28.1258C28.0579 23.3801 28.0179 23.4741 28.0179 23.5789C28.0179 23.6837 28.0595 23.7777 28.1273 23.8455C28.1951 23.9134 28.2891 23.955 28.3939 23.955C28.4988 23.955 28.5928 23.9134 28.659 23.8471V23.8455C28.7269 23.7777 28.77 23.6837 28.77 23.5789C28.77 23.4741 28.7284 23.3801 28.6606 23.3123ZM28.3939 21.942C28.7192 21.942 29.0089 21.8095 29.2216 21.5968L29.2232 21.5952C29.4343 21.3841 29.5684 21.0928 29.5838 20.7722L29.8042 16.2716C29.8073 16.2099 29.8089 16.1683 29.8089 16.1436C29.8089 15.7244 29.7025 15.3375 29.4975 15.0401C29.2663 14.7041 28.9195 14.4898 28.4664 14.4682L28.3939 14.4652L28.32 14.4682C27.8668 14.4898 27.5216 14.7041 27.2888 15.0401C27.0838 15.3375 26.979 15.7259 26.979 16.1436C26.979 16.1683 26.9806 16.2099 26.9836 16.2716L27.2025 20.7722C27.2195 21.0928 27.352 21.3856 27.5632 21.5968C27.7759 21.8095 28.0656 21.942 28.3939 21.942ZM28.2336 20.9263C28.2753 20.9679 28.3307 20.9926 28.3939 20.9926C28.4556 20.9926 28.5126 20.9679 28.5527 20.9279C28.6036 20.8785 28.6344 20.8061 28.639 20.7275L28.8594 16.2269V16.1436C28.8594 15.9109 28.8116 15.7121 28.7192 15.5764C28.6529 15.4809 28.5527 15.4192 28.4217 15.4131C28.4124 15.4131 28.4217 15.4146 28.3939 15.4146C28.3647 15.4146 28.3739 15.4131 28.3647 15.4131C28.2336 15.4192 28.1335 15.4809 28.0672 15.5764C27.9747 15.7105 27.9269 15.9109 27.9269 16.1436L27.9285 16.2269L28.1489 20.7275C28.152 20.8061 28.1843 20.8755 28.2336 20.9263ZM6.27003 28.6174H9.00739C9.32336 28.6174 9.61004 28.7454 9.81812 28.9534C10.0247 29.16 10.1541 29.4482 10.1541 29.7642V32.5C10.1541 32.8159 10.0247 33.1042 9.81812 33.3107C9.61004 33.5188 9.32336 33.6483 9.00739 33.6483H6.27003C5.95407 33.6483 5.66738 33.5188 5.45931 33.3107C5.25277 33.1042 5.1233 32.8159 5.1233 32.5V29.7642C5.1233 29.4482 5.25277 29.16 5.45931 28.9534C5.66738 28.7454 5.95407 28.6174 6.27003 28.6174ZM9.00739 29.5653C9.06134 29.5653 9.11066 29.5885 9.14611 29.6239C9.1831 29.6594 9.20468 29.7102 9.20468 29.7642V32.5C9.20468 32.5555 9.1831 32.6048 9.14611 32.6402C9.11066 32.6757 9.06134 32.6988 9.00739 32.6988H6.27003C6.21609 32.6988 6.16677 32.6757 6.12978 32.6402C6.09433 32.6048 6.07121 32.5555 6.07121 32.5V29.7642C6.07121 29.7102 6.09433 29.6594 6.12978 29.6239C6.16677 29.5885 6.21609 29.5653 6.27003 29.5653H9.00739ZM12.1255 32.6495C11.8634 32.6495 11.6507 32.4368 11.6507 32.1748C11.6507 31.9127 11.8634 31.7 12.1255 31.7H21.7293C21.9914 31.7 22.2041 31.9127 22.2041 32.1748C22.2041 32.4368 21.9914 32.6495 21.7293 32.6495H12.1255ZM12.1255 30.5641C11.8634 30.5641 11.6507 30.3514 11.6507 30.0894C11.6507 29.8274 11.8634 29.6162 12.1255 29.6162H21.7293C21.9914 29.6162 22.2041 29.8274 22.2041 30.0894C22.2041 30.3514 21.9914 30.5641 21.7293 30.5641H12.1255ZM13.4294 20.4038C13.4849 20.4054 13.565 20.4069 13.6637 20.4069C13.7623 20.4069 13.8409 20.4054 13.898 20.4038C13.9642 20.4007 14.0243 20.3961 14.0814 20.393L14.1708 19.906C14.2031 19.7349 14.2787 19.5838 14.3912 19.4636C14.5022 19.3434 14.6486 19.2555 14.8166 19.2124C14.9907 19.1661 15.1603 19.1107 15.3267 19.0428L15.3468 19.0336C15.5256 18.9596 15.6936 18.8764 15.8508 18.7839C16.0003 18.696 16.1652 18.6544 16.3286 18.6606C16.4935 18.6668 16.6554 18.7192 16.7987 18.8178L17.1424 19.0552C17.2226 18.9827 17.295 18.9103 17.3644 18.8394L17.3659 18.8378C17.4414 18.7592 17.5123 18.6822 17.5755 18.6097L17.3443 18.2722C17.2457 18.1288 17.1933 17.967 17.1871 17.8036C17.1809 17.6387 17.221 17.4738 17.3089 17.3243C17.4013 17.1671 17.4861 16.9991 17.5586 16.8218C17.631 16.6461 17.6911 16.4689 17.7374 16.2916C17.7821 16.1236 17.8699 15.9772 17.9901 15.8662C18.1088 15.7537 18.2614 15.6766 18.4325 15.6443L18.8024 15.5764C18.8055 15.5225 18.8086 15.4778 18.8101 15.4439C18.8101 15.4146 18.8116 15.353 18.8116 15.2589C18.8116 15.1649 18.8101 15.1048 18.8101 15.074C18.8086 15.0401 18.8055 14.9954 18.8024 14.943L18.4325 14.8736C18.2614 14.8428 18.1103 14.7657 17.9901 14.6532C17.8699 14.5422 17.7821 14.3958 17.7374 14.2278C17.6911 14.049 17.631 13.8718 17.5601 13.6976C17.4861 13.5188 17.4013 13.3508 17.3089 13.1936C17.2226 13.0441 17.1809 12.8807 17.1871 12.7158C17.1933 12.5509 17.2457 12.389 17.3443 12.2457L17.5755 11.9097C17.5123 11.8357 17.4414 11.7586 17.3644 11.6785C17.295 11.6091 17.2226 11.5367 17.1424 11.4642L16.8126 11.6908L16.7972 11.7031C16.6554 11.8002 16.4935 11.8526 16.3286 11.8573H16.3271C16.1637 11.8634 16.0003 11.8234 15.8508 11.7355C15.6967 11.6446 15.5364 11.5644 15.3684 11.4935L15.3468 11.4858C15.1726 11.4134 14.9954 11.3533 14.8166 11.307C14.6486 11.2639 14.5022 11.1745 14.3912 11.0558C14.2787 10.9356 14.2031 10.783 14.1708 10.6119L14.0814 10.1264C14.0243 10.1218 13.9627 10.1187 13.898 10.1156C13.8409 10.1125 13.7623 10.111 13.6637 10.111C13.5635 10.111 13.4849 10.1125 13.4294 10.1156C13.3631 10.1187 13.303 10.1218 13.246 10.1264L13.1566 10.6119C13.1242 10.783 13.0472 10.9356 12.9362 11.0558C12.8237 11.176 12.6788 11.2623 12.5092 11.307C12.332 11.3533 12.1547 11.4134 11.979 11.4858C11.8018 11.5598 11.6338 11.643 11.4766 11.7355C11.3271 11.8234 11.1621 11.8634 10.9988 11.8573C10.8338 11.8526 10.672 11.7987 10.5287 11.7016L10.185 11.4642C10.1048 11.5367 10.0308 11.6091 9.95992 11.6816C9.8844 11.7602 9.81504 11.8372 9.75184 11.9097L9.98304 12.2457C10.0817 12.389 10.1341 12.5509 10.1403 12.7158C10.1464 12.8807 10.1048 13.0441 10.0169 13.1936C9.92447 13.3508 9.84124 13.5188 9.76726 13.6976C9.69482 13.8718 9.63471 14.049 9.58847 14.2278C9.54531 14.3958 9.45746 14.5422 9.33723 14.6532C9.21701 14.7657 9.06596 14.8428 8.89488 14.8736L8.52342 14.943C8.52034 14.9969 8.5188 15.0401 8.51726 15.0755C8.51572 15.1063 8.51572 15.1665 8.51572 15.2589C8.51572 15.353 8.51572 15.4131 8.51726 15.4423C8.5188 15.4778 8.52034 15.5225 8.52342 15.5764L8.89488 15.6443C9.06596 15.6766 9.21701 15.7537 9.33723 15.8662C9.45746 15.9772 9.54531 16.1221 9.58847 16.2916C9.63471 16.4704 9.69482 16.6461 9.76726 16.8218C9.84124 16.9991 9.92447 17.1671 10.0169 17.3243C10.1048 17.4738 10.1464 17.6387 10.1403 17.8036C10.1341 17.967 10.0817 18.1288 9.98304 18.2722L9.75184 18.6097C9.8135 18.6822 9.88286 18.7577 9.95838 18.8348L9.95992 18.8378C10.0308 18.9087 10.1048 18.9827 10.185 19.0552L10.5287 18.8178C10.672 18.7192 10.8338 18.6668 10.9988 18.6606C11.1621 18.656 11.3271 18.696 11.4766 18.7839C11.6338 18.8764 11.8018 18.9596 11.979 19.0336C12.1517 19.1045 12.3289 19.1646 12.5092 19.2124C12.6788 19.2555 12.8237 19.3434 12.9362 19.4636C13.0472 19.5838 13.1242 19.7349 13.1566 19.906L13.246 20.393C13.303 20.3961 13.3631 20.4007 13.4294 20.4038ZM13.6637 11.9682C12.7559 11.9682 11.9343 12.3366 11.3378 12.9331L11.3363 12.9346C10.7414 13.5296 10.373 14.3526 10.373 15.2589C10.373 16.1668 10.7414 16.9883 11.3363 17.5848L11.3378 17.5863C11.9343 18.1812 12.7559 18.5512 13.6637 18.5512C14.5715 18.5512 15.3946 18.1812 15.9911 17.5863L15.9895 17.5848H15.9911C16.586 16.9883 16.9544 16.1668 16.9544 15.2589C16.9544 14.365 16.5968 13.5542 16.0173 12.9608C16.008 12.9516 16.0003 12.9423 15.9911 12.9331C15.3946 12.3366 14.5715 11.9682 13.6637 11.9682ZM15.319 13.6036C14.8967 13.1797 14.3095 12.9177 13.6637 12.9177C13.0163 12.9177 12.4291 13.1797 12.0068 13.602C11.5829 14.0259 11.3209 14.6116 11.3209 15.2589C11.3209 15.9063 11.5829 16.4935 12.0068 16.9174C12.4291 17.3397 13.0163 17.6017 13.6637 17.6017C14.3095 17.6017 14.8967 17.3397 15.319 16.9158L15.3206 16.9174C15.7444 16.4935 16.0049 15.9063 16.0049 15.2589C16.0049 14.6239 15.7522 14.0459 15.3422 13.6251L15.319 13.6036Z" stroke="black" mask="url(#path-1-inside-1_223_284)"/>
</svg>
