<svg width="60" height="65" viewBox="0 0 60 65" fill="none" xmlns="http://www.w3.org/2000/svg">
<path d="M6.24634 44H13.7488C14.4379 44 14.9976 43.5523 14.9976 43.001C14.9976 42.4477 14.4379 42 13.7488 42H6.24634C5.55719 42 4.99756 42.4477 4.99756 43.001C4.99756 43.5523 5.55719 44 6.24634 44Z" fill="black"/>
<path d="M6.19639 39H15.7987C16.4603 39 16.9976 38.3278 16.9976 37.5C16.9976 36.6722 16.4603 36 15.7987 36H6.19639C5.5348 36 4.99756 36.6722 4.99756 37.5C4.99756 38.3278 5.5348 39 6.19639 39Z" fill="black"/>
<path d="M6.26893 34H17.7237C18.4278 34 18.9976 33.5523 18.9976 32.999C18.9976 32.4477 18.4278 32 17.7237 32H6.26893C5.56731 32 4.99756 32.4477 4.99756 32.999C4.99756 33.5523 5.56731 34 6.26893 34Z" fill="black"/>
<path d="M6.28184 29H12.7108C13.422 29 13.9976 28.3284 13.9976 27.5015C13.9976 26.6716 13.422 26 12.7108 26H6.28184C5.5731 26 4.99756 26.6716 4.99756 27.5015C4.99756 28.3284 5.5731 29 6.28184 29Z" fill="black"/>
<path d="M6.26893 49H17.7237C18.4278 49 18.9976 48.3278 18.9976 47.5C18.9976 46.6722 18.4278 46 17.7237 46H6.26893C5.56731 46 4.99756 46.6722 4.99756 47.5C4.99756 48.3278 5.56731 49 6.26893 49Z" fill="black"/>
<path d="M6.22703 54H19.7657C20.4466 54 20.9976 53.5523 20.9976 53.001C20.9976 52.4477 20.4466 52 19.7657 52H6.22703C5.54854 52 4.99756 52.4477 4.99756 53.001C4.99756 53.5523 5.54854 54 6.22703 54Z" fill="black"/>
<path d="M32.7356 57H6.25704C5.56198 57 4.99756 57.4477 4.99756 57.999C4.99756 58.5523 5.56198 59 6.25704 59H32.7356C33.4331 59 33.9976 58.5523 33.9976 57.999C33.9976 57.4477 33.4331 57 32.7356 57Z" fill="black"/>
<path d="M7.29272 18H26.7024C27.4183 18 27.9976 17.455 27.9976 16.7786V8.22143C27.9976 7.54737 27.4183 7 26.7024 7H7.29272C6.57684 7 5.99756 7.54737 5.99756 8.22143V16.7786C5.99756 17.4526 6.57684 18 7.29272 18ZM8.58535 9.44524H25.4098V15.5571H8.58535V9.44524Z" fill="black"/>
<path d="M27.7767 32.928C24.0712 36.8294 24.0712 43.1744 27.7767 47.0759C31.4822 50.9747 37.5111 50.9747 41.2166 47.0759C44.9246 43.1718 44.9246 36.832 41.2166 32.928C37.5062 29.024 31.4847 29.024 27.7767 32.928ZM39.4422 45.2103C36.7146 48.0796 32.2763 48.0796 29.5486 45.2103C26.8209 42.3384 26.8209 37.6655 29.5486 34.7962C30.8671 33.4079 32.6243 32.6416 34.4966 32.6416C38.3664 32.6416 41.4886 35.9263 41.4886 40.0032C41.4886 41.972 40.7632 43.8221 39.4422 45.2103Z" fill="black"/>
<mask id="mask0_280_122" style="mask-type:luminance" maskUnits="userSpaceOnUse" x="0" y="0" width="60" height="65">
<path d="M0 0H59.0243V64.3333H0V0Z" fill="white"/>
</mask>
<g mask="url(#mask0_280_122)">
<path d="M57.5677 57.6433L49.9384 50.014C49.4504 49.5285 48.6623 49.5285 48.1744 50.014L47.2911 50.8972L45.4881 49.0942C48.2817 45.776 49.3455 41.4844 48.6745 37.4269C48.6745 15.1806 48.6867 16.5469 48.6526 16.3688C48.6038 16.1199 48.4818 15.893 48.311 15.7198C32.335 -0.239099 33.3012 0.668516 33.0255 0.524567C32.8596 0.436733 32.6546 0.383057 32.4497 0.383057H4.99188C2.23732 0.383057 -0.00244141 2.62282 -0.00244141 5.3725V59.0414C-0.00244141 61.7935 2.23732 64.0308 4.99188 64.0308H43.6826C46.3396 64.0308 48.5159 61.9472 48.6672 59.3293L52.2733 62.9353C53.7323 64.3943 56.1087 64.3943 57.5677 62.9353H57.5701C59.0291 61.4763 59.0291 59.1024 57.5677 57.6433ZM42.8775 48.25C38.215 52.9101 30.6296 52.9101 25.9671 48.25C21.3046 43.5899 21.3046 36.0045 25.9671 31.3445C30.6296 26.6844 38.215 26.6844 42.8775 31.3445C47.54 36.0045 47.54 43.5899 42.8775 48.25ZM33.6989 4.64299L44.4146 15.3563H33.6989V4.64299ZM46.1786 59.0414C46.1786 60.4174 45.0587 61.5373 43.6826 61.5373H4.99188C3.61338 61.5373 2.49594 60.4174 2.49594 59.0414V5.3725C2.49594 3.99888 3.61338 2.879 4.99188 2.879H31.2029V16.603C31.2029 17.2935 31.7617 17.8498 32.4497 17.8498H46.1786V31.3908C40.9549 24.0982 30.4661 23.3174 24.2031 29.5805C18.5671 35.214 18.5671 44.3804 24.2031 50.014C29.5121 55.3231 38.0174 55.6598 43.7217 50.8582L45.5272 52.6612L44.6439 53.5444C44.156 54.03 44.156 54.8205 44.6439 55.3084L46.1786 56.8431V59.0414ZM55.8037 61.1713C55.3182 61.6569 54.5252 61.6569 54.0397 61.1713L47.2911 54.4252C47.4644 54.2544 46.9788 54.7375 49.0551 52.6612L55.8037 59.4073C56.2892 59.8929 56.2892 60.6858 55.8037 61.1713Z" fill="black"/>
</g>
</svg>
