<svg width="32" height="25" viewBox="0 0 32 25" fill="none" xmlns="http://www.w3.org/2000/svg">
<mask id="mask0_62_452" style="mask-type:luminance" maskUnits="userSpaceOnUse" x="0" y="0" width="32" height="25">
<path d="M0 0H31.1715V25H0V0Z" fill="white"/>
</mask>
<g mask="url(#mask0_62_452)">
<path d="M30.0786 0.00634766H25.9403C25.3377 0.00634766 24.8474 0.496127 24.8474 1.09868V23.908C24.8474 24.51 25.3377 25.0004 25.9403 25.0004H30.0786C30.6817 25.0004 31.1715 24.51 31.1715 23.908V1.09868C31.1715 0.496127 30.6817 0.00634766 30.0786 0.00634766ZM30.3957 23.908C30.3957 24.0824 30.2535 24.2246 30.0786 24.2246H25.9403C25.7659 24.2246 25.6238 24.0824 25.6238 23.908V22.5455H26.8152C27.0293 22.5455 27.2037 22.3717 27.2037 22.1576C27.2037 21.944 27.0293 21.7702 26.8152 21.7702H25.6238V20.4006H28.2835C28.4976 20.4006 28.6714 20.2268 28.6714 20.0127C28.6714 19.7986 28.4976 19.6248 28.2835 19.6248H25.6238V18.2546H26.8152C27.0293 18.2546 27.2037 18.0808 27.2037 17.8667C27.2037 17.6531 27.0293 17.4793 26.8152 17.4793H25.6238V16.1091H28.2835C28.4976 16.1091 28.6714 15.9354 28.6714 15.7212C28.6714 15.5071 28.4976 15.3333 28.2835 15.3333H25.6238V13.9637H26.8152C27.0293 13.9637 27.2037 13.7899 27.2037 13.5758C27.2037 13.3622 27.0293 13.1884 26.8152 13.1884H25.6238V11.8183H28.2835C28.4976 11.8183 28.6714 11.6445 28.6714 11.4304C28.6714 11.2163 28.4976 11.0425 28.2835 11.0425H25.6238V9.67282H26.8152C27.0293 9.67282 27.2037 9.49903 27.2037 9.28546C27.2037 9.07135 27.0293 8.89756 26.8152 8.89756H25.6238V7.52792H28.2835C28.4976 7.52792 28.6714 7.35413 28.6714 7.14002C28.6714 6.92646 28.4976 6.75212 28.2835 6.75212H25.6238V5.38303H26.8152C27.0293 5.38303 27.2037 5.20923 27.2037 4.99513C27.2037 4.78102 27.0293 4.60722 26.8152 4.60722H25.6238V3.23758H28.2835C28.4976 3.23758 28.6714 3.06379 28.6714 2.85023C28.6714 2.63612 28.4976 2.46233 28.2835 2.46233H25.6238V1.09977C25.6238 0.925433 25.7659 0.783239 25.9403 0.783239H30.0786C30.2535 0.783239 30.3957 0.925433 30.3957 1.09977V23.9091V23.908ZM23.322 24.2246H22.2607V9.2081C22.2607 8.99454 22.0869 8.82074 21.8728 8.82074H21.5306V8.51892C21.5306 7.92454 21.0468 7.4413 20.4525 7.4413H20.4448V6.70908C20.9221 6.61537 21.3389 6.35114 21.6287 5.98177C21.6429 5.98177 21.6581 5.98395 21.6723 5.98395C22.6747 5.98395 23.4898 5.16892 23.4898 4.16702V3.53995C23.4898 3.32639 23.316 3.1526 23.1019 3.1526H22.0558V3.04963C22.0558 2.69986 21.7709 2.41547 21.4211 2.41547H18.6927C18.343 2.41547 18.058 2.69986 18.058 3.04963V3.1526H17.012C16.7979 3.1526 16.6241 3.32639 16.6241 3.53995V4.16702C16.6241 5.16892 17.4391 5.98395 18.4416 5.98395C18.4558 5.98395 18.4705 5.98286 18.4852 5.98177C18.775 6.35114 19.1918 6.61537 19.6701 6.70908V7.4413H19.662C19.0676 7.4413 18.5838 7.92454 18.5838 8.51892V8.82074H18.2422C18.0281 8.82074 17.8537 8.99454 17.8537 9.2081V24.2246H16.7936V12.3473C16.7936 12.1337 16.6192 11.9599 16.4051 11.9599H12.774C12.5599 11.9599 12.3861 12.1337 12.3861 12.3473V24.2246H11.3253V16.7613C11.3253 16.5472 11.1516 16.3734 10.9374 16.3734H7.30578C7.09222 16.3734 6.91788 16.5472 6.91788 16.7613V24.2246H5.85714V19.3022C5.85714 19.0887 5.68335 18.9143 5.46924 18.9143H1.83812C1.62401 18.9143 1.45022 19.0887 1.45022 19.3022V24.2246H0.388939C0.17483 24.2246 0.0010376 24.3983 0.0010376 24.6125C0.0010376 24.8266 0.17483 25.0004 0.388939 25.0004H23.3225C23.5366 25.0004 23.7104 24.8266 23.7104 24.6125C23.7104 24.3983 23.5366 24.2246 23.3225 24.2246H23.322ZM22.7139 3.92949V4.16866C22.7139 4.62193 22.4214 5.0082 22.0155 5.15039C22.0411 5.02237 22.0547 4.88889 22.0547 4.75323V3.92949H22.7139ZM17.3994 4.16757V3.9284H18.0575V4.75269C18.0575 4.88834 18.0711 5.02073 18.0973 5.1493C17.6908 5.00711 17.3988 4.62139 17.3988 4.16757H17.3994ZM18.8344 4.75323V3.19237H21.2795V4.75323C21.2795 5.42552 20.7325 5.97251 20.0597 5.97251H20.0531C19.3808 5.97251 18.8338 5.42552 18.8338 4.75323H18.8344ZM19.3596 8.51892C19.3596 8.35276 19.4947 8.2171 19.6614 8.2171H20.453C20.6192 8.2171 20.7548 8.35221 20.7548 8.51892V8.82074H19.3601V8.51892H19.3596ZM18.6295 9.596H21.4843V24.2246H18.6295V9.596ZM13.1613 12.7352H16.0167V24.2246H13.1613V12.7352ZM7.69368 17.1486H10.5485V24.2246H7.69368V17.1486ZM2.22548 19.6901H5.0808V24.2246H2.22548V19.6901ZM2.99038 16.2976C2.83893 16.1462 2.83893 15.901 2.99038 15.7496L7.8909 10.8523C8.04127 10.702 8.28588 10.7014 8.43788 10.8507L9.93555 12.3266L14.9151 7.47835H13.461C13.2469 7.47835 13.0725 7.30455 13.0725 7.09044C13.0725 6.87634 13.2469 6.70254 13.461 6.70254H15.869C16.0831 6.70254 16.2569 6.87634 16.2569 7.09044V9.49739C16.2569 9.71096 16.0831 9.88475 15.869 9.88475C15.6549 9.88475 15.4811 9.71096 15.4811 9.49739V8.00953L10.2047 13.147C10.0532 13.2941 9.81188 13.2936 9.66152 13.1449L8.16657 11.6723L3.539 16.2966C3.46327 16.3717 3.36357 16.4099 3.26496 16.4099C3.16581 16.4099 3.06611 16.3717 2.99038 16.2966V16.2976Z" fill="#3945A2"/>
</g>
</svg>
