<svg width="35" height="29" viewBox="0 0 35 29" fill="none" xmlns="http://www.w3.org/2000/svg">
<mask id="mask0_62_451" style="mask-type:luminance" maskUnits="userSpaceOnUse" x="0" y="8" width="10" height="15">
<path d="M0 8.7417H9.21019V22.4391H0V8.7417Z" fill="white"/>
</mask>
<g mask="url(#mask0_62_451)">
<path d="M5.0262 22.3641C4.91863 22.3641 4.8105 22.3501 4.70182 22.3195L0.936925 21.2711C0.621465 21.183 0.359511 20.9774 0.200109 20.6909C0.0407074 20.405 0.00280765 20.0739 0.0930981 19.7596L3.00302 9.66708C3.1875 9.02725 3.85855 8.65271 4.50062 8.83106L8.26551 9.87943C8.58097 9.9675 8.84292 10.1732 9.00232 10.4591C9.16173 10.7456 9.20018 11.0761 9.10933 11.3915L6.19941 21.484C6.04559 22.0146 5.55512 22.3641 5.0262 22.3641ZM4.9125 21.5626C5.14045 21.6261 5.37844 21.4929 5.44421 21.2655L8.35413 11.173C8.38645 11.0616 8.37308 10.9434 8.31623 10.842C8.25993 10.7405 8.16686 10.6675 8.05483 10.6363L4.28938 9.58794C4.06142 9.52385 3.82344 9.65761 3.75711 9.88501L0.847749 19.9775C0.815423 20.089 0.828799 20.2071 0.885091 20.3085C0.941941 20.4094 1.03446 20.483 1.14705 20.5142L4.9125 21.5626Z" fill="#3945A2"/>
</g>
<path d="M5.52501 13.6821C5.40685 13.6821 5.28702 13.666 5.16997 13.6337C4.83055 13.5395 4.54853 13.3182 4.37575 13.0117C4.20297 12.7051 4.1595 12.3495 4.25369 12.0107C4.44876 11.3106 5.17722 10.8993 5.87725 11.0944C6.57728 11.2889 6.9886 12.0179 6.79353 12.7179C6.69934 13.0574 6.47863 13.3394 6.17209 13.5127C5.97089 13.6247 5.74906 13.6821 5.52501 13.6821ZM5.52222 11.8312C5.43193 11.8312 5.3422 11.8552 5.26138 11.9009C5.13709 11.9705 5.04847 12.0842 5.01002 12.2213C4.93143 12.5039 5.09696 12.7982 5.3801 12.8768C5.51665 12.9152 5.66044 12.8974 5.78473 12.8272C5.90846 12.7575 5.99764 12.6432 6.03609 12.5067C6.11468 12.2236 5.94859 11.9298 5.66602 11.8513C5.61808 11.8379 5.57015 11.8312 5.52222 11.8312Z" fill="#3945A2"/>
<mask id="mask1_62_451" style="mask-type:luminance" maskUnits="userSpaceOnUse" x="25" y="8" width="10" height="15">
<path d="M25.4759 8.7417H34.6716V22.4391H25.4759V8.7417Z" fill="white"/>
</mask>
<g mask="url(#mask1_62_451)">
<path d="M29.6376 22.3641C29.1082 22.3641 28.6177 22.0152 28.4644 21.4835L25.5551 11.3905C25.4648 11.0756 25.5021 10.7445 25.6615 10.4586C25.8215 10.1727 26.0829 9.96648 26.3989 9.87842L30.1643 8.83004C30.8053 8.65169 31.4774 9.02679 31.6619 9.66662L34.5718 19.7591C34.6621 20.074 34.6242 20.4051 34.4648 20.6904C34.3054 20.9763 34.0435 21.1826 33.728 21.2706L29.9626 22.319C29.8539 22.3497 29.7446 22.3641 29.6376 22.3641ZM30.4898 9.57187C30.4508 9.57187 30.4123 9.57689 30.3739 9.58804L26.6084 10.6364C26.4964 10.6676 26.4033 10.7406 26.347 10.8421C26.2902 10.9435 26.2768 11.0617 26.3091 11.1731L29.2191 21.2656C29.2843 21.493 29.5228 21.6262 29.7508 21.5627L33.5157 20.5143C33.6283 20.4831 33.7208 20.4095 33.7771 20.3086C33.8339 20.2072 33.8473 20.0891 33.815 19.9776L30.905 9.8851C30.8521 9.6956 30.6776 9.57187 30.4898 9.57187Z" fill="#3945A2"/>
</g>
<path d="M29.1115 13.6821C28.5346 13.6821 28.0035 13.3004 27.8413 12.7174C27.7471 12.3774 27.7906 12.0224 27.9633 11.7158C28.1361 11.4093 28.4181 11.1886 28.7576 11.0944C29.4576 10.8993 30.186 11.3106 30.3811 12.0107C30.5762 12.7107 30.1649 13.4391 29.4648 13.6342C29.3461 13.6665 29.2274 13.6821 29.1115 13.6821ZM29.1104 11.8312C29.0635 11.8312 29.0156 11.8379 28.9682 11.8513C28.8317 11.8897 28.7174 11.9783 28.6478 12.1026C28.5775 12.2269 28.5603 12.3696 28.5982 12.5073C28.6366 12.6438 28.7252 12.7581 28.8495 12.8277C28.9733 12.898 29.117 12.9152 29.2542 12.8773C29.5373 12.7988 29.7028 12.505 29.6242 12.2219C29.5574 11.9861 29.3439 11.8312 29.1104 11.8312Z" fill="#3945A2"/>
<path d="M24.9938 22.4152C24.7831 22.4152 24.6087 22.2486 24.602 22.0363C24.5936 21.8194 24.7631 21.6377 24.9799 21.6294C24.9994 21.6288 26.9412 21.543 28.4577 20.493C28.6361 20.3698 28.8813 20.4144 29.0045 20.5927C29.1277 20.7711 29.0831 21.0157 28.9047 21.1395C27.1948 22.3233 25.0969 22.4119 25.0088 22.4152C25.0033 22.4152 24.9988 22.4152 24.9938 22.4152Z" fill="#3945A2"/>
<path d="M7.26679 21.9586C7.16591 21.9586 7.06559 21.9201 6.98868 21.8438L5.82382 20.6789C5.67054 20.5257 5.67054 20.2765 5.82382 20.1233C5.97709 19.97 6.22622 19.97 6.37949 20.1233L7.54379 21.2881C7.69707 21.4414 7.69707 21.6905 7.54379 21.8438C7.468 21.9207 7.36712 21.9586 7.26679 21.9586Z" fill="#3945A2"/>
<mask id="mask2_62_451" style="mask-type:luminance" maskUnits="userSpaceOnUse" x="12" y="24" width="9" height="5">
<path d="M12.7772 24.5796H20.7674V28.9999H12.7772V24.5796Z" fill="white"/>
</mask>
<g mask="url(#mask2_62_451)">
<path d="M14.9783 29.0034C14.465 29.0034 13.9527 28.8083 13.562 28.4176L12.8921 27.7471C12.7388 27.5939 12.7388 27.3447 12.8921 27.1915C13.0454 27.0387 13.2945 27.0387 13.4478 27.1915L14.1177 27.8619C14.5926 28.3368 15.364 28.3368 15.8388 27.8619C16.069 27.6334 16.1955 27.3275 16.1955 27.0025C16.1955 26.8442 16.1654 26.6904 16.1069 26.5444C16.0462 26.3939 15.9564 26.259 15.8394 26.142C15.6861 25.9887 15.6861 25.7396 15.8394 25.5863C15.9926 25.433 16.2418 25.433 16.3951 25.5863L17.8871 27.0778C18.3619 27.5526 19.1333 27.5526 19.6082 27.0778C19.8378 26.8481 19.9649 26.5416 19.9649 26.2172C19.9649 25.8928 19.8384 25.5869 19.6082 25.3567C19.4549 25.2034 19.4549 24.9543 19.6082 24.801C19.7614 24.6477 20.0106 24.6477 20.1638 24.801C20.5417 25.1789 20.7496 25.6822 20.7496 26.2172C20.7496 26.7523 20.5417 27.2556 20.1638 27.6334C19.3824 28.4148 18.1122 28.4148 17.332 27.6334L16.9647 27.2661C16.9084 27.7025 16.71 28.105 16.3945 28.4193C16.0027 28.8083 15.4905 29.0034 14.9783 29.0034Z" fill="#3945A2"/>
</g>
<path d="M21.6787 26.5967C21.1654 26.5967 20.6532 26.4017 20.2625 26.0115L16.5968 22.3458C16.4436 22.1926 16.4436 21.9434 16.5968 21.7902C16.7501 21.6369 16.9992 21.6369 17.1525 21.7902L20.8176 25.4558C21.2919 25.9302 22.0639 25.9302 22.5382 25.4558C23.013 24.981 23.013 24.2091 22.5382 23.7348L18.8725 20.0691C18.7192 19.9158 18.7192 19.6667 18.8725 19.5134C19.0258 19.3601 19.2749 19.3601 19.4282 19.5134L23.0938 23.1791C23.8747 23.9599 23.8747 25.2307 23.0938 26.0115C22.7043 26.4017 22.1909 26.5967 21.6787 26.5967Z" fill="#3945A2"/>
<path d="M23.4048 23.7709C22.8698 23.7709 22.367 23.563 21.9891 23.184C21.8359 23.0307 21.8359 22.7816 21.9891 22.6283C22.1424 22.475 22.3915 22.475 22.5448 22.6283C22.775 22.8585 23.0799 22.985 23.4048 22.985C23.7303 22.985 24.0352 22.8585 24.2654 22.6283C24.4476 22.4455 24.5658 22.2142 24.6059 21.9612C24.6165 21.896 24.6221 21.8324 24.6221 21.7678C24.6221 21.4434 24.4955 21.1374 24.2654 20.9067L18.4461 15.0863C18.0225 14.6627 17.401 14.5005 16.8247 14.6627C16.5294 14.7457 16.2629 14.909 16.055 15.1353L14.2414 17.105C14.2375 17.1089 14.2342 17.1128 14.2303 17.1167C13.377 17.9705 11.9892 17.9705 11.1359 17.1167C10.4503 16.4317 10.296 15.3973 10.7502 14.5428C11.3332 13.4477 12.3403 11.9456 13.8301 11.0065C13.8357 11.0031 13.8413 10.9992 13.8468 10.9964C15.0719 10.229 16.4145 9.97147 17.8369 10.229C18.0509 10.2607 21.0116 10.7155 23.334 12.3079L25.851 11.2199C26.0505 11.1347 26.2818 11.2255 26.3671 11.425C26.4541 11.624 26.3621 11.8559 26.162 11.9417L23.4433 13.1166C23.3162 13.1718 23.1691 13.155 23.0576 13.0742C20.8365 11.468 17.7488 11.0104 17.7182 11.0065C17.7137 11.0054 17.7081 11.0048 17.7031 11.0042C16.4714 10.7791 15.3093 11.0031 14.2498 11.6714C14.2442 11.6742 14.2398 11.6775 14.2342 11.6809C12.8982 12.5286 11.9797 13.9047 11.4441 14.9124C11.1532 15.4591 11.2524 16.1218 11.6916 16.561C12.2361 17.1055 13.1217 17.1083 13.669 16.5666L15.4771 14.6036C15.7836 14.2703 16.1765 14.029 16.613 13.9064C17.4624 13.6672 18.3781 13.9064 19.0023 14.5306L24.8216 20.351C25.1995 20.7294 25.4079 21.2327 25.4079 21.7672C25.4079 21.8753 25.3996 21.9829 25.3823 22.0871C25.3165 22.5012 25.1237 22.8813 24.8227 23.1834C24.4432 23.563 23.9399 23.7709 23.4048 23.7709Z" fill="#3945A2"/>
<path d="M8.58485 12.2272C8.40594 12.2272 8.24431 12.1035 8.20251 11.9212C8.15458 11.71 8.28667 11.4993 8.49791 11.4508C11.0522 10.869 13.9243 10.9431 14.0497 10.9459C14.2615 10.9514 14.4331 11.1253 14.4331 11.3388C14.4331 11.5601 14.2497 11.7395 14.0285 11.7317C13.9103 11.7289 11.1325 11.6565 8.67236 12.2166C8.64338 12.2239 8.61439 12.2272 8.58485 12.2272Z" fill="#3945A2"/>
<path d="M8.18025 23.5206C7.79568 23.5206 7.4334 23.3707 7.16142 23.0987C6.88943 22.8267 6.7395 22.4644 6.7395 22.0793C6.7395 21.6942 6.88943 21.3324 7.16142 21.0599L8.40152 19.8198C8.96333 19.258 9.87793 19.258 10.4397 19.8198C10.7117 20.0918 10.8617 20.4541 10.8617 20.8392C10.8617 21.2243 10.7117 21.5866 10.4397 21.8586C10.2865 22.0118 10.0373 22.0118 9.88407 21.8586C9.73079 21.7053 9.73079 21.4562 9.88407 21.3029C10.0084 21.1786 10.0758 21.0142 10.0758 20.8392C10.0758 20.6636 10.0072 20.4998 9.88407 20.3755C9.6288 20.1202 9.21302 20.1202 8.95664 20.3755L7.71709 21.6156C7.5928 21.7399 7.52536 21.9037 7.52536 22.0793C7.52536 22.2543 7.59336 22.4187 7.71709 22.543C7.84082 22.6673 8.00524 22.7347 8.18025 22.7347C8.35581 22.7347 8.51968 22.6662 8.64396 22.543C8.79724 22.3897 9.04637 22.3897 9.19964 22.543C9.35291 22.6963 9.35291 22.9454 9.19964 23.0987C8.9271 23.3707 8.56538 23.5206 8.18025 23.5206Z" fill="#3945A2"/>
<path d="M9.22085 25.4453C8.85132 25.4453 8.48292 25.3049 8.20145 25.024C7.93003 24.7526 7.77954 24.3903 7.77954 24.0052C7.77954 23.62 7.93003 23.2577 8.20145 22.9858L9.88353 21.3037C10.4453 20.7419 11.36 20.7419 11.9218 21.3037C12.1937 21.5762 12.3437 21.9379 12.3437 22.3231C12.3437 22.7082 12.1937 23.0705 11.9218 23.3425C11.7685 23.4957 11.5194 23.4957 11.3661 23.3425C11.2128 23.1892 11.2128 22.9401 11.3661 22.7868C11.4904 22.6625 11.5578 22.4981 11.5578 22.3231C11.5578 22.1481 11.4893 21.9836 11.3661 21.8594C11.1108 21.6041 10.6945 21.6041 10.4387 21.8594L8.75713 23.5414C8.63284 23.6652 8.5654 23.8296 8.5654 24.0052C8.5654 24.1802 8.63396 24.3446 8.75713 24.4689C9.0124 24.7241 9.42818 24.7241 9.68456 24.4689C9.83783 24.3156 10.087 24.3156 10.2402 24.4689C10.3935 24.6221 10.3935 24.8713 10.2402 25.024C9.95933 25.3049 9.59037 25.4453 9.22085 25.4453Z" fill="#3945A2"/>
<path d="M10.2157 27.4175C9.83059 27.4175 9.46831 27.2676 9.19633 26.9956C8.9249 26.7236 8.77441 26.3614 8.77441 25.9762C8.77441 25.5911 8.9249 25.2299 9.19633 24.9568L11.3666 22.7865C11.9285 22.2242 12.8431 22.2242 13.4054 22.7865C13.6769 23.0591 13.8273 23.4202 13.8273 23.8054C13.8273 24.1905 13.6769 24.5528 13.4054 24.8247L11.2346 26.9956C10.962 27.2676 10.6008 27.4175 10.2157 27.4175ZM12.3855 23.1499C12.2172 23.1499 12.05 23.214 11.9218 23.3416L9.75145 25.5125C9.62716 25.6368 9.55972 25.8012 9.55972 25.9762C9.55972 26.1518 9.62772 26.3157 9.75145 26.4399C9.87518 26.5642 10.0396 26.6317 10.2146 26.6317C10.3902 26.6317 10.5546 26.5631 10.6783 26.4399L12.8486 24.2691C12.9729 24.1453 13.0404 23.9809 13.0404 23.8054C13.0404 23.6303 12.9724 23.4659 12.8486 23.3416C12.7216 23.214 12.5532 23.1499 12.3855 23.1499Z" fill="#3945A2"/>
<path d="M12.3281 28.2702C11.943 28.2702 11.5807 28.1203 11.3087 27.8483C11.0367 27.5763 10.8868 27.214 10.8868 26.8289C10.8868 26.4438 11.0367 26.0815 11.3087 25.8095C11.462 25.6563 11.7111 25.6563 11.8644 25.8095C12.0176 25.9628 12.0176 26.2119 11.8644 26.3652C11.7401 26.4895 11.6726 26.6539 11.6726 26.8289C11.6726 27.0039 11.7406 27.1683 11.8644 27.2926C11.9887 27.4169 12.1525 27.4844 12.3281 27.4844C12.5031 27.4844 12.6675 27.4158 12.7912 27.2926L14.3318 25.7521C14.587 25.4969 14.587 25.0805 14.3318 24.8247C14.0765 24.5694 13.6607 24.5694 13.4043 24.8247C13.2511 24.978 13.0019 24.978 12.8486 24.8247C12.6954 24.6714 12.6954 24.4223 12.8486 24.269C13.4105 23.7072 14.3251 23.7072 14.8869 24.269C15.4492 24.8314 15.4492 25.746 14.8869 26.3078L13.3469 27.8483C13.0749 28.1203 12.7127 28.2702 12.3281 28.2702Z" fill="#3945A2"/>
<mask id="mask3_62_451" style="mask-type:luminance" maskUnits="userSpaceOnUse" x="11" y="-1" width="13" height="14">
<path d="M11.0651 -0.000488281H23.621V12.1659H11.0651V-0.000488281Z" fill="white"/>
</mask>
<g mask="url(#mask3_62_451)">
<path d="M21.307 12.0438C21.2245 12.0438 21.1415 12.0181 21.0707 11.9646C20.8973 11.8331 20.8628 11.5873 20.9943 11.4145C22.1218 9.92529 22.7177 8.14121 22.7177 6.25737V2.91941L17.332 0.824891L11.9469 2.91885V6.25626C11.9469 8.00745 12.468 9.68786 13.454 11.1158C13.5771 11.2941 13.5325 11.5394 13.3542 11.6625C13.1758 11.7863 12.9306 11.7411 12.8074 11.5628C11.7301 10.0039 11.1605 8.16852 11.1605 6.25737V2.65077C11.1605 2.48858 11.2602 2.34367 11.4107 2.28459L17.1887 0.0384715C17.2807 0.00280116 17.3821 0.00280116 17.473 0.0384715L23.251 2.28459C23.4021 2.34367 23.5018 2.48858 23.5018 2.65077V6.25737C23.5018 8.31399 22.8509 10.2614 21.6197 11.8888C21.5428 11.9897 21.4257 12.0438 21.307 12.0438Z" fill="#3945A2"/>
</g>
<path d="M19.2843 11.3417C19.189 11.3417 19.0943 11.3077 19.019 11.2386C18.8585 11.092 18.8485 10.8434 18.9945 10.684C20.1053 9.4718 20.7178 7.90008 20.7178 6.25701V4.28678L17.3319 2.96921L13.9455 4.28567V6.2559C13.9455 7.81982 14.5062 9.33358 15.5233 10.5196C15.6649 10.6846 15.6459 10.9321 15.481 11.0736C15.3171 11.2152 15.0685 11.1962 14.927 11.0313C13.7872 9.7031 13.1591 8.00709 13.1591 6.25534V4.01647C13.1591 3.85428 13.2588 3.70881 13.4099 3.64973L17.1887 2.18112C17.2807 2.14601 17.3821 2.14601 17.4729 2.18112L21.2518 3.64973C21.4028 3.70881 21.5026 3.85428 21.5026 4.01647V6.25534C21.5026 8.09571 20.8176 9.85637 19.5736 11.2135C19.4967 11.2982 19.3902 11.3417 19.2843 11.3417Z" fill="#3945A2"/>
<path d="M16.5623 8.82601C16.462 8.82601 16.3611 8.78755 16.2842 8.71119L15.1906 7.61767C15.0374 7.4644 15.0374 7.21527 15.1906 7.062C15.3439 6.90873 15.593 6.90873 15.7458 7.062L16.5623 7.87851L18.9176 5.52316C19.0709 5.36989 19.3195 5.36989 19.4728 5.52316C19.626 5.67643 19.626 5.92556 19.4728 6.07883L16.8398 8.71231C16.7635 8.78755 16.6632 8.82601 16.5623 8.82601Z" fill="#3945A2"/>
</svg>
