<svg width="109" height="107" viewBox="0 0 109 107" fill="none" xmlns="http://www.w3.org/2000/svg">
<path fill-rule="evenodd" clip-rule="evenodd" d="M32.4018 96.3814L26.9992 105.668C26.6316 106.305 27.1298 107 27.7638 107H81.1815C81.8156 107 82.3164 106.305 81.9461 105.668L76.5436 96.3814H32.4018ZM79.8842 34.8626C91.8614 34.8626 101.572 44.5887 101.572 56.5872C101.572 68.5857 91.8614 78.3118 79.8842 78.3118C67.907 78.3118 58.1996 68.5857 58.1996 56.5872C58.1996 44.5887 67.907 34.8626 79.8842 34.8626ZM68.6716 63.5401L68.7036 58.5772C68.7036 57.5995 67.9124 56.8083 66.94 56.8083C65.965 56.8083 65.1738 57.5995 65.1738 58.5772L65.1552 63.5242C65.1525 64.4965 65.9357 65.2877 66.908 65.293C67.8777 65.2957 68.6663 64.5125 68.6716 63.5401ZM78.2645 72.0835C78.6774 70.9806 78.9625 69.6859 79.1356 68.5111C79.2768 67.5467 78.6108 66.649 77.6465 66.5078C76.6848 66.3666 75.7897 67.0352 75.6485 67.9996C75.5046 68.9879 75.2942 69.9869 74.9719 70.8554C74.6309 71.7664 75.0944 72.7788 76.0055 73.1197C76.9139 73.4581 77.9262 72.9945 78.2645 72.0835ZM79.4633 63.7799V54.5626C79.4633 54.2323 79.7403 53.9552 80.068 53.9552V53.9499C80.3904 53.9499 80.6727 54.2083 80.6727 54.5439H80.6807L80.6434 59.5309C80.6408 60.5032 81.424 61.2944 82.3936 61.2997C83.366 61.3024 84.1545 60.5165 84.1599 59.5442C84.1705 57.8792 84.1892 56.2116 84.1945 54.5439H84.2025C84.2025 52.2876 82.359 50.4388 80.068 50.4281V50.4201C77.7903 50.4201 75.9335 52.2796 75.9335 54.5626V63.7799C75.9335 64.7549 76.7247 65.5461 77.6997 65.5461C78.6721 65.5461 79.4633 64.7549 79.4633 63.7799ZM80.6141 63.7586C80.5795 66.5291 80.4889 69.0972 79.3647 71.6865C78.9758 72.579 79.3834 73.6179 80.2731 74.0068C81.1656 74.3958 82.2018 73.9882 82.5908 73.0958C83.9387 69.9869 84.0879 67.0646 84.1279 63.7985C84.1385 62.8262 83.3607 62.0297 82.391 62.019C81.4213 62.0057 80.6248 62.7862 80.6141 63.7586ZM74.0901 66.5105C74.0768 66.0096 74.0768 65.1145 74.0794 62.3813C74.0821 54.0618 74.0874 75.5866 74.0874 58.0364V54.472C74.0874 52.8283 74.7614 51.3285 75.8456 50.2416C79.2635 46.8185 85.0123 48.6273 85.9767 53.5236C86.3709 55.5243 86.4002 57.0161 86.347 59.2245C86.3257 60.1969 87.0929 61.004 88.0626 61.0254C89.0349 61.0493 89.8394 60.2794 89.8607 59.3071C89.922 56.7897 89.8794 55.1034 89.4372 52.847C88.5527 48.3635 84.714 44.9457 80.068 44.9457C74.8333 44.9457 70.5577 49.2293 70.5577 54.472L70.5737 66.5797C70.5923 67.5521 71.3942 68.3246 72.3665 68.306C73.3362 68.2873 74.1087 67.4828 74.0901 66.5105ZM86.2111 63.4256C86.0939 65.6793 85.9048 67.8424 85.8062 68.9586C85.7636 69.4408 85.7369 69.7418 85.7369 69.875C85.7369 70.8527 86.5281 71.6439 87.5005 71.6439C88.4755 71.6439 89.2667 70.8527 89.2667 69.875C89.2667 69.8644 89.288 69.6486 89.3199 69.2623C89.4132 68.2101 89.5917 66.1721 89.7275 63.6041C89.7755 62.6317 89.0296 61.8032 88.0599 61.7553C87.0875 61.7047 86.2617 62.4532 86.2111 63.4256ZM68.7036 53.9339C68.7036 47.6762 73.821 42.5481 80.068 42.5481C84.0346 42.5481 88.1558 44.4822 89.8341 48.1105C90.5241 49.5996 90.937 53.7501 91.0995 55.8173C91.1767 56.7897 92.0239 57.5169 92.9962 57.4397C93.9659 57.3651 94.6905 56.5153 94.6159 55.5429C94.4081 52.9163 93.9766 48.6699 93.0335 46.632C90.7638 41.7276 85.3933 39.0157 80.068 39.0157C71.8737 39.0157 65.1738 45.7236 65.1738 53.9339C65.1738 54.9089 65.965 55.7028 66.94 55.7028C67.9124 55.7028 68.7036 54.9089 68.7036 53.9339ZM108.945 84.1912H0V88.0326C0 91.1681 2.56007 93.7308 5.68756 93.7308H103.258C106.385 93.7308 108.945 91.1681 108.945 88.0326V84.1912ZM103.258 13.7507H87.274V33.3575C97.0987 36.4903 104.219 45.7049 104.219 56.5872C104.219 70.0482 93.3239 80.9624 79.8842 80.9624C71.6765 80.9624 64.4172 76.8892 60.011 70.6529L54.4727 74.6409L33.6485 59.6454C25.8458 54.0298 21.6713 45.8727 21.6713 36.2479V13.7507H5.68756C2.56007 13.7507 0 16.3134 0 19.4463V81.5405H108.945V19.4463C108.945 16.3134 106.385 13.7507 103.258 13.7507ZM54.4727 26.1807C50.3862 26.1807 48.3296 31.1517 51.22 34.0474C54.1104 36.9431 59.0733 34.8812 59.0733 30.7894C59.0733 28.2426 57.0141 26.1807 54.4727 26.1807ZM54.4727 15.429C45.7216 15.429 38.6274 22.5364 38.6274 31.3035C38.6274 35.47 40.2285 39.2608 42.8525 42.0926C44.3843 39.8282 46.6007 38.0061 49.1208 36.9165C45.583 33.813 45.3992 28.3625 48.7238 25.0299C51.8993 21.8491 57.0461 21.8491 60.2215 25.0299C63.4502 28.2666 63.3863 33.5253 60.083 36.6821C61.3084 37.1509 62.4619 37.7796 63.5142 38.5522C65.4349 36.8046 67.6353 35.3581 70.0382 34.2898C71.895 24.5264 64.4439 15.429 54.4727 15.429ZM57.5629 46.8744C58.466 44.7965 59.6487 42.8678 61.0633 41.1389C57.712 38.8745 53.3245 38.6321 49.7388 40.5288C47.9247 41.4852 46.6753 42.7186 45.5377 44.4129C48.9982 46.7865 53.3218 47.7162 57.5629 46.8744ZM84.6287 10.1757C61.8012 -3.39189 47.1441 -3.39189 24.3193 10.1757V36.2479C24.3193 45.0203 28.0835 52.3755 35.1936 57.4929L54.4727 71.3748L58.5991 68.4045C57.6748 66.7369 56.9422 64.9494 56.4254 63.0713L54.4727 64.4779L38.5662 53.0255C32.8893 48.939 29.9509 43.1955 29.9509 36.1946V13.8066C48.4734 3.26535 60.4746 3.26535 78.9971 13.8066V32.2279C80.9231 32.1587 82.7773 32.3079 84.6287 32.6755V10.1757Z" fill="black"/>
</svg>
