<svg width="61" height="64" viewBox="0 0 61 64" fill="none" xmlns="http://www.w3.org/2000/svg">
<mask id="mask0_280_100" style="mask-type:luminance" maskUnits="userSpaceOnUse" x="0" y="0" width="61" height="64">
<path d="M0 0H61V63.3736H0V0Z" fill="white"/>
</mask>
<g mask="url(#mask0_280_100)">
<path d="M34.2057 25.7115V24.0175C34.2057 20.6342 31.4608 17.8845 28.0873 17.8845C24.7113 17.8845 21.9664 20.6342 21.9664 24.0175V25.7115H19.122C18.2701 25.7115 17.576 26.4081 17.576 27.2624V41.9092C17.576 42.7635 18.2701 43.4577 19.122 43.4577H37.0502C37.9045 43.4577 38.5986 42.7635 38.5986 41.9092V27.2624C38.5986 26.4081 37.9045 25.7115 37.0502 25.7115H34.2057ZM23.5391 24.0175C23.5391 21.5031 25.5778 19.462 28.0849 19.462C30.5919 19.462 32.6306 21.5055 32.6306 24.0175V25.7115H23.5367V24.0175H23.5391ZM37.0235 41.8825H19.1487V27.2891H37.0235V41.8825ZM27.2985 36.2495V38.5818C27.2985 39.0163 27.6504 39.3706 28.0849 39.3706C28.5193 39.3706 28.8712 39.0163 28.8712 38.5818V36.2495C30.2934 35.8952 31.3516 34.6064 31.3516 33.0726C31.3516 31.2693 29.8857 29.801 28.0849 29.801C26.284 29.801 24.8206 31.2693 24.8206 33.0726C24.8206 34.6064 25.8763 35.8952 27.2985 36.2495ZM28.0849 31.3785C29.0168 31.3785 29.7765 32.1382 29.7765 33.0726C29.7765 34.007 29.0168 34.769 28.0849 34.769C27.1529 34.769 26.3933 34.007 26.3933 33.0726C26.3933 32.1382 27.1529 31.3785 28.0849 31.3785ZM52.4543 20.1027C52.4543 20.5372 52.1024 20.8915 51.6679 20.8915H46.8698C46.4353 20.8915 46.0834 20.5372 46.0834 20.1027C46.0834 19.6683 46.4353 19.314 46.8698 19.314H48.4813V13.4382H46.8407C46.4062 13.4382 46.0543 13.0839 46.0543 12.6494C46.0543 12.2126 46.4062 11.8607 46.8407 11.8607H49.2701C49.7045 11.8607 50.0564 12.2126 50.0564 12.6494V19.314H51.6679C52.1048 19.314 52.4543 19.6683 52.4543 20.1027ZM49.2701 10.0137C50.3962 10.0137 51.3136 9.0939 51.3136 7.96777C51.3136 6.83922 50.3962 5.91939 49.2701 5.91939C48.144 5.91939 47.2266 6.83922 47.2266 7.96777C47.2266 9.0939 48.144 10.0137 49.2701 10.0137ZM49.2701 7.49694C49.5273 7.49694 49.7385 7.70809 49.7385 7.96535C49.7385 8.22503 49.5273 8.43618 49.2701 8.43618C49.0104 8.43618 48.8017 8.22503 48.8017 7.96535C48.8017 7.70809 49.0104 7.49694 49.2701 7.49694ZM60.9997 13.4067C60.9997 6.91689 55.7307 1.63818 49.2555 1.63818C46.1368 1.63818 43.2997 2.86381 41.1931 4.8588L28.3615 0.0630627C28.1844 -0.00246621 27.9878 -0.00246621 27.8106 0.0630627L1.35884 9.94577C1.07488 10.0526 0.875866 10.3147 0.84917 10.618L0.426874 15.4526C-0.505091 26.0974 0.892856 35.3564 4.58188 42.9747C8.59127 51.258 15.3165 57.6046 24.5682 61.8397L27.7572 63.3007C27.8616 63.3493 27.9732 63.3711 28.0849 63.3711C28.1965 63.3711 28.3057 63.3493 28.4101 63.3007L31.6016 61.8397C39.7757 58.0973 45.9961 52.6899 50.088 45.7706C53.8377 39.4313 55.8254 31.7814 56.0074 23.0248C59.0266 20.8939 60.9997 17.3772 60.9997 13.4067ZM30.9487 60.4053L28.0873 61.7183L25.2234 60.4053C7.90201 52.4739 0.0870944 37.3975 1.99471 15.591L2.37575 11.2515L28.0849 1.64303L40.0451 6.11355C39.2199 7.15716 38.567 8.34396 38.1302 9.63026L28.3615 5.98007C28.1844 5.91454 27.9878 5.91454 27.8106 5.98007L6.6424 13.8921C6.35601 13.9988 6.15943 14.2585 6.13273 14.5619C5.20077 25.2188 6.62298 34.2254 10.363 41.3316C13.9573 48.1636 19.8088 53.4714 27.7572 57.1119C27.8616 57.158 27.9732 57.1823 28.0849 57.1823C28.1965 57.1823 28.3082 57.158 28.4125 57.1119C35.0576 54.066 40.2538 49.8528 43.853 44.5838C47.4741 39.2808 49.5953 32.7401 50.1608 25.1387C51.6752 25.0198 53.1072 24.6169 54.408 23.9786C53.7721 41.3146 45.8868 53.5661 30.9487 60.4053ZM48.5832 25.1533C47.4717 39.6594 40.761 49.6052 28.0849 55.5247C12.7244 48.3505 6.0405 35.1501 7.65931 15.1954L28.0849 7.56247L37.7249 11.1641C37.5841 11.8898 37.5113 12.6397 37.5113 13.4067C37.5113 19.6683 42.4187 24.8014 48.5832 25.1533ZM49.2555 23.5952C43.6467 23.5952 39.0864 19.0227 39.0864 13.4067C39.0864 7.78818 43.6467 3.21572 49.2555 3.21572C54.8619 3.21572 59.4246 7.78818 59.4246 13.4067C59.4246 19.0227 54.8619 23.5952 49.2555 23.5952Z" fill="black"/>
</g>
</svg>
