<svg width="30" height="29" viewBox="0 0 30 29" fill="none" xmlns="http://www.w3.org/2000/svg">
<mask id="mask0_62_412" style="mask-type:luminance" maskUnits="userSpaceOnUse" x="0" y="0" width="30" height="29">
<path d="M0 0H29.7436V29H0V0Z" fill="white"/>
</mask>
<g mask="url(#mask0_62_412)">
<path d="M3.32873 12.1824C3.5753 12.1824 3.77733 12.3838 3.77733 12.6304C3.77733 12.8769 3.5753 13.0777 3.32873 13.0777H0.449252C0.202034 13.0777 0 12.8763 0 12.6304C0 12.3838 0.202034 12.1824 0.449252 12.1824H3.32873ZM17.7203 4.79105C17.5951 5.00276 17.3227 5.07699 17.1084 4.95177C16.8941 4.82848 16.8211 4.5548 16.9451 4.34308L18.3858 1.85477C18.5097 1.64176 18.784 1.56882 18.9957 1.69211C19.21 1.8154 19.283 2.08908 19.1597 2.30273L17.7203 4.79105ZM20.9748 8.36054C20.7605 8.48447 20.4855 8.41153 20.3629 8.19788C20.2389 7.98551 20.3119 7.71183 20.5262 7.58919L23.019 6.15171C23.2333 6.02843 23.5076 6.10137 23.6309 6.31502C23.7549 6.52867 23.6813 6.80106 23.4676 6.92564L20.9748 8.36054ZM4.80364 7.58854C5.01794 7.71183 5.09088 7.98551 4.96695 8.19723C4.84172 8.41088 4.56933 8.48382 4.35503 8.35989L1.86027 6.92564C1.6479 6.80042 1.57303 6.52867 1.6989 6.31502C1.82283 6.10137 2.09716 6.02843 2.30887 6.15171L4.80364 7.58854ZM8.38346 4.34244C8.50933 4.5548 8.43445 4.82848 8.22209 4.95112C8.00779 5.07635 7.73282 5.00147 7.61018 4.7904L6.16883 2.30209C6.04554 2.08843 6.11848 1.81411 6.33213 1.69146C6.54643 1.56818 6.8214 1.64112 6.94469 1.85412L8.38346 4.34244ZM13.1129 3.31936C13.1129 3.56593 12.9128 3.76667 12.6636 3.76667C12.417 3.76667 12.215 3.56528 12.215 3.31936V0.446339C12.215 0.198476 12.417 -0.000976562 12.6636 -0.000976562C12.9128 -0.000976562 13.1129 0.198476 13.1129 0.446339V3.31936ZM4.35503 16.9002C4.56998 16.7769 4.84237 16.8499 4.96695 17.0635C5.09088 17.2759 5.01794 17.5495 4.80364 17.6722L2.30887 19.109C2.09651 19.2323 1.82218 19.16 1.6989 18.9464C1.57303 18.7327 1.6479 18.4603 1.86027 18.3357L4.35503 16.9002ZM26.8615 9.68376H28.4965C29.1814 9.68376 29.741 10.2415 29.741 10.925V15.8087C29.741 16.4923 29.1814 17.0487 28.4965 17.0487H26.8615C26.4723 17.0487 26.1199 16.8692 25.8888 16.5813C23.8084 16.6394 23.7432 17.7264 22.0553 17.7264H19.7258C19.3359 17.7264 18.9538 17.6554 18.5904 17.5199C17.5673 18.814 16.6094 19.6822 16.2828 21.6135C17.484 22.2041 17.4292 23.9262 16.2008 24.4445C16.7275 25.3411 16.2299 26.4849 15.232 26.7373V27.4441C15.232 28.3013 14.531 28.999 13.6731 28.999H11.6547C10.7956 28.999 10.094 28.3013 10.094 27.4441V26.7373C9.09671 26.4849 8.60098 25.3411 9.12769 24.4445C7.89741 23.9262 7.84513 22.2041 9.04443 21.6135C8.38862 17.7406 4.91466 17.7567 4.91466 12.003C4.91466 7.73507 8.38475 4.27337 12.6636 4.27337C15.8123 4.27337 18.6072 6.16527 19.8084 9.0073H21.5544C22.9454 9.0073 23.4179 9.31326 23.9014 9.6289C24.2809 9.87482 24.6701 10.1304 25.8888 10.1524C26.1205 9.86514 26.4723 9.68376 26.8615 9.68376ZM28.4965 10.5784H26.8615C26.6724 10.5784 26.5143 10.7346 26.5143 10.9244V15.8081C26.5143 15.9972 26.6731 16.154 26.8615 16.154H28.4965C28.6876 16.154 28.8431 15.9965 28.8431 15.8081V10.9244C28.8438 10.7346 28.6876 10.5784 28.4965 10.5784ZM20.4074 12.387C20.5184 13.2733 21.0981 14.044 21.9391 14.3899C22.1683 14.4835 22.2774 14.743 22.1831 14.9715C22.0889 15.2 21.8287 15.3085 21.5996 15.2142C21.04 14.9844 20.5694 14.6178 20.2151 14.1653C19.9917 15.2562 19.6031 16.0682 19.1468 16.7582C19.334 16.806 19.5263 16.8305 19.7258 16.8305H22.0553C23.3379 16.8305 23.5509 15.8268 25.6183 15.6957V11.0386C23.0894 10.9257 23.842 9.90193 21.5544 9.90193H17.9714C17.384 9.90193 17.0696 10.6184 17.497 11.0438C17.6183 11.1677 17.7881 11.2419 17.9714 11.2419H19.9678C20.2151 11.2419 20.4164 11.4433 20.4164 11.6893L20.4074 12.387ZM19.5102 12.4019C19.5012 12.3154 19.4953 12.2263 19.4953 12.1372H17.8145C17.2336 12.1372 16.7153 11.8184 16.4429 11.331C15.2417 12.1824 13.5595 11.3259 13.5595 9.84513C13.5595 9.66956 13.5847 9.49722 13.6338 9.33456H11.2552V11.5544C11.2552 11.8881 10.8737 12.1579 10.5213 11.9023C10.3941 11.808 10.183 11.7551 10.0159 11.7551C9.19095 11.7551 8.7772 12.7537 9.36007 13.3352C9.66925 13.6438 10.1798 13.6922 10.5213 13.4585C10.6155 13.3953 10.6794 13.3591 10.8066 13.3591C11.0538 13.3591 11.2552 13.5586 11.2552 13.8064V17.7697H12.257C12.0085 16.6388 12.8766 15.5608 14.0411 15.5608C15.2062 15.5608 16.0743 16.6394 15.8258 17.7697H17.2284C18.3238 16.438 19.416 15.2659 19.5102 12.4019ZM9.92744 21.454H15.4004C15.6031 20.2528 16.0311 19.3988 16.5391 18.6649H15.1332C14.7821 18.6649 14.5316 18.257 14.793 17.9252C15.0545 17.5954 15.0241 17.0519 14.6969 16.7272C14.114 16.145 13.1129 16.5581 13.1129 17.3811C13.1129 17.5915 13.18 17.7832 13.3033 17.9465C13.5324 18.2415 13.3072 18.6643 12.9489 18.6624V18.6643H8.78882C9.29874 19.3995 9.72605 20.2528 9.92744 21.454ZM14.8537 24.5659H10.4748C9.89775 24.5659 9.58663 25.272 10.0075 25.6929C10.1695 25.8543 10.3315 25.8865 10.5439 25.8865H14.8537C15.4327 25.8865 15.7438 25.1817 15.3217 24.7615C15.2003 24.6401 15.0351 24.5659 14.8537 24.5659ZM15.596 22.3493H9.73121C9.15416 22.3493 8.84304 23.0561 9.26389 23.4763C9.38395 23.5957 9.54919 23.67 9.73121 23.67H15.596C16.1757 23.67 16.4868 22.9651 16.0646 22.543C15.9439 22.4242 15.778 22.3493 15.596 22.3493ZM10.3586 14.4693C9.23549 14.683 8.19046 13.8206 8.19046 12.6788C8.19046 11.5389 9.23549 10.6765 10.3586 10.8902V5.56562C7.6715 6.5248 5.81252 9.07637 5.81252 12.003C5.81252 15.1542 6.95566 16.3761 8.10009 17.7697H10.3586V14.4693ZM11.2558 8.43864H14.4006C14.7769 8.43864 15.0222 8.9008 14.7027 9.21837C14.5484 9.37006 14.4574 9.62244 14.4574 9.84513C14.4574 10.6681 15.4585 11.0832 16.042 10.5016C16.4035 10.1408 16.4054 9.56112 16.0511 9.19836C15.7748 8.91565 15.9781 8.44057 16.3706 8.44057V8.43864H18.5129C17.0103 5.99034 14.1218 4.71682 11.2558 5.31453V8.43864ZM14.3354 26.7825H10.9925V27.4441C10.9925 27.8068 11.292 28.1057 11.6554 28.1057H13.6738C14.0372 28.1057 14.3354 27.8068 14.3354 27.4441V26.7825ZM10.7504 13.3623C10.7524 13.3604 10.7556 13.3604 10.7595 13.3604L10.7504 13.3623Z" fill="#3945A2"/>
</g>
</svg>
