<svg width="49" height="49" viewBox="0 0 49 49" fill="none" xmlns="http://www.w3.org/2000/svg">
<path d="M26.0802 22.1298C27.3883 22.1298 28.4519 21.0662 28.4519 19.7596C28.4519 18.4514 27.3883 17.3878 26.0802 17.3878C24.7736 17.3878 23.71 18.4514 23.71 19.7596C23.71 21.0662 24.7736 22.1298 26.0802 22.1298ZM26.0802 18.968C26.5157 18.968 26.8718 19.3225 26.8718 19.7596C26.8718 20.1951 26.5157 20.5496 26.0802 20.5496C25.6462 20.5496 25.2901 20.1951 25.2901 19.7596C25.2901 19.3225 25.6462 18.968 26.0802 18.968Z" fill="black"/>
<mask id="mask0_161_735" style="mask-type:luminance" maskUnits="userSpaceOnUse" x="0" y="0" width="49" height="49">
<path d="M0 0H49V49H0V0Z" fill="white"/>
</mask>
<g mask="url(#mask0_161_735)">
<path d="M23.0604 36.0562C27.9537 34.9146 31.6137 30.5272 31.6137 25.2916V17.6644L34.774 21.6163V24.5C34.774 26.6792 36.5467 28.4519 38.726 28.4519C40.9052 28.4519 42.6779 26.6792 42.6779 24.5V21.6163L46.7749 16.4953C48.2099 14.7012 49 12.4487 49 10.1518C49 4.55402 44.446 0 38.8482 0H38.6037C33.0059 0 28.4519 4.55402 28.4519 10.1518C28.4519 10.2511 28.4611 10.3489 28.4641 10.4467C28.1279 10.1426 27.7413 9.89811 27.3119 9.73306L26.8122 7.98328C26.2681 6.0761 24.5015 4.74198 22.5164 4.74198C21.6851 4.74198 20.8889 4.98038 20.2012 5.39758C18.9145 3.99011 17.0745 3.16183 15.152 3.16183C13.3243 3.16183 11.6066 3.87397 10.3138 5.16529L9.94701 5.53359H9.48397C7.06942 5.53359 5.07055 7.34756 4.77866 9.68416C2.90051 10.3963 1.62905 12.1843 1.58779 14.226H1.58015C0.709082 14.226 0 14.935 0 15.8076V20.5496C0 28.3083 5.62375 34.7633 13.0049 36.0929C12.224 36.8585 11.7075 37.8977 11.6341 39.0652L11.0137 49H28.5069L28.1875 44.2275C27.9537 40.708 25.9594 37.699 23.0604 36.0562ZM20.5481 34.7756H16.2936C17.0057 32.1119 17.3878 29.3749 17.3878 26.615V25.2916H15.016C13.7094 25.2916 12.6458 24.228 12.6458 22.9198C12.6458 21.6132 13.7094 20.5496 15.016 20.5496H17.3878V15.8076H30.0321V25.2916H23.7099V26.0817C23.7099 28.5787 25.1892 30.7931 27.4341 31.7925C25.7042 33.6248 23.2606 34.7756 20.5481 34.7756ZM28.4565 30.515C26.8137 29.9495 25.64 28.5421 25.3573 26.8718H29.8899C29.6653 28.1998 29.1717 29.4345 28.4565 30.515ZM36.3557 22.1298H41.0977V23.7099H36.3557V22.1298ZM36.3557 11.0656H35.5641C35.1286 11.0656 34.774 10.7111 34.774 10.2756C34.774 9.83851 35.1286 9.48397 35.5641 9.48397C35.9997 9.48397 36.3557 9.83851 36.3557 10.2756V11.0656ZM39.516 20.5496H37.9359V12.4639C38.214 12.3707 38.4799 12.2424 38.726 12.0804C38.9735 12.2424 39.2379 12.3707 39.516 12.4639V20.5496ZM38.726 26.8718C37.6975 26.8718 36.8279 26.2085 36.5009 25.2916H40.951C40.624 26.2085 39.7544 26.8718 38.726 26.8718ZM38.6037 1.58168H38.8482C43.5749 1.58168 47.4198 5.42662 47.4198 10.1518C47.4198 12.0911 46.752 13.9921 45.5417 15.5066L41.5073 20.5496H41.0977V12.6458H41.8878C43.1944 12.6458 44.258 11.5822 44.258 10.2756C44.258 8.96744 43.1944 7.90382 41.8878 7.90382C40.5797 7.90382 39.516 8.96744 39.516 10.2756V10.7035C39.435 10.6454 39.3571 10.5797 39.2853 10.5063L38.726 9.94701L38.1666 10.5063C38.0933 10.5797 38.0169 10.6454 37.9359 10.7035V10.2756C37.9359 8.96744 36.8723 7.90382 35.5641 7.90382C34.2575 7.90382 33.1939 8.96744 33.1939 10.2756C33.1939 11.5822 34.2575 12.6458 35.5641 12.6458H36.3557V20.5496H35.9446L31.9117 15.5066C30.6999 13.9921 30.0321 12.0911 30.0321 10.1518C30.0321 5.42662 33.877 1.58168 38.6037 1.58168ZM41.0977 11.0656V10.2756C41.0977 9.83851 41.4523 9.48397 41.8878 9.48397C42.3233 9.48397 42.6779 9.83851 42.6779 10.2756C42.6779 10.7111 42.3233 11.0656 41.8878 11.0656H41.0977ZM5.72461 11.0412L6.32214 10.8914V10.2756C6.32214 8.53191 7.7403 7.11374 9.48397 7.11374H10.6026L11.4324 6.2824C12.4257 5.28908 13.7476 4.74198 15.152 4.74198C16.6222 4.74198 18.0296 5.3716 19.0184 6.44286C18.9435 6.53761 18.8671 6.63083 18.7983 6.73322L18.6455 6.96398L16.8468 6.36493L16.3471 7.86256L19.2919 8.84518L20.1141 7.60888C20.6505 6.80352 21.5491 6.32367 22.5164 6.32367C23.7986 6.32367 24.9401 7.18404 25.2931 8.41729L25.6049 9.50536C25.1587 9.55121 24.7216 9.67499 24.3212 9.87519L23.7099 10.1824L22.4828 9.56802L21.7752 10.9816L23.7099 11.9489L25.0272 11.2903C25.3222 11.1436 25.6507 11.0656 25.9793 11.0656C27.0246 11.0656 27.9079 11.8129 28.079 12.8429L28.3098 14.226H20.3127C20.7743 13.7354 21.4222 13.4359 22.1298 13.4359V11.8557C20.5236 11.8557 19.0978 12.794 18.4361 14.226H7.73266C8.5426 13.2387 9.74682 12.6458 11.0641 12.6458V11.0656C8.85435 11.0656 6.8677 12.276 5.84381 14.226H3.16947C3.21226 12.713 4.24685 11.411 5.72461 11.0412ZM1.58015 20.5496V15.8076H15.8061V18.9679H15.016C12.8368 18.9679 11.0641 20.7406 11.0641 22.9198C11.0641 25.0991 12.8368 26.8718 15.016 26.8718H15.8061C15.7832 29.5278 15.3935 32.1608 14.6752 34.7175C7.35978 34.1383 1.58015 28.0118 1.58015 20.5496ZM12.6962 47.4198L13.2128 39.1645C13.3106 37.589 14.6233 36.3557 16.2019 36.3557C17.7805 36.3557 19.0933 37.589 19.1911 39.1645L19.7076 47.4198H12.6962ZM21.2908 47.4198L20.7682 39.0652C20.707 38.0902 20.3403 37.1978 19.7641 36.4841C23.5281 37.2512 26.3506 40.4253 26.6104 44.3329L26.8167 47.4198H21.2908Z" fill="black"/>
</g>
<path d="M13.5185 10.6286L13.737 11.0656H14.8297C15.6182 11.0656 16.3273 11.5042 16.6803 12.2087L18.0939 11.5012C17.4719 10.2588 16.2203 9.48396 14.8297 9.48396H14.6753C14.0014 8.4998 12.8889 7.90381 11.6694 7.90381H11.0642V9.48396H11.6694C12.4579 9.48396 13.167 9.92255 13.5185 10.6286Z" fill="black"/>
<mask id="mask1_161_735" style="mask-type:luminance" maskUnits="userSpaceOnUse" x="30" y="27" width="18" height="23">
<path d="M30.02 27.3425H47.6248V49.0001H30.02V27.3425Z" fill="white"/>
</mask>
<g mask="url(#mask1_161_735)">
<path d="M45.8399 27.6619H44.2582C43.3871 27.6619 42.678 28.3709 42.678 29.242V47.4199H41.0979V33.984C41.0979 33.1129 40.3888 32.4039 39.5162 32.4039H37.936C37.0634 32.4039 36.3559 33.1129 36.3559 33.984V47.4199H34.7742V38.726C34.7742 37.8549 34.0651 37.1458 33.1941 37.1458H31.6139C30.7413 37.1458 30.0322 37.8549 30.0322 38.726V49H47.42V29.242C47.42 28.3709 46.7109 27.6619 45.8399 27.6619ZM33.1941 47.4199H31.6139V38.726H33.1941V47.4199ZM37.936 33.984H39.5162V47.4199H37.936V33.984ZM45.8399 47.4199H44.2582V29.242H45.8399V47.4199Z" fill="black"/>
</g>
</svg>
