<svg width="65" height="65" viewBox="0 0 65 65" fill="none" xmlns="http://www.w3.org/2000/svg">
<path d="M32.5 0C30.0951 0 28.1638 1.94814 28.1638 4.32876C28.1638 6.70937 30.0951 8.66762 32.5 8.66762C34.9049 8.66762 36.8362 6.70937 36.8362 4.32876C36.8362 1.94814 34.9049 0 32.5 0ZM32.5 2.1664C33.6833 2.1664 34.6691 3.12026 34.6691 4.32876C34.6691 5.53927 33.6874 6.4992 32.5 6.4992C31.3106 6.4992 30.3309 5.53927 30.3309 4.32876C30.3309 3.12026 31.3167 2.1664 32.5 2.1664ZM25.2146 6.4992L10.7083 13.1924C9.40206 13.7663 10.279 15.7711 11.6155 15.1608L26.1258 8.46755C27.1357 8.01689 26.8737 6.47899 25.7428 6.39613C25.5613 6.38401 25.3799 6.42038 25.2146 6.4992ZM53.3845 15.1608C54.721 15.7711 55.5979 13.7663 54.2917 13.1924L39.7854 6.50122C39.6221 6.4224 39.4407 6.38603 39.2592 6.39613C38.1263 6.47899 37.8643 8.01689 38.8762 8.46755L53.3845 15.1608ZM29.6596 12.3618C28.8513 12.7518 28.5529 13.3581 28.3735 13.7845C28.1961 14.213 28.1255 14.4534 27.9018 14.7283C27.678 15.0031 27.2708 15.3527 26.3254 15.7529C25.3779 16.153 24.8256 16.2096 24.4607 16.1833C24.0958 16.1591 23.8781 16.0499 23.4628 15.8883C23.0475 15.7266 22.4004 15.5205 21.5981 15.7852C20.8744 16.0237 20.1608 16.5976 19.3686 17.4019C18.5098 18.2709 17.9897 18.9903 17.7841 19.6471C17.5321 20.4474 17.7599 21.0901 17.9272 21.5023C18.0965 21.9126 18.2094 22.1328 18.2397 22.4946C18.2739 22.8543 18.2235 23.408 17.8405 24.3578C17.4555 25.3077 17.1067 25.7361 16.8326 25.9725C16.5604 26.209 16.3246 26.2817 15.9214 26.4515C15.3953 26.6758 14.8711 26.985 14.5204 27.66C14.2019 28.2743 14.0729 29.1332 14.0829 30.3296C14.0749 31.431 14.1716 32.3283 14.5204 33.0012C14.8711 33.6762 15.3993 33.9874 15.9214 34.2077C16.3246 34.3795 16.5463 34.4482 16.8205 34.6846C17.0947 34.9211 17.4535 35.3535 17.8405 36.3033C18.2175 37.235 18.2679 37.7847 18.2397 38.1444C18.2115 38.5041 18.1066 38.7224 17.9433 39.1104C17.7478 39.5812 17.5644 40.1673 17.7518 40.8867C17.8889 41.4142 18.1671 41.8972 18.6187 42.4448C17.8808 43.6554 17.3023 44.9427 16.8991 46.3351C16.117 45.1791 15.0889 44.2657 13.8692 43.5968C14.6796 42.649 15.1634 41.4223 15.1634 40.0824C15.1634 37.1036 12.7585 34.6644 9.74879 34.6644C6.7411 34.6644 4.32608 37.1036 4.32608 40.0824C4.32608 41.4243 4.81392 42.6469 5.62833 43.5968C2.90488 45.0639 1.08253 47.9376 1.08253 51.2499V52.521C1.08253 55.2351 3.27177 57.4136 5.95491 57.4136H13.5366C14.5385 57.4136 15.4719 57.1145 16.25 56.5891V60.6733C16.25 61.9728 16.6572 63.2479 17.649 64.0866C18.6408 64.9233 20.0923 65.186 21.7533 64.8626C21.7775 64.8586 21.8017 64.8505 21.8239 64.8465L32.494 61.9748L43.2043 64.8545C44.8997 65.186 46.3108 64.9596 47.3469 64.0866C48.3388 63.252 48.75 61.9829 48.75 60.6895V56.5951C49.5261 57.1206 50.4595 57.4156 51.4634 57.4156H59.0431C61.7282 57.4156 63.9175 55.2351 63.9175 52.521V51.2499C63.9175 47.9376 62.0931 45.0639 59.3717 43.5968C60.1841 42.649 60.6739 41.4243 60.6739 40.0824C60.6739 37.1036 58.2589 34.6644 55.2492 34.6644C52.2415 34.6644 49.8345 37.1036 49.8345 40.0824C49.8345 41.4243 50.3204 42.649 51.1308 43.5968C49.9192 44.2495 48.879 45.1832 48.0969 46.3391C47.6937 44.9467 47.1151 43.6473 46.3773 42.4388C46.8289 41.8891 47.1111 41.4162 47.2482 40.8867C47.4356 40.1693 47.2522 39.5812 47.0546 39.1124C46.8934 38.7224 46.7865 38.5041 46.7583 38.1444C46.7301 37.7847 46.7805 37.235 47.1595 36.3033C47.5445 35.3555 47.9053 34.9211 48.1795 34.6846C48.4537 34.4502 48.6754 34.3795 49.0786 34.2097C49.6007 33.9874 50.1289 33.6762 50.4796 33.0012C50.8284 32.3283 50.9272 31.431 50.9171 30.3316C50.9251 29.1332 50.7981 28.2743 50.4796 27.662C50.1289 26.987 49.6047 26.6758 49.0786 26.4535C48.6754 26.2817 48.4396 26.209 48.1674 25.9725C47.8932 25.7361 47.5445 25.3077 47.1595 24.3578C46.7744 23.408 46.7281 22.8543 46.7583 22.4946C46.7926 22.1349 46.9035 21.9126 47.0728 21.5023C47.2421 21.0901 47.4659 20.4474 47.2159 19.6492C47.0103 18.9903 46.4902 18.2729 45.6314 17.4019C44.8392 16.5996 44.1256 16.0237 43.4019 15.7852C42.5996 15.5205 41.9525 15.7266 41.5372 15.8883C41.1219 16.0499 40.9022 16.1591 40.5373 16.1853C40.1724 16.2096 39.6221 16.151 38.6746 15.7529C37.7292 15.3548 37.322 15.0031 37.0982 14.7283C36.8745 14.4555 36.8039 14.213 36.6265 13.7865C36.4471 13.3581 36.1487 12.7539 35.3384 12.3618C34.6368 12.0223 33.7962 11.9152 32.5 11.9152C31.2038 11.9152 30.3632 12.0223 29.6596 12.3618ZM4.33414 12.9984C1.92718 12.9984 0 14.9465 0 17.3272C0 19.7078 1.92718 21.664 4.33414 21.664C6.73908 21.664 8.66828 19.7078 8.66828 17.3272C8.66828 14.9465 6.73908 12.9984 4.33414 12.9984ZM60.6659 12.9984C58.2609 12.9984 56.3317 14.9465 56.3317 17.3272C56.3317 19.7078 58.2609 21.664 60.6659 21.664C63.0728 21.664 65 19.7078 65 17.3272C65 14.9465 63.0728 12.9984 60.6659 12.9984ZM34.3949 14.3059C34.5441 14.3766 34.5602 14.4939 34.6288 14.6252C34.7477 14.9122 34.9332 15.4982 35.419 16.0944C35.9068 16.6926 36.6547 17.2564 37.826 17.7515C38.9931 18.2446 39.9205 18.4043 40.6885 18.3517C41.4545 18.2972 42.023 18.0284 42.3274 17.9112C42.5088 17.8405 42.6016 17.8 42.7185 17.8384C42.8757 17.891 43.2708 18.091 44.0873 18.9196C44.8694 19.7098 45.0952 20.1423 45.1436 20.2958C45.1758 20.4232 45.1234 20.5363 45.063 20.6778C44.9622 20.9264 44.6678 21.5347 44.6013 22.3006C44.5328 23.0665 44.6739 24.0001 45.1496 25.1723C45.6254 26.3424 46.1677 27.1083 46.7502 27.6115C47.3328 28.1147 47.9275 28.3228 48.2319 28.4502C48.4033 28.5229 48.4839 28.531 48.5504 28.6583C48.617 28.7856 48.7681 29.21 48.7581 30.3296C48.7661 31.3825 48.6391 31.8291 48.5504 32.0009C48.4839 32.1282 48.365 32.1524 48.2319 32.209C47.9275 32.3363 47.3328 32.5445 46.7502 33.0477C46.1677 33.5509 45.6254 34.3168 45.1496 35.4869C44.684 36.6368 44.5429 37.5523 44.6013 38.3101C44.6578 39.0679 44.9057 39.5833 45.0549 39.941C45.1194 40.1208 45.1819 40.2198 45.1496 40.3411C45.1416 40.3734 45.0952 40.4906 45.0529 40.5695C43.4482 38.6254 41.382 37.0511 39.0375 36.0245C40.37 34.5007 41.1683 32.5101 41.1683 30.3316C41.1683 25.5583 37.2736 21.666 32.5 21.666C27.7264 21.666 23.8317 25.5583 23.8317 30.3316C23.8317 32.5101 24.628 34.4987 25.9625 36.0245C23.616 37.0511 21.5518 38.6254 19.9471 40.5695C19.9048 40.4906 19.8584 40.3755 19.8483 40.3411C19.8161 40.2198 19.8806 40.1208 19.9451 39.941C20.0943 39.5833 20.3402 39.0679 20.3987 38.3101C20.4571 37.5523 20.314 36.6368 19.8483 35.4869C19.3726 34.3168 18.8323 33.5509 18.2498 33.0477C17.6672 32.5445 17.0725 32.3363 16.7681 32.209C16.635 32.1524 16.5141 32.1282 16.4496 32.0009C16.3589 31.8291 16.2319 31.3825 16.2419 30.3296C16.2339 29.21 16.383 28.7856 16.4496 28.6583C16.5141 28.531 16.5967 28.5229 16.7681 28.4502C17.0725 28.3228 17.6672 28.1147 18.2498 27.6115C18.8323 27.1083 19.3726 26.3424 19.8483 25.1723C20.3241 24.0001 20.4652 23.0665 20.3987 22.3006C20.3322 21.5347 20.0378 20.9264 19.935 20.6778C19.8766 20.5363 19.8201 20.4232 19.8544 20.2958C19.9028 20.1423 20.1306 19.7098 20.9107 18.9196C21.7292 18.091 22.1243 17.891 22.2795 17.8384C22.3984 17.798 22.4891 17.8405 22.6706 17.9112C22.977 18.0284 23.5434 18.2972 24.3115 18.3517C25.0775 18.4043 26.0069 18.2446 27.174 17.7515C28.3453 17.2564 29.0932 16.6926 29.579 16.0944C30.0668 15.4982 30.2503 14.9122 30.3712 14.6252C30.4398 14.4939 30.4539 14.3766 30.6031 14.3059C30.7784 14.221 31.3489 14.0816 32.5 14.0816C33.6511 14.0816 34.2195 14.221 34.3949 14.3059ZM4.33414 15.1648C5.51746 15.1648 6.50121 16.1166 6.50121 17.3272C6.50121 18.5356 5.52149 19.4976 4.33414 19.4976C3.14477 19.4976 2.16707 18.5356 2.16707 17.3272C2.16707 16.1166 3.1488 15.1648 4.33414 15.1648ZM60.6659 15.1648C61.8512 15.1648 62.8329 16.1166 62.8329 17.3272C62.8329 18.5356 61.8552 19.4976 60.6659 19.4976C59.4785 19.4976 58.4968 18.5356 58.4968 17.3272C58.4968 16.1166 59.4825 15.1648 60.6659 15.1648ZM6.28349 23.4282C5.53762 23.3818 4.97116 24.085 5.17275 24.8045L7.07775 32.017C7.41037 33.4701 9.5976 32.8961 9.17225 31.4653L7.26724 24.2528C7.15637 23.792 6.75723 23.4585 6.28349 23.4282ZM58.7165 23.4282C58.2428 23.4565 57.8436 23.794 57.7328 24.2548L55.8278 31.4673C55.4024 32.8961 57.5896 33.4701 57.9222 32.017L59.8273 24.8045C60.0288 24.085 59.4604 23.3818 58.7165 23.4282ZM32.5 23.8324C36.0681 23.8324 39.0012 26.7304 39.0012 30.3316C39.0012 33.9349 36.0802 36.8348 32.5 36.8348C28.9178 36.8348 25.9968 33.9349 25.9968 30.3316C25.9968 26.7304 28.9258 23.8324 32.5 23.8324ZM9.74879 36.8308C11.5328 36.8308 12.9964 38.2737 12.9964 40.0824C12.9964 41.8891 11.5369 43.33 9.74879 43.33C7.96272 43.33 6.49516 41.8891 6.49516 40.0824C6.49516 38.2737 7.96675 36.8308 9.74879 36.8308ZM55.2512 36.8308C57.0332 36.8308 58.5048 38.2737 58.5048 40.0824C58.5048 41.8891 57.0373 43.33 55.2512 43.33C53.4631 43.33 52.0036 41.8891 52.0036 40.0824C52.0036 38.2737 53.4672 36.8308 55.2512 36.8308ZM24.9183 54.6551V50.9043C24.886 49.4917 22.7835 49.4917 22.7512 50.9043V55.2129L22.4811 55.2816C21.078 55.6393 21.6143 57.743 23.0173 57.3853L39.3943 53.1798C40.6421 52.8585 41.8577 53.58 42.1762 54.7703C42.4988 55.9727 41.8013 57.2236 40.5696 57.5551L21.3361 62.7366C21.332 62.7366 21.332 62.7346 21.328 62.7366C20.0983 62.9731 19.4371 62.7569 19.0501 62.4315C18.661 62.1021 18.4191 61.5362 18.4191 60.6733V50.9164C18.4191 44.7406 22.3581 39.5287 27.809 37.623C29.1577 38.49 30.7764 39.0012 32.5 39.0012C34.2256 39.0012 35.8363 38.492 37.1849 37.625C42.6721 39.5428 46.5829 44.7406 46.5829 50.9164V60.6875C46.5829 61.5403 46.339 62.1041 45.952 62.4315C45.5649 62.7569 44.9037 62.9731 43.672 62.7366L36.6688 60.8512L41.13 59.6487C43.4825 59.0162 44.9037 56.5992 44.2647 54.2186C43.9482 53.0384 43.2023 52.1148 42.2488 51.551V50.9043C42.2165 49.4917 40.114 49.5038 40.0817 50.9407C39.7551 50.9164 39.2633 50.969 38.85 51.0761L24.9183 54.6551ZM36.8362 44.4152C35.423 44.4476 35.423 46.5513 36.8362 46.5816H40.0817C41.4928 46.5493 41.4928 44.4455 40.0817 44.4152H36.8362ZM7.65026 45.072C8.25502 45.3347 9.01501 45.4964 9.74879 45.4964C10.4846 45.4964 11.2164 45.3347 11.8534 45.072C14.4256 45.9349 16.25 48.3944 16.25 51.2499V52.521C16.25 54.0306 15.0546 55.2472 13.5366 55.2472H5.95491C4.43897 55.2472 3.2496 54.0145 3.2496 52.521V51.2499C3.2496 48.3903 5.07598 45.937 7.65026 45.072ZM53.1466 45.072C53.7574 45.3388 54.5154 45.4984 55.2512 45.4984C55.985 45.4984 56.7248 45.3469 57.3497 45.072C59.924 45.937 61.7504 48.3883 61.7504 51.2499V52.521C61.7504 54.0145 60.561 55.2472 59.0451 55.2472H51.4634C49.9454 55.2472 48.75 54.0145 48.75 52.521V51.2499C48.75 48.3944 50.5744 45.9349 53.1466 45.072Z" fill="#333333"/>
</svg>
