<svg width="22" height="19" viewBox="0 0 22 19" fill="none" xmlns="http://www.w3.org/2000/svg">
<path d="M11.8896 3.51258C11.3104 3.27215 10.6739 3.27427 10.0969 3.51893C9.51873 3.76254 9.07081 4.21903 8.83331 4.80369C8.59581 5.3894 8.5979 6.03231 8.83956 6.6159C9.08123 7.1995 9.53227 7.65281 10.1114 7.89218C10.3989 8.01187 10.7 8.07118 11.001 8.07118C11.3073 8.07118 11.6135 8.00975 11.9041 7.88583C12.4812 7.64222 12.9302 7.18573 13.1677 6.60107C13.4052 6.01536 13.4031 5.37245 13.1614 4.78886C12.9198 4.20527 12.4677 3.75195 11.8896 3.51258ZM12.5989 6.36488C12.4229 6.79596 12.0927 7.13277 11.6666 7.31283C11.2416 7.49288 10.7719 7.49394 10.3448 7.31706C9.91873 7.14018 9.5854 6.80655 9.40727 6.37653C9.22915 5.94546 9.22706 5.47096 9.40206 5.03988C9.57706 4.6088 9.90831 4.27199 10.3333 4.09194C10.5489 4.00085 10.7739 3.95636 11 3.95636C11.2219 3.95636 11.4437 3.99979 11.6562 4.0877C12.0823 4.26458 12.4156 4.59821 12.5937 5.02823C12.7719 5.4593 12.7739 5.93275 12.5989 6.36488Z" fill="black"/>
<mask id="mask0_231_549" style="mask-type:luminance" maskUnits="userSpaceOnUse" x="0" y="0" width="22" height="19">
<path d="M0 0.856201H22V18.7517H0V0.856201Z" fill="white"/>
</mask>
<g mask="url(#mask0_231_549)">
<path d="M21.7744 12.5895C21.6296 12.2443 21.4233 11.9339 21.1598 11.6681C20.8963 11.4022 20.589 11.1925 20.2473 11.0464C20.2463 11.0464 20.2452 11.0453 20.2442 11.0453C20.2963 11.004 20.3452 10.9595 20.3921 10.9118C20.7296 10.5708 20.915 10.1175 20.915 9.63557C20.915 9.15365 20.7296 8.70033 20.3921 8.35928C20.1317 8.09661 19.8056 7.92503 19.4515 7.86042V5.70186C19.4515 5.53028 19.314 5.39153 19.1442 5.39153H15.7931L15.7921 5.12251C15.791 4.99117 15.7088 4.87466 15.5858 4.83124L14.64 4.49443L14.4067 3.93202L14.8348 3.01479C14.89 2.8951 14.865 2.75424 14.7733 2.66103L13.9827 1.86878C13.891 1.77664 13.7504 1.75228 13.6338 1.80947L12.7285 2.24796L12.1702 2.01707L11.8306 1.06277C11.7869 0.938846 11.6713 0.856232 11.541 0.856232C11.541 0.856232 11.541 0.856232 11.54 0.856232L10.4275 0.860468C10.2973 0.861527 10.1817 0.944141 10.139 1.06806L9.80563 2.02554L9.24938 2.26067L8.34105 1.82854C8.22334 1.7724 8.08376 1.79676 7.99209 1.88997L7.20772 2.68857C7.11605 2.78177 7.09209 2.9237 7.14834 3.04233L7.58272 3.95638L7.35355 4.52091L6.4098 4.86407C6.28688 4.90856 6.20563 5.02612 6.20563 5.15746L6.20667 5.39153H2.8723C2.70146 5.39153 2.56397 5.53028 2.56397 5.70186V7.85724C2.20459 7.92079 1.87334 8.09344 1.6098 8.35928C1.2723 8.70033 1.08584 9.15365 1.08584 9.63557C1.08584 10.1175 1.2723 10.5708 1.6098 10.9118C1.65667 10.9595 1.70563 11.004 1.75667 11.0453C1.75667 11.0453 1.75563 11.0464 1.75459 11.0464C1.41292 11.1925 1.10563 11.4022 0.84209 11.6681C0.578548 11.9339 0.371257 12.2443 0.226465 12.5906C0.0775065 12.9475 0.00146484 13.3278 0.00146484 13.7197V14.5363C0.00146484 14.7079 0.138965 14.8466 0.308757 14.8466H5.4348C5.60459 14.8466 5.74209 14.7079 5.74209 14.5363V13.7197C5.74209 13.3278 5.66605 12.9475 5.51605 12.5906C5.3723 12.2443 5.16501 11.9339 4.90146 11.6681C4.63792 11.4022 4.33063 11.1925 3.98897 11.0464C3.98792 11.0464 3.98688 11.0453 3.98584 11.0453C4.03792 11.004 4.08688 10.9595 4.13376 10.9118C4.47126 10.5708 4.65667 10.1175 4.65667 9.63557C4.65667 9.15365 4.47126 8.70033 4.13376 8.35928C3.87022 8.09344 3.53896 7.92079 3.17959 7.85724V6.01326H6.20876L6.2098 6.28122C6.2098 6.41362 6.29209 6.53012 6.41501 6.57355L7.36188 6.91036L7.59522 7.47277L7.16709 8.39C7.11188 8.50968 7.13584 8.65055 7.22855 8.74376L8.01813 9.53601C8.11084 9.62815 8.25042 9.65251 8.36813 9.59532L9.27334 9.15683L9.83063 9.38772L10.1702 10.342C10.215 10.4659 10.3306 10.5486 10.4598 10.5486C10.4608 10.5486 10.4608 10.5486 10.4608 10.5486L10.6931 10.5475V11.7465C10.6931 11.7518 10.6931 11.7571 10.6931 11.7634C10.3338 11.8259 10.0015 11.9985 9.73792 12.2654C9.40042 12.6054 9.21501 13.0588 9.21501 13.5407C9.21501 14.0226 9.40042 14.4759 9.73792 14.817C9.7848 14.8646 9.8348 14.9091 9.88584 14.9504C9.8848 14.9515 9.88376 14.9515 9.88272 14.9515C9.54105 15.0976 9.2348 15.3073 8.97126 15.5732C8.70772 15.8401 8.50042 16.1494 8.35563 16.4957C8.20563 16.8537 8.12959 17.2329 8.12959 17.6248V18.4414C8.12959 18.613 8.26813 18.7517 8.43792 18.7517H13.5629C13.7338 18.7517 13.8713 18.613 13.8713 18.4414V17.6248C13.8713 17.2329 13.7952 16.8537 13.6452 16.4957C13.5004 16.1504 13.2942 15.8401 13.0306 15.5732C12.7671 15.3073 12.4598 15.0976 12.1181 14.9515C12.1171 14.9515 12.116 14.9515 12.115 14.9504C12.166 14.9091 12.216 14.8646 12.2629 14.817C12.6004 14.4759 12.7858 14.0226 12.7858 13.5407C12.7858 13.0588 12.6004 12.6054 12.2629 12.2654C11.9994 11.9985 11.6681 11.8259 11.3077 11.7634C11.3077 11.7571 11.3077 11.7518 11.3077 11.7465V10.5454L11.5733 10.5443C11.7035 10.5433 11.8192 10.4606 11.8629 10.3367L12.1952 9.37925L12.7525 9.14412L13.6598 9.57625C13.7775 9.63239 13.9181 9.60803 14.0098 9.51482L14.7931 8.71622C14.8848 8.62301 14.9088 8.48109 14.8525 8.36246L14.4181 7.44841L14.6473 6.88494L15.5921 6.54072C15.714 6.49623 15.7963 6.37866 15.7952 6.24733L15.7942 6.01326H18.8358V7.85513C18.4702 7.91656 18.1338 8.09026 17.8671 8.36034C17.5296 8.70033 17.3442 9.15365 17.3442 9.63557C17.3442 10.1175 17.5296 10.5708 17.8671 10.9118C17.914 10.9595 17.964 11.004 18.015 11.0453C18.014 11.0453 18.0129 11.0464 18.0119 11.0464C17.6702 11.1925 17.3629 11.4022 17.0994 11.6681C16.8358 11.935 16.6296 12.2443 16.4848 12.5906C16.3348 12.9475 16.2588 13.3278 16.2588 13.7197V14.5363C16.2588 14.7079 16.3963 14.8466 16.566 14.8466H21.6921C21.8619 14.8466 22.0004 14.7079 22.0004 14.5363V13.7197C22.0004 13.3278 21.9244 12.9475 21.7744 12.5895ZM4.46709 12.1076C4.89209 12.5376 5.12751 13.1107 5.12751 13.7197V14.2249H0.616048V13.7197C0.616048 13.1107 0.851465 12.5376 1.27751 12.1076C1.70251 11.6776 2.26917 11.4404 2.8723 11.4404C3.47438 11.4404 4.04105 11.6776 4.46709 12.1076ZM4.04209 9.63557C4.04209 10.288 3.51709 10.8186 2.8723 10.8186C2.22646 10.8186 1.70146 10.288 1.70146 9.63557C1.70146 8.98313 2.22646 8.45249 2.8723 8.45249C3.51709 8.45249 4.04209 8.98313 4.04209 9.63557ZM12.5952 16.0127C13.0213 16.4438 13.2567 17.0158 13.2567 17.6248V18.13H8.74522V17.6248C8.74522 17.0158 8.97959 16.4438 9.40563 16.0127C9.83167 15.5827 10.3983 15.3455 11.0004 15.3455C11.6035 15.3455 12.1692 15.5827 12.5952 16.0127ZM12.1713 13.5407C12.1713 14.1931 11.6463 14.7237 11.0004 14.7237C10.3556 14.7237 9.83063 14.1931 9.83063 13.5407C9.83063 12.8893 10.3556 12.3587 11.0004 12.3587C11.6463 12.3587 12.1713 12.8893 12.1713 13.5407ZM14.3108 6.34583C14.2296 6.37549 14.164 6.43904 14.1306 6.52059L13.7983 7.34038C13.765 7.42193 13.7671 7.51302 13.8056 7.59246L14.2046 8.43342L13.7265 8.92064L12.891 8.52345C12.8119 8.48532 12.7213 8.4832 12.641 8.5171L11.8327 8.85921C11.7525 8.8931 11.69 8.95982 11.6608 9.0435L11.3546 9.92366L10.6765 9.92577L10.364 9.04773C10.3348 8.96512 10.2713 8.89839 10.191 8.86556L9.37959 8.52875C9.34209 8.51392 9.30251 8.50545 9.26292 8.50545C9.21813 8.50545 9.1723 8.51604 9.13063 8.53616L8.29834 8.9397L7.81605 8.45673L8.2098 7.61258C8.2473 7.53314 8.24834 7.441 8.21501 7.3605L7.87647 6.54283C7.84313 6.46128 7.77751 6.39879 7.69522 6.36913L6.82438 6.05986L6.8223 5.37459L7.69105 5.05896C7.7723 5.0293 7.83792 4.96575 7.87126 4.8842L8.20355 4.06441C8.23688 3.98286 8.23376 3.89177 8.19626 3.81233L7.7973 2.9703L8.27542 2.48415L9.11084 2.88134C9.18897 2.91947 9.28063 2.92158 9.36084 2.88663L10.1692 2.54558C10.2494 2.51169 10.3119 2.44496 10.34 2.36129L10.6463 1.48113L11.3254 1.47901L11.6379 2.35705C11.6671 2.43967 11.7296 2.50639 11.8108 2.53923L12.6213 2.87604C12.7025 2.90887 12.7931 2.90676 12.8713 2.86863L13.7035 2.46509L14.1858 2.94806L13.7921 3.79221C13.7546 3.87165 13.7525 3.96379 13.7869 4.04429L14.1244 4.86196C14.1588 4.94351 14.2244 5.006 14.3067 5.03566L15.1775 5.34493L15.1796 6.0302L14.3108 6.34583ZM17.9598 9.63557C17.9598 8.98313 18.4848 8.45249 19.1296 8.45249C19.7754 8.45249 20.3004 8.98313 20.3004 9.63557C20.3004 10.288 19.7754 10.8186 19.1296 10.8186C18.4848 10.8186 17.9598 10.288 17.9598 9.63557ZM21.3848 14.2249H16.8744V13.7197C16.8744 13.1107 17.1088 12.5376 17.5348 12.1076C17.9608 11.6776 18.5275 11.4404 19.1296 11.4404C19.7327 11.4404 20.2983 11.6776 20.7244 12.1076C21.1504 12.5376 21.3848 13.1107 21.3848 13.7197V14.2249Z" fill="black"/>
</g>
<path d="M12.0958 5.08119L11.4072 5.11297L11.1635 4.46053C11.1312 4.37262 11.0458 4.31648 10.9531 4.32072C10.8604 4.32496 10.7812 4.38851 10.7572 4.47959L10.5739 5.15216L9.88535 5.18393C9.79264 5.18817 9.71243 5.25278 9.68848 5.3428C9.66348 5.43283 9.69993 5.52922 9.77702 5.58111L10.3531 5.96453L10.1708 6.63709C10.1458 6.72712 10.1812 6.8235 10.2593 6.87434C10.2947 6.8987 10.3364 6.91035 10.377 6.91035C10.4249 6.91035 10.4718 6.89447 10.5104 6.86269L11.0499 6.42738L11.626 6.81079C11.7031 6.86269 11.8051 6.85846 11.877 6.79914C11.9499 6.74089 11.977 6.64133 11.9437 6.55448L11.701 5.90204L12.2395 5.46673C12.3124 5.40741 12.3395 5.30891 12.3062 5.221C12.2739 5.13309 12.1885 5.07696 12.0958 5.08119ZM11.3114 5.66161C11.2395 5.71986 11.2124 5.81942 11.2447 5.90733L11.3104 6.08315L11.1551 5.97936C11.0781 5.92852 10.976 5.93275 10.9031 5.99101L10.7583 6.10857L10.8072 5.92746C10.8322 5.83743 10.7958 5.74105 10.7187 5.68915L10.5635 5.58535L10.7489 5.57688C10.8416 5.57264 10.9218 5.50909 10.9458 5.418L10.9958 5.23689L11.0614 5.41271C11.0937 5.50062 11.1781 5.55675 11.2708 5.55252L11.4572 5.54404L11.3114 5.66161Z" fill="black"/>
</svg>
