<svg width="126" height="126" viewBox="0 0 126 126" fill="none" xmlns="http://www.w3.org/2000/svg">
<mask id="mask0_144_565" style="mask-type:luminance" maskUnits="userSpaceOnUse" x="0" y="0" width="126" height="126">
<path d="M0 0H125.176V125.422H0V0Z" fill="white"/>
</mask>
<g mask="url(#mask0_144_565)">
<path d="M42.5714 6.72884C44.4454 6.95627 46.1466 7.57487 47.596 8.62407C48.2389 9.08803 48.3875 9.97954 47.9205 10.6163C47.4657 11.2592 46.5681 11.4048 45.9282 10.9408C45.2672 10.4708 44.4606 10.0796 43.5236 9.82792C42.6624 9.5914 41.6829 9.4701 40.6155 9.50346C38.0987 9.88554 35.8608 11.0803 34.1566 12.8118C32.8041 14.1854 31.8035 15.9018 31.2789 17.8091C33.0862 17.9729 34.7752 18.5096 36.2307 19.4375C36.8978 19.859 37.0919 20.7384 36.6704 21.4025C36.2489 22.0696 35.3604 22.2637 34.6994 21.8422C34.0474 21.4267 33.2833 21.1023 32.4099 20.89C31.6185 20.6959 30.7391 20.5989 29.7627 20.6141C27.3823 21.3054 25.3142 22.761 23.8405 24.6865C18.1396 32.1644 23.4735 43.0657 32.977 43.0657C53.1241 43.0657 71.0909 43.2507 92.1719 43.2507C101.678 43.2507 107.015 32.3524 101.311 24.8745C99.8377 22.946 97.7757 21.5026 95.3983 20.8112C94.5402 20.8021 93.7578 20.8839 93.0422 21.0447C92.2143 21.2387 91.4805 21.5329 90.8377 21.9059C89.2153 22.858 87.7659 20.3866 89.3942 19.4345C90.7315 18.6521 92.2538 18.1791 93.8731 18.0184C92.8966 14.4038 90.1918 11.4836 86.6712 10.2252C86.8107 11.1834 86.844 12.1538 86.7864 13.1939C86.6803 15.0709 83.8207 14.9162 83.9269 13.0392C84.0088 11.5412 83.8632 10.119 83.3507 8.77266C83.3416 8.73021 83.3265 8.69685 83.3204 8.65743C82.5593 6.34979 81.0856 4.36359 79.1539 2.9596C75.8335 0.551902 71.4062 0.0879489 67.6461 1.80427C66.1633 2.47746 64.8533 3.45995 63.7828 4.67289L63.5979 4.8609C62.391 5.95862 61.4873 7.55971 60.9021 9.15474C60.2592 10.9256 57.5634 9.94315 58.2154 8.16922C58.8098 6.53477 59.6164 5.04588 60.6838 3.77834C55.1982 -1.49798 46.1223 -0.0272808 42.5714 6.72884ZM51.0287 33.8291C52.9179 33.8291 52.9179 36.7008 51.0287 36.7008H41.6283C40.8278 36.7008 40.1849 36.0579 40.1849 35.2604V19.4072C40.1849 18.6097 40.8278 17.9668 41.6283 17.9668H51.0287C52.9179 17.9668 52.9179 20.8385 51.0287 20.8385H43.0627V25.8934H51.0287C52.9179 25.8934 52.9179 28.7651 51.0287 28.7651H43.0627V33.8291H51.0287ZM62.8398 20.8385H57.7909V25.8934H62.8398C65.0625 25.8934 66.2451 23.1946 64.6319 21.5875C64.174 21.1265 63.5403 20.8385 62.8398 20.8385ZM57.7878 35.2604C57.7878 37.1466 54.9101 37.1466 54.9101 35.2604V19.4072C54.9101 18.6097 55.553 17.9668 56.3444 17.9668H62.8367C67.8856 17.9668 70.2145 24.3499 66.233 27.5612C67.4702 28.7075 68.2435 30.348 68.2435 32.1553V35.2604C68.2435 37.1466 65.3748 37.1466 65.3748 35.2604V32.1553C65.3748 30.2934 63.8435 28.7651 61.9786 28.7651H57.7848V35.2604H57.7878ZM79.5603 20.8385H74.5023V25.8934H79.5603C81.783 25.8934 82.9656 23.1946 81.3524 21.5875C80.8884 21.1265 80.2607 20.8385 79.5603 20.8385ZM74.5023 35.2604C74.5023 37.1466 71.6337 37.1466 71.6337 35.2604V19.4072C71.6337 18.6097 72.2795 17.9668 73.068 17.9668H79.5603C84.3241 17.9668 86.8016 23.7647 83.378 27.1791C82.4016 28.1616 81.0492 28.7651 79.5603 28.7651H74.5023V35.2604ZM80.1152 92.4054H45.0489V115.075H80.1152V92.4054ZM42.7655 125.422H82.3955L85.2308 117.935H39.9332L42.7655 125.422ZM121.228 63.5009H93.9003V80.9613H121.228V63.5009ZM91.993 89.2033H123.132L125.161 83.8299H89.9552L91.993 89.2033ZM31.2667 63.5009H3.93598V80.9613H31.2667V63.5009ZM2.02862 89.2033H33.1711L35.2088 83.8299H-0.00610352L2.02862 89.2033ZM61.1416 52.1447C61.1416 50.2585 64.0194 50.2585 64.0194 52.1447V80.5549C64.0194 82.4411 61.1416 82.4411 61.1416 80.5549V52.1447ZM48.5179 52.1447C48.5179 50.2585 51.3956 50.2585 51.3956 52.1447V65.6054C51.3956 66.0996 51.1439 66.5393 50.7618 66.791L42.159 73.2954C41.5252 73.7655 40.6277 73.6442 40.1485 73.0104C39.6694 72.3857 39.7968 71.4821 40.4245 71.0121L48.5209 64.8927V52.1447H48.5179ZM73.7684 52.1447C73.7684 50.2585 76.6462 50.2585 76.6462 52.1447V64.8897L84.7365 71.009C85.3703 71.4791 85.4946 72.3827 85.0216 73.0104C84.5394 73.6442 83.6449 73.7655 83.0081 73.2924L74.4083 66.788C74.0262 66.5363 73.7715 66.0966 73.7715 65.6023V52.1447H73.7684Z" fill="black"/>
</g>
</svg>
