<svg width="41" height="59" viewBox="0 0 41 59" fill="none" xmlns="http://www.w3.org/2000/svg">
<mask id="mask0_161_736" style="mask-type:luminance" maskUnits="userSpaceOnUse" x="9" y="0" width="22" height="28">
<path d="M9.15186 0H30.8292V27.9352H9.15186V0Z" fill="white"/>
</mask>
<g mask="url(#mask0_161_736)">
<path d="M11.1077 16.18H10.6029C10.0982 16.18 9.68477 16.5934 9.68477 17.0998C9.68477 22.9376 14.4134 27.6729 20.2428 27.6729C26.0723 27.6729 30.7993 22.9376 30.7993 17.0998C30.7993 16.5934 30.3858 16.18 29.8811 16.18H28.4134C28.3669 16.087 28.3204 15.9957 28.2291 15.9492L27.4487 15.1224C27.8156 14.4782 28.0913 13.7891 28.2756 13.1001H29.4228C29.9276 13.1001 30.341 12.6867 30.341 12.1803V9.23815C30.341 8.73175 29.9276 8.31833 29.4228 8.31833H28.3204C28.1377 7.62929 27.8621 6.94025 27.4952 6.29604L28.2756 5.46919C28.6425 5.1006 28.6425 4.54937 28.2756 4.18077L26.2101 2.15848C25.8415 1.78989 25.2454 1.78989 24.925 2.15848L24.1446 2.9405C23.5004 2.5719 22.8579 2.29629 22.1705 2.11199V0.963039C22.1705 0.458297 21.7571 0.0432129 21.2523 0.0432129H18.36C17.8553 0.0432129 17.4419 0.458297 17.4419 0.963039V2.11199C16.7528 2.29629 16.0654 2.5719 15.4677 2.9405L14.6874 2.15848C14.4582 1.97418 14.2291 1.88287 13.9535 1.88287C13.6779 1.88287 13.4952 1.97418 13.3109 2.15848L11.292 4.18077C10.9234 4.54937 10.9234 5.1006 11.292 5.46919L12.0723 6.29604C11.7037 6.94025 11.4298 7.62929 11.2455 8.31833H10.143C9.63828 8.31833 9.22485 8.73175 9.22485 9.23815V12.1803C9.22485 12.6867 9.63828 13.1001 10.143 13.1001H11.2455C11.4298 13.7891 11.7037 14.4782 12.0723 15.1224L11.292 15.9492C11.199 15.9957 11.1542 16.087 11.1077 16.18ZM20.2428 25.8332C15.7433 25.8332 12.0258 22.3864 11.5659 18.018H28.9181C28.4582 22.3864 24.7407 25.8332 20.2428 25.8332ZM11.9794 11.2604H11.0612V10.158H11.9794C12.4393 10.158 12.8062 9.83588 12.8975 9.42245C13.0818 8.45614 13.4487 7.53631 14 6.70946C14.2291 6.34253 14.1826 5.83613 13.907 5.56051L13.2196 4.87147L13.9535 4.08945L14.596 4.73366C14.9181 5.05411 15.4229 5.1006 15.7898 4.82498C16.6167 4.27375 17.4883 3.85867 18.4513 3.72086C18.8648 3.62954 19.1869 3.2626 19.1869 2.80269V1.88287H20.2428V2.84752C20.2428 3.30743 20.5633 3.67603 20.9767 3.76735C21.9414 3.95164 22.8579 4.31858 23.6382 4.87147C24.0068 5.14709 24.5116 5.1006 24.832 4.77849L25.4746 4.13594L26.2101 4.9163L25.5211 5.607C25.1989 5.92744 25.1541 6.38736 25.4297 6.75595C25.9793 7.5828 26.3479 8.50263 26.5305 9.46728C26.6219 9.92719 26.9904 10.2028 27.4487 10.2028H28.3669V11.3069H27.4487C26.9904 11.3069 26.6219 11.629 26.5305 12.0425C26.3479 13.0071 25.9793 13.9269 25.4297 14.7538C25.1989 15.1224 25.2454 15.6288 25.5211 15.9044L25.7967 16.18H13.5866L13.8622 15.9044C14.1826 15.5823 14.2291 15.1224 13.9535 14.7538C13.4023 13.9269 13.0353 13.0071 12.8527 12.0425C12.8062 11.5825 12.4393 11.2604 11.9794 11.2604Z" fill="black"/>
</g>
<mask id="mask1_161_736" style="mask-type:luminance" maskUnits="userSpaceOnUse" x="0" y="28" width="41" height="31">
<path d="M0 28.3601H40.4856V58.9634H0V28.3601Z" fill="white"/>
</mask>
<g mask="url(#mask1_161_736)">
<path d="M31.0284 28.5925C30.9836 28.5925 30.9371 28.5925 30.8923 28.5925C30.8458 28.5925 30.8458 28.5925 30.7993 28.5925C30.7993 28.5925 30.7993 28.5925 30.7545 28.5925H10.8786C9.82262 28.5925 8.81314 28.7752 7.89497 29.1886C2.06553 31.7173 7.25351e-05 38.3835 0.0449017 43.7165C0.0913911 49.463 2.29466 54.4738 6.01215 57.0474C7.80199 58.2893 9.86911 58.9335 12.0259 58.9335C13.4023 58.9335 14.8252 58.6562 16.2481 58.1515C17.6262 57.6451 18.9113 57.3246 20.1964 57.0474C21.4815 57.2782 22.8131 57.6451 24.1447 58.1515C25.5676 58.6562 26.9905 58.9335 28.4134 58.9335C30.5702 58.9335 32.6356 58.2893 34.4255 57.0474C38.1446 54.4738 40.3479 49.463 40.3927 43.7165C40.4857 37.9701 38.0517 30.5683 31.0284 28.5925ZM21.8949 33.5104H18.6357L17.6262 30.384H22.8579L21.8949 33.5104ZM22.7666 46.3365C21.9862 46.383 21.1146 46.4279 20.1964 46.5673C19.2782 46.4279 18.4066 46.383 17.6262 46.3365C17.5797 46.3365 17.4884 46.3365 17.4419 46.3365L18.727 35.3036H21.7106L22.9957 46.3365C22.9509 46.3365 22.8579 46.3365 22.7666 46.3365ZM7.06812 55.485C3.85537 53.2319 1.92772 48.8187 1.88123 43.67C1.83474 38.8899 3.62625 33.0057 8.62884 30.8439C9.27139 30.5683 10.0517 30.4305 10.8786 30.4305H15.6986L16.9837 34.5681L15.5607 46.7051C14.4583 47.0256 13.3575 47.6233 12.4393 48.4518C12.2102 48.5431 11.9794 48.5896 11.7968 48.6809C11.659 48.5431 11.4747 48.4966 11.292 48.4518C10.7856 48.4053 10.236 47.8541 9.77613 46.9808C9.13358 45.6923 8.95094 43.9457 9.4092 43.2566C9.68481 42.8432 9.54701 42.2455 9.13358 41.9699C8.72016 41.6942 8.1241 41.832 7.84848 42.2455C6.88549 43.763 7.34374 46.1987 8.1241 47.7611C8.76665 49.0944 9.68481 49.9229 10.7408 50.152C10.8321 50.2898 10.9234 50.3828 11.0612 50.4741C10.9699 50.7497 10.8786 50.9805 10.8321 51.3009C10.4187 53.4162 11.3833 55.4385 13.0819 56.174C13.6779 56.4496 14.3205 56.5426 14.963 56.5875C12.0724 57.4625 9.31788 57.0939 7.06812 55.485ZM33.416 55.485C30.9836 57.1852 28 57.5073 24.8321 56.3583C22.0327 55.3472 19.3247 54.8408 16.7994 54.796H16.3859C15.4678 54.796 14.5961 54.796 13.8622 54.4739C12.8062 54.0139 12.4393 52.6807 12.6684 51.6231C13.0819 49.3251 15.8812 48.1297 17.6262 48.1762C20.7476 48.2675 25.5676 49.3251 28.5512 50.5206H28.596H28.6425C28.689 50.5206 28.7803 50.5654 28.8252 50.5654C28.8717 50.5654 28.963 50.5654 29.0095 50.5654H29.056C29.1008 50.5654 29.1473 50.5206 29.1938 50.5206C29.1938 50.5206 29.1938 50.5206 29.2386 50.5206C31.6262 49.37 32.727 47.2099 32.727 43.8543C32.727 43.3479 32.3152 42.9345 31.8088 42.9345C31.3041 42.9345 30.8923 43.3479 30.8923 43.8543C30.8923 46.3365 30.2481 47.8076 28.7803 48.6809C28.5047 48.5896 28.1826 48.4518 27.8622 48.3588C26.9905 47.532 25.888 46.9808 24.8321 46.6586L23.4092 34.5216L24.6943 30.384H30.5702C36.4909 32.1772 38.5564 38.6143 38.5116 43.67C38.5564 48.8187 36.6287 53.2319 33.416 55.485Z" fill="black"/>
</g>
<path d="M19.783 14.7537C22.0776 14.7537 23.9139 12.9157 23.9139 10.6178C23.9139 8.31822 22.0776 6.48022 19.783 6.48022C17.4884 6.48022 15.6521 8.31822 15.6521 10.6178C15.6521 12.9157 17.4884 14.7537 19.783 14.7537ZM19.783 8.31822C21.0681 8.31822 22.0776 9.32936 22.0776 10.6178C22.0776 11.9045 21.0681 12.9157 19.783 12.9157C18.4979 12.9157 17.4884 11.9045 17.4884 10.6178C17.4884 9.32936 18.4979 8.31822 19.783 8.31822Z" fill="black"/>
</svg>
