<svg width="138" height="123" viewBox="0 0 138 123" fill="none" xmlns="http://www.w3.org/2000/svg">
<path d="M60.2036 59.5006C60.2036 59.7913 60.1499 60.0684 60.0398 60.3346C59.9298 60.6035 59.7741 60.8399 59.5727 61.0436C59.3687 61.2474 59.1379 61.4049 58.8721 61.5163C58.609 61.625 58.3325 61.682 58.0453 61.682H39.955C39.6677 61.682 39.3912 61.625 39.1282 61.5163C38.8624 61.4049 38.6289 61.2474 38.4275 61.0436C38.2262 60.8399 38.0678 60.6035 37.9604 60.3346C37.8504 60.0684 37.794 59.7913 37.794 59.5006C37.794 59.2127 37.8504 58.9356 37.9604 58.6666C38.0678 58.4004 38.2262 58.1641 38.4275 57.9603C38.6289 57.7566 38.8624 57.599 39.1282 57.4877C39.3912 57.3763 39.6677 57.322 39.955 57.322H58.0453C58.3325 57.322 58.609 57.3763 58.8721 57.4877C59.1379 57.599 59.3687 57.7566 59.5727 57.9603C59.7741 58.1641 59.9298 58.4004 60.0398 58.6666C60.1499 58.9356 60.2036 59.2127 60.2036 59.5006ZM58.0453 67.778H39.955C39.6677 67.7752 39.3912 67.8323 39.1255 67.9409C38.8624 68.0523 38.6289 68.2099 38.4249 68.4136C38.2208 68.6174 38.0651 68.8537 37.9551 69.1227C37.845 69.3889 37.7913 69.666 37.7913 69.9566C37.7913 70.2473 37.845 70.5244 37.9551 70.7906C38.0651 71.0596 38.2208 71.2959 38.4249 71.4996C38.6289 71.7034 38.8624 71.8609 39.1255 71.9723C39.3912 72.081 39.6677 72.138 39.955 72.1353H58.0453C58.3325 72.1353 58.6064 72.081 58.8721 71.9696C59.1352 71.8582 59.3687 71.7007 59.5701 71.4969C59.7714 71.2932 59.9271 71.0568 60.0372 70.7906C60.1445 70.5217 60.2009 70.2446 60.2009 69.9566C60.2009 69.6687 60.1445 69.3889 60.0372 69.1227C59.9271 68.8564 59.7714 68.6201 59.5701 68.4163C59.3687 68.2126 59.1352 68.055 58.8721 67.9437C58.6064 67.8323 58.3325 67.778 58.0453 67.778ZM39.955 40.7619H76.4524C76.7369 40.7619 77.0135 40.7075 77.2765 40.5961C77.5423 40.4875 77.7758 40.3299 77.9772 40.1235C78.1812 39.9197 78.3369 39.6834 78.4469 39.4172C78.5543 39.1509 78.6107 38.8711 78.6107 38.5832C78.6107 38.2952 78.5543 38.0154 78.4469 37.7492C78.3369 37.483 78.1812 37.2466 77.9772 37.0429C77.7758 36.8364 77.5423 36.6789 77.2765 36.5702C77.0135 36.4588 76.7369 36.4045 76.4524 36.4045H39.955C39.6677 36.4045 39.3912 36.4588 39.1282 36.5702C38.8624 36.6789 38.6289 36.8364 38.4275 37.0429C38.2262 37.2466 38.0678 37.483 37.9604 37.7492C37.8504 38.0154 37.794 38.2952 37.794 38.5832C37.794 38.8711 37.8504 39.1509 37.9604 39.4172C38.0678 39.6834 38.2262 39.9197 38.4275 40.1235C38.6289 40.3299 38.8624 40.4875 39.1282 40.5961C39.3912 40.7075 39.6677 40.7619 39.955 40.7619ZM78.6107 49.0473C78.6107 48.7567 78.5543 48.4796 78.4469 48.2106C78.3369 47.9444 78.1812 47.7081 77.9772 47.5043C77.7758 47.3006 77.5423 47.143 77.2765 47.0317C77.0135 46.9203 76.7369 46.8659 76.4524 46.8659H39.955C39.6651 46.8632 39.3886 46.9148 39.1201 47.0262C38.8517 47.1349 38.6181 47.2924 38.4114 47.4962C38.2074 47.6999 38.049 47.9363 37.939 48.2052C37.8262 48.4741 37.7698 48.7539 37.7698 49.0446C37.7698 49.338 37.8262 49.6178 37.939 49.8867C38.049 50.1557 38.2074 50.392 38.4114 50.5958C38.6181 50.7995 38.8517 50.9571 39.1201 51.0657C39.3886 51.1771 39.6651 51.2287 39.955 51.226H76.4524C76.7369 51.226 77.0135 51.169 77.2765 51.0603C77.5423 50.9489 77.7758 50.7914 77.9772 50.5876C78.1812 50.3839 78.3369 50.1475 78.4469 49.8813C78.5543 49.6124 78.6107 49.3353 78.6107 49.0473ZM32.1057 90.7138C31.8587 90.5698 31.593 90.4802 31.3084 90.4421C31.0239 90.4041 30.7447 90.4231 30.4682 90.4992C30.1917 90.5753 29.9394 90.7002 29.7139 90.8768C29.4857 91.0534 29.3005 91.2653 29.1582 91.5152L25.7463 97.5079L22.7747 95.8508C22.525 95.7095 22.2566 95.6253 21.972 95.5927C21.6875 95.5601 21.4083 95.5846 21.1345 95.6661C20.8607 95.7449 20.611 95.8752 20.3882 96.0573C20.1627 96.2365 19.9829 96.4539 19.8459 96.7065C19.7064 96.9592 19.6205 97.2281 19.5882 97.516C19.5587 97.8013 19.5802 98.0838 19.6607 98.3609C19.7386 98.638 19.8674 98.8906 20.0446 99.1161C20.2245 99.3416 20.4365 99.5263 20.6889 99.6648L25.5155 102.357C25.7651 102.495 26.0282 102.582 26.31 102.615C26.5919 102.648 26.8684 102.626 27.1395 102.55C27.4133 102.474 27.6603 102.346 27.8831 102.172C28.1086 101.996 28.2911 101.784 28.4307 101.537L32.9003 93.6884C33.0426 93.4385 33.1338 93.1696 33.1687 92.8843C33.2063 92.5964 33.1875 92.3138 33.1124 92.0368C33.0399 91.757 32.9137 91.5016 32.7392 91.2734C32.5648 91.0452 32.3554 90.8578 32.1057 90.7138ZM40.6986 96.1306C40.6986 96.5951 40.6771 97.0624 40.6314 97.5242C40.5858 97.9887 40.5187 98.4505 40.4274 98.9069C40.3388 99.366 40.2261 99.817 40.0919 100.262C39.9577 100.708 39.802 101.148 39.6275 101.577C39.4503 102.009 39.2517 102.43 39.0342 102.843C38.8168 103.253 38.5805 103.653 38.3255 104.041C38.0678 104.427 37.794 104.802 37.5014 105.163C37.2088 105.524 36.8974 105.869 36.5726 106.198C36.2451 106.53 35.9042 106.842 35.5471 107.138C35.1901 107.434 34.8197 107.711 34.4358 107.969C34.0519 108.227 33.6573 108.469 33.2493 108.689C32.8412 108.909 32.4252 109.108 31.9983 109.287C31.5715 109.463 31.1366 109.621 30.6964 109.757C30.2535 109.893 29.8052 110.004 29.3542 110.096C28.9005 110.186 28.4442 110.257 27.9851 110.3C27.5261 110.346 27.0644 110.371 26.6026 110.371C26.1409 110.371 25.6819 110.346 25.2202 110.303C24.7611 110.257 24.3048 110.189 23.8538 110.096C23.4001 110.007 22.9518 109.893 22.5116 109.757C22.0687 109.621 21.6338 109.466 21.207 109.287C20.7801 109.108 20.364 108.909 19.956 108.689C19.5507 108.469 19.1534 108.23 18.7695 107.972C18.3856 107.711 18.0152 107.434 17.6581 107.138C17.3011 106.842 16.9602 106.53 16.6327 106.201C16.3079 105.869 15.9965 105.524 15.7039 105.166C15.4113 104.805 15.1375 104.43 14.8798 104.044C14.6247 103.655 14.3858 103.256 14.1684 102.843C13.951 102.433 13.755 102.012 13.5778 101.58C13.4006 101.151 13.245 100.711 13.1107 100.265C12.9792 99.8197 12.8664 99.3687 12.7752 98.9096C12.6866 98.4533 12.6168 97.9914 12.5738 97.5269C12.5282 97.0651 12.504 96.5978 12.504 96.1333C12.504 95.6661 12.5282 95.2015 12.5738 94.737C12.6195 94.2725 12.6866 93.8134 12.7752 93.3543C12.8664 92.8979 12.9792 92.4442 13.1134 91.9987C13.2476 91.5532 13.4033 91.1158 13.5778 90.6839C13.755 90.252 13.9536 89.8309 14.1711 89.4207C14.3885 89.0105 14.6247 88.6112 14.8824 88.2227C15.1375 87.8343 15.414 87.4621 15.7066 87.1008C15.9992 86.7395 16.3106 86.3945 16.6354 86.0658C16.9629 85.7344 17.3038 85.422 17.6608 85.1259C18.0179 84.8325 18.3883 84.5527 18.7722 84.2946C19.1561 84.0365 19.5533 83.7975 19.9587 83.5774C20.3667 83.3574 20.7828 83.1591 21.2096 82.9798C21.6365 82.8005 22.0713 82.6456 22.5143 82.5098C22.9545 82.374 23.4028 82.2599 23.8565 82.1702C24.3075 82.0806 24.7638 82.01 25.2229 81.9665C25.6846 81.9203 26.1436 81.8986 26.6053 81.8986C27.0671 81.8986 27.5261 81.9203 27.9878 81.9665C28.4468 82.0127 28.9005 82.0833 29.3542 82.173C29.8052 82.2653 30.2535 82.3794 30.6937 82.5152C31.1366 82.6511 31.5688 82.8086 31.9957 82.9852C32.4225 83.1645 32.8386 83.3628 33.2439 83.5828C33.6519 83.8029 34.0466 84.0419 34.4304 84.3027C34.8143 84.5608 35.1847 84.8379 35.5418 85.134C35.8961 85.4301 36.2397 85.7425 36.5645 86.0712C36.892 86.4026 37.2007 86.7449 37.4934 87.1062C37.786 87.4675 38.0598 87.8397 38.3175 88.2282C38.5725 88.6139 38.8114 89.0132 39.0288 89.4234C39.2463 89.8364 39.4422 90.2547 39.6194 90.6866C39.7966 91.1158 39.9523 91.5559 40.0865 92.0014C40.2207 92.447 40.3335 92.8979 40.4247 93.3543C40.516 93.8107 40.5831 94.2725 40.6288 94.7343C40.6744 95.1988 40.6986 95.6634 40.6986 96.1306ZM36.382 96.1306C36.382 95.4813 36.3176 94.8402 36.1941 94.2018C36.0679 93.5662 35.8827 92.9495 35.6357 92.3492C35.3888 91.7515 35.0881 91.181 34.7311 90.6432C34.3741 90.1053 33.9687 89.6054 33.515 89.1464C33.0587 88.69 32.5648 88.2798 32.0306 87.9185C31.4964 87.5599 30.9326 87.2556 30.3394 87.0084C29.7461 86.7585 29.1367 86.5738 28.5059 86.4461C27.8751 86.3211 27.2389 86.2559 26.5973 86.2587C25.9557 86.2587 25.3195 86.3211 24.6887 86.4488C24.0605 86.5738 23.4484 86.7612 22.8552 87.0111C22.2619 87.2583 21.6982 87.5626 21.164 87.9239C20.6325 88.2852 20.1386 88.6954 19.6822 89.1518C19.2285 89.6109 18.8232 90.1107 18.4688 90.6513C18.1118 91.1892 17.8112 91.7597 17.5642 92.3573C17.3199 92.9577 17.1347 93.5743 17.0085 94.21C16.885 94.8484 16.8206 95.4895 16.8233 96.1388C16.8233 96.788 16.885 97.4291 17.0112 98.0648C17.1374 98.7005 17.3226 99.3171 17.5669 99.9175C17.8138 100.518 18.1145 101.086 18.4715 101.623C18.8286 102.164 19.2339 102.661 19.6903 103.12C20.1439 103.579 20.6379 103.99 21.1721 104.348C21.7063 104.709 22.27 105.014 22.8632 105.261C23.4565 105.508 24.0685 105.696 24.6967 105.821C25.3275 105.948 25.9638 106.011 26.6053 106.011C27.2469 106.011 27.8831 105.946 28.514 105.818C29.1421 105.693 29.7542 105.505 30.3474 105.255C30.9407 105.006 31.5044 104.701 32.0359 104.343C32.5701 103.981 33.0641 103.571 33.5177 103.112C33.9714 102.653 34.3767 102.156 34.7338 101.615C35.0908 101.077 35.3915 100.507 35.6384 99.9093C35.8827 99.309 36.0679 98.6923 36.1941 98.0566C36.3176 97.421 36.382 96.7771 36.382 96.1306ZM137.719 100.483C137.526 101.099 137.252 101.681 136.903 102.221C136.551 102.764 136.138 103.251 135.657 103.68C135.177 104.109 134.648 104.468 134.074 104.753C133.496 105.038 132.895 105.242 132.264 105.361C131.854 105.44 131.44 105.481 131.021 105.481C129 105.481 127.113 104.525 125.714 102.748L110.797 83.7866C110.4 83.8898 109.997 83.9442 109.586 83.9442C109.492 83.9442 109.401 83.9414 109.307 83.936C108.953 83.917 108.606 83.8599 108.268 83.7649C107.927 83.6725 107.6 83.5421 107.288 83.3737C106.977 83.208 106.684 83.0097 106.416 82.7815C106.145 82.5506 105.903 82.2952 105.688 82.01C105.474 81.7274 105.291 81.4259 105.144 81.1026C104.993 80.7794 104.88 80.4425 104.803 80.0948C104.725 79.7471 104.687 79.3967 104.685 79.0381C104.682 78.6822 104.719 78.329 104.795 77.9813L102.677 76.058V89.5131H106.564C106.848 89.5131 107.125 89.5674 107.388 89.6788C107.653 89.7902 107.887 89.9477 108.088 90.1515C108.292 90.3552 108.448 90.5916 108.555 90.8578C108.665 91.1267 108.722 91.4038 108.722 91.6918V95.9812C115.266 96.826 120.297 101.626 120.297 107.402V109.154C120.297 109.444 120.241 109.722 120.131 109.988C120.023 110.257 119.865 110.49 119.664 110.697C119.462 110.9 119.229 111.058 118.963 111.169C118.7 111.278 118.423 111.335 118.139 111.335H55.624C55.3367 111.335 55.0629 111.278 54.7972 111.169C54.5341 111.058 54.3005 110.9 54.0992 110.697C53.8952 110.49 53.7395 110.257 53.6294 109.988C53.5194 109.722 53.4657 109.444 53.4657 109.154V107.402C53.4657 107.277 53.471 107.154 53.4764 107.029H47.0016L48.4646 109.925C48.5666 110.132 48.6364 110.346 48.6713 110.574C48.7062 110.803 48.7062 111.028 48.6713 111.256C48.6364 111.482 48.5666 111.699 48.4619 111.903C48.3599 112.109 48.2257 112.291 48.0646 112.454L42.7629 117.809C42.6018 117.972 42.4193 118.108 42.2179 118.211C42.0139 118.314 41.7992 118.385 41.5737 118.42C41.3509 118.458 41.1254 118.458 40.8999 118.42C40.6744 118.385 40.4596 118.314 40.2583 118.211L35.3351 115.676C34.9324 115.858 34.5244 116.029 34.111 116.187L32.401 121.495C32.3312 121.715 32.2292 121.916 32.095 122.104C31.9608 122.288 31.7997 122.449 31.6171 122.584C31.4319 122.72 31.2306 122.821 31.0158 122.894C30.7984 122.965 30.5756 123 30.3501 123H22.8552C22.627 123 22.4042 122.965 22.1895 122.894C21.972 122.821 21.7707 122.72 21.5881 122.584C21.4029 122.449 21.2445 122.288 21.1103 122.104C20.9761 121.916 20.8741 121.715 20.8043 121.495L19.0916 116.187C18.6782 116.029 18.2702 115.861 17.8702 115.676L12.9497 118.211C12.7456 118.314 12.5309 118.385 12.3054 118.423C12.0826 118.458 11.8571 118.458 11.6316 118.423C11.4061 118.385 11.1914 118.317 10.9873 118.211C10.786 118.108 10.6035 117.972 10.4424 117.809L5.13799 112.454C4.97692 112.291 4.84539 112.109 4.74069 111.903C4.63869 111.699 4.56889 111.482 4.53399 111.254C4.49641 111.028 4.49641 110.8 4.53399 110.572C4.56889 110.344 4.63869 110.129 4.74338 109.923L7.25063 104.957C7.0654 104.544 6.89629 104.131 6.74059 103.718L1.48717 101.99C1.27242 101.92 1.07109 101.816 0.88586 101.681C0.703319 101.545 0.544938 101.384 0.410717 101.2C0.276495 101.012 0.174488 100.811 0.104693 100.591C0.0348979 100.371 0 100.148 0 99.9175V92.3492C0 92.1183 0.0348979 91.8955 0.104693 91.6755C0.174488 91.4581 0.276495 91.2544 0.410717 91.0697C0.544938 90.8822 0.703319 90.722 0.88586 90.5861C1.07109 90.4503 1.27242 90.3471 1.48717 90.2764L6.74059 88.5487C6.89629 88.1358 7.0654 87.7229 7.25063 87.3127L4.74338 82.3441C4.63869 82.1404 4.57157 81.923 4.53399 81.6948C4.49909 81.4694 4.49909 81.2412 4.53399 81.013C4.56889 80.7848 4.63869 80.5702 4.74338 80.3637C4.84539 80.16 4.97961 79.9753 5.14067 79.8123L10.4397 74.458C10.6008 74.295 10.7833 74.1618 10.9873 74.0559C11.1887 73.9527 11.4034 73.882 11.6289 73.8467C11.8544 73.8087 12.0772 73.8087 12.3027 73.844C12.5282 73.882 12.743 73.95 12.9443 74.0559L17.8675 76.5877C18.2675 76.403 18.6755 76.2319 19.0916 76.0716L20.313 72.2793V2.17867C20.313 1.89072 20.3694 1.61092 20.4795 1.34469C20.5869 1.07847 20.7452 0.84213 20.9466 0.63839C21.1479 0.431931 21.3814 0.277088 21.6472 0.16571C21.9103 0.0543312 22.1868 0 22.4713 0H83.7487C83.8238 0 83.899 0.00271638 83.9742 0.0108662C83.9876 0.0108662 83.9983 0.0162993 84.0091 0.0162993C84.0735 0.0244491 84.1352 0.0353152 84.197 0.0461814C84.2104 0.0488978 84.2238 0.0543312 84.2346 0.0570476C84.2963 0.0706302 84.3553 0.0869302 84.4117 0.105945C84.4278 0.111379 84.4439 0.116812 84.46 0.122245C84.5137 0.141261 84.5647 0.160277 84.6184 0.184726C84.6372 0.192875 84.656 0.203742 84.6748 0.211891C84.7204 0.233623 84.7661 0.258072 84.8117 0.282521C84.8332 0.296104 84.8547 0.309687 84.8761 0.32327C84.9164 0.347719 84.954 0.372167 84.9942 0.399333C85.0157 0.415632 85.0399 0.434649 85.0614 0.450948C85.0963 0.478113 85.1311 0.505278 85.1634 0.535161C85.1875 0.554177 85.209 0.575909 85.2305 0.597641C85.2627 0.627523 85.2922 0.657405 85.3217 0.690004C85.3352 0.703587 85.3486 0.714452 85.3593 0.728036L102.132 19.7412C102.14 19.752 102.148 19.7629 102.158 19.7738C102.18 19.7982 102.199 19.8254 102.22 19.8498C102.242 19.877 102.26 19.9069 102.282 19.9341C102.301 19.9612 102.32 19.9884 102.338 20.0183C102.357 20.0481 102.373 20.0726 102.389 20.1025C102.405 20.1324 102.424 20.165 102.44 20.1976C102.454 20.2247 102.467 20.2519 102.481 20.2818C102.497 20.3144 102.51 20.3497 102.524 20.385C102.534 20.4122 102.545 20.442 102.556 20.4692C102.566 20.5045 102.58 20.5426 102.591 20.5779C102.599 20.6078 102.607 20.6404 102.615 20.6702C102.623 20.7056 102.631 20.7409 102.639 20.7762C102.644 20.8115 102.65 20.8522 102.655 20.8903C102.66 20.9202 102.666 20.95 102.668 20.9799C102.674 21.0506 102.679 21.1212 102.679 21.1891V38.3903C103.256 38.4637 103.804 38.6402 104.319 38.9146C104.838 39.189 105.288 39.5476 105.678 39.9876L119.256 55.2845C119.47 55.5263 119.658 55.7871 119.822 56.0669C119.986 56.344 120.12 56.6374 120.227 56.9443C120.332 57.2486 120.407 57.5637 120.453 57.8843C120.498 58.2048 120.512 58.5281 120.493 58.8514C120.477 59.1746 120.426 59.4925 120.348 59.8076C120.268 60.12 120.158 60.4242 120.018 60.7149C119.878 61.0083 119.712 61.2827 119.521 61.5435C119.328 61.8015 119.111 62.0406 118.872 62.2552L117.06 63.8851C116.614 64.2872 116.112 64.5969 115.551 64.8142C114.993 65.0288 114.413 65.1375 113.814 65.1348C113.173 65.132 112.555 65.0098 111.959 64.7653L110.829 65.784L113.744 69.8914C113.951 69.8724 114.158 69.8643 114.365 69.8697C114.571 69.8751 114.778 69.8942 114.982 69.9268C115.189 69.9593 115.39 70.0055 115.589 70.0626C115.787 70.1223 115.983 70.193 116.171 70.2772C116.362 70.3587 116.547 70.4538 116.724 70.5624C116.901 70.6684 117.073 70.7852 117.237 70.9156C117.401 71.0433 117.554 71.1818 117.699 71.3312C117.846 71.4806 117.98 71.6382 118.107 71.8039C118.233 71.9696 118.348 72.1435 118.453 72.3255C118.555 72.5075 118.649 72.6922 118.729 72.8851C118.81 73.0779 118.877 73.2763 118.933 73.4773C118.987 73.6783 119.03 73.8821 119.06 74.0912C119.092 74.2977 119.108 74.5069 119.111 74.716C119.116 74.9252 119.105 75.1317 119.084 75.3408C119.06 75.55 119.025 75.7538 118.976 75.9575C118.928 76.1612 118.866 76.3595 118.794 76.5551L135.797 93.6422C137.746 95.5982 138.447 98.092 137.719 100.483ZM102.456 42.8943C102.352 42.7748 102.22 42.7123 102.062 42.7042C101.906 42.6933 101.767 42.7422 101.648 42.8454L99.8364 44.4754C99.721 44.5813 99.6593 44.7144 99.6512 44.872C99.6485 44.9263 99.6539 44.9779 99.6646 45.0323C99.8928 45.2279 100.07 45.4669 100.196 45.7413L113.374 60.5845C113.479 60.7013 113.61 60.7638 113.769 60.7747C113.924 60.7828 114.064 60.7367 114.182 60.6334L115.999 59.0008C116.115 58.8975 116.177 58.7672 116.182 58.6096C116.193 58.452 116.147 58.3135 116.042 58.1967L102.456 42.8943ZM106.314 63.9992C106.421 63.877 106.542 63.7683 106.674 63.6705C106.682 63.6651 106.69 63.6597 106.701 63.6542L108.703 61.8586L97.9976 49.7998L86.7042 59.919L97.4151 71.9805L106.314 63.9992ZM95.7561 76.767C95.6836 76.7045 95.6138 76.6366 95.5494 76.566C95.4044 76.4003 95.2863 76.2128 95.1951 76.0118L82.0333 61.1876C81.9286 61.0708 81.7944 61.0083 81.6387 61.0002C81.628 61.0002 81.6172 61.0002 81.6038 61.0002C81.4642 60.9974 81.3381 61.0463 81.2334 61.1414L79.4187 62.7795L79.416 62.7822C79.3006 62.8854 79.2388 63.0131 79.2308 63.1707C79.2227 63.3255 79.2684 63.4614 79.3731 63.5782L92.9562 78.8887C93.0636 79.0027 93.1952 79.0652 93.3509 79.0734C93.5065 79.0842 93.6461 79.0381 93.7643 78.9348L95.5789 77.2995C95.6944 77.1935 95.7561 77.0604 95.7642 76.9029C95.7668 76.8567 95.7642 76.8132 95.7561 76.767ZM85.907 19.0104H95.7051L85.907 7.90245V19.0104ZM43.9064 110.49L41.6247 105.973C41.4636 105.658 41.3858 105.323 41.3858 104.968C41.3885 104.614 41.469 104.28 41.6327 103.965C42.073 103.115 42.4381 102.232 42.7253 101.316C42.83 100.982 43.0072 100.689 43.2514 100.439C43.4957 100.192 43.7856 100.013 44.1158 99.9039L48.8968 98.3337V93.9329L44.1158 92.3628C43.7856 92.2541 43.4957 92.0748 43.2514 91.8249C43.0072 91.5777 42.83 91.2843 42.7253 90.9501C42.4381 90.0347 42.073 89.1518 41.6327 88.2988C41.469 87.9864 41.3885 87.6522 41.3858 87.2964C41.3858 86.9432 41.4636 86.6091 41.6247 86.294L43.9064 81.7736L40.8194 78.6577L36.3444 80.9614C36.033 81.1244 35.7002 81.2032 35.3512 81.2004C34.9995 81.2004 34.6693 81.1162 34.3579 80.9532C33.515 80.5077 32.6399 80.141 31.7326 79.8476C31.4024 79.7416 31.1125 79.5651 30.8682 79.3179C30.6212 79.0707 30.4441 78.78 30.3367 78.4459L28.7824 73.6158H24.4229L22.8686 78.4459C22.7612 78.78 22.5841 79.0707 22.3371 79.3179C22.0901 79.5651 21.8002 79.7416 21.47 79.8476C20.5627 80.1383 19.6876 80.5077 18.8447 80.9532C18.5333 81.1162 18.2031 81.2004 17.8514 81.2004C17.5024 81.2032 17.1696 81.1244 16.8582 80.9614L12.3859 78.6577L9.30153 81.7736L11.5833 86.2967C11.7417 86.6118 11.8195 86.9432 11.8168 87.2937C11.8168 87.6441 11.7363 87.9755 11.5779 88.2879C11.1377 89.1382 10.778 90.0211 10.4907 90.9366C10.386 91.2734 10.2115 91.5695 9.96458 91.8194C9.71762 92.0721 9.4277 92.2514 9.09483 92.3628L4.31655 93.9302V98.3364L9.09483 99.9039C9.4277 100.013 9.71762 100.195 9.96458 100.444C10.2115 100.697 10.386 100.993 10.4907 101.33C10.7753 102.246 11.1377 103.128 11.5779 103.979C11.7363 104.291 11.8168 104.623 11.8168 104.973C11.8195 105.323 11.7417 105.655 11.5833 105.967L9.30153 110.493L12.3832 113.606L16.8636 111.303C17.1723 111.142 17.5024 111.063 17.8487 111.063C18.195 111.066 18.5252 111.145 18.8339 111.308C19.6822 111.748 20.56 112.117 21.47 112.408C21.8002 112.517 22.0901 112.693 22.3371 112.941C22.5841 113.188 22.7612 113.481 22.8686 113.815L24.4202 118.64H28.7824L30.3367 113.815C30.4441 113.481 30.6212 113.188 30.8682 112.941C31.1152 112.693 31.4024 112.517 31.7353 112.408C32.6453 112.117 33.5231 111.748 34.3714 111.308C34.6801 111.145 35.0076 111.066 35.3566 111.063C35.7028 111.063 36.0303 111.142 36.3417 111.303L40.822 113.606L43.9064 110.49ZM67.0999 100.208C62.2357 100.208 58.0963 103.264 57.801 106.975H115.962C115.664 103.264 111.522 100.208 106.655 100.208H67.0999ZM104.403 93.8731H69.3494V95.8481H104.403V93.8731ZM98.36 89.5131V80.6354L96.6473 82.1838C96.4084 82.3984 96.1507 82.5886 95.8742 82.7543C95.5977 82.9173 95.3078 83.0558 95.0045 83.1618C94.7011 83.2677 94.3924 83.3438 94.073 83.39C93.7562 83.4362 93.4368 83.4497 93.1173 83.4334C92.7952 83.4144 92.4811 83.3655 92.1697 83.284C91.8583 83.2052 91.5577 83.0939 91.2704 82.9526C90.9805 82.8141 90.7067 82.6456 90.449 82.4528C90.194 82.2572 89.9577 82.0398 89.743 81.7981L76.1598 66.4876C75.945 66.2485 75.7571 65.9878 75.5934 65.7079C75.4296 65.4309 75.2954 65.1375 75.188 64.8332C75.0833 64.5262 75.0082 64.2138 74.9625 63.8933C74.9169 63.5727 74.9035 63.2522 74.9223 62.9289C74.9384 62.6056 74.9867 62.2878 75.0672 61.9727C75.1478 61.6603 75.2578 61.356 75.3947 61.0654C75.5343 60.7747 75.7008 60.4976 75.894 60.2395C76.0873 59.9815 76.3021 59.7424 76.541 59.5278L78.353 57.8924C78.8335 57.4551 79.3811 57.1264 79.9905 56.9117C80.6025 56.6944 81.2334 56.6075 81.8803 56.6482C82.4226 56.6781 82.946 56.7977 83.4507 57.0068L95.5064 46.2058C95.3856 45.7657 95.3266 45.3148 95.332 44.8557C95.3373 44.3993 95.4018 43.9484 95.5306 43.511C95.6568 43.0709 95.842 42.6553 96.0836 42.2695C96.3252 41.8811 96.6151 41.5334 96.9533 41.2264L96.9587 41.2209L98.36 39.9632V23.3705H83.7487C83.4614 23.3705 83.1876 23.3162 82.9219 23.2048C82.6588 23.0934 82.4253 22.9358 82.2212 22.7321C82.0199 22.5284 81.8642 22.292 81.7541 22.0258C81.6441 21.7596 81.5904 21.4798 81.5904 21.1918V4.36006H24.6323V69.2585H30.3501C30.5783 69.2585 30.8011 69.2938 31.0158 69.3644C31.2333 69.4351 31.4346 69.5383 31.6171 69.6741C31.8024 69.8099 31.9608 69.9702 32.095 70.1549C32.2292 70.3424 32.3312 70.5434 32.401 70.7634L34.111 76.0716C34.5271 76.2291 34.9351 76.403 35.3378 76.585L40.261 74.0532C40.4623 73.95 40.6771 73.8793 40.9026 73.844C41.1254 73.8087 41.3509 73.8087 41.5764 73.844C41.8019 73.882 42.0139 73.9527 42.2179 74.0559C42.422 74.1591 42.6018 74.295 42.7629 74.4552L48.0646 79.8123C48.2257 79.9726 48.3599 80.1573 48.4619 80.361C48.5666 80.5675 48.6364 80.7821 48.6713 81.0103C48.7062 81.2385 48.7062 81.4639 48.6713 81.6921C48.6364 81.9176 48.5666 82.1349 48.4646 82.3387L45.9573 87.31C46.1399 87.7147 46.309 88.1276 46.4674 88.5487L51.7235 90.2764C51.9409 90.3471 52.1396 90.4503 52.3248 90.5861C52.51 90.7192 52.6684 90.8822 52.8026 91.067C52.9342 91.2544 53.0389 91.4554 53.1087 91.6755C53.1784 91.8928 53.2133 92.1183 53.2133 92.3492V99.9175C53.2133 100.148 53.1784 100.371 53.1087 100.591C53.0389 100.808 52.9368 101.012 52.8026 101.197C52.6684 101.384 52.51 101.545 52.3248 101.681C52.1396 101.816 51.9409 101.92 51.7235 101.99L49.6592 102.669H54.6656C56.5313 99.1623 60.4022 96.5788 65.0329 95.9785V91.6918C65.0329 91.4038 65.0892 91.1267 65.1966 90.8578C65.3067 90.5916 65.4624 90.3552 65.6664 90.1515C65.8677 89.9477 66.1013 89.7902 66.367 89.6788C66.6301 89.5674 66.9066 89.5131 67.1911 89.5131H98.36ZM107.315 74.4091L109.949 72.0266L107.581 68.6934L104.282 71.6518L107.315 74.4091ZM114.603 75.2458C114.722 75.1371 114.783 75.0013 114.791 74.841C114.799 74.678 114.751 74.5367 114.646 74.4172C114.539 74.2977 114.407 74.2352 114.246 74.227C114.088 74.2162 113.948 74.2651 113.83 74.3683L109.194 78.5627C109.103 78.6414 109.044 78.7365 109.012 78.8533C108.982 78.9674 108.985 79.0815 109.025 79.1956C109.063 79.307 109.13 79.3994 109.227 79.47C109.321 79.5406 109.428 79.5787 109.546 79.5841C109.704 79.5922 109.844 79.5461 109.962 79.4374L114.603 75.2458ZM132.753 96.7364L115.964 79.8666L114.362 81.3145L129.094 100.037C129.773 100.898 130.57 101.249 131.462 101.077C131.956 100.98 132.393 100.762 132.774 100.428C133.155 100.094 133.427 99.6866 133.593 99.203C133.845 98.3772 133.561 97.5459 132.753 96.7337V96.7364Z" fill="black"/>
</svg>
