<svg width="52" height="52" viewBox="0 0 52 52" fill="none" xmlns="http://www.w3.org/2000/svg">
<mask id="mask0_161_737" style="mask-type:luminance" maskUnits="userSpaceOnUse" x="0" y="0" width="52" height="52">
<path d="M0 0H52V52H0V0Z" fill="white"/>
</mask>
<g mask="url(#mask0_161_737)">
<path d="M38.3674 19.7064L42.7936 15.2803C43.0114 15.0625 43.0928 14.7443 43.0057 14.4489C42.9186 14.1553 42.678 13.9318 42.3769 13.8655L39.8617 13.3239L40.1117 13.0739C40.4394 12.7462 40.4394 12.2159 40.1117 11.8883C39.786 11.5606 39.2538 11.5606 38.9261 11.8883L38.6761 12.1383L38.1345 9.62311C38.0701 9.32197 37.8447 9.08144 37.5511 8.99432C37.2557 8.90909 36.9375 8.98864 36.7216 9.20644L32.3049 13.6231C30.358 12.6269 28.1875 12.1023 25.9848 12.1023C18.3295 12.1023 12.1004 18.3295 12.1004 25.9867C12.1004 33.642 18.3295 39.8693 25.9848 39.8693C33.6402 39.8693 39.8693 33.642 39.8693 25.9867C39.8693 23.7992 39.3504 21.642 38.3674 19.7064ZM40.5189 15.1818L36.7443 18.9583L34.6742 18.5114L38.4508 14.7367L40.5189 15.1818ZM36.8182 11.4811L37.2652 13.5492L33.4886 17.3258L33.0436 15.2576L36.8182 11.4811ZM28.8674 25.9848C28.8674 27.5739 27.5739 28.8674 25.9848 28.8674C24.3958 28.8674 23.1023 27.5739 23.1023 25.9848C23.1023 24.3958 24.3958 23.1042 25.9848 23.1042C26.483 23.1042 26.9508 23.2311 27.3598 23.4545L25.4072 25.4072C25.0795 25.7348 25.0795 26.267 25.4072 26.5947C25.5701 26.7576 25.786 26.839 26 26.839C26.214 26.839 26.4299 26.7576 26.5928 26.5947L28.5379 24.6496C28.7462 25.0492 28.8674 25.5038 28.8674 25.9848ZM28.5758 22.2386C27.8409 21.7273 26.947 21.4261 25.9848 21.4261C23.4716 21.4261 21.4261 23.4716 21.4261 25.9848C21.4261 28.5 23.4716 30.5455 25.9848 30.5455C28.4981 30.5455 30.5436 28.5 30.5436 25.9848C30.5436 25.0398 30.2538 24.1591 29.7576 23.428L31.8883 21.2973C32.9148 22.5871 33.5284 24.2159 33.5284 25.9867C33.5284 30.1458 30.1439 33.5303 25.9848 33.5303C21.8258 33.5303 18.4413 30.1458 18.4413 25.9867C18.4413 21.8258 21.8258 18.4413 25.9848 18.4413C27.7708 18.4413 29.4129 19.0663 30.7064 20.108L28.5758 22.2386ZM25.9848 38.1913C19.2538 38.1913 13.7784 32.7159 13.7784 25.9848C13.7784 19.2557 19.2538 13.7803 25.9848 13.7803C27.8277 13.7803 29.6439 14.197 31.2898 14.9905C31.2898 15.0473 31.2936 15.1061 31.3068 15.1629L32.0777 18.7367L31.8977 18.9167C30.2955 17.5739 28.233 16.7652 25.9848 16.7652C20.8996 16.7652 16.7633 20.9015 16.7633 25.9848C16.7633 31.0701 20.8996 35.2064 25.9848 35.2064C31.0701 35.2064 35.2064 31.0701 35.2064 25.9848C35.2064 23.7519 34.4072 21.7027 33.0814 20.1042L33.2633 19.9223L36.8371 20.6932C36.8883 20.7045 36.9413 20.7102 36.9943 20.7121C37.7784 22.3485 38.1913 24.1553 38.1913 25.9848C38.1913 32.7159 32.7159 38.1913 25.9848 38.1913ZM52 26C52 20.642 50.3939 15.5284 47.3504 11.161C48.017 10.3598 48.4167 9.32955 48.4167 8.20833C48.4167 5.65909 46.3428 3.58333 43.7917 3.58333C42.6705 3.58333 41.6402 3.98485 40.839 4.64962C36.4735 1.60606 31.358 0 26 0C20.642 0 15.5265 1.60606 11.1591 4.64962C10.358 3.98485 9.32955 3.58333 8.20833 3.58333C5.6572 3.58333 3.58144 5.65909 3.58144 8.20833C3.58144 9.32955 3.98295 10.3598 4.64962 11.161C1.60606 15.5284 0 20.642 0 26C0 31.358 1.60606 36.4735 4.64962 40.8409C3.98295 41.642 3.58144 42.6705 3.58144 43.7917C3.58144 46.3428 5.6572 48.4186 8.20833 48.4186C9.32955 48.4186 10.358 48.017 11.1591 47.3504C15.5265 50.3939 20.642 52 26 52C31.358 52 36.4735 50.3939 40.839 47.3504C41.642 48.017 42.6705 48.4186 43.7917 48.4186C46.3428 48.4186 48.4167 46.3428 48.4167 43.7917C48.4167 42.6705 48.017 41.642 47.3504 40.8409C50.3939 36.4735 52 31.358 52 26ZM43.7917 5.25947C45.4167 5.25947 46.7405 6.58333 46.7405 8.20833C46.7405 9.83523 45.4167 11.1572 43.7917 11.1572C42.1648 11.1572 40.8428 9.83523 40.8428 8.20833C40.8428 6.58333 42.1648 5.25947 43.7917 5.25947ZM8.20833 5.25947C9.83333 5.25947 11.1572 6.58333 11.1572 8.20833C11.1572 9.83523 9.83333 11.1572 8.20833 11.1572C6.58144 11.1572 5.25947 9.83523 5.25947 8.20833C5.25947 6.58333 6.58144 5.25947 8.20833 5.25947ZM8.20833 46.7405C6.58144 46.7405 5.25947 45.4186 5.25947 43.7917C5.25947 42.1667 6.58144 40.8447 8.20833 40.8447C9.83333 40.8447 11.1572 42.1667 11.1572 43.7917C11.1572 45.4186 9.83333 46.7405 8.20833 46.7405ZM12.2386 46.0587C12.6174 45.3883 12.8333 44.6155 12.8333 43.7917C12.8333 41.2424 10.7595 39.1667 8.20833 39.1667C7.38447 39.1667 6.61174 39.3826 5.94318 39.7614C3.14962 35.7045 1.67803 30.964 1.67803 26C1.67803 21.0379 3.14962 16.2973 5.94318 12.2405C6.61174 12.6174 7.38447 12.8352 8.20833 12.8352C10.7595 12.8352 12.8333 10.7595 12.8333 8.20833C12.8333 7.38636 12.6174 6.61364 12.2386 5.94318C16.2973 3.15152 21.036 1.67803 26 1.67803C30.9621 1.67803 35.7027 3.15152 39.7614 5.94318C39.3826 6.61364 39.1648 7.38636 39.1648 8.20833C39.1648 10.7595 41.2405 12.8352 43.7917 12.8352C44.6136 12.8352 45.3864 12.6174 46.0568 12.2405C48.8504 16.2973 50.322 21.0379 50.322 26C50.322 30.964 48.8504 35.7045 46.0568 39.7614C45.3864 39.3826 44.6136 39.1667 43.7917 39.1667C41.2405 39.1667 39.1648 41.2424 39.1648 43.7917C39.1648 44.6155 39.3826 45.3883 39.7614 46.0587C35.7027 48.8504 30.9621 50.3239 26 50.3239C21.036 50.3239 16.2973 48.8504 12.2386 46.0587ZM43.7917 46.7405C42.1648 46.7405 40.8428 45.4186 40.8428 43.7917C40.8428 42.1667 42.1648 40.8447 43.7917 40.8447C45.4167 40.8447 46.7405 42.1667 46.7405 43.7917C46.7405 45.4186 45.4167 46.7405 43.7917 46.7405Z" fill="black"/>
</g>
</svg>
