<svg width="127" height="126" viewBox="0 0 127 126" fill="none" xmlns="http://www.w3.org/2000/svg">
<path fill-rule="evenodd" clip-rule="evenodd" d="M95.6258 71.5748C94.2511 71.5748 93.1951 70.4469 93.1264 69.0722L92.3609 53.3913C92.2391 50.8856 93.3638 48.8298 95.6258 48.8298C97.8878 48.8298 99.0157 50.8856 98.8907 53.3913L98.1253 69.0722C98.0596 70.4469 97.0005 71.5748 95.6258 71.5748ZM95.6258 75.9675C97.2629 75.9675 98.5877 77.2922 98.5877 78.9294C98.5877 80.5665 97.2629 81.8944 95.6258 81.8944C93.9918 81.8944 92.6671 80.5665 92.6671 78.9294C92.6671 77.2922 93.9918 75.9675 95.6258 75.9675ZM99.6937 36.795C98.8313 35.3016 97.3504 34.4455 95.6258 34.4455C93.9043 34.4455 92.4234 35.3016 91.5611 36.795L78.2297 59.9024L64.9014 83.0097C64.0391 84.5031 64.0391 86.2153 64.9014 87.7087C65.7637 89.2021 67.2415 90.0582 68.9661 90.0582H122.289C124.01 90.0582 125.491 89.2021 126.353 87.7087C127.216 86.2153 127.216 84.5031 126.353 83.0097L113.022 59.9024L99.6937 36.795Z" fill="black"/>
<path fill-rule="evenodd" clip-rule="evenodd" d="M19.9268 104.046C19.3051 103.424 19.3051 102.421 19.9268 101.799C20.5454 101.181 21.5483 101.181 22.1701 101.799L23.3511 102.983L24.5321 101.799C25.1507 101.181 26.1567 101.181 26.7753 101.799C27.3939 102.421 27.3939 103.424 26.7753 104.046L25.5943 105.227L26.7753 106.411C27.3939 107.029 27.3939 108.035 26.7753 108.654C26.1567 109.276 25.1507 109.276 24.5321 108.654L23.3511 107.473L22.1701 108.654C21.5483 109.276 20.5454 109.276 19.9268 108.654C19.3051 108.035 19.3051 107.029 19.9268 106.411L21.1078 105.227L19.9268 104.046ZM19.3332 84.1532C18.7021 83.5471 18.6834 82.5442 19.2895 81.9131C19.8956 81.282 20.8954 81.2632 21.5265 81.8693L22.6887 82.991L25.0507 80.1385C25.6099 79.4636 26.6097 79.3699 27.2815 79.9292C27.9563 80.4853 28.05 81.4851 27.4939 82.1599L24.0415 86.3246H24.0384C24.0134 86.3527 23.9884 86.384 23.9603 86.4121C23.3542 87.0432 22.3513 87.0619 21.7233 86.4558L19.3332 84.1532ZM62.2143 17.4867V12.7847C62.2143 11.5412 61.7238 10.4102 60.9271 9.57913L60.8521 9.51039C60.0117 8.66995 58.8526 8.14507 57.581 8.14507H52.4665C51.5886 8.14507 50.8793 7.43585 50.8793 6.55792C50.8793 4.7427 50.1483 3.10244 48.9641 1.92145L48.9579 1.9152C47.7769 0.731088 46.1398 0 44.3245 0C42.5156 0 40.8784 0.734213 39.6912 1.92145L39.6881 1.91832L39.685 1.92145C38.504 3.10244 37.7729 4.7427 37.7729 6.55792C37.7729 7.43585 37.0605 8.14507 36.1857 8.14507H31.0712C29.7934 8.14507 28.6343 8.66683 27.797 9.50414L27.7907 9.51039C26.9565 10.3477 26.4348 11.5068 26.4348 12.7847V20.8048H62.2143V17.4867ZM23.2605 19.0739H6.2986C6.2205 19.0739 6.15176 19.1051 6.09865 19.1551C6.04866 19.2082 6.01742 19.277 6.01742 19.3551V118.861C6.01742 118.936 6.04866 119.008 6.09865 119.058C6.15176 119.111 6.2205 119.142 6.2986 119.142H82.3536C82.4286 119.142 82.5005 119.111 82.5505 119.058C82.6004 119.008 82.6348 118.936 82.6348 118.861V93.2168H68.9441C66.0854 93.2168 63.5578 91.7547 62.13 89.2771C60.7022 86.8026 60.7022 83.8814 62.13 81.4038L82.6348 45.8617V19.3551C82.6348 19.277 82.6004 19.2082 82.5505 19.1551C82.5005 19.1051 82.4286 19.0739 82.3536 19.0739H65.3886V22.3919C65.3886 23.2698 64.6794 23.9791 63.8015 23.9791H24.8476C23.9728 23.9791 23.2605 23.2698 23.2605 22.3919V19.0739ZM44.3245 3.69606C45.1087 3.69606 45.8211 4.01786 46.3397 4.53649L46.3428 4.53962L46.346 4.53649C46.8646 5.05513 47.1833 5.77059 47.1833 6.55792C47.1833 7.34837 46.8646 8.06384 46.346 8.58247C46.3022 8.62309 46.2585 8.6637 46.2148 8.69807C45.7086 9.14797 45.0494 9.41979 44.3245 9.41979C43.5403 9.41979 42.828 9.09798 42.3094 8.58247L42.3062 8.57935L42.3031 8.58247C41.7876 8.06384 41.4658 7.34837 41.4658 6.55792C41.4658 5.76747 41.7876 5.052 42.3031 4.53649C42.3437 4.49588 42.3875 4.45526 42.4343 4.4209C42.9374 3.97099 43.6028 3.69606 44.3245 3.69606ZM85.806 93.2168V118.861C85.806 119.814 85.4186 120.679 84.7937 121.304C84.1688 121.929 83.3065 122.317 82.3536 122.317H6.2986C5.34569 122.317 4.48026 121.929 3.8554 121.304C3.23053 120.679 2.84312 119.814 2.84312 118.861V19.3551C2.84312 18.4022 3.23053 17.5367 3.8554 16.9119C4.48026 16.287 5.34569 15.8965 6.2986 15.8965H23.2605V13.0534H0.281188C0.20308 13.0534 0.134345 13.0846 0.0843563 13.1346C0.0312425 13.1846 0 13.2564 0 13.3314V125.044C0 125.097 0.00624821 125.135 0.0124972 125.157V125.16C0.0187462 125.178 0.0437405 125.207 0.0843563 125.244L0.081232 125.247C0.112475 125.282 0.143718 125.303 0.168713 125.313C0.196831 125.325 0.237447 125.332 0.284312 125.332L88.3742 125.172C88.4491 125.172 88.5179 125.141 88.5679 125.088C88.6179 125.038 88.6491 124.966 88.6491 124.885V93.2168H85.806ZM44.3245 40.1099C49.739 40.1099 54.1286 44.5058 54.1286 49.9233C54.1286 55.344 49.739 59.7368 44.3245 59.7368C38.9101 59.7368 34.5205 55.344 34.5205 49.9233C34.5205 44.5058 38.9101 40.1099 44.3245 40.1099ZM44.3245 69.5127C43.7309 69.5127 43.1404 69.4877 42.5593 69.4346C41.9126 69.3752 41.4033 68.9097 41.2846 68.2692L40.9409 66.4134C40.8378 65.8541 40.4442 65.4324 39.8943 65.2918C38.4696 64.92 37.1199 64.3545 35.8795 63.6234C35.389 63.336 34.8142 63.3578 34.3455 63.6796L33.0021 64.6044C32.4522 64.9825 31.7336 64.9356 31.2368 64.4888C30.562 63.8796 29.9277 63.2235 29.3435 62.5299C28.9217 62.03 28.8873 61.3364 29.2591 60.799L30.1589 59.4868C30.4807 59.0182 30.4995 58.4433 30.2121 57.9528C29.4841 56.7124 28.9186 55.3627 28.5468 53.9349C28.4062 53.385 27.9844 52.9914 27.4252 52.8883L25.9661 52.6165C25.3163 52.4977 24.8476 51.9697 24.8008 51.3105C24.7695 50.8543 24.7508 50.392 24.7508 49.9233C24.7508 49.4578 24.7695 48.9954 24.8008 48.5361C24.8476 47.88 25.3163 47.352 25.9661 47.2302L27.4252 46.9615C27.9844 46.8584 28.4062 46.4647 28.5468 45.9148C28.9186 44.487 29.4841 43.1373 30.2121 41.897C30.4995 41.4064 30.4807 40.8316 30.1589 40.3629L29.256 39.0507C28.8873 38.5133 28.9217 37.8197 29.3435 37.3199C29.9277 36.6231 30.562 35.9701 31.2368 35.3609C31.7336 34.911 32.4522 34.8673 33.0021 35.2453L34.3455 36.1701C34.8142 36.4919 35.389 36.5138 35.8795 36.2263C37.1199 35.4953 38.4696 34.9298 39.8943 34.558C40.4442 34.4174 40.8378 33.9956 40.9409 33.4363L41.2846 31.5774C41.4033 30.9369 41.9126 30.4714 42.5593 30.4151C43.1404 30.362 43.7309 30.3339 44.3245 30.3339C44.9213 30.3339 45.5087 30.362 46.0898 30.4151C46.7365 30.4714 47.2489 30.9369 47.3645 31.5774L47.7113 33.4363C47.8144 33.9956 48.2049 34.4174 48.7548 34.558C50.1826 34.9298 51.5292 35.4953 52.7727 36.2263C53.2601 36.5138 53.8349 36.4919 54.3036 36.1701L55.647 35.2453C56.2 34.8673 56.9155 34.911 57.4123 35.3609C58.0902 35.9701 58.7214 36.6231 59.3087 37.3199C59.7274 37.8197 59.7618 38.5133 59.3931 39.0507L58.4902 40.3629C58.1715 40.8316 58.1496 41.4064 58.437 41.897C59.165 43.1373 59.7305 44.487 60.1023 45.9148C60.246 46.4647 60.6678 46.8584 61.2239 46.9615L62.6861 47.2302C63.3328 47.352 63.8046 47.8769 63.8483 48.5361C63.8827 48.9954 63.8983 49.4578 63.8983 49.9233C63.8983 50.392 63.8827 50.8543 63.8483 51.3105C63.8046 51.9697 63.3328 52.4977 62.6861 52.6165L61.2239 52.8883C60.6678 52.9914 60.246 53.385 60.1023 53.9318C59.7305 55.3596 59.165 56.7124 58.437 57.9528C58.1496 58.4433 58.1715 59.0182 58.4902 59.4868L59.3931 60.799C59.7618 61.3364 59.7274 62.03 59.3087 62.5268C58.7214 63.2235 58.0902 63.8796 57.4123 64.4888C56.9155 64.9356 56.2 64.9825 55.647 64.6044L54.3036 63.6796C53.8381 63.3578 53.2601 63.336 52.7727 63.6234C51.5292 64.3545 50.1826 64.92 48.7548 65.2918C48.2049 65.4324 47.8144 65.8541 47.7113 66.4134L47.3645 68.2724C47.2489 68.9097 46.7365 69.3752 46.0898 69.4346C45.5087 69.4877 44.9213 69.5127 44.3245 69.5127ZM18.5865 98.1157C17.2962 98.1157 16.2464 99.1686 16.2464 100.459V109.994C16.2464 111.285 17.2962 112.338 18.5865 112.338H28.1156C29.4029 112.338 30.4557 111.285 30.4557 109.994V100.459C30.4557 99.1686 29.4029 98.1157 28.1156 98.1157H18.5865ZM18.5865 76.1206C17.2962 76.1206 16.2464 77.1735 16.2464 78.4639V87.9992C16.2464 89.2896 17.2962 90.3425 18.5865 90.3425H28.1156C29.4029 90.3425 30.4557 89.2896 30.4557 87.9992V78.4639C30.4557 77.1735 29.4029 76.1206 28.1156 76.1206H18.5865ZM38.9695 103.183C38.0916 103.183 37.3823 102.474 37.3823 101.596C37.3823 100.718 38.0916 100.009 38.9695 100.009H72.4058C73.2806 100.009 73.993 100.718 73.993 101.596C73.993 102.474 73.2806 103.183 72.4058 103.183H38.9695ZM38.9695 110.447C38.0916 110.447 37.3823 109.735 37.3823 108.86C37.3823 107.982 38.0916 107.27 38.9695 107.27H72.4058C73.2806 107.27 73.993 107.982 73.993 108.86C73.993 109.735 73.2806 110.447 72.4058 110.447H38.9695ZM38.9695 81.1914C38.0916 81.1914 37.3823 80.479 37.3823 79.6042C37.3823 78.7263 38.0916 78.014 38.9695 78.014H56.9249C57.7997 78.014 58.512 78.7263 58.512 79.6042C58.512 80.479 57.7997 81.1914 56.9249 81.1914H38.9695ZM38.9695 88.4523C38.0916 88.4523 37.3823 87.7399 37.3823 86.8651C37.3823 85.9872 38.0916 85.2748 38.9695 85.2748H56.1813C57.0561 85.2748 57.7684 85.9872 57.7684 86.8651C57.7684 87.7399 57.0561 88.4523 56.1813 88.4523H38.9695ZM65.3886 15.8965V13.0534H88.371C88.4491 13.0534 88.521 13.0815 88.571 13.1315C88.621 13.1815 88.6491 13.2533 88.6491 13.3314V35.4328L85.806 40.3598V19.3551C85.806 18.4022 85.4186 17.5367 84.7937 16.9119C84.1688 16.287 83.3065 15.8965 82.3536 15.8965H65.3886Z" fill="black"/>
<path fill-rule="evenodd" clip-rule="evenodd" d="M19.9268 104.046C19.3051 103.424 19.3051 102.421 19.9268 101.799C20.5454 101.181 21.5483 101.181 22.1701 101.799L23.3511 102.983L24.5321 101.799C25.1507 101.181 26.1567 101.181 26.7753 101.799C27.3939 102.421 27.3939 103.424 26.7753 104.046L25.5943 105.227L26.7753 106.411C27.3939 107.029 27.3939 108.035 26.7753 108.654C26.1567 109.276 25.1507 109.276 24.5321 108.654L23.3511 107.473L22.1701 108.654C21.5483 109.276 20.5454 109.276 19.9268 108.654C19.3051 108.035 19.3051 107.029 19.9268 106.411L21.1078 105.227L19.9268 104.046ZM19.3332 84.1532C18.7021 83.5471 18.6834 82.5442 19.2895 81.9131C19.8956 81.282 20.8954 81.2632 21.5265 81.8693L22.6887 82.991L25.0507 80.1385C25.6099 79.4636 26.6097 79.3699 27.2815 79.9292C27.9563 80.4853 28.05 81.4851 27.4939 82.1599L24.0415 86.3246H24.0384C24.0134 86.3527 23.9884 86.384 23.9603 86.4121C23.3542 87.0432 22.3513 87.0619 21.7233 86.4558L19.3332 84.1532ZM62.2143 17.4867V12.7847C62.2143 11.5412 61.7238 10.4102 60.9271 9.57913L60.8521 9.51039C60.0117 8.66995 58.8526 8.14507 57.581 8.14507H52.4665C51.5886 8.14507 50.8793 7.43585 50.8793 6.55792C50.8793 4.7427 50.1483 3.10244 48.9641 1.92145L48.9579 1.9152C47.7769 0.731088 46.1398 0 44.3245 0C42.5156 0 40.8784 0.734213 39.6912 1.92145L39.6881 1.91832L39.685 1.92145C38.504 3.10244 37.7729 4.7427 37.7729 6.55792C37.7729 7.43585 37.0605 8.14507 36.1857 8.14507H31.0712C29.7934 8.14507 28.6343 8.66683 27.797 9.50414L27.7907 9.51039C26.9565 10.3477 26.4348 11.5068 26.4348 12.7847V20.8048H62.2143V17.4867ZM23.2605 19.0739H6.2986C6.2205 19.0739 6.15176 19.1051 6.09865 19.1551C6.04866 19.2082 6.01742 19.277 6.01742 19.3551V118.861C6.01742 118.936 6.04866 119.008 6.09865 119.058C6.15176 119.111 6.2205 119.142 6.2986 119.142H82.3536C82.4286 119.142 82.5005 119.111 82.5505 119.058C82.6004 119.008 82.6348 118.936 82.6348 118.861V93.2168H68.9441C66.0854 93.2168 63.5578 91.7547 62.13 89.2771C60.7022 86.8026 60.7022 83.8814 62.13 81.4038L82.6348 45.8617V19.3551C82.6348 19.277 82.6004 19.2082 82.5505 19.1551C82.5005 19.1051 82.4286 19.0739 82.3536 19.0739H65.3886V22.3919C65.3886 23.2698 64.6794 23.9791 63.8015 23.9791H24.8476C23.9728 23.9791 23.2605 23.2698 23.2605 22.3919V19.0739ZM44.3245 3.69606C45.1087 3.69606 45.8211 4.01786 46.3397 4.53649L46.3428 4.53962L46.346 4.53649C46.8646 5.05513 47.1833 5.77059 47.1833 6.55792C47.1833 7.34837 46.8646 8.06384 46.346 8.58247C46.3022 8.62309 46.2585 8.6637 46.2148 8.69807C45.7086 9.14797 45.0494 9.41979 44.3245 9.41979C43.5403 9.41979 42.828 9.09798 42.3094 8.58247L42.3062 8.57935L42.3031 8.58247C41.7876 8.06384 41.4658 7.34837 41.4658 6.55792C41.4658 5.76747 41.7876 5.052 42.3031 4.53649C42.3437 4.49588 42.3875 4.45526 42.4343 4.4209C42.9374 3.97099 43.6028 3.69606 44.3245 3.69606ZM85.806 93.2168V118.861C85.806 119.814 85.4186 120.679 84.7937 121.304C84.1688 121.929 83.3065 122.317 82.3536 122.317H6.2986C5.34569 122.317 4.48026 121.929 3.8554 121.304C3.23053 120.679 2.84312 119.814 2.84312 118.861V19.3551C2.84312 18.4022 3.23053 17.5367 3.8554 16.9119C4.48026 16.287 5.34569 15.8965 6.2986 15.8965H23.2605V13.0534H0.281188C0.20308 13.0534 0.134345 13.0846 0.0843563 13.1346C0.0312425 13.1846 0 13.2564 0 13.3314V125.044C0 125.097 0.00624821 125.135 0.0124972 125.157V125.16C0.0187462 125.178 0.0437405 125.207 0.0843563 125.244L0.081232 125.247C0.112475 125.282 0.143718 125.303 0.168713 125.313C0.196831 125.325 0.237447 125.332 0.284312 125.332L88.3742 125.172C88.4491 125.172 88.5179 125.141 88.5679 125.088C88.6179 125.038 88.6491 124.966 88.6491 124.885V93.2168H85.806ZM44.3245 40.1099C49.739 40.1099 54.1286 44.5058 54.1286 49.9233C54.1286 55.344 49.739 59.7368 44.3245 59.7368C38.9101 59.7368 34.5205 55.344 34.5205 49.9233C34.5205 44.5058 38.9101 40.1099 44.3245 40.1099ZM44.3245 69.5127C43.7309 69.5127 43.1404 69.4877 42.5593 69.4346C41.9126 69.3752 41.4033 68.9097 41.2846 68.2692L40.9409 66.4134C40.8378 65.8541 40.4442 65.4324 39.8943 65.2918C38.4696 64.92 37.1199 64.3545 35.8795 63.6234C35.389 63.336 34.8142 63.3578 34.3455 63.6796L33.0021 64.6044C32.4522 64.9825 31.7336 64.9356 31.2368 64.4888C30.562 63.8796 29.9277 63.2235 29.3435 62.5299C28.9217 62.03 28.8873 61.3364 29.2591 60.799L30.1589 59.4868C30.4807 59.0182 30.4995 58.4433 30.2121 57.9528C29.4841 56.7124 28.9186 55.3627 28.5468 53.9349C28.4062 53.385 27.9844 52.9914 27.4252 52.8883L25.9661 52.6165C25.3163 52.4977 24.8476 51.9697 24.8008 51.3105C24.7695 50.8543 24.7508 50.392 24.7508 49.9233C24.7508 49.4578 24.7695 48.9954 24.8008 48.5361C24.8476 47.88 25.3163 47.352 25.9661 47.2302L27.4252 46.9615C27.9844 46.8584 28.4062 46.4647 28.5468 45.9148C28.9186 44.487 29.4841 43.1373 30.2121 41.897C30.4995 41.4064 30.4807 40.8316 30.1589 40.3629L29.256 39.0507C28.8873 38.5133 28.9217 37.8197 29.3435 37.3199C29.9277 36.6231 30.562 35.9701 31.2368 35.3609C31.7336 34.911 32.4522 34.8673 33.0021 35.2453L34.3455 36.1701C34.8142 36.4919 35.389 36.5138 35.8795 36.2263C37.1199 35.4953 38.4696 34.9298 39.8943 34.558C40.4442 34.4174 40.8378 33.9956 40.9409 33.4363L41.2846 31.5774C41.4033 30.9369 41.9126 30.4714 42.5593 30.4151C43.1404 30.362 43.7309 30.3339 44.3245 30.3339C44.9213 30.3339 45.5087 30.362 46.0898 30.4151C46.7365 30.4714 47.2489 30.9369 47.3645 31.5774L47.7113 33.4363C47.8144 33.9956 48.2049 34.4174 48.7548 34.558C50.1826 34.9298 51.5292 35.4953 52.7727 36.2263C53.2601 36.5138 53.8349 36.4919 54.3036 36.1701L55.647 35.2453C56.2 34.8673 56.9155 34.911 57.4123 35.3609C58.0902 35.9701 58.7214 36.6231 59.3087 37.3199C59.7274 37.8197 59.7618 38.5133 59.3931 39.0507L58.4902 40.3629C58.1715 40.8316 58.1496 41.4064 58.437 41.897C59.165 43.1373 59.7305 44.487 60.1023 45.9148C60.246 46.4647 60.6678 46.8584 61.2239 46.9615L62.6861 47.2302C63.3328 47.352 63.8046 47.8769 63.8483 48.5361C63.8827 48.9954 63.8983 49.4578 63.8983 49.9233C63.8983 50.392 63.8827 50.8543 63.8483 51.3105C63.8046 51.9697 63.3328 52.4977 62.6861 52.6165L61.2239 52.8883C60.6678 52.9914 60.246 53.385 60.1023 53.9318C59.7305 55.3596 59.165 56.7124 58.437 57.9528C58.1496 58.4433 58.1715 59.0182 58.4902 59.4868L59.3931 60.799C59.7618 61.3364 59.7274 62.03 59.3087 62.5268C58.7214 63.2235 58.0902 63.8796 57.4123 64.4888C56.9155 64.9356 56.2 64.9825 55.647 64.6044L54.3036 63.6796C53.8381 63.3578 53.2601 63.336 52.7727 63.6234C51.5292 64.3545 50.1826 64.92 48.7548 65.2918C48.2049 65.4324 47.8144 65.8541 47.7113 66.4134L47.3645 68.2724C47.2489 68.9097 46.7365 69.3752 46.0898 69.4346C45.5087 69.4877 44.9213 69.5127 44.3245 69.5127ZM18.5865 98.1157C17.2962 98.1157 16.2464 99.1686 16.2464 100.459V109.994C16.2464 111.285 17.2962 112.338 18.5865 112.338H28.1156C29.4029 112.338 30.4557 111.285 30.4557 109.994V100.459C30.4557 99.1686 29.4029 98.1157 28.1156 98.1157H18.5865ZM18.5865 76.1206C17.2962 76.1206 16.2464 77.1735 16.2464 78.4639V87.9992C16.2464 89.2896 17.2962 90.3425 18.5865 90.3425H28.1156C29.4029 90.3425 30.4557 89.2896 30.4557 87.9992V78.4639C30.4557 77.1735 29.4029 76.1206 28.1156 76.1206H18.5865ZM38.9695 103.183C38.0916 103.183 37.3823 102.474 37.3823 101.596C37.3823 100.718 38.0916 100.009 38.9695 100.009H72.4058C73.2806 100.009 73.993 100.718 73.993 101.596C73.993 102.474 73.2806 103.183 72.4058 103.183H38.9695ZM38.9695 110.447C38.0916 110.447 37.3823 109.735 37.3823 108.86C37.3823 107.982 38.0916 107.27 38.9695 107.27H72.4058C73.2806 107.27 73.993 107.982 73.993 108.86C73.993 109.735 73.2806 110.447 72.4058 110.447H38.9695ZM38.9695 81.1914C38.0916 81.1914 37.3823 80.479 37.3823 79.6042C37.3823 78.7263 38.0916 78.014 38.9695 78.014H56.9249C57.7997 78.014 58.512 78.7263 58.512 79.6042C58.512 80.479 57.7997 81.1914 56.9249 81.1914H38.9695ZM38.9695 88.4523C38.0916 88.4523 37.3823 87.7399 37.3823 86.8651C37.3823 85.9872 38.0916 85.2748 38.9695 85.2748H56.1813C57.0561 85.2748 57.7684 85.9872 57.7684 86.8651C57.7684 87.7399 57.0561 88.4523 56.1813 88.4523H38.9695ZM65.3886 15.8965V13.0534H88.371C88.4491 13.0534 88.521 13.0815 88.571 13.1315C88.621 13.1815 88.6491 13.2533 88.6491 13.3314V35.4328L85.806 40.3598V19.3551C85.806 18.4022 85.4186 17.5367 84.7937 16.9119C84.1688 16.287 83.3065 15.8965 82.3536 15.8965H65.3886Z" fill="black"/>
</svg>
