<svg width="18" height="18" viewBox="0 0 18 18" fill="none" xmlns="http://www.w3.org/2000/svg">
<path d="M9.68024 11.3447V11.3363C9.88539 11.2659 10.0461 11.0933 10.0461 10.8328C10.0461 10.6812 9.99167 10.5463 9.89363 10.4583C9.77251 10.3478 9.59949 10.2975 9.33172 10.2975C9.1587 10.2975 8.97662 10.3126 8.84974 10.3385V12.2838H9.10103V11.4301H9.33749C9.56489 11.4385 9.6687 11.5407 9.72638 11.813C9.78158 12.0584 9.82442 12.2285 9.85655 12.2838H10.1161C10.0757 12.2075 10.0296 12.0182 9.96531 11.7426C9.91999 11.5382 9.83019 11.3974 9.68024 11.3447ZM9.35726 11.2366H9.10103V10.517C9.1414 10.5053 9.22791 10.4935 9.34903 10.4935C9.61432 10.4969 9.79558 10.6075 9.79558 10.8621C9.79558 11.0875 9.62586 11.2366 9.35726 11.2366ZM10.402 12.2838H10.6524V10.3126H10.402V12.2838ZM11.6741 11.1662C11.4055 11.0615 11.2877 10.9702 11.2877 10.7859C11.2877 10.6519 11.3882 10.491 11.6535 10.491C11.8298 10.491 11.9592 10.5488 12.0226 10.584L12.0918 10.3762C12.0053 10.3268 11.8611 10.2799 11.6626 10.2799C11.2844 10.2799 11.0339 10.5086 11.0339 10.8152C11.0339 11.0933 11.23 11.2601 11.5472 11.374C11.8092 11.4762 11.913 11.5818 11.913 11.7661C11.913 11.9654 11.7631 12.1028 11.5068 12.1028C11.3338 12.1028 11.169 12.0442 11.057 11.9738L10.9935 12.1874C11.0974 12.2578 11.3017 12.3131 11.4895 12.3131C11.9476 12.3131 12.1701 12.05 12.1701 11.7459C12.1701 11.4561 12.0028 11.2952 11.6741 11.1662ZM13.8311 10.3126H13.5196L12.9256 11.0523C12.877 11.1168 12.8251 11.1872 12.7732 11.2634H12.7649V10.3126H12.5137V12.2838H12.7649V11.5323L12.9487 11.3154L13.5889 12.2838H13.8863L13.1275 11.1486L13.8311 10.3126ZM15.0735 11.0489C15.0035 10.0009 14.5355 9.0434 13.7561 8.3531C13.3952 8.03309 12.9866 7.78679 12.5417 7.62176C11.0463 7.0655 9.33667 7.51117 8.28948 8.72841C7.60893 9.52007 7.27196 10.5321 7.34199 11.5801C7.41202 12.6273 7.88 13.5848 8.65942 14.2751C9.02029 14.5951 9.42894 14.8414 9.87385 15.0064C10.3031 15.1664 10.7505 15.2435 11.1946 15.2435C12.2961 15.2435 13.3788 14.7677 14.126 13.8998C14.8066 13.109 15.1436 12.0961 15.0735 11.0489ZM13.7627 13.5781C12.8457 14.6445 11.3495 15.0332 10.0395 14.5474C9.65058 14.4024 9.293 14.1871 8.97662 13.9065C8.2936 13.3025 7.88412 12.4639 7.82315 11.5466C7.76218 10.6292 8.05631 9.74291 8.65282 9.0501C9.56983 7.98366 11.0652 7.59411 12.3761 8.08084C12.7649 8.22577 13.1225 8.44107 13.4389 8.72171C14.1219 9.32572 14.5314 10.1643 14.5924 11.0816C14.6533 11.9989 14.3592 12.8853 13.7627 13.5781ZM15.3479 4.57155H7.60976C7.52077 4.57155 7.44909 4.64443 7.44909 4.7349C7.44909 4.82454 7.52077 4.89743 7.60976 4.89743H15.3479C15.4369 4.89743 15.5086 4.82454 15.5086 4.7349C15.5086 4.64443 15.4369 4.57155 15.3479 4.57155ZM17.5098 3.81255C17.5181 3.73883 17.4942 3.66511 17.4414 3.61066L13.9819 0.100529C13.9489 0.0561284 13.9036 0.0259701 13.8492 0.0117284C13.8368 0.0083774 13.8237 0.00586429 13.8113 0.0041887C13.8047 0.00335101 13.7989 0 13.7924 0H6.30881C6.17616 0 6.06823 0.109744 6.06823 0.24462V7.67034C6.06823 7.80522 6.17616 7.91413 6.30881 7.91413C6.44228 7.91413 6.55021 7.80522 6.55021 7.67034V0.48924H13.5419V3.78407C13.5419 3.91895 13.6498 4.02869 13.7833 4.02869H17.0303V16.8788H10.8625C10.7299 16.8788 10.622 16.9885 10.622 17.1234C10.622 17.2583 10.7299 17.368 10.8625 17.368H17.2709C17.4044 17.368 17.5123 17.2583 17.5123 17.1234V3.82344C17.5123 3.81926 17.5098 3.8159 17.5098 3.81255ZM14.0239 3.53945V0.835227L16.6892 3.53945H14.0239ZM14.8923 14.5775C16.6645 12.5175 16.4544 9.37598 14.4235 7.57568C12.3934 5.77789 9.29794 5.99151 7.52325 8.05152C6.58811 9.14142 6.17781 10.5672 6.37225 11.9914L0.828174 14.601C0.113022 14.9369 -0.199239 15.8014 0.132796 16.5269C0.293458 16.8788 0.580178 17.146 0.937754 17.2792C1.09842 17.3387 1.26402 17.3689 1.42963 17.3689C1.6356 17.3689 1.83993 17.3228 2.0319 17.2331L7.56939 14.6244C7.69874 14.7719 7.83716 14.916 7.9904 15.0517C8.91565 15.871 10.0617 16.2731 11.2036 16.2731C12.568 16.2731 13.9267 15.6984 14.8923 14.5775ZM8.30761 14.6839C8.1247 14.5214 7.95992 14.3488 7.81656 14.1712C7.81244 14.1662 7.80667 14.1645 7.80255 14.1603C7.79102 14.1477 7.77783 14.1377 7.76465 14.1285C7.75229 14.1201 7.73993 14.1109 7.72593 14.105C7.71192 14.0992 7.69792 14.0958 7.68308 14.0925C7.66743 14.0883 7.65342 14.0849 7.63695 14.0849C7.62294 14.0841 7.60811 14.0866 7.5941 14.0891C7.57762 14.0916 7.56115 14.0941 7.54549 14.1008C7.53972 14.1025 7.53396 14.1017 7.52819 14.105L1.82922 16.7891C1.59853 16.8972 1.34147 16.9081 1.10418 16.8201C0.866074 16.7322 0.676575 16.5546 0.570291 16.3217C0.350308 15.8408 0.557108 15.267 1.03086 15.0441L6.73312 12.36C6.73806 12.3575 6.74136 12.3533 6.7463 12.35C6.76113 12.3416 6.77431 12.3315 6.78667 12.3206C6.79821 12.3106 6.80892 12.3014 6.81798 12.2896C6.82787 12.2771 6.83446 12.2637 6.84188 12.2494C6.84929 12.236 6.85588 12.2226 6.86 12.2075C6.86412 12.1933 6.86577 12.1782 6.86742 12.1631C6.86906 12.1464 6.86989 12.1305 6.86824 12.1129C6.86742 12.107 6.86989 12.102 6.86906 12.0961C6.63507 10.7557 7.00583 9.3986 7.88659 8.37321C9.48662 6.51594 12.2764 6.32326 14.1063 7.94429C15.937 9.56699 16.1265 12.3985 14.5289 14.255C12.9297 16.1131 10.1392 16.3049 8.30761 14.6839ZM15.3479 5.5517H9.11915C9.03017 5.5517 8.95849 5.62458 8.95849 5.71422C8.95849 5.8047 9.03017 5.87758 9.11915 5.87758H15.3479C15.4369 5.87758 15.5086 5.8047 15.5086 5.71422C15.5086 5.62458 15.4369 5.5517 15.3479 5.5517Z" fill="black"/>
</svg>
