<svg width="15" height="18" viewBox="0 0 15 18" fill="none" xmlns="http://www.w3.org/2000/svg">
<mask id="mask0_231_537" style="mask-type:luminance" maskUnits="userSpaceOnUse" x="0" y="0" width="15" height="18">
<path d="M0 0.873047H14.0128V17.1417H0V0.873047Z" fill="white"/>
</mask>
<g mask="url(#mask0_231_537)">
<path fill-rule="evenodd" clip-rule="evenodd" d="M7.27148 15.8422C7.62777 15.9088 7.9577 15.9071 8.26213 15.8362C8.54699 15.7704 8.81229 15.6425 9.05804 15.4531L9.06995 15.4436C9.0827 15.4341 9.09461 15.4237 9.10651 15.4142C9.11332 15.409 9.12097 15.4038 9.12777 15.3987L12.8004 12.5523C12.8089 12.5454 12.8182 12.5394 12.8276 12.5342L12.8268 12.5333C12.9483 12.4616 12.9824 12.3345 12.9594 12.2091C12.9492 12.1503 12.9271 12.0915 12.8956 12.0362C12.8642 11.9808 12.8251 11.9316 12.7808 11.8935C12.6813 11.8079 12.5478 11.7751 12.4109 11.8546L12.4118 11.8555L8.50957 14.1588C8.44665 14.1951 8.37522 14.2029 8.31059 14.1856L7.40838 13.9375L6.11417 13.583C5.97386 13.5449 5.89053 13.3979 5.92794 13.2553C5.96536 13.1118 6.10991 13.027 6.24937 13.0651L7.54359 13.4187L7.54444 13.4196C7.63032 13.4429 7.71791 13.4299 7.79104 13.391L7.80039 13.385C7.87607 13.34 7.93474 13.2665 7.95855 13.1749C7.98151 13.0875 7.96961 12.9976 7.93134 12.9233L7.92454 12.9138C7.88117 12.8359 7.80974 12.7763 7.71961 12.7512L5.40243 12.114C5.38542 12.1123 5.36842 12.1079 5.35141 12.1027C5.3259 12.0941 5.30124 12.0863 5.27658 12.0794L5.25277 12.0725C5.24597 12.0708 5.24002 12.069 5.23406 12.0664C4.93389 11.9817 4.64818 11.9523 4.37692 11.9791C4.10141 12.0059 3.83781 12.0915 3.5861 12.235L3.53508 12.2653L3.51553 12.2774C3.50872 12.2817 3.50277 12.2852 3.49597 12.2886L2.4526 12.9042L3.70005 15.1116L4.13542 14.8548C4.20175 14.8107 4.28764 14.7978 4.36842 14.8272C5.11502 15.1064 5.65583 15.3036 6.10991 15.4618C6.54954 15.6148 6.89903 15.7281 7.27148 15.8422ZM8.00617 11.162C8.15073 11.1776 8.25532 11.3099 8.24002 11.4569C8.22471 11.6047 8.09546 11.7111 7.9509 11.6955C6.75362 11.5641 5.67964 11.0142 4.87352 10.1911C4.21791 9.521 3.73917 8.67108 3.51383 7.71828C3.43049 7.83068 3.27403 7.85834 3.15838 7.77793C3.03849 7.69493 3.00787 7.52892 3.08866 7.40701L3.43474 6.88479C3.47556 6.81389 3.54784 6.76374 3.63372 6.75423C3.69495 6.74731 3.75277 6.76288 3.80124 6.794L4.34971 7.13466C4.47301 7.21161 4.51213 7.37589 4.43729 7.50299C4.36161 7.62922 4.20005 7.66899 4.0759 7.59204L4.01553 7.554C4.21366 8.4238 4.64733 9.20023 5.24597 9.81151C5.96961 10.5508 6.93304 11.0453 8.00617 11.162ZM8.99852 1.80949C8.85396 1.79393 8.74937 1.66164 8.76468 1.51465C8.78083 1.36767 8.91008 1.26046 9.05379 1.27602C10.2511 1.40744 11.3251 1.95734 12.1312 2.78045C12.7868 3.44967 13.2655 4.30045 13.4909 5.25325C13.5742 5.14085 13.7307 5.11319 13.8463 5.1936C13.9662 5.2766 13.9968 5.44261 13.916 5.56452L13.5699 6.08675C13.5291 6.15764 13.4569 6.20779 13.371 6.2173C13.3097 6.22422 13.2519 6.20866 13.2035 6.17839L12.655 5.83774C12.5317 5.75992 12.4926 5.59564 12.5674 5.46941C12.6431 5.34317 12.8046 5.3034 12.9288 5.38035L12.9892 5.41753C12.791 4.54859 12.3574 3.7713 11.7587 3.16088C11.0351 2.42077 10.0716 1.92621 8.99852 1.80949ZM13.0827 6.992C13.098 6.84501 13.2273 6.73867 13.371 6.75423C13.5147 6.76979 13.6193 6.90208 13.6048 7.04906C13.4764 8.27163 12.9373 9.36796 12.1312 10.1911C11.4756 10.8603 10.6422 11.3497 9.7094 11.5797C9.81995 11.6644 9.84631 11.8243 9.76808 11.9428C9.68729 12.0647 9.52403 12.0967 9.40413 12.0137L8.89308 11.6601C8.8242 11.6186 8.77403 11.5451 8.76553 11.4569C8.75872 11.3946 8.77403 11.335 8.80379 11.2857L9.13798 10.7263C9.21281 10.6 9.37437 10.5603 9.49852 10.6372C9.62267 10.7142 9.66093 10.8793 9.58611 11.0055L9.54869 11.0669C10.3999 10.8655 11.1618 10.4219 11.7596 9.81151C12.4832 9.07226 12.9679 8.08833 13.0827 6.992ZM3.92199 5.97953C3.90668 6.12652 3.77743 6.23373 3.63372 6.2173C3.48917 6.20174 3.38542 6.07032 3.40073 5.92247C3.52828 4.6999 4.0674 3.60357 4.87352 2.78045C5.52913 2.11124 6.36246 1.62187 7.29529 1.39274C7.18474 1.30715 7.15838 1.14806 7.23662 1.0296C7.3174 0.906829 7.48066 0.875703 7.60056 0.957841L8.11162 1.31233C8.18049 1.35384 8.23066 1.42733 8.24002 1.51465C8.24597 1.57691 8.23151 1.63657 8.2009 1.68585L7.86757 2.24612C7.79189 2.37235 7.63032 2.41213 7.50617 2.33518C7.38287 2.25822 7.34376 2.09308 7.41944 1.96685L7.456 1.9046C6.60481 2.10692 5.84376 2.55046 5.24512 3.16088C4.52148 3.90013 4.03764 4.88406 3.92199 5.97953ZM8.50277 4.28402C7.90668 4.28402 7.36757 4.53044 6.97726 4.92902C6.58696 5.32761 6.34546 5.87837 6.34546 6.4862C6.34546 7.09402 6.58696 7.64478 6.97726 8.04337C7.36757 8.44196 7.90668 8.68837 8.50277 8.68837C9.09801 8.68837 9.63713 8.44196 10.0274 8.04337C10.4177 7.64478 10.6592 7.09402 10.6592 6.4862C10.6592 5.87837 10.4177 5.32761 10.0274 4.92902C9.63713 4.53044 9.09801 4.28402 8.50277 4.28402ZM9.65583 5.30859C9.36076 5.0077 8.9526 4.82095 8.50277 4.82095C8.05209 4.82095 7.64478 5.0077 7.34971 5.30859C7.05464 5.60948 6.87182 6.02622 6.87182 6.4862C6.87182 6.94531 7.05464 7.36205 7.34971 7.66381C7.64393 7.96469 8.05209 8.15145 8.50277 8.15145C8.9526 8.15145 9.36076 7.96469 9.65583 7.66294C9.95005 7.36205 10.1329 6.94531 10.1329 6.4862C10.1329 6.02622 9.95005 5.60948 9.65583 5.30859ZM8.50277 10.4055C8.46111 10.4055 8.40668 10.4038 8.34121 10.4012C8.27573 10.3986 8.22216 10.3951 8.18049 10.3917C8.05719 10.3804 7.9441 10.3286 7.85651 10.2481C7.76978 10.1669 7.7077 10.0579 7.68559 9.93256L7.62947 9.62475C7.62777 9.61784 7.62607 9.61351 7.62352 9.61092C7.62182 9.60833 7.61757 9.6066 7.61162 9.60487C7.47471 9.56769 7.34206 9.52186 7.21536 9.46826C7.08696 9.41379 6.96196 9.35067 6.84121 9.27891C6.83525 9.27545 6.83015 9.27372 6.82675 9.27372C6.8225 9.27372 6.81825 9.27545 6.814 9.27891L6.60056 9.42935C6.49342 9.50457 6.37097 9.53656 6.25107 9.52878C6.13032 9.52014 6.01298 9.47085 5.91774 9.38266C5.85991 9.32906 5.80209 9.27113 5.74342 9.20974C5.68644 9.15008 5.63202 9.08869 5.58015 9.02644C5.49852 8.92874 5.4543 8.81115 5.44835 8.6901C5.4424 8.57079 5.47471 8.44888 5.54529 8.34339L5.689 8.12983L5.69155 8.12551C5.69325 8.12292 5.6941 8.12032 5.6941 8.11773C5.6941 8.1134 5.6924 8.10822 5.689 8.10303C5.61927 7.97939 5.55719 7.85229 5.50362 7.72087C5.45175 7.59118 5.40668 7.45543 5.37012 7.31623C5.36842 7.31018 5.36672 7.30585 5.36417 7.30326H5.36332C5.36076 7.30067 5.35651 7.29894 5.35056 7.29807L5.12182 7.25484C4.99682 7.2315 4.88883 7.16665 4.80889 7.075C4.72981 6.98422 4.67964 6.86663 4.67199 6.7378C4.67029 6.70495 4.66774 6.66258 4.66689 6.61157C4.66434 6.55104 4.66349 6.50868 4.66349 6.48533C4.66349 6.46199 4.66434 6.41962 4.66689 6.3591C4.66774 6.30809 4.67029 6.26658 4.67199 6.23373C4.67964 6.10404 4.72981 5.98731 4.80889 5.89566C4.88883 5.80488 4.99682 5.74003 5.12182 5.71669L5.35141 5.67259C5.35736 5.67173 5.36161 5.67 5.36417 5.66741C5.36672 5.66568 5.36842 5.66135 5.37012 5.65444C5.40668 5.51523 5.45175 5.38035 5.50447 5.25066C5.55719 5.11924 5.61927 4.99214 5.689 4.8685C5.6924 4.86245 5.6941 4.85726 5.6941 4.8538C5.6941 4.85034 5.6924 4.84602 5.689 4.84083L5.54529 4.62814C5.47471 4.52265 5.4424 4.40074 5.44835 4.28056C5.4543 4.16038 5.49852 4.04279 5.58015 3.94509C5.63202 3.8837 5.68644 3.82232 5.74257 3.76266C5.80124 3.70127 5.85991 3.64334 5.91774 3.58887C6.01298 3.50068 6.13032 3.45139 6.25107 3.44275C6.37097 3.4341 6.49342 3.46696 6.60056 3.54218L6.814 3.69176C6.8191 3.69522 6.82335 3.69781 6.82675 3.69781C6.83015 3.69781 6.83525 3.69608 6.84121 3.69262C6.96196 3.62172 7.08696 3.55774 7.21536 3.50327C7.21961 3.50154 7.22471 3.49981 7.22896 3.49808C7.35311 3.44621 7.48066 3.40211 7.61162 3.36666C7.61672 3.3658 7.62097 3.3632 7.62352 3.35975L7.62607 3.35715C7.62692 3.35542 7.62862 3.35196 7.62947 3.34764L7.68559 3.03897C7.7077 2.9136 7.76893 2.80466 7.85651 2.72339C7.94495 2.64298 8.05719 2.5911 8.18049 2.57986C8.22301 2.5764 8.27658 2.57381 8.34206 2.57035C8.40753 2.56776 8.4611 2.56603 8.50192 2.56603C8.54359 2.56603 8.59716 2.56776 8.66264 2.57035C8.72811 2.57381 8.78168 2.5764 8.8242 2.57986C8.9475 2.5911 9.05974 2.64298 9.14733 2.72339C9.23491 2.80466 9.29614 2.9136 9.3191 3.03897L9.37522 3.34764C9.37692 3.35369 9.37777 3.35802 9.38032 3.36061V3.35975C9.38372 3.3632 9.38798 3.3658 9.39308 3.36666C9.52998 3.40384 9.66179 3.44967 9.78934 3.50327C9.91774 3.55774 10.0427 3.62172 10.1635 3.69262C10.1686 3.69608 10.1737 3.69781 10.1779 3.69781C10.1813 3.69781 10.1856 3.69608 10.1907 3.69262L10.1898 3.69176L10.4041 3.54218C10.5104 3.46696 10.6337 3.4341 10.7536 3.44275C10.8744 3.45139 10.9917 3.50068 11.087 3.58887C11.1448 3.64334 11.2035 3.70127 11.2613 3.76266L11.2621 3.76352C11.3182 3.82318 11.3727 3.8837 11.4245 3.94509C11.5053 4.04279 11.5495 4.16124 11.5563 4.28143C11.5623 4.40161 11.53 4.52265 11.4594 4.62814C11.4552 4.63419 11.4509 4.64024 11.4466 4.64543L11.3157 4.84083H11.3148L11.3157 4.8417C11.3123 4.84689 11.3106 4.85121 11.3106 4.8538C11.3097 4.85813 11.3114 4.86331 11.3148 4.86937C11.3846 4.99214 11.4466 5.1201 11.5002 5.25153C11.5529 5.38122 11.598 5.5161 11.6337 5.6553C11.6354 5.66222 11.638 5.66654 11.6397 5.66827C11.6422 5.67 11.6465 5.67259 11.6533 5.67346L11.8829 5.71669C12.0079 5.7409 12.1159 5.80488 12.1949 5.89653C12.274 5.98818 12.3242 6.1049 12.3319 6.23373C12.3344 6.26745 12.3361 6.30982 12.3378 6.35996C12.3395 6.42049 12.3404 6.46285 12.3404 6.4862C12.3404 6.50954 12.3395 6.55191 12.3378 6.61243C12.3361 6.66258 12.3344 6.70495 12.3319 6.73867C12.3242 6.86749 12.274 6.98422 12.1949 7.07587C12.1159 7.16752 12.007 7.2315 11.8829 7.25571L11.6533 7.29894C11.6465 7.2998 11.6422 7.30153 11.6397 7.30412C11.638 7.30585 11.6354 7.31018 11.6337 7.31709C11.598 7.4563 11.5529 7.59118 11.5002 7.72087C11.4466 7.85229 11.3846 7.98025 11.3148 8.10303C11.3114 8.10908 11.3097 8.11427 11.3106 8.11773C11.3106 8.12119 11.3123 8.12551 11.3157 8.1307L11.4586 8.34339L11.4594 8.34512V8.34426C11.53 8.44974 11.5623 8.57079 11.5555 8.69097C11.5495 8.81029 11.5053 8.92787 11.4237 9.02558V9.02644C11.3718 9.08869 11.3174 9.15008 11.2621 9.20887L11.2596 9.21147C11.2018 9.27199 11.1439 9.32992 11.087 9.38353C10.9917 9.47172 10.8744 9.521 10.7536 9.52878C10.6337 9.53743 10.5104 9.50544 10.4041 9.43022L10.1898 9.27977C10.1856 9.27631 10.1813 9.27458 10.1779 9.27458C10.1737 9.27372 10.1686 9.27545 10.1635 9.27891C10.0427 9.35067 9.91774 9.41379 9.78934 9.46826C9.66179 9.52186 9.52998 9.56769 9.39308 9.60487C9.38798 9.6066 9.38372 9.60919 9.38032 9.61178C9.37862 9.61438 9.37607 9.6187 9.37522 9.62475L9.3191 9.93342C9.29614 10.0588 9.23491 10.1677 9.14733 10.2481C9.05974 10.3294 8.9475 10.3813 8.8242 10.3917C8.78168 10.3951 8.72811 10.3986 8.66264 10.4012C8.59716 10.4038 8.54359 10.4055 8.50277 10.4055ZM8.36162 9.86598C8.39563 9.86771 8.44325 9.86858 8.50277 9.86858C8.56229 9.86858 8.60821 9.86771 8.64223 9.86598C8.67709 9.86425 8.72386 9.86166 8.78083 9.85647C8.78849 9.85561 8.79444 9.85388 8.79699 9.85128C8.80039 9.84869 8.80294 9.8435 8.80379 9.83659L8.85991 9.52792C8.87947 9.41898 8.92709 9.323 8.99682 9.24692C9.0657 9.17083 9.15583 9.1155 9.25957 9.08696C9.37097 9.0567 9.48151 9.01779 9.58781 8.97283C9.69665 8.92701 9.80124 8.87427 9.89988 8.81547C9.99342 8.761 10.0946 8.73506 10.1966 8.73939C10.2995 8.74285 10.3999 8.77657 10.4883 8.83882L10.7026 8.98926C10.7069 8.99272 10.7128 8.99445 10.7188 8.99358C10.723 8.99358 10.7281 8.99099 10.7332 8.98667C10.7868 8.93738 10.8361 8.8881 10.8829 8.83882L10.8837 8.83795C10.933 8.78608 10.9798 8.73334 11.0257 8.678L11.0266 8.67886C11.03 8.67368 11.0317 8.66849 11.0325 8.6633C11.0325 8.65898 11.0308 8.65293 11.0266 8.64601L10.8837 8.43504C10.8233 8.34339 10.7902 8.24137 10.7859 8.13675C10.7825 8.033 10.8072 7.92924 10.8608 7.83413C10.9186 7.73297 10.9705 7.62663 11.0155 7.51509C11.0597 7.40615 11.0972 7.29461 11.1269 7.18048C11.1541 7.075 11.2094 6.98335 11.2842 6.91159C11.3599 6.84069 11.4535 6.79227 11.5589 6.77239L11.7885 6.72916C11.7944 6.72743 11.7995 6.72483 11.8029 6.72137C11.8055 6.71792 11.808 6.71186 11.808 6.70495C11.8114 6.65999 11.8131 6.62367 11.814 6.596C11.814 6.57785 11.8148 6.5424 11.8148 6.4862C11.8148 6.43 11.814 6.39455 11.814 6.37726C11.8131 6.34872 11.8114 6.31241 11.808 6.26745C11.808 6.26053 11.8055 6.25448 11.8029 6.25102C11.7995 6.24756 11.7944 6.24497 11.7885 6.24411L11.5589 6.20087C11.4535 6.18099 11.3599 6.13171 11.2842 6.06081C11.2086 5.98991 11.1541 5.89826 11.1269 5.79191C11.0972 5.67865 11.0597 5.56625 11.0155 5.4573C10.9705 5.34663 10.9186 5.24029 10.8608 5.13826C10.8072 5.04402 10.7825 4.9394 10.7859 4.83565C10.7902 4.73103 10.8233 4.629 10.8837 4.53822H10.8846L11.0155 4.34368C11.0189 4.33763 11.0223 4.33157 11.0266 4.32639C11.03 4.32033 11.0325 4.31428 11.0325 4.30909C11.0317 4.30477 11.03 4.29958 11.0257 4.2944C10.9798 4.23992 10.933 4.18718 10.8854 4.13704L10.8837 4.13444C10.837 4.08602 10.7868 4.03588 10.7332 3.98659C10.729 3.9814 10.723 3.97881 10.7188 3.97881C10.7128 3.97795 10.7077 3.97968 10.7026 3.98313L10.4883 4.13358V4.13271L10.4875 4.13358C10.3982 4.19583 10.2987 4.22955 10.1966 4.23301C10.0955 4.23733 9.99342 4.21226 9.90073 4.15692C9.80124 4.09813 9.69665 4.04539 9.58866 3.99956C9.48151 3.9546 9.37182 3.91569 9.26042 3.88543C9.15583 3.85776 9.0657 3.80156 8.99682 3.72548L8.99767 3.72461H8.99682C8.92709 3.64766 8.87947 3.55169 8.85991 3.44448L8.80379 3.13581C8.80294 3.12889 8.80039 3.12371 8.79699 3.12025C8.79444 3.11852 8.78849 3.11679 8.78168 3.11592C8.72386 3.11074 8.67794 3.10814 8.64308 3.10641C8.60906 3.10468 8.56229 3.10382 8.50277 3.10382C8.44325 3.10382 8.39648 3.10468 8.36246 3.10641C8.3276 3.10728 8.28083 3.11074 8.22386 3.11592C8.21621 3.11679 8.2111 3.11852 8.2077 3.12111C8.20515 3.12371 8.20175 3.12889 8.2009 3.13581L8.14478 3.44448C8.12692 3.54304 8.0861 3.63123 8.02573 3.70386C8.01978 3.71164 8.01383 3.71856 8.00787 3.72548C7.939 3.80156 7.84886 3.85776 7.74512 3.88543C7.63627 3.91569 7.52998 3.95201 7.42879 3.99351L7.41689 3.99956C7.30804 4.04539 7.20345 4.09813 7.10396 4.15692C7.01127 4.21139 6.91008 4.23733 6.80804 4.23301C6.70515 4.22955 6.60481 4.19583 6.51638 4.13358L6.30209 3.98313C6.29699 3.97968 6.29189 3.97795 6.28593 3.97881C6.28168 3.97881 6.27573 3.9814 6.27148 3.98573C6.21791 4.03588 6.16774 4.08516 6.12097 4.13444L6.12012 4.13531C6.07165 4.18632 6.02488 4.23906 5.97896 4.2944C5.97471 4.29872 5.97301 4.30391 5.97216 4.30909C5.97216 4.31428 5.97386 4.31947 5.97726 4.32466L6.12097 4.53822C6.18219 4.629 6.21451 4.73103 6.21876 4.83565C6.22216 4.9394 6.1975 5.04402 6.14393 5.13826C6.0861 5.23942 6.03423 5.34663 5.98917 5.4573C5.94495 5.56625 5.90753 5.67778 5.87777 5.79191C5.85056 5.89739 5.79529 5.98991 5.72046 6.06081C5.64478 6.13171 5.55124 6.18099 5.4458 6.20087L5.21621 6.24411C5.21025 6.24497 5.20515 6.24756 5.20175 6.25102C5.1992 6.25448 5.19665 6.26053 5.19665 6.26745C5.1941 6.31155 5.19155 6.34872 5.1907 6.37639C5.1907 6.39455 5.18985 6.43086 5.18985 6.4862C5.18985 6.54153 5.1907 6.57785 5.1907 6.59514C5.19155 6.62367 5.19325 6.65999 5.19665 6.70495C5.19665 6.71186 5.19835 6.71792 5.20175 6.72137C5.20515 6.72483 5.21025 6.72743 5.21621 6.72829L5.4458 6.77152C5.55209 6.79227 5.64648 6.84069 5.72131 6.91159L5.72046 6.91245C5.79614 6.98335 5.85056 7.075 5.87777 7.18048C5.90753 7.29461 5.94495 7.40615 5.98917 7.51509C6.03423 7.62663 6.0861 7.73297 6.14393 7.83413C6.1975 7.92924 6.22216 8.033 6.21791 8.13675C6.21451 8.23359 6.18644 8.32869 6.13287 8.41429C6.12947 8.42121 6.12522 8.42813 6.12012 8.43418L5.97726 8.64774C5.97386 8.65293 5.97216 8.65811 5.97216 8.6633C5.97216 8.66762 5.97471 8.67281 5.97896 8.678C6.02488 8.73334 6.07165 8.78608 6.12012 8.83709C6.16689 8.88637 6.21706 8.93652 6.27148 8.98667C6.27573 8.99099 6.28168 8.99358 6.28593 8.99358C6.29189 8.99445 6.29699 8.99272 6.30209 8.98926L6.51638 8.83882L6.51723 8.83968V8.83882C6.60651 8.77657 6.706 8.74285 6.80804 8.73939C6.91008 8.73506 7.01213 8.761 7.10396 8.81547C7.20345 8.87427 7.30804 8.92701 7.41689 8.97283C7.52318 9.01866 7.63287 9.0567 7.74512 9.08696C7.84886 9.11463 7.93815 9.17083 8.00787 9.24778C8.0776 9.32473 8.12522 9.4207 8.14478 9.52792L8.2009 9.83659C8.20175 9.8435 8.20515 9.84869 8.2077 9.85128C8.21025 9.85388 8.21621 9.85647 8.22386 9.85647C8.28083 9.8608 8.32675 9.86425 8.36162 9.86598ZM7.58185 6.5424L8.05634 7.18048C8.14393 7.29807 8.30804 7.32055 8.42284 7.2315C8.43645 7.22112 8.44835 7.21075 8.45855 7.19864H8.4594L9.40838 6.1343C9.50617 6.02449 9.49852 5.85503 9.39138 5.7556C9.28338 5.6553 9.11757 5.66395 9.01978 5.77289L8.28253 6.60033L7.99937 6.21903C7.91179 6.10144 7.74767 6.07896 7.63202 6.16802C7.51723 6.25707 7.49427 6.42481 7.58185 6.5424ZM9.4441 15.8249C9.4407 15.8275 9.43729 15.831 9.43389 15.8336C9.11332 16.0947 8.76042 16.2693 8.37692 16.3584C8.00192 16.4457 7.59971 16.4483 7.17199 16.3679C7.15838 16.3653 7.14563 16.3627 7.13202 16.3593C6.75362 16.2434 6.39648 16.1284 5.94155 15.9693C5.52063 15.8223 5.00702 15.6356 4.30379 15.3727L3.96281 15.5742L4.08015 15.7826C4.15243 15.9105 4.10906 16.0739 3.98406 16.1474L2.42369 17.0674C2.29784 17.1409 2.13797 17.0968 2.0657 16.9679L0.0588934 13.4196C-0.0133855 13.2907 0.0299818 13.1273 0.155832 13.0538L1.71536 12.1339C1.84121 12.0604 2.00107 12.1053 2.07335 12.2324L2.1907 12.4399L3.23406 11.8252L3.24172 11.82C3.5827 11.6082 3.94495 11.4828 4.3276 11.4456C4.66434 11.4128 5.01383 11.4482 5.37692 11.5511C5.38117 11.552 5.38457 11.5528 5.38798 11.5537L7.85566 12.2324C8.08525 12.2956 8.26893 12.4486 8.37947 12.644C8.38287 12.65 8.38542 12.6561 8.38883 12.6622C8.49172 12.8541 8.52573 13.0858 8.46621 13.3132C8.43559 13.4317 8.38117 13.5389 8.31059 13.6297L8.34121 13.6383L12.149 11.3912H12.1499C12.5096 11.1785 12.8608 11.2632 13.1176 11.4837C13.2103 11.5632 13.2893 11.6609 13.3497 11.7673C13.4101 11.8736 13.4535 11.9912 13.4756 12.1123C13.5351 12.4425 13.4373 12.7858 13.1006 12.9898L9.4441 15.8249ZM1.86842 12.9406L3.49512 15.818L2.38883 16.4708L0.643927 13.3841L1.75022 12.7313L1.86672 12.9371L1.86842 12.9406Z" fill="black"/>
</g>
</svg>
