<svg width="21" height="19" viewBox="0 0 21 19" fill="none" xmlns="http://www.w3.org/2000/svg">
<path fill-rule="evenodd" clip-rule="evenodd" d="M8.91097 8.51347C9.13476 8.51347 9.33756 8.60583 9.48442 8.75504H9.48364C9.63128 8.90503 9.72219 9.11029 9.72219 9.33685C9.72219 9.56342 9.63128 9.76947 9.48442 9.91867C9.33756 10.0671 9.13476 10.1594 8.91097 10.1594C8.68719 10.1594 8.48438 10.0671 8.3383 9.91867C8.19144 9.76947 8.10053 9.56342 8.10053 9.33685C8.10053 9.11029 8.19144 8.90424 8.33908 8.75504C8.48594 8.60583 8.68796 8.51347 8.91097 8.51347ZM3.96207 15.961V9.50027H3.49352V15.961H3.96207ZM2.9667 15.961V9.50027H1.06531V15.9366C1.06531 15.9437 1.06764 15.95 1.07075 15.9539L1.0723 15.9547C1.07619 15.9587 1.08162 15.961 1.08939 15.961H2.9667ZM4.4889 9.50027V15.961H13.0098C12.8085 15.6768 12.6252 15.3768 12.4597 15.0603C12.0035 14.1848 11.7316 13.2572 11.601 12.3067C11.4744 11.3823 11.4806 10.4373 11.5808 9.50027H10.378V10.5447C10.378 10.7089 10.3244 10.8621 10.2381 10.9757C10.1371 11.1091 9.9926 11.192 9.82709 11.192H7.99485C7.83012 11.192 7.68482 11.1091 7.58381 10.9757H7.58458L7.58381 10.9749C7.49755 10.8613 7.44394 10.7081 7.44394 10.5447V9.50027H4.4889ZM16.2531 18.1778C15.5833 17.7767 14.9578 17.3133 14.403 16.7757C13.8187 16.2089 13.3144 15.5584 12.9251 14.8116C12.4985 13.9938 12.2444 13.1246 12.1217 12.2341C12.0067 11.3941 12.0074 10.5321 12.0921 9.67316L16.2531 8.36348L20.4141 9.67316C20.498 10.5321 20.4996 11.3941 20.3838 12.2341C20.261 13.1246 20.0069 13.9938 19.5811 14.8116C19.1911 15.5584 18.6876 16.2089 18.1024 16.7757C17.5484 17.3133 16.9221 17.7767 16.2531 18.1778ZM18.4645 17.1618C19.0893 16.5563 19.6285 15.8608 20.0458 15.0603C20.5019 14.1848 20.7739 13.2572 20.9044 12.3067C21.0342 11.3626 21.0249 10.3979 20.9184 9.44185C20.906 9.32817 20.8252 9.23896 20.7226 9.21212L17.8227 8.29953V4.3776C17.8227 4.13682 17.7264 3.91815 17.5702 3.76026C17.414 3.60158 17.1988 3.50369 16.9618 3.50369H12.866V1.76772C12.866 1.48904 12.7534 1.23485 12.5716 1.05091V1.05012C12.3905 0.866178 12.1395 0.751709 11.8645 0.751709H5.95826C5.68397 0.751709 5.43299 0.866178 5.25116 1.05091V1.05012C5.06934 1.23406 4.95667 1.48826 4.95667 1.76772V3.50369H0.860948C0.623954 3.50369 0.408717 3.60158 0.252534 3.76026C0.0963517 3.91815 0 4.13682 0 4.3776V8.62636C0 8.86714 0.0963517 9.08502 0.252534 9.2437C0.333346 9.3258 0.430474 9.39133 0.537704 9.43632V15.9366C0.537704 16.0897 0.599867 16.2294 0.699326 16.3305L0.70088 16.3321C0.801117 16.4331 0.937874 16.4955 1.08939 16.4955H13.4208C13.6167 16.7292 13.8233 16.951 14.0409 17.1618C14.661 17.7633 15.3665 18.2765 16.1218 18.7162C16.2057 18.7651 16.3052 18.762 16.3837 18.7162H16.3844L16.3852 18.7154C17.1405 18.2757 17.8453 17.7625 18.4645 17.1618ZM12.5684 8.96503L16.1754 7.82982C16.2244 7.81482 16.278 7.81403 16.33 7.82982L17.2959 8.13375V4.3776C17.2959 4.28445 17.2586 4.19998 17.1972 4.1384C17.1366 4.07682 17.0535 4.03814 16.9618 4.03814H0.860948C0.769259 4.03814 0.68534 4.07682 0.624731 4.1384C0.564123 4.19998 0.526826 4.28445 0.526826 4.3776V8.62636C0.526826 8.71951 0.564123 8.80398 0.624731 8.86556C0.68534 8.92714 0.769259 8.96503 0.860948 8.96503H7.44394V8.12822C7.44394 7.97349 7.49212 7.82903 7.56982 7.71772C7.57448 7.71061 7.57914 7.7043 7.58381 7.69719C7.68482 7.56456 7.83012 7.48167 7.99485 7.48167H9.82709C9.9926 7.48167 10.1371 7.56378 10.2381 7.69719C10.3252 7.81087 10.378 7.96402 10.378 8.12822V8.96503H12.5684ZM13.7332 13.243L15.0239 14.8542C15.1901 15.0627 15.4194 15.1795 15.6587 15.2048C15.9003 15.2308 16.1513 15.1629 16.3596 15.0042V15.0027C16.3922 14.9774 16.4217 14.9521 16.4466 14.9277C16.4746 14.9008 16.5002 14.8716 16.5251 14.8408L18.7722 12.0344L18.773 12.0336C18.9385 11.8267 19.0061 11.5694 18.9805 11.3231C18.9556 11.076 18.8383 10.8376 18.6339 10.6694V10.6686C18.4296 10.5005 18.1763 10.4326 17.9331 10.4586C17.6891 10.4839 17.4544 10.6031 17.2889 10.8099L15.769 12.7085L15.2173 12.0194L15.2166 12.0186C15.0511 11.8117 14.8164 11.6925 14.5732 11.6665C14.33 11.6412 14.0759 11.7091 13.8723 11.8773V11.8781H13.8715C13.6679 12.0462 13.5498 12.2838 13.525 12.5309C13.5001 12.778 13.5669 13.0354 13.7324 13.2422L13.7332 13.243ZM14.0479 12.5854C14.0363 12.6975 14.0658 12.8135 14.1396 12.9059L14.1404 12.9067L15.431 14.5187C15.5056 14.6111 15.6066 14.6632 15.7123 14.6742C15.825 14.6861 15.9431 14.6537 16.0425 14.5779L16.0433 14.5787C16.0542 14.5693 16.0682 14.5574 16.083 14.5432C16.0954 14.5306 16.107 14.5179 16.1179 14.5045L18.3651 11.6981L18.3659 11.6973C18.4397 11.6049 18.4692 11.4889 18.4583 11.3768C18.4467 11.2655 18.3938 11.1581 18.3021 11.0823C18.2112 11.0073 18.097 10.9773 17.9859 10.9884C17.8763 11.0002 17.7699 11.0539 17.6961 11.1462L16.02 13.239L16.0192 13.2406C15.9889 13.2785 15.9532 13.3077 15.9089 13.329L15.9081 13.3298C15.8631 13.3519 15.818 13.3614 15.769 13.3614C15.7201 13.3614 15.675 13.3519 15.6299 13.3298C15.5857 13.3085 15.5484 13.2785 15.5165 13.2383L14.8094 12.3549C14.7356 12.2625 14.6299 12.2088 14.5196 12.197C14.4085 12.1859 14.2942 12.2159 14.2033 12.2909C14.1116 12.3667 14.0588 12.4741 14.0479 12.5854ZM5.4835 3.50369V1.76772C5.4835 1.63588 5.53711 1.5151 5.62336 1.42826L5.62258 1.42747L5.62336 1.42668C5.70883 1.33984 5.82772 1.28616 5.95826 1.28616H11.8645C11.9942 1.28616 12.1131 1.34063 12.1994 1.42826L12.2001 1.42747C12.2856 1.5151 12.3392 1.63509 12.3392 1.76772V3.50369H11.9833V1.91455C11.9833 1.76693 11.8652 1.64772 11.7199 1.64772H6.10279C5.95748 1.64772 5.83937 1.76693 5.83937 1.91455V3.50369H5.4835ZM6.3662 3.50369V2.18217H11.4565V3.50369H6.3662ZM8.00418 10.6568H9.82709C9.83408 10.6568 9.81932 10.6544 9.82243 10.6505C9.8403 10.6268 9.85118 10.5897 9.85118 10.5447V8.12822C9.85118 8.08323 9.8403 8.04612 9.82243 8.02323C9.81932 8.01849 9.83408 8.01612 9.82709 8.01612H7.99485C7.98864 8.01612 8.0034 8.01849 7.99952 8.02323L7.99485 8.02954C7.98009 8.05323 7.97077 8.08717 7.97077 8.12822V10.5447C7.97077 10.5897 7.98164 10.6268 7.99952 10.6505C8.00029 10.6505 8.00029 10.6513 8.00029 10.6521L8.00418 10.6568ZM9.11222 9.13318C9.06094 9.08108 8.98945 9.04871 8.91097 9.04871C8.83249 9.04871 8.761 9.08108 8.70972 9.13318C8.65844 9.18449 8.62736 9.25633 8.62736 9.33685C8.62736 9.4158 8.65921 9.48843 8.7105 9.54053C8.76178 9.59263 8.83327 9.625 8.91097 9.625C8.98945 9.625 9.06094 9.59263 9.11222 9.54053C9.16351 9.48843 9.19536 9.4158 9.19536 9.33685C9.19536 9.25633 9.16351 9.18449 9.113 9.13318H9.11222Z" fill="black"/>
</svg>
