<svg width="18" height="18" viewBox="0 0 18 18" fill="none" xmlns="http://www.w3.org/2000/svg">
<path d="M13.3085 5.95573L13.3231 6.04062C13.3515 6.18328 13.4083 6.26642 13.5125 6.30843C13.6433 6.7224 14.0289 7.13024 14.4653 7.13024C14.9319 7.13024 15.3545 6.68214 15.4655 6.3023C15.6962 6.20341 15.6385 5.96185 15.6902 5.79206C15.7126 5.65816 15.6816 5.55489 15.6007 5.484C15.6007 5.45686 15.6041 5.44024 15.6015 5.32208C15.8253 4.78646 15.636 4.45301 15.3003 4.34186C15.2056 4.14582 15.0214 4.03992 14.9035 4.00404C14.2484 3.84212 13.7415 4.23596 13.497 4.48539C13.188 4.80484 13.3576 5.18293 13.3593 5.23544C13.3507 5.32121 13.349 5.40698 13.3576 5.49537C13.2345 5.61615 13.2767 5.77281 13.3085 5.95573ZM13.7802 4.76633C14.27 4.2666 14.8906 4.26747 14.9577 4.55716C14.9766 4.64118 15.0481 4.70332 15.1333 4.7112C15.1479 4.73745 15.4526 4.69369 15.2142 5.22231C15.1918 5.27395 15.1789 5.31858 15.2056 5.38072C15.203 5.47612 15.209 5.46299 15.1918 5.55839C15.178 5.63715 15.2254 5.71855 15.2925 5.76406L15.2641 5.9426C15.1815 5.95835 15.1169 6.02399 15.1032 6.10801C15.073 6.29968 14.968 6.45634 14.7597 6.61913C14.5833 6.76178 14.3853 6.77054 14.2054 6.6305C13.7905 6.30668 13.9558 5.99949 13.7096 5.94435C13.6898 5.83145 13.6846 5.80169 13.6795 5.76493C13.7475 5.72205 13.7836 5.63978 13.7673 5.55751C13.7595 5.51375 13.7552 5.47174 13.7526 5.42973C13.868 5.24244 13.5814 4.97113 13.7802 4.76633Z" fill="black"/>
<mask id="mask0_231_548" style="mask-type:luminance" maskUnits="userSpaceOnUse" x="14" y="6" width="4" height="4">
<path d="M14.8374 6.93771H17.3525V9.85037H14.8374V6.93771Z" fill="white"/>
</mask>
<g mask="url(#mask0_231_548)">
<path d="M17.097 8.14985C16.9885 7.85841 16.7639 7.61948 16.4824 7.49433C15.5253 7.07336 15.6243 7.10837 15.5692 7.10224C15.4659 7.08999 15.3721 7.16263 15.3523 7.25715C15.3316 7.36043 15.2343 7.6755 15.0734 7.76739C14.8969 7.86892 14.9684 8.14198 15.1715 8.14198C15.2051 8.14198 15.2386 8.1341 15.2696 8.11572C15.4805 7.99494 15.6045 7.75514 15.6725 7.57222L16.3223 7.86104C16.5022 7.94068 16.6451 8.09034 16.7191 8.27413L16.9455 9.61231C16.9627 9.70946 17.0462 9.7786 17.1409 9.7786C17.2648 9.7786 17.3578 9.66657 17.3371 9.54492C17.0935 8.11485 17.109 8.18136 17.097 8.14985Z" fill="black"/>
</g>
<path d="M11.8762 8.14991C11.8642 8.18404 11.8771 8.13065 11.6361 9.54497C11.618 9.65349 11.6903 9.75677 11.7988 9.77602C11.9063 9.7944 12.0088 9.72176 12.0277 9.61236L12.2541 8.27418C12.3281 8.09039 12.4719 7.94073 12.6509 7.86109L13.3008 7.57227C13.3688 7.75519 13.4927 7.995 13.7036 8.11577C13.7346 8.13415 13.7681 8.14203 13.8017 8.14203C14.0048 8.14203 14.0763 7.86897 13.8998 7.76744C13.7389 7.67555 13.6416 7.36048 13.621 7.2572C13.596 7.13905 13.46 7.06554 13.3464 7.11455L12.4908 7.49438C12.2093 7.61954 11.9847 7.85846 11.8762 8.14991Z" fill="black"/>
<mask id="mask1_231_548" style="mask-type:luminance" maskUnits="userSpaceOnUse" x="4" y="14" width="10" height="4">
<path d="M4.48096 14.1073H13.0747V17.1399H4.48096V14.1073Z" fill="white"/>
</mask>
<g mask="url(#mask1_231_548)">
<path d="M8.77947 16.7505C6.77823 16.7505 5.08772 16.0057 5.08772 15.1235C5.08772 14.9073 5.19101 14.6947 5.39501 14.4907C5.47334 14.4128 5.47334 14.2859 5.39587 14.2072C5.31926 14.1284 5.19359 14.1284 5.11527 14.2063C4.83811 14.4846 4.69092 14.8014 4.69092 15.1235C4.69092 16.2604 6.48644 17.1513 8.77947 17.1513C11.0725 17.1513 12.868 16.2604 12.868 15.1235C12.868 14.8294 12.751 14.5494 12.5211 14.2886C12.448 14.2063 12.3223 14.1993 12.2405 14.2728C12.1588 14.3463 12.1519 14.4732 12.225 14.5555C12.3886 14.7402 12.4712 14.931 12.4712 15.1235C12.4712 16.0057 10.7807 16.7505 8.77947 16.7505Z" fill="black"/>
</g>
<path d="M14.7049 8.66447V7.88554C14.7049 7.77526 14.6163 7.68512 14.5069 7.68512C14.3968 7.68512 14.3081 7.77526 14.3081 7.88554V8.66447C14.3081 8.77474 14.3968 8.86401 14.5069 8.86401C14.6163 8.86401 14.7049 8.77474 14.7049 8.66447Z" fill="black"/>
<path d="M1.66094 6.39858C1.67299 6.48872 1.68677 6.57712 1.70398 6.65939C1.72894 6.80554 1.78489 6.88956 1.89076 6.93245C2.02332 7.35079 2.41496 7.75513 2.84619 7.75513C3.30153 7.75513 3.72846 7.32454 3.8438 6.9272C4.03058 6.84843 4.02025 6.67514 4.03144 6.64888C4.06931 6.43971 4.13043 6.24104 3.97893 6.10714C3.9798 6.08001 3.98238 6.052 3.98238 5.94347C4.20531 5.40785 4.01336 5.07615 3.67853 4.96588C3.58471 4.76983 3.40223 4.66481 3.28431 4.62718C2.80057 4.50903 2.30134 4.67969 1.87527 5.10941C1.56454 5.43061 1.73841 5.81307 1.74013 5.86996C1.73239 5.95223 1.73066 6.0345 1.73841 6.11939C1.66783 6.18853 1.64287 6.2813 1.66094 6.39858ZM2.15759 5.39123C2.38569 5.16105 2.74979 4.90899 3.17844 5.01314C3.1793 5.01314 3.30755 5.05953 3.33596 5.18118C3.35489 5.26345 3.42547 5.32471 3.50897 5.33521C3.50983 5.33521 3.62172 5.35009 3.6639 5.42536C3.73448 5.55314 3.6114 5.79732 3.58213 5.87346C3.56147 5.92335 3.56405 5.97498 3.58471 6.01874C3.58385 6.02924 3.58557 5.98023 3.58127 6.12289C3.58127 6.1614 3.52446 6.29093 3.67423 6.38895C3.66476 6.44846 3.65357 6.5071 3.64324 6.56662C3.55975 6.58149 3.4952 6.64801 3.48142 6.73203C3.4513 6.92545 3.34629 7.08211 3.14487 7.24052C2.94173 7.39368 2.75581 7.38668 2.58539 7.25365C2.16706 6.9307 2.33491 6.62263 2.09046 6.56837C2.07927 6.51235 2.0698 6.45547 2.06033 6.38895C2.12833 6.34607 2.16534 6.2638 2.14899 6.18065C2.13952 6.13514 2.13522 6.09226 2.13263 6.0485C2.15673 6.00649 2.16706 5.95573 2.15587 5.90409C2.14899 5.87608 2.12489 5.76931 2.13091 5.79732C2.12144 5.7028 2.02074 5.53301 2.15759 5.39123Z" fill="black"/>
<path d="M5.47601 8.77387C5.36756 8.48243 5.14376 8.2435 4.86144 8.11835L4.00672 7.73851C3.89826 7.69125 3.7571 7.75689 3.73214 7.88204C3.70632 8.01157 3.60389 8.30564 3.45326 8.39141C3.2768 8.49293 3.34825 8.76599 3.55138 8.76599C3.58409 8.76599 3.61852 8.75812 3.64865 8.73974C3.86039 8.61896 3.98434 8.37916 4.05148 8.19624L4.7022 8.48506C4.88124 8.5647 5.02498 8.71436 5.09901 8.89815L5.32538 10.2363C5.34174 10.3335 5.42609 10.4026 5.52077 10.4026C5.64472 10.4026 5.73682 10.2906 5.71702 10.1689L5.48634 8.81063C5.48462 8.79838 5.48118 8.78525 5.47601 8.77387Z" fill="black"/>
<mask id="mask2_231_548" style="mask-type:luminance" maskUnits="userSpaceOnUse" x="0" y="7" width="3" height="4">
<path d="M0 7.60986H2.49789V10.5225H0V7.60986Z" fill="white"/>
</mask>
<g mask="url(#mask2_231_548)">
<path d="M0.256589 8.77419C0.244539 8.80832 0.256589 8.76018 0.016441 10.1693C-0.00163464 10.2778 0.0706681 10.381 0.178261 10.4003C0.285855 10.4187 0.389144 10.346 0.40722 10.2366L0.634457 8.89846C0.707621 8.71467 0.851365 8.56501 1.03126 8.48537L1.68113 8.19656C1.74912 8.37947 1.87307 8.61928 2.08395 8.74005C2.1795 8.79519 2.30086 8.76106 2.35423 8.66479C2.40846 8.56851 2.37489 8.44686 2.28021 8.39172C2.11925 8.29983 2.02198 7.98476 2.00132 7.88236C1.97636 7.76246 1.83692 7.69069 1.72674 7.73883L0.871163 8.11866C0.589698 8.24382 0.365043 8.48275 0.256589 8.77419Z" fill="black"/>
</g>
<path d="M2.88596 9.488C2.99614 9.488 3.08479 9.39873 3.08479 9.28846V8.50953C3.08479 8.39926 2.99614 8.30911 2.88596 8.30911C2.77665 8.30911 2.68799 8.39926 2.68799 8.50953V9.28846C2.68799 9.39873 2.77665 9.488 2.88596 9.488Z" fill="black"/>
<path d="M7.55619 11.4703C7.57512 11.5106 7.60955 11.5517 7.65431 11.5815C8.02529 12.8698 9.50147 12.9135 9.90086 11.5859C9.94304 11.5605 9.97919 11.5194 10.0024 11.4677C10.1436 11.1561 10.3889 10.6126 10.1066 10.4245C10.1866 9.96063 10.1419 9.43901 9.70977 9.25872C9.6039 8.93139 9.19677 8.78086 8.82234 8.82287C8.6304 8.84387 8.55379 8.87188 8.44964 8.87276C8.1019 8.86225 7.87208 8.65308 7.69046 8.86138C7.61644 8.94627 7.6173 9.04867 7.61902 9.15895C7.61988 9.24121 7.62849 9.30423 7.66206 9.37862C7.40039 9.62105 7.39523 9.99739 7.44171 10.3483C7.46409 10.5173 7.09224 10.463 7.55619 11.4703ZM7.71887 10.6984C7.81441 10.5619 7.85228 10.4297 7.83507 10.2958C7.80408 10.063 7.7774 9.70157 8.02357 9.62017C8.17765 9.56854 8.20863 9.36024 8.07522 9.26572C8.04509 9.24471 8.02443 9.22021 8.01927 9.20183C8.12686 9.23509 8.27061 9.27535 8.45308 9.2736C8.73369 9.27097 8.9988 9.12656 9.2553 9.29635C9.30608 9.33048 9.33105 9.36812 9.33449 9.39175C9.34654 9.48014 9.41282 9.58429 9.51783 9.61405C9.60218 9.63855 9.68481 9.68581 9.72527 9.87398C9.78208 10.1383 9.696 10.4411 9.68567 10.5164C9.66932 10.638 9.74076 10.7308 9.83544 10.7553C9.81134 10.919 9.74334 11.0765 9.66932 11.241C9.60993 11.2699 9.55054 11.3294 9.52644 11.4502C9.31469 12.1845 8.69065 12.3683 8.28782 11.9333C7.98226 11.6034 8.08382 11.3294 7.88843 11.241C7.83335 11.1211 7.70682 10.8297 7.71887 10.6984Z" fill="black"/>
<path d="M11.7265 13.6618C11.6051 13.3371 11.3555 13.0702 11.0405 12.931L10.067 12.4987C9.96539 12.4541 9.84919 12.4996 9.80529 12.6011C9.76053 12.7026 9.80615 12.8199 9.90686 12.8645L10.8812 13.2978C11.093 13.3914 11.2625 13.5691 11.3486 13.7852L11.6077 15.3125C11.624 15.4105 11.7075 15.4796 11.8031 15.4796C11.9262 15.4796 12.0191 15.3667 11.9985 15.2451C11.7334 13.6916 11.7402 13.6977 11.7265 13.6618Z" fill="black"/>
<path d="M5.83238 13.6618C5.82033 13.6951 5.82377 13.7012 5.56039 15.2451C5.54231 15.3545 5.61461 15.4577 5.72221 15.4761C5.8298 15.4945 5.93309 15.4219 5.95117 15.3125L6.21025 13.7852C6.29632 13.5691 6.46589 13.3914 6.67764 13.2978L7.652 12.8645C7.75271 12.8199 7.79833 12.7026 7.75357 12.6011C7.70967 12.4996 7.59347 12.4541 7.4919 12.4987L6.5184 12.931C6.20336 13.0711 5.95375 13.3371 5.83238 13.6618Z" fill="black"/>
<path d="M9.3562 13.4606C9.54556 13.2304 9.39063 12.9722 9.06871 12.9705C8.86987 12.9696 8.67104 12.9705 8.47307 12.9713C8.17095 12.9713 8.00999 13.2339 8.20882 13.4702C8.28801 13.5673 8.34654 13.6444 8.40851 13.6969C8.41282 13.7249 8.20882 14.9878 8.20452 15.0167C8.1873 15.1261 8.26046 15.2285 8.36892 15.246C8.47823 15.2635 8.57894 15.1882 8.59616 15.0797C8.60304 15.035 8.77347 13.9419 8.77863 13.9139C8.83458 14.285 8.89225 14.657 8.95251 15.0464C9.00673 15.3064 9.39579 15.2241 9.34156 14.9642C9.15908 13.7853 9.15736 13.7345 9.14789 13.7074C9.21589 13.6426 9.27098 13.57 9.3562 13.4606ZM8.77777 13.5516C8.74076 13.4579 8.68653 13.4212 8.64264 13.3713C8.73474 13.3704 8.82598 13.3704 8.91894 13.3704C8.86557 13.4317 8.81479 13.4614 8.77777 13.5516Z" fill="black"/>
<path d="M6.68197 5.85074C6.66131 6.48439 6.75169 6.46776 7.10976 6.62354C7.25006 6.68043 7.21907 6.72682 7.11406 6.96662C7.03918 7.13641 7.07361 7.30707 7.20788 7.4366C7.5298 7.74555 7.56079 7.85407 7.98514 7.67115L8.02129 7.6554C8.12888 7.60902 8.16159 7.62389 8.20807 7.73504C8.27177 7.89083 8.30017 8.02999 8.54979 8.13763C8.62984 8.17177 8.69956 8.16302 8.77788 8.15951C9.16952 8.15951 9.24527 8.10788 9.39504 7.74117C9.49058 7.50662 9.58182 7.71579 9.88911 7.7578C10.1387 7.79106 10.5321 7.35783 10.5312 7.1084V7.06989C10.4254 6.82571 10.4047 6.79158 10.4236 6.67518C10.4297 6.64017 10.4968 6.62442 10.576 6.58941C10.8678 6.47038 10.9229 6.38811 10.9246 6.06954V6.02403C10.9272 5.6442 10.8798 5.57243 10.5295 5.43152L10.4899 5.41577C10.3212 5.3475 10.4546 5.20572 10.4787 5.10595C10.57 4.88453 10.545 4.75412 10.3789 4.58608L10.3092 4.51607C10.0415 4.24563 9.95539 4.229 9.60248 4.37866C9.4157 4.4583 9.43291 4.36728 9.32188 4.12485C9.25904 3.97695 9.13079 3.88943 8.96897 3.88417C8.4224 3.86579 8.36301 3.92968 8.21237 4.29552C8.16159 4.41892 8.13146 4.43205 8.00924 4.38129C7.83279 4.30514 7.63395 4.19137 7.42479 4.38741C7.40585 4.40492 7.33355 4.47843 7.31462 4.49681C7.03745 4.76987 7.01938 4.85389 7.16312 5.19347C7.17173 5.2206 7.21821 5.30462 7.19928 5.35101C7.15193 5.46741 6.69488 5.44815 6.68197 5.85074ZM7.56595 5.50417C7.66752 5.25561 7.51861 5.04469 7.47471 4.90378C7.51775 4.85127 7.65547 4.72524 7.69076 4.6806C7.72433 4.69373 7.75704 4.70861 7.79061 4.72261C7.81729 4.72524 8.33718 5.03593 8.57905 4.44955C8.61004 4.37516 8.64103 4.29814 8.6393 4.29114C8.67115 4.28064 8.79768 4.28501 8.95778 4.28326C9.00082 4.36466 9.06279 4.66573 9.31757 4.77162C9.4441 4.82501 9.59215 4.81626 9.75569 4.74799C9.82714 4.71736 9.90116 4.68586 9.9003 4.67885C9.92784 4.69373 10.112 4.8819 10.1301 4.90378C10.0922 5.02981 9.93817 5.24423 10.0466 5.50592C10.1534 5.76147 10.3978 5.79648 10.5261 5.86475C10.5304 5.91113 10.5286 6.13518 10.5252 6.17544C10.3694 6.25333 10.0819 6.3006 10.032 6.61129C9.99842 6.81784 10.0397 6.93511 10.1232 7.12416C10.0845 7.19592 9.97518 7.31407 9.91063 7.35433C9.87017 7.34296 9.82111 7.32108 9.7402 7.28694C9.42517 7.15741 9.15833 7.27031 9.02836 7.58889C8.99651 7.66503 8.96467 7.7438 8.96467 7.75167C8.92249 7.76568 8.66857 7.7508 8.70558 7.76918C8.66427 7.75167 8.63672 7.72804 8.62553 7.71404C8.60487 7.68691 8.46199 7.03139 7.86635 7.28782C7.81471 7.3097 7.72863 7.34733 7.6942 7.35783C7.66666 7.33595 7.52119 7.19242 7.47644 7.12941C7.49882 7.07865 7.51689 7.03314 7.55046 6.95087C7.67527 6.64542 7.56251 6.37586 7.25781 6.25158C7.19583 6.22708 7.11234 6.19382 7.07963 6.17719C7.07533 6.13518 7.07705 6.03454 7.07877 5.86387C7.27846 5.77723 7.47558 5.72647 7.56595 5.50417Z" fill="black"/>
<path d="M9.46533 6.69088C10.0369 6.12025 9.67105 5.08052 8.8103 5.07352C8.80772 5.07352 8.80513 5.07352 8.80255 5.07352C7.96763 5.07352 7.55619 6.087 8.13117 6.68038C8.50301 7.06459 9.10554 7.04971 9.46533 6.69088ZM8.80255 5.47436C8.80427 5.47436 8.806 5.47436 8.80686 5.47436C9.30523 5.47786 9.51353 6.07912 9.18645 6.40644C8.98417 6.60774 8.63385 6.62699 8.41522 6.40032C8.08125 6.05724 8.32398 5.47436 8.80255 5.47436Z" fill="black"/>
<path d="M1.39102 1.79854C1.19563 2.8094 1.84808 3.78787 2.84999 3.98479C3.85448 4.18171 4.82282 3.51743 5.01735 2.5127C5.21274 1.50098 4.56029 0.522506 3.55838 0.325586C2.55905 0.129542 1.58641 0.789441 1.39102 1.79854ZM3.48178 0.71855C4.2685 0.87346 4.7815 1.64188 4.62829 2.43569C4.47508 3.22774 3.71159 3.74586 2.92659 3.59182C2.14159 3.43691 1.62773 2.66674 1.78094 1.87469C1.93501 1.07651 2.70108 0.56364 3.48178 0.71855Z" fill="black"/>
<path d="M3.72112 3.11919C3.90102 3.11919 3.98882 2.89339 3.85454 2.77086L3.2985 2.26062V1.39155C3.2985 1.28128 3.20898 1.19113 3.09966 1.19113C2.99035 1.19113 2.90169 1.28128 2.90169 1.39155C2.92235 2.32364 2.85349 2.39453 2.96625 2.4978C3.56275 3.02117 3.58513 3.11919 3.72112 3.11919Z" fill="black"/>
<mask id="mask3_231_548" style="mask-type:luminance" maskUnits="userSpaceOnUse" x="12" y="0" width="5" height="5">
<path d="M12.854 0H16.1593V4.02503H12.854V0Z" fill="white"/>
</mask>
<g mask="url(#mask3_231_548)">
<path d="M15.4896 0.157772C15.302 0.00986364 15.0291 0.142894 15.0291 0.381823V1.22026L14.486 1.69199L13.9411 1.22026V0.385323C13.9411 0.146394 13.6683 0.0151147 13.4823 0.161273C12.6483 0.815921 12.6371 2.10771 13.4935 2.77111V3.62531C13.4935 3.73558 13.5822 3.82573 13.6915 3.82573C13.8017 3.82573 13.8903 3.73558 13.8903 3.62531V2.73961C13.8903 2.63196 13.8396 2.53131 13.7518 2.46567C13.1492 2.01494 13.1036 1.17388 13.5443 0.652259V1.2614C13.5443 1.34979 13.5831 1.43556 13.6536 1.49857L14.2837 2.04382C14.4008 2.14535 14.5712 2.14535 14.6891 2.04382L15.3192 1.49595C15.3872 1.43556 15.4259 1.34979 15.4259 1.2614V0.647008C15.8933 1.19663 15.7926 2.03245 15.2228 2.45692C15.135 2.52168 15.0825 2.62408 15.0825 2.73173V3.62531C15.0825 3.73558 15.1711 3.82573 15.2813 3.82573C15.3906 3.82573 15.4793 3.73558 15.4793 3.62531V2.76236C16.3168 2.11734 16.3426 0.828174 15.4896 0.157772Z" fill="black"/>
</g>
</svg>
