<svg width="143" height="143" viewBox="0 0 143 143" fill="none" xmlns="http://www.w3.org/2000/svg">
<rect width="143" height="143" fill="white"/>
<path fill-rule="evenodd" clip-rule="evenodd" d="M76.6857 31.5346C76.8855 31.8987 77.0903 32.2603 77.3002 32.6244C77.5455 33.0568 77.7983 33.4994 78.031 33.9267L78.4229 34.6272C78.7896 35.2644 78.9641 35.5678 78.9716 36.1267V36.1343C78.9792 36.6501 78.8326 36.9308 78.5569 37.4669C78.4608 37.6591 78.3294 37.9145 78.1271 38.3722C77.8337 39.0322 77.7022 39.4797 77.6112 39.7933C77.2724 40.9464 77.1662 41.2979 75.874 41.6519L74.7462 41.9477C73.8814 42.1728 72.7915 42.4535 72.0759 42.6608L72.086 47.3743C72.6448 47.5336 73.4186 47.7258 74.1342 47.9028C74.9434 48.1001 75.6869 48.2847 76.1269 48.4389C77.1737 48.803 77.3583 49.3973 77.682 50.429C77.7832 50.7552 77.9121 51.1623 78.1271 51.6504C78.294 52.0246 78.4482 52.323 78.562 52.5506L78.6075 52.6517C78.8604 53.1473 78.9893 53.4356 78.9767 53.9338C78.959 54.4951 78.7744 54.8062 78.3875 55.456L77.9703 56.1666L77.9728 56.1691L77.5278 56.9202C77.242 57.3981 76.8931 57.9822 76.6452 58.4374L79.9503 61.7525C80.3017 61.5578 80.7114 61.3125 81.0275 61.1229L81.4144 60.8902C81.9555 60.5767 82.3019 60.3617 82.5776 60.1923C83.3564 59.7118 83.7307 59.4792 84.2946 59.4236L84.3426 59.421C84.947 59.3679 85.2757 59.5399 85.8952 59.861C86.1607 59.9976 86.5198 60.1847 87.0331 60.4022L87.0711 60.4199C87.1849 60.4629 87.3644 60.516 87.5566 60.5767H87.5616C88.2292 60.7815 88.9954 61.0141 89.4784 61.4921L89.5618 61.5831C89.9816 62.0812 90.2926 63.3683 90.6087 64.6909C90.7503 65.2775 90.8919 65.8743 91.0184 66.3269L95.7445 66.3168C95.8735 65.8591 96.0176 65.2573 96.1592 64.663C96.4702 63.3683 96.7686 62.1091 97.1859 61.5983L97.282 61.4921C97.7649 61.0116 98.5235 60.779 99.2038 60.5716C99.4491 60.4957 99.6766 60.4249 99.793 60.3744C100.243 60.1771 100.554 60.0178 100.792 59.8964C101.48 59.545 101.836 59.3629 102.496 59.4337C103.09 59.4944 103.508 59.7523 104.372 60.2884C104.597 60.4275 104.878 60.5994 105.394 60.9079C105.533 60.9914 105.675 61.0698 105.809 61.1608C106.115 61.3454 106.486 61.5704 106.81 61.75L110.118 58.445C109.895 58.0429 109.594 57.5448 109.326 57.0997C109.116 56.7507 108.927 56.4372 108.739 56.0958C108.616 55.8682 108.456 55.5951 108.33 55.3751C107.963 54.743 107.786 54.442 107.781 53.8883C107.774 53.3775 107.918 53.1018 108.188 52.5885V52.586C108.297 52.371 108.449 52.0853 108.641 51.6504C108.932 50.9954 109.063 50.5504 109.157 50.2343C109.496 49.0787 109.602 48.7196 110.907 48.363L112.09 48.0545C112.94 47.8371 113.992 47.5665 114.695 47.3617L114.684 42.6558C114.161 42.5041 113.45 42.3245 112.849 42.1728C112.393 42.0565 111.989 41.9553 111.739 41.882L111.387 41.7884C111.127 41.7252 110.851 41.6569 110.641 41.5861C109.617 41.2321 109.546 40.9995 109.298 40.1524L109.24 39.9602C108.803 38.5466 108.436 37.8841 108.214 37.4871C107.991 37.0851 107.852 36.8347 107.804 36.4149L107.799 36.3593C107.738 35.6842 107.961 35.2998 108.532 34.3161C109.061 33.3957 109.559 32.4626 110.067 31.532L106.825 28.2827C106.249 28.5987 105.45 29.0665 104.924 29.3725C104.582 29.5596 104.238 29.7695 103.902 29.9668C103.197 30.384 102.868 30.5812 102.274 30.5914C101.74 30.6015 101.439 30.4472 100.875 30.1589V30.164C100.632 30.0401 100.316 29.8783 100.013 29.7442C99.3555 29.4484 98.9054 29.3169 98.5918 29.2233C97.4438 28.8895 97.0923 28.7859 96.7383 27.4811L96.4551 26.4013C96.2325 25.5415 95.9443 24.4264 95.7394 23.7108H91.0209C90.8945 24.1634 90.7503 24.7602 90.6087 25.3494C90.2977 26.6542 89.9942 27.921 89.5745 28.4293L89.4835 28.5279C89.0485 28.9629 88.1635 29.2613 87.3947 29.5217C87.0938 29.6229 86.8157 29.719 86.6842 29.7771C86.3251 29.9364 85.9938 30.1058 85.7511 30.2297L85.6752 30.2652C85.3718 30.4194 85.172 30.5155 84.8837 30.5737C84.2035 30.7153 83.9481 30.5686 83.3261 30.2095L82.8861 29.9541C82.1578 29.5318 80.7797 28.7252 79.9528 28.2776L76.6857 31.5346ZM110.209 96.1984C109.162 96.1984 108.216 96.6233 107.531 97.3085C106.853 97.9862 106.431 98.9219 106.421 99.9536V100.024C106.431 101.059 106.851 101.994 107.526 102.669H107.531C108.216 103.355 109.162 103.779 110.209 103.779C111.256 103.779 112.204 103.355 112.887 102.669L112.95 102.611C113.597 101.934 113.997 101.011 113.997 99.989C113.997 98.9421 113.572 97.9938 112.887 97.3085C112.204 96.6233 111.256 96.1984 110.209 96.1984ZM105.619 95.3968C106.792 94.221 108.418 93.4927 110.209 93.4927C112.002 93.4927 113.625 94.221 114.801 95.3968C115.974 96.5727 116.702 98.1986 116.702 99.989C116.702 101.739 116.007 103.327 114.877 104.498L114.798 104.581C113.622 105.757 111.999 106.485 110.209 106.485C108.416 106.485 106.792 105.757 105.617 104.581C104.747 103.706 104.125 102.588 103.857 101.342H85.8978C85.1493 101.342 84.5449 100.735 84.5449 99.989V78.093C81.3183 78.1081 78.1119 78.1182 74.9232 78.1182V110.068C76.1724 110.331 77.2926 110.956 78.1625 111.828C79.3383 113.004 80.064 114.63 80.064 116.42C80.064 118.213 79.3383 119.837 78.1625 121.013C76.9891 122.188 75.3657 122.917 73.5703 122.917C71.7775 122.917 70.1566 122.188 68.9808 121.013C67.8074 119.839 67.0792 118.216 67.0792 116.42C67.0792 114.628 67.8074 113.004 68.9808 111.828C69.8506 110.958 70.9708 110.334 72.22 110.068V78.1208C69.0313 78.1208 65.8249 78.1132 62.5983 78.1005V99.989C62.5983 100.735 61.9914 101.342 61.2455 101.342H43.2867C43.0211 102.591 42.3965 103.711 41.5267 104.581C40.3508 105.757 38.7274 106.485 36.9346 106.485C35.1417 106.485 33.5183 105.757 32.345 104.581C31.1691 103.405 30.4409 101.782 30.4409 99.989C30.4409 98.1936 31.1691 96.5727 32.345 95.3968C33.5183 94.221 35.1442 93.4927 36.9346 93.4927C38.7224 93.4927 40.3458 94.221 41.5241 95.3994C42.3965 96.2667 43.0211 97.3844 43.2867 98.6361H59.8951V78.0879C52.2104 78.05 44.417 77.9766 36.5148 77.8704L36.4212 77.8654V77.8704C32.8457 77.567 29.6393 75.9891 27.2598 73.5893C24.8777 71.1921 23.3226 67.9731 23.0444 64.3925C22.7663 60.8144 23.8081 57.3981 25.7881 54.662C27.5809 52.1864 30.1475 50.2697 33.2098 49.2961C33.3413 47.8523 33.7054 46.4564 34.2769 45.1567C34.9849 43.5484 36.0166 42.0792 37.324 40.8452C38.6288 39.6163 40.1536 38.6756 41.8074 38.0637C43.1096 37.5807 44.4878 37.3 45.8912 37.2444C47.0645 32.7686 49.6236 28.93 53.0424 26.1484C56.7343 23.1443 61.425 21.3742 66.4596 21.3742C68.9529 21.3742 71.3628 21.8092 73.6133 22.6108C75.5503 23.3062 77.3685 24.2747 79.0121 25.4758C79.3105 25.3089 79.6696 25.2583 80.0236 25.3544C80.6861 25.539 83.1465 26.9753 84.244 27.6176L84.555 27.7997C84.7674 27.6909 85.0608 27.5443 85.5817 27.3116C85.832 27.2004 86.1709 27.084 86.535 26.9627L87.5161 26.6339C87.5895 26.3836 87.7867 25.5618 87.9865 24.7222C88.252 23.6223 88.5225 22.4894 88.8235 21.8496C89.0232 21.3515 89.5113 21 90.0802 21H96.6877V21.0051C97.1606 21.0051 97.6208 21.2554 97.8661 21.6979C98.1569 22.2214 98.6904 24.2873 99.0622 25.7211L99.3176 26.7047L99.3277 26.6643C99.3277 26.6441 99.3302 26.6289 99.3378 26.6314C99.7323 26.7477 100.291 26.9096 101.11 27.2762C101.609 27.5013 101.884 27.6429 102.097 27.7516V27.7542C102.269 27.8452 102.097 27.8958 102.226 27.8932C102.362 27.8932 102.231 27.8123 102.526 27.6378C102.865 27.4381 103.224 27.2434 103.558 27.0335C104.405 26.5378 105.905 25.6629 106.588 25.4025C107.076 25.2027 107.66 25.3013 108.057 25.7009L112.682 30.3334C113.091 30.7481 113.2 31.3955 112.909 31.9316C112.232 33.1757 111.569 34.4375 110.861 35.6639C110.613 36.0963 110.474 35.9471 110.482 36.0913L110.484 36.1039C110.494 36.2 110.51 36.0685 110.568 36.1722C110.833 36.6552 111.276 37.4517 111.794 39.1055L112.474 39.28C112.72 39.3508 113.086 39.4443 113.498 39.548C114.598 39.8262 116.004 40.1827 116.616 40.4912C117.064 40.7112 117.372 41.1689 117.372 41.7025L117.388 48.2316C117.418 48.7474 117.147 49.2607 116.659 49.5111C116.103 49.7993 114.171 50.295 112.755 50.6591L112.373 50.7603C114.209 51.7793 115.802 53.1802 117.046 54.8542C118.612 56.9581 119.626 59.502 119.878 62.2734C120.205 65.8465 119.218 69.2779 117.281 72.0418C115.344 74.8107 112.457 76.9146 108.99 77.8274C108.853 77.8603 108.719 77.8755 108.588 77.8704C101.384 77.9665 94.2728 78.0348 87.2506 78.0753V98.6336H103.857C104.125 97.3869 104.749 96.2667 105.619 95.3968ZM85.6601 75.3847C81.3385 75.405 76.9816 75.4151 72.5892 75.4151C68.8796 75.4151 65.1928 75.4075 61.5287 75.3923C61.4351 75.3746 61.3441 75.362 61.2455 75.362C61.1544 75.362 61.0634 75.3721 60.9749 75.3898C52.7364 75.3544 44.6218 75.2861 36.6412 75.1748C33.7231 74.9296 31.1084 73.6424 29.1715 71.6878C27.2319 69.7356 25.9625 67.1133 25.7375 64.1927C25.5099 61.267 26.357 58.4778 27.9754 56.2475C29.5912 54.0147 31.9758 52.3382 34.818 51.6453C35.4452 51.4936 35.8624 50.9246 35.8497 50.3051C35.8776 48.8991 36.1886 47.521 36.75 46.2465C37.3139 44.9619 38.1357 43.7912 39.1725 42.8126C40.2168 41.8289 41.4356 41.0779 42.7455 40.5898C44.0579 40.1018 45.4689 39.8767 46.9002 39.94C47.5703 39.9703 48.1468 39.5025 48.2783 38.8678C49.176 34.5614 51.5226 30.8619 54.7442 28.2422C57.9607 25.625 62.0572 24.0825 66.4596 24.0825C68.6419 24.0825 70.7458 24.4593 72.703 25.1597C74.2455 25.711 75.6995 26.462 77.0271 27.3824L74.0786 30.3258C73.6361 30.7633 73.5653 31.4334 73.8611 31.9493C74.243 32.7104 74.5945 33.3274 74.9535 33.9545C75.1761 34.3465 75.4037 34.7435 75.6565 35.2113V35.2138C75.8108 35.497 75.96 35.7575 76.0788 35.9674C76.2154 36.2076 76.2761 36.0179 76.2786 36.1697C76.2786 36.3037 76.2356 36.0963 76.1597 36.2405C76.0207 36.511 75.8386 36.8701 75.654 37.2823C75.3025 38.0763 75.1381 38.6351 75.0193 39.0322C75.0168 39.0473 75.0446 39.0499 75.0775 39.0499L75.123 39.0625L74.0685 39.3381C72.6373 39.7048 70.6573 40.2181 70.101 40.5089C69.6332 40.7517 69.3702 41.2321 69.3778 41.7252L69.3929 48.3125C69.3929 48.841 69.6964 49.2987 70.1389 49.5187C70.7964 49.855 72.2251 50.209 73.4894 50.52C74.2455 50.7046 74.9384 50.8791 75.2368 50.9828C75.4745 51.0637 75.037 51.0207 75.1027 51.2281C75.2266 51.6251 75.3834 52.1207 75.654 52.7352C75.8689 53.2156 76.0282 53.5317 76.1521 53.7719L76.2432 53.9237C76.2103 53.9287 76.1521 53.9312 76.0738 54.0703L76.0308 54.1437C75.9119 54.3434 75.7728 54.5786 75.6211 54.8466L75.6161 54.8441C75.4745 55.097 75.3531 55.2993 75.214 55.5344C74.6678 56.4473 73.9244 57.6914 73.7372 58.3691C73.6032 58.8571 73.7549 59.3553 74.0862 59.6866L78.7036 64.3166C79.0627 64.6782 79.5735 64.792 80.0286 64.6656C80.6406 64.4911 81.7026 63.8564 82.4056 63.4391L82.7773 63.2192C83.2376 62.9486 83.6599 62.6881 83.9936 62.4808C84.4134 62.2228 84.5095 62.1091 84.5601 62.104L84.5727 62.1015C84.6941 62.0939 84.4943 62.1697 84.6612 62.2557C84.9647 62.4125 85.3743 62.6249 85.9787 62.8803L86.0722 62.9208C86.2796 63.0017 86.5198 63.0775 86.7727 63.1559L87.5186 63.3835C87.5869 63.6263 87.7867 64.4607 87.9915 65.3129C88.2773 66.5039 88.5731 67.7278 88.8968 68.3221C89.1471 68.7848 89.6301 69.0402 90.1232 69.025L96.6877 69.0073C97.1935 69.0073 97.6309 68.7317 97.8661 68.3221C98.2024 67.7202 98.4957 66.4862 98.7815 65.2851C98.9812 64.4532 99.1759 63.6389 99.2518 63.381L100 63.1483C100.316 63.0523 100.615 62.9612 100.875 62.8474C101.358 62.635 101.732 62.4428 102.023 62.2962C102.236 62.1874 102.102 62.104 102.223 62.1166C102.241 62.1192 102.453 62.2658 102.961 62.5819C103.439 62.8752 103.927 63.1939 104.42 63.4644C105.121 63.8893 106.135 64.4936 106.739 64.663C107.248 64.8046 107.768 64.6378 108.102 64.2736L112.687 59.6941C113.046 59.3351 113.162 58.8268 113.036 58.3691C112.844 57.6914 112.189 56.6066 111.642 55.7064C111.407 55.3119 111.187 54.9503 111.106 54.8036C110.891 54.4092 110.768 54.1942 110.666 54.0223C110.537 53.7972 110.479 54.0172 110.477 53.8554C110.474 53.6935 110.512 53.9489 110.575 53.8377C110.679 53.6404 110.813 53.3901 110.965 53.0639C112.507 53.8984 113.845 55.0641 114.884 56.4625C116.161 58.182 116.991 60.258 117.198 62.5162C117.466 65.4394 116.659 68.2411 115.076 70.5018C113.526 72.7195 111.22 74.4137 108.454 75.1774C101.121 75.276 93.6735 75.3443 86.1253 75.3822C86.052 75.3695 85.9761 75.362 85.9003 75.362C85.8168 75.3645 85.7384 75.3695 85.6601 75.3847ZM76.2508 113.74C75.5731 113.062 74.64 112.64 73.6058 112.63H73.5375C72.5032 112.64 71.5701 113.062 70.8925 113.74C70.2072 114.425 69.7824 115.374 69.7824 116.42C69.7824 117.467 70.2072 118.416 70.8925 119.101C71.5777 119.786 72.5235 120.211 73.5703 120.211C74.6147 120.211 75.5655 119.786 76.2482 119.101C76.9335 118.416 77.3583 117.467 77.3583 116.42C77.3583 115.376 76.936 114.425 76.2508 113.74ZM39.615 97.306C38.9322 96.6233 37.984 96.201 36.9371 96.201C35.8902 96.201 34.9419 96.6258 34.2567 97.3111C33.5714 97.9963 33.1466 98.9446 33.1466 99.9915C33.1466 101.036 33.5714 101.984 34.2567 102.669C34.9419 103.355 35.8902 103.779 36.9371 103.779C37.9814 103.779 38.9297 103.355 39.615 102.669C40.2927 101.992 40.715 101.059 40.7251 100.024V99.9561C40.715 98.9244 40.2927 97.9888 39.615 97.3111V97.306ZM93.3852 33.5171C96.5537 33.5171 99.4288 34.8042 101.512 36.8878C103.596 38.9664 104.881 41.8441 104.881 45.0201C104.881 48.1886 103.596 51.0612 101.515 53.1473L101.507 53.1499C99.4238 55.2335 96.5512 56.5206 93.3852 56.5206C90.2092 56.5206 87.3341 55.2335 85.2529 53.1499C83.1743 51.0637 81.8847 48.1886 81.8847 45.0201C81.8847 41.8441 83.1718 38.9664 85.2529 36.8853C87.3341 34.8042 90.2092 33.5171 93.3852 33.5171ZM99.6033 38.7919V38.797C101.194 40.3875 102.178 42.5875 102.178 45.0201C102.178 47.4527 101.196 49.6502 99.6084 51.2382L99.6033 51.2432C98.0153 52.8313 95.8178 53.8149 93.3852 53.8149C90.9552 53.8149 88.7577 52.8287 87.1672 51.2382H87.1621C85.5741 49.6502 84.5929 47.4502 84.5929 45.0176C84.5929 42.5875 85.5766 40.3875 87.1672 38.797C88.7577 37.2039 90.9577 36.2202 93.3878 36.2202C95.8178 36.2202 98.0153 37.2039 99.6033 38.7919ZM75.166 39.0524L75.1255 39.065L75.08 39.0524C75.1584 39.0473 75.2772 39.022 75.166 39.0524ZM99.3353 26.773L99.3176 26.7098L99.3277 26.6693C99.3302 26.7401 99.3656 26.8868 99.3353 26.773Z" fill="url(#paint0_linear_54_120)"/>
<defs>
<linearGradient id="paint0_linear_54_120" x1="71.47" y1="21" x2="71.47" y2="122.917" gradientUnits="userSpaceOnUse">
<stop stop-color="#13FEFE"/>
<stop offset="1" stop-color="#030F47"/>
</linearGradient>
</defs>
</svg>
