<svg width="137" height="92" viewBox="0 0 137 92" fill="none" xmlns="http://www.w3.org/2000/svg">
<mask id="mask0_144_581" style="mask-type:luminance" maskUnits="userSpaceOnUse" x="0" y="14" width="11" height="11">
<path d="M0 14.1454H10.3753V24.8421H0V14.1454Z" fill="white"/>
</mask>
<g mask="url(#mask0_144_581)">
<path d="M8.19607 19.7027C8.19607 19.9181 8.17679 20.1334 8.13179 20.3423C8.09 20.5545 8.02894 20.7602 7.94537 20.9594C7.8618 21.1587 7.76216 21.3484 7.64324 21.5283C7.5211 21.7051 7.3861 21.8723 7.23183 22.0233C7.08076 22.1776 6.91362 22.3126 6.73363 22.4347C6.55364 22.5537 6.364 22.6533 6.16473 22.7369C5.96545 22.8204 5.75974 22.8815 5.54761 22.9233C5.33547 22.9651 5.12334 22.9876 4.90799 22.9876C4.68943 22.9876 4.4773 22.9651 4.26516 22.9233C4.05303 22.8815 3.84732 22.8204 3.64804 22.7369C3.44877 22.6533 3.25913 22.5537 3.07914 22.4347C2.89915 22.3126 2.73201 22.1776 2.58095 22.0233C2.42667 21.8723 2.29167 21.7051 2.16953 21.5283C2.05061 21.3484 1.95097 21.1587 1.8674 20.9594C1.78384 20.7602 1.72277 20.5545 1.68098 20.3423C1.6392 20.1334 1.6167 19.9181 1.6167 19.7027C1.6167 19.4874 1.6392 19.2752 1.68098 19.0631C1.72277 18.851 1.78384 18.6453 1.8674 18.446C1.95097 18.2467 2.05061 18.0571 2.16953 17.8771C2.29167 17.7003 2.42667 17.5332 2.58095 17.3821C2.73201 17.2278 2.89915 17.0928 3.07914 16.9739C3.25913 16.8518 3.44877 16.7521 3.64804 16.6686C3.84732 16.5882 4.05303 16.5239 4.26516 16.4821C4.4773 16.4403 4.68943 16.4178 4.90799 16.4178C5.12334 16.4178 5.33547 16.4403 5.54761 16.4821C5.75974 16.5239 5.96545 16.5882 6.16473 16.6686C6.364 16.7521 6.55364 16.8518 6.73363 16.9739C6.91362 17.0928 7.08076 17.2278 7.23183 17.3821C7.3861 17.5332 7.5211 17.7003 7.64324 17.8771C7.76216 18.0571 7.8618 18.2467 7.94537 18.446C8.02894 18.6453 8.09 18.851 8.13179 19.0631C8.17679 19.2752 8.19607 19.4874 8.19607 19.7027Z" stroke="black" stroke-width="3" stroke-linecap="round" stroke-linejoin="round"/>
</g>
<path d="M11.3267 43.571C11.3267 43.7864 11.3042 43.9985 11.2624 44.2106C11.2206 44.4228 11.1596 44.6285 11.076 44.8245C10.9924 45.0238 10.8928 45.2135 10.7706 45.3935C10.6517 45.5734 10.5167 45.7406 10.3624 45.8916C10.2082 46.0427 10.0442 46.1809 9.86425 46.2998C9.68425 46.4188 9.49462 46.5216 9.29534 46.602C9.09606 46.6855 8.89036 46.7466 8.67822 46.7916C8.46609 46.8334 8.25074 46.8527 8.03539 46.8527C7.82005 46.8527 7.6047 46.8334 7.39578 46.7916C7.18364 46.7466 6.97794 46.6855 6.77545 46.602C6.57617 46.5216 6.38653 46.4188 6.20975 46.2998C6.02976 46.1809 5.86263 46.0427 5.70835 45.8916C5.55728 45.7406 5.41907 45.5734 5.30015 45.3935C5.18123 45.2135 5.07837 45.0238 4.99802 44.8245C4.91445 44.6285 4.85017 44.4228 4.80838 44.2106C4.7666 43.9985 4.74731 43.7864 4.74731 43.571C4.74731 43.3525 4.7666 43.1403 4.80838 42.9282C4.85017 42.7161 4.91445 42.5136 4.99802 42.3143C5.07837 42.115 5.18123 41.9254 5.30015 41.7454C5.41907 41.5654 5.55728 41.4015 5.70835 41.2472C5.86263 41.0961 6.02976 40.9579 6.20975 40.839C6.38653 40.7201 6.57617 40.6172 6.77545 40.5369C6.97794 40.4533 7.18364 40.3922 7.39578 40.3504C7.6047 40.3055 7.82005 40.2862 8.03539 40.2862C8.25074 40.2862 8.46609 40.3055 8.67822 40.3504C8.89036 40.3922 9.09606 40.4533 9.29534 40.5369C9.49462 40.6172 9.68425 40.7201 9.86425 40.839C10.0442 40.9579 10.2082 41.0961 10.3624 41.2472C10.5167 41.4015 10.6517 41.5654 10.7706 41.7454C10.8928 41.9254 10.9924 42.115 11.076 42.3143C11.1596 42.5136 11.2206 42.7161 11.2624 42.9282C11.3042 43.1403 11.3267 43.3525 11.3267 43.571Z" stroke="black" stroke-width="3" stroke-linecap="round" stroke-linejoin="round"/>
<path d="M13.4126 65.3534C13.4126 65.5687 13.3901 65.7841 13.3483 65.993C13.3066 66.2051 13.2455 66.4108 13.1619 66.6101C13.0784 66.8094 12.9787 66.999 12.8566 67.179C12.7377 67.359 12.6027 67.5229 12.4484 67.6772C12.2973 67.8283 12.1302 67.9633 11.9502 68.0854C11.7702 68.2043 11.5806 68.304 11.3813 68.3875C11.182 68.4711 10.9763 68.5322 10.7642 68.5739C10.552 68.6157 10.3399 68.6382 10.1213 68.6382C9.90598 68.6382 9.69385 68.6157 9.48171 68.5739C9.26958 68.5322 9.06387 68.4711 8.8646 68.3875C8.66211 68.304 8.47568 68.2043 8.29569 68.0854C8.1157 67.9633 7.94856 67.8283 7.7975 67.6772C7.64322 67.5229 7.50822 67.359 7.38609 67.179C7.26716 66.999 7.16431 66.8094 7.08396 66.6101C7.00039 66.4108 6.93611 66.2051 6.89432 65.993C6.85254 65.7841 6.83325 65.5687 6.83325 65.3534C6.83325 65.138 6.85254 64.9259 6.89432 64.7138C6.93611 64.5016 7.00039 64.2959 7.08396 64.0966C7.16431 63.8974 7.26716 63.7077 7.38609 63.5309C7.50822 63.3509 7.64322 63.1838 7.7975 63.0327C7.94856 62.8785 8.1157 62.7435 8.29569 62.6245C8.47568 62.5024 8.66211 62.4028 8.8646 62.3192C9.06387 62.2389 9.26958 62.1746 9.48171 62.1328C9.69385 62.091 9.90598 62.0717 10.1213 62.0717C10.3399 62.0717 10.552 62.091 10.7642 62.1328C10.9763 62.1746 11.182 62.2389 11.3813 62.3192C11.5806 62.4028 11.7702 62.5024 11.9502 62.6245C12.1302 62.7435 12.2973 62.8785 12.4484 63.0327C12.6027 63.1838 12.7377 63.3509 12.8566 63.5309C12.9787 63.7077 13.0784 63.8974 13.1619 64.0966C13.2455 64.2959 13.3066 64.5016 13.3483 64.7138C13.3901 64.9259 13.4126 65.138 13.4126 65.3534Z" stroke="black" stroke-width="3" stroke-linecap="round" stroke-linejoin="round"/>
<mask id="mask1_144_581" style="mask-type:luminance" maskUnits="userSpaceOnUse" x="24" y="0" width="89" height="92">
<path d="M24.3633 0H112.405V91.9504H24.3633V0Z" fill="white"/>
</mask>
<g mask="url(#mask1_144_581)">
<path d="M68.5386 1.60382C68.5386 1.60382 56.5016 15.5372 26.7322 13.6955C26.7322 13.6955 24.2444 84.4936 68.5386 90.3401C112.833 84.4936 110.425 13.6955 110.425 13.6955C80.656 15.5372 68.5386 1.60382 68.5386 1.60382Z" stroke="black" stroke-width="3" stroke-linecap="round" stroke-linejoin="round"/>
</g>
<path fill-rule="evenodd" clip-rule="evenodd" d="M68.5513 9.87384C66.3046 11.4745 63.7365 12.9176 61.5702 13.959C52.8245 18.2017 43.0342 19.8859 33.3242 20.0434C33.4046 22.9265 33.6456 25.89 33.8867 28.6156C34.9313 38.7048 37.0173 49.3565 40.9482 58.7289C46.2451 71.2223 54.5891 81.3116 68.5513 83.4747C75.2914 82.4333 81.0705 79.5502 85.9656 74.6647C90.459 70.1809 93.7471 64.5755 96.2348 58.7289C100.169 49.3565 102.255 38.7048 103.216 28.6156C103.537 25.89 103.778 22.9265 103.859 20.0434C94.1489 19.8859 84.3585 18.2017 75.5325 13.959C73.3661 12.9176 70.8784 11.4745 68.5513 9.87384Z" stroke="black" stroke-width="3" stroke-linecap="round" stroke-linejoin="round"/>
<path fill-rule="evenodd" clip-rule="evenodd" d="M71.3478 24.4276C71.7495 24.8293 72.5499 24.9901 73.3534 26.43L89.241 53.9013C91.327 57.5044 88.9195 62.3899 84.4262 62.3899H52.7314C48.238 62.3899 45.8306 57.5044 47.9166 53.9013C49.9222 50.2983 63.4024 26.5103 64.688 25.2279C66.4526 23.5469 69.1814 23.2255 71.3478 24.4276Z" stroke="black" stroke-width="3" stroke-linecap="round" stroke-linejoin="round"/>
<path d="M65.6492 32.2765H71.5086L70.1426 47.4152H67.0152L65.6492 32.2765Z" stroke="black" stroke-width="3" stroke-linecap="round" stroke-linejoin="round"/>
<path d="M71.0263 54.782C71.0263 55.1098 70.962 55.428 70.8367 55.7334C70.7113 56.0355 70.5313 56.3055 70.2967 56.5369C70.0653 56.7715 69.7953 56.9483 69.4899 57.0769C69.1846 57.2022 68.8696 57.2633 68.5385 57.2633C68.2107 57.2633 67.8925 57.2022 67.5871 57.0769C67.2818 56.9483 67.0118 56.7715 66.7804 56.5369C66.5458 56.3055 66.3658 56.0355 66.2404 55.7334C66.1151 55.428 66.0508 55.1098 66.0508 54.782C66.0508 54.4541 66.1151 54.1359 66.2404 53.8306C66.3658 53.5285 66.5458 53.2585 66.7804 53.0271C67.0118 52.7924 67.2818 52.6156 67.5871 52.4871C67.8925 52.3617 68.2107 52.3007 68.5385 52.3007C68.8696 52.3007 69.1846 52.3617 69.4899 52.4871C69.7953 52.6156 70.0653 52.7924 70.2967 53.0271C70.5313 53.2585 70.7113 53.5285 70.8367 53.8306C70.962 54.1359 71.0263 54.4541 71.0263 54.782Z" stroke="black" stroke-width="3" stroke-linecap="round" stroke-linejoin="round"/>
<path d="M27.4552 29.7148H14.4539L6.9939 22.2644" stroke="black" stroke-width="3" stroke-linecap="round" stroke-linejoin="round"/>
<path d="M29.5413 43.571H11.3267" stroke="black" stroke-width="3" stroke-linecap="round" stroke-linejoin="round"/>
<path d="M32.6718 55.3413H19.6705L12.2073 62.7917" stroke="black" stroke-width="3" stroke-linecap="round" stroke-linejoin="round"/>
<path d="M109.542 29.7148H122.462L130.006 22.2644" stroke="black" stroke-width="3" stroke-linecap="round" stroke-linejoin="round"/>
<mask id="mask2_144_581" style="mask-type:luminance" maskUnits="userSpaceOnUse" x="126" y="14" width="11" height="11">
<path d="M126.393 14.1454H137V24.8421H126.393V14.1454Z" fill="white"/>
</mask>
<g mask="url(#mask2_144_581)">
<path d="M135.38 19.7027C135.38 19.9181 135.361 20.1334 135.319 20.3423C135.277 20.5545 135.213 20.7602 135.129 20.9594C135.049 21.1587 134.946 21.3484 134.827 21.5283C134.708 21.7051 134.57 21.8723 134.419 22.0233C134.265 22.1776 134.098 22.3126 133.918 22.4347C133.741 22.5537 133.551 22.6533 133.349 22.7369C133.15 22.8204 132.944 22.8815 132.732 22.9233C132.523 22.9651 132.307 22.9876 132.092 22.9876C131.877 22.9876 131.661 22.9651 131.449 22.9233C131.237 22.8815 131.031 22.8204 130.832 22.7369C130.633 22.6533 130.443 22.5537 130.263 22.4347C130.083 22.3126 129.919 22.1776 129.765 22.0233C129.611 21.8723 129.476 21.7051 129.357 21.5283C129.235 21.3484 129.135 21.1587 129.051 20.9594C128.968 20.7602 128.907 20.5545 128.865 20.3423C128.823 20.1334 128.801 19.9181 128.801 19.7027C128.801 19.4874 128.823 19.2752 128.865 19.0631C128.907 18.851 128.968 18.6453 129.051 18.446C129.135 18.2467 129.235 18.0571 129.357 17.8771C129.476 17.7003 129.611 17.5332 129.765 17.3821C129.919 17.2278 130.083 17.0928 130.263 16.9739C130.443 16.8518 130.633 16.7521 130.832 16.6686C131.031 16.5882 131.237 16.5239 131.449 16.4821C131.661 16.4403 131.877 16.4178 132.092 16.4178C132.307 16.4178 132.523 16.4403 132.732 16.4821C132.944 16.5239 133.15 16.5882 133.349 16.6686C133.551 16.7521 133.741 16.8518 133.918 16.9739C134.098 17.0928 134.265 17.2278 134.419 17.3821C134.57 17.5332 134.708 17.7003 134.827 17.8771C134.946 18.0571 135.049 18.2467 135.129 18.446C135.213 18.6453 135.277 18.851 135.319 19.0631C135.361 19.2752 135.38 19.4874 135.38 19.7027Z" stroke="black" stroke-width="3" stroke-linecap="round" stroke-linejoin="round"/>
</g>
<path d="M107.375 43.571H125.673" stroke="black" stroke-width="3" stroke-linecap="round" stroke-linejoin="round"/>
<path d="M132.253 43.571C132.253 43.7864 132.23 43.9985 132.188 44.2106C132.147 44.4228 132.086 44.6285 132.002 44.8245C131.918 45.0238 131.819 45.2135 131.697 45.3935C131.578 45.5734 131.44 45.7406 131.288 45.8916C131.134 46.0427 130.97 46.1809 130.79 46.2998C130.61 46.4188 130.421 46.5216 130.221 46.602C130.022 46.6855 129.816 46.7466 129.604 46.7916C129.392 46.8334 129.177 46.8527 128.961 46.8527C128.746 46.8527 128.531 46.8334 128.319 46.7916C128.11 46.7466 127.901 46.6855 127.701 46.602C127.502 46.5216 127.313 46.4188 127.133 46.2998C126.956 46.1809 126.789 46.0427 126.634 45.8916C126.483 45.7406 126.345 45.5734 126.226 45.3935C126.107 45.2135 126.004 45.0238 125.921 44.8245C125.84 44.6285 125.776 44.4228 125.734 44.2106C125.693 43.9985 125.673 43.7864 125.673 43.571C125.673 43.3525 125.693 43.1403 125.734 42.9282C125.776 42.7161 125.84 42.5136 125.921 42.3143C126.004 42.115 126.107 41.9254 126.226 41.7454C126.345 41.5654 126.483 41.4015 126.634 41.2472C126.789 41.0961 126.956 40.9579 127.133 40.839C127.313 40.7201 127.502 40.6172 127.701 40.5369C127.901 40.4533 128.11 40.3922 128.319 40.3504C128.531 40.3055 128.746 40.2862 128.961 40.2862C129.177 40.2862 129.392 40.3055 129.604 40.3504C129.816 40.3922 130.022 40.4533 130.221 40.5369C130.421 40.6172 130.61 40.7201 130.79 40.839C130.97 40.9579 131.134 41.0961 131.288 41.2472C131.44 41.4015 131.578 41.5654 131.697 41.7454C131.819 41.9254 131.918 42.115 132.002 42.3143C132.086 42.5136 132.147 42.7161 132.188 42.9282C132.23 43.1403 132.253 43.3525 132.253 43.571Z" stroke="black" stroke-width="3" stroke-linecap="round" stroke-linejoin="round"/>
<path d="M104.328 55.3413H117.246L124.789 62.7917" stroke="black" stroke-width="3" stroke-linecap="round" stroke-linejoin="round"/>
<path d="M130.167 65.3534C130.167 65.5687 130.144 65.7841 130.103 65.993C130.061 66.2051 129.996 66.4108 129.916 66.6101C129.833 66.8094 129.73 66.999 129.611 67.179C129.492 67.359 129.354 67.5229 129.203 67.6772C129.048 67.8283 128.884 67.9633 128.704 68.0854C128.524 68.2043 128.335 68.304 128.135 68.3875C127.936 68.4711 127.73 68.5322 127.518 68.5739C127.306 68.6157 127.091 68.6382 126.876 68.6382C126.66 68.6382 126.445 68.6157 126.233 68.5739C126.021 68.5322 125.815 68.4711 125.616 68.3875C125.416 68.304 125.227 68.2043 125.047 68.0854C124.867 67.9633 124.703 67.8283 124.548 67.6772C124.397 67.5229 124.259 67.359 124.14 67.179C124.021 66.999 123.919 66.8094 123.835 66.6101C123.755 66.4108 123.69 66.2051 123.649 65.993C123.607 65.7841 123.584 65.5687 123.584 65.3534C123.584 65.138 123.607 64.9259 123.649 64.7138C123.69 64.5016 123.755 64.2959 123.835 64.0966C123.919 63.8974 124.021 63.7077 124.14 63.5309C124.259 63.3509 124.397 63.1838 124.548 63.0327C124.703 62.8785 124.867 62.7435 125.047 62.6245C125.227 62.5024 125.416 62.4028 125.616 62.3192C125.815 62.2389 126.021 62.1746 126.233 62.1328C126.445 62.091 126.66 62.0717 126.876 62.0717C127.091 62.0717 127.306 62.091 127.518 62.1328C127.73 62.1746 127.936 62.2389 128.135 62.3192C128.335 62.4028 128.524 62.5024 128.704 62.6245C128.884 62.7435 129.048 62.8785 129.203 63.0327C129.354 63.1838 129.492 63.3509 129.611 63.5309C129.73 63.7077 129.833 63.8974 129.916 64.0966C129.996 64.2959 130.061 64.5016 130.103 64.7138C130.144 64.9259 130.167 65.138 130.167 65.3534Z" stroke="black" stroke-width="3" stroke-linecap="round" stroke-linejoin="round"/>
</svg>
