<svg width="43" height="53" viewBox="0 0 43 53" fill="none" xmlns="http://www.w3.org/2000/svg">
<mask id="mask0_161_619" style="mask-type:luminance" maskUnits="userSpaceOnUse" x="0" y="0" width="43" height="53">
<path d="M0 0H42.2318V52.7338H0V0Z" fill="white"/>
</mask>
<g mask="url(#mask0_161_619)">
<path d="M21.1219 6.22903C12.9471 6.22903 6.29536 12.8926 6.29536 21.0835C6.29536 29.2745 12.9471 35.9395 21.1219 35.9395C29.2966 35.9395 35.9469 29.276 35.9469 21.085C35.9469 12.894 29.2966 6.22903 21.1219 6.22903ZM21.1219 34.6271C13.6688 34.6271 7.6048 28.5528 7.6048 21.085C7.6048 13.6173 13.6688 7.53994 21.1219 7.53994C28.5734 7.53994 34.6375 13.6158 34.6375 21.0835C34.6375 28.5513 28.5734 34.6271 21.1219 34.6271ZM41.5352 19.5708L38.5967 16.3937L39.5556 12.1694C39.8119 11.0411 39.1476 9.88927 38.0444 9.54754L33.9157 8.2661L32.6372 4.13011C32.2955 3.02394 31.1466 2.35817 30.0198 2.61446L25.8043 3.57481L22.6346 0.6319C21.7862 -0.154644 20.4576 -0.154644 19.6106 0.6319L16.4409 3.57481L12.2254 2.61446C11.0986 2.35817 9.9497 3.02394 9.60798 4.13011L8.32948 8.2661L4.20086 9.54754C3.09763 9.88927 2.43334 11.0411 2.68963 12.1694L3.64851 16.3937L0.710013 19.5708C-0.0735851 20.4192 -0.0735851 21.7508 0.710013 22.5992L3.64851 25.7763L2.68963 29.9992C2.43334 31.1274 3.09763 32.2807 4.20086 32.6225L8.32948 33.9024L9.07773 36.3239L3.8503 47.5521C3.73983 47.7892 3.78254 48.0706 3.95488 48.2665C4.13016 48.4609 4.40412 48.5345 4.65157 48.4506L10.6228 46.4444L12.928 52.317C13.0237 52.5615 13.255 52.725 13.5171 52.7338C13.5245 52.7338 13.5304 52.7338 13.5378 52.7338C13.7926 52.7338 14.0238 52.5851 14.1314 52.3553L19.2999 41.2494L19.6106 41.5381C20.0349 41.9314 20.5798 42.1273 21.1233 42.1273C21.6654 42.1273 22.2104 41.9299 22.6346 41.5381L22.9454 41.2494L28.1139 52.3553C28.2214 52.5866 28.4526 52.7338 28.7075 52.7338C28.7134 52.7338 28.7207 52.7338 28.7281 52.7338C28.9903 52.725 29.2215 52.5615 29.3173 52.317L31.6224 46.4444L37.5937 48.4506C37.8411 48.5331 38.1165 48.4609 38.2903 48.2665C38.4641 48.0706 38.5054 47.7892 38.3949 47.5521L33.169 36.3239L33.9157 33.9024L38.0458 32.6225C39.1491 32.2807 39.8134 31.1274 39.5571 29.9992L38.5982 25.7763L41.5352 22.5992C42.3188 21.7493 42.3188 20.4192 41.5352 19.5708ZM13.5878 50.4169L11.6141 45.3854C11.486 45.0599 11.128 44.892 10.7966 45.0039L5.68115 46.7213L9.65659 38.1813C10.0484 39.202 11.1457 39.803 12.2239 39.557L16.4394 38.5967L18.2909 40.3141L13.5878 50.4169ZM31.4456 45.0039C31.1157 44.892 30.7563 45.0599 30.6282 45.3854L28.6544 50.4169L23.9528 40.3141L25.8043 38.5967L30.0198 39.557C31.098 39.803 32.1939 39.202 32.5872 38.1813L36.5626 46.7213L31.4456 45.0039ZM40.5734 21.7066L37.4022 25.137C37.2549 25.2961 37.196 25.5185 37.2431 25.7292L38.2771 30.2893C38.3846 30.7622 38.118 31.2247 37.6555 31.369L33.197 32.7521C32.9907 32.8154 32.8302 32.9774 32.7654 33.1851L31.3853 37.6525C31.2424 38.115 30.7799 38.3816 30.3085 38.2756L25.7572 37.2386C25.5466 37.19 25.3256 37.2489 25.1665 37.3977L21.742 40.5748C21.3885 40.9047 20.8538 40.9047 20.4988 40.5748L17.0743 37.3977C16.952 37.2828 16.7929 37.2224 16.6294 37.2224C16.5808 37.2224 16.5322 37.2283 16.4836 37.2386L11.9323 38.2756C11.4609 38.3816 10.9984 38.115 10.8556 37.6525L9.47542 33.1851C9.41061 32.9774 9.25006 32.8154 9.04385 32.7521L4.58382 31.369C4.12279 31.2247 3.85472 30.7622 3.96224 30.2893L4.99624 25.7292C5.04485 25.5185 4.98593 25.2976 4.83864 25.137L1.66594 21.7066C1.33748 21.3516 1.33748 20.8155 1.66594 20.462L4.83864 17.03C4.98593 16.8724 5.04485 16.65 4.99624 16.4394L3.96224 11.8792C3.85472 11.4064 4.12279 10.9424 4.58382 10.7995L9.04238 9.41645C9.24859 9.35312 9.41061 9.1911 9.47395 8.98341L10.8556 4.51602C10.9984 4.05352 11.4609 3.78544 11.9323 3.89297L16.4836 4.92991C16.6942 4.97852 16.9137 4.91813 17.0728 4.77083L20.4988 1.59225C20.8538 1.26379 21.3885 1.26379 21.742 1.59225L25.1665 4.77083C25.3241 4.91813 25.5466 4.97852 25.7572 4.92991L30.3085 3.89297C30.7799 3.78544 31.2424 4.05352 31.3853 4.51602L32.7654 8.98341C32.8302 9.1911 32.9907 9.35165 33.197 9.41645L37.657 10.7995C38.118 10.9424 38.3861 11.4064 38.2786 11.8792L37.2446 16.4394C37.196 16.65 37.2549 16.871 37.4022 17.03L40.5749 20.462C40.9019 20.8169 40.9019 21.3531 40.5734 21.7066ZM27.1638 14.4082C27.0401 14.2683 26.8619 14.1873 26.6748 14.1873H15.5675C15.3804 14.1873 15.2036 14.2683 15.0784 14.4082L11.1118 18.8712C11.0691 18.9213 11.0323 18.9772 11.0028 19.0391C10.8968 19.2748 10.9395 19.5502 11.1118 19.7446L20.6299 30.4617C20.7551 30.6016 20.9333 30.6811 21.1189 30.6811C21.306 30.6811 21.4842 30.6016 21.6079 30.4617L31.1275 19.7446C31.2983 19.5502 31.3411 19.2748 31.235 19.0391C31.2085 18.9772 31.1702 18.9213 31.126 18.8712L27.1638 14.4082ZM29.1817 18.6532H25.4258L24.296 15.5011H26.3817L29.1817 18.6532ZM18.2202 19.9656H24.0235L21.1219 27.753L18.2202 19.9656ZM18.2084 18.6532L19.3382 15.5011H22.9026L24.0339 18.6532H18.2084ZM15.862 15.4997H17.9492L16.818 18.6517H13.062L15.862 15.4997ZM16.8224 19.9656L19.5399 27.2581L13.0605 19.9656H16.8224ZM22.7038 27.2581L25.4214 19.9656H29.1817L22.7038 27.2581Z" fill="black"/>
</g>
</svg>
